<?xml version="1.0" encoding="utf-8"?>
<!-- Generator: Adobe Illustrator 17.0.2, SVG Export Plug-In . SVG Version: 6.00 Build 0)  -->
<!DOCTYPE svg PUBLIC "-//W3C//DTD SVG 1.1//EN" "http://www.w3.org/Graphics/SVG/1.1/DTD/svg11.dtd">
<svg version="1.1" id="Layer_1" xmlns="http://www.w3.org/2000/svg" xmlns:xlink="http://www.w3.org/1999/xlink" x="0px" y="0px"
	 width="28px" height="20px" viewBox="0 0 28 20" enable-background="new 0 0 28 20" xml:space="preserve">
<rect x="2" y="19" fill="#E2E2E2" width="25" height="1"/>
<g>
	<path fill="#F3F5F6" d="M2,18.5c-0.827,0-1.5-0.673-1.5-1.5V2c0-0.827,0.673-1.5,1.5-1.5h24c0.827,0,1.5,0.673,1.5,1.5v15
		c0,0.827-0.673,1.5-1.5,1.5H2z"/>
	<g>
		<path fill="#B5B5B5" d="M26,1c0.551,0,1,0.449,1,1v15c0,0.551-0.449,1-1,1H2c-0.551,0-1-0.449-1-1V2c0-0.551,0.449-1,1-1H26 M26,0
			H2C0.895,0,0,0.895,0,2v15c0,1.105,0.895,2,2,2h24c1.105,0,2-0.895,2-2V2C28,0.895,27.105,0,26,0L26,0z"/>
	</g>
</g>
<g>
	<polygon fill-rule="evenodd" clip-rule="evenodd" fill="#273D7A" points="10.447,13 12.133,7.122 13.636,7.122 11.951,13 
		10.447,13 	"/>
	<path fill-rule="evenodd" clip-rule="evenodd" fill="#273D7A" d="M9.774,7.123L8.421,9.479c-0.344,0.618-0.545,0.929-0.642,1.319
		H7.758c0.024-0.494-0.045-1.1-0.051-1.444l-0.15-2.23H5.026L5,7.273c0.65,0,1.036,0.327,1.143,0.995L6,13h3l2-5.877H9.774
		L9.774,7.123z"/>
	<path fill-rule="evenodd" clip-rule="evenodd" fill="#273D7A" d="M21.47,12.68l-0.041-0.827l-1.877-0.001l-0.385,0.828h-1.632
		l2.961-5.548h2.004L23,12.68H21.47L21.47,12.68z M21.297,9.401c-0.016-0.411-0.03-0.968-0.002-1.306h-0.022
		c-0.091,0.276-0.484,1.105-0.658,1.512l-0.559,1.218h1.319L21.297,9.401L21.297,9.401z"/>
	<path fill-rule="evenodd" clip-rule="evenodd" fill="#273D7A" d="M15.216,12.838c-1.062,0-1.767-0.336-2.27-0.637l0.716-1.095
		c0.452,0.253,0.806,0.545,1.623,0.545c0.262,0,0.515-0.068,0.658-0.317c0.209-0.361-0.048-0.556-0.636-0.888l-0.29-0.189
		c-0.871-0.595-1.248-1.161-0.838-2.147C14.442,7.479,15.134,7,16.275,7c0.787,0,1.525,0.341,1.955,0.673l-0.824,0.966
		c-0.42-0.339-0.768-0.511-1.166-0.511c-0.317,0-0.559,0.122-0.642,0.288c-0.156,0.311,0.051,0.522,0.508,0.806l0.345,0.219
		c1.057,0.667,1.31,1.366,1.044,2.02C17.042,12.586,16.149,12.838,15.216,12.838L15.216,12.838z"/>
</g>
<path fill-rule="evenodd" clip-rule="evenodd" fill="#F9A61A" d="M28,17c0,1.105-0.895,2-2,2H2c-1.105,0-2-0.895-2-2l0,0
	c0-1.105,0-2,0-2h28C28,15,28,15.895,28,17L28,17z"/>
<path fill-rule="evenodd" clip-rule="evenodd" fill="#0058A0" d="M28,2c0-1.105-0.895-2-2-2H2C0.895,0,0,0.895,0,2l0,0
	c0,1.105,0,2,0,2h28C28,4,28,3.105,28,2L28,2z"/>
</svg>
