<?xml version="1.0" encoding="utf-8"?>
<!-- Generator: Adobe Illustrator 17.0.2, SVG Export Plug-In . SVG Version: 6.00 Build 0)  -->
<!DOCTYPE svg PUBLIC "-//W3C//DTD SVG 1.1//EN" "http://www.w3.org/Graphics/SVG/1.1/DTD/svg11.dtd">
<svg version="1.1" id="Art" xmlns="http://www.w3.org/2000/svg" xmlns:xlink="http://www.w3.org/1999/xlink" x="0px" y="0px"
	 width="{{width}}px" height="{{height}}px" viewBox="0 0 26 26" enable-background="new 0 0 26 26" xml:space="preserve">
<path fill="#FFFFFF" d="M11.666,14.97h2.646c0.615,0,1.114-0.499,1.114-1.114V6.334c0-0.615-0.499-1.114-1.114-1.114h-2.646
	c-0.615,0-1.114,0.499-1.114,1.114v7.522C10.552,14.471,11.051,14.97,11.666,14.97z"/>
<path fill="#FFFFFF" d="M11.666,21.47h2.646c0.615,0,1.114-0.166,1.114-0.371v-2.507c0-0.205-0.499-0.371-1.114-0.371h-2.646
	c-0.615,0-1.114,0.166-1.114,0.371v2.507C10.552,21.304,11.051,21.47,11.666,21.47z"/>
<path fill="#D8000C" d="M13.054,0C5.874-0.03,0.03,5.766,0,12.946C-0.03,20.126,5.766,25.97,12.946,26
	C20.125,26.03,25.97,20.234,26,13.054C26.03,5.875,20.234,0.03,13.054,0z M10.552,21.098v-2.507c0-0.205,0.499-0.371,1.114-0.371
	h2.646c0.615,0,1.114,0.166,1.114,0.371v2.507c0,0.205-0.499,0.371-1.114,0.371h-2.646C11.051,21.47,10.552,21.304,10.552,21.098z
	 M15.427,13.855c0,0.615-0.499,1.114-1.114,1.114h-2.646c-0.615,0-1.114-0.499-1.114-1.114V6.334c0-0.615,0.499-1.114,1.114-1.114
	h2.646c0.615,0,1.114,0.499,1.114,1.114V13.855z"/>
</svg>
