<?xml version="1.0" encoding="utf-8"?>
<!-- Generator: Adobe Illustrator 17.0.2, SVG Export Plug-In . SVG Version: 6.00 Build 0)  -->
<!DOCTYPE svg PUBLIC "-//W3C//DTD SVG 1.1//EN" "http://www.w3.org/Graphics/SVG/1.1/DTD/svg11.dtd">
<svg version="1.1" id="Livello_1" xmlns="http://www.w3.org/2000/svg" xmlns:xlink="http://www.w3.org/1999/xlink" x="0px" y="0px"
	 width="30px" height="39px" viewBox="-449 551 30 39" enable-background="new -449 551 30 39" xml:space="preserve">
<g>
	<path fill="#2377C5" d="M-423.662,589.108h-20.676c-2.571,0-4.662-2.092-4.662-4.662v-15c0-2.406,1.833-4.393,4.176-4.637v-2.984
		c0-5.969,4.856-10.824,10.824-10.824s10.824,4.874,10.824,10.865v2.984c2.343,0.242,4.176,2.211,4.176,4.597v15
		C-419,587.017-421.092,589.108-423.662,589.108z M-444.338,566.405c-1.677,0-3.041,1.364-3.041,3.041v15
		c0,1.677,1.364,3.041,3.041,3.041h20.676c1.677,0,3.041-1.364,3.041-3.041v-15c0-1.654-1.364-3-3.041-3h-1.135v-4.581
		c0-5.097-4.128-9.243-9.203-9.243c-5.074,0-9.203,4.128-9.203,9.203v4.581H-444.338z M-432.784,584.041h-2.432
		c-0.555,0-1.074-0.242-1.424-0.663c-0.335-0.404-0.478-0.932-0.397-1.456l0.258-4.456c-0.831-0.78-1.316-1.884-1.316-3.033
		c0-2.28,1.855-4.135,4.135-4.135c2.28,0,4.135,1.855,4.135,4.135c0,1.152-0.487,2.259-1.322,3.039l0.184,4.458
		c0.079,0.522-0.064,1.046-0.398,1.448C-431.71,583.799-432.229,584.041-432.784,584.041z M-433.959,571.919
		c-1.386,0-2.514,1.128-2.514,2.514c0,0.793,0.379,1.551,1.014,2.027l0.348,0.261l-0.321,5.442c-0.013,0.07,0.001,0.131,0.041,0.179
		c0.024,0.029,0.078,0.077,0.176,0.077h2.432c0.097,0,0.152-0.048,0.176-0.077c0.04-0.049,0.054-0.109,0.041-0.179l-0.013-0.116
		l-0.221-5.332l0.341-0.256c0.635-0.476,1.014-1.234,1.014-2.027C-431.446,573.046-432.574,571.919-433.959,571.919z
		 M-427.23,566.446h-13.541v-4.581c0-3.733,3.037-6.77,6.77-6.77c3.733,0,6.77,3.037,6.77,6.77V566.446z M-439.149,564.824h10.297
		v-2.96c0-2.839-2.31-5.149-5.149-5.149s-5.149,2.31-5.149,5.149V564.824z"/>
</g>
</svg>
