<?xml version="1.0" encoding="utf-8"?>
<!-- Generator: Adobe Illustrator 17.0.2, SVG Export Plug-In . SVG Version: 6.00 Build 0)  -->
<!DOCTYPE svg PUBLIC "-//W3C//DTD SVG 1.1//EN" "http://www.w3.org/Graphics/SVG/1.1/DTD/svg11.dtd">
<svg version="1.1" id="Layer_1" xmlns="http://www.w3.org/2000/svg" xmlns:xlink="http://www.w3.org/1999/xlink" x="0px" y="0px"
	 width="64px" height="36px" viewBox="-448.162 551.838 64 36" enable-background="new -448.162 551.838 64 36"
	 xml:space="preserve">
<g>
	<path fill="#2377C5" d="M-406.16,553.616c1.526,0,2.485,0.518,3.483,1.846l5.668,7.986h0.73c4.078,0,7.384,3.306,7.384,7.383v1.282
		l1.848,0.006c0.614,0,1.108,0.497,1.108,1.107v2.921c0,0.613-0.495,1.108-1.108,1.108l-6.269,0.003
		c0.105,0.467,0.162,0.945,0.162,1.44c0,3.565-2.889,6.451-6.448,6.451c-3.565,0-6.454-2.888-6.454-6.451
		c0-0.497,0.056-0.981,0.164-1.446l-21.299-0.004c0.109,0.466,0.167,0.95,0.167,1.449c0,3.565-2.889,6.451-6.452,6.451
		c-3.565,0-6.451-2.888-6.451-6.451c0-0.495,0.056-0.978,0.162-1.445l-5.511,0.004c-0.612,0-1.107-0.497-1.107-1.108v-2.921
		c0-0.611,0.496-1.108,1.107-1.108l1.951-0.005v-5.712c0-1.632,1.324-2.953,2.954-2.953l9.574-0.001l5.669-7.986
		c0.998-1.328,1.955-1.846,3.484-1.846H-406.16 M-410.979,563.448h8.389c0.612,0,0.756-0.496,0.324-1.108l-3.794-5.344
		c-0.56-0.74-0.788-0.796-1.403-0.796l-3.516,0.001c-0.613,0-1.108,0.495-1.108,1.107v5.031
		C-412.087,562.951-411.592,563.448-410.979,563.448 M-426.26,563.448h10.527c0.612,0,1.107-0.496,1.107-1.108v-5.031
		c0-0.612-0.495-1.107-1.107-1.107l-5.654-0.001c-0.618,0-0.844,0.056-1.403,0.796l-3.795,5.344
		C-427.014,562.951-426.87,563.448-426.26,563.448 M-399.604,581.853c1.741,0,3.153-1.413,3.153-3.155s-1.411-3.155-3.153-3.155
		c-1.745,0-3.158,1.413-3.158,3.155S-401.349,581.853-399.604,581.853 M-433.479,581.853c1.743,0,3.155-1.413,3.155-3.155
		s-1.413-3.155-3.155-3.155c-1.741,0-3.156,1.413-3.156,3.155S-435.221,581.853-433.479,581.853 M-406.16,551.838h-15.485
		c-2.091,0-3.558,0.764-4.905,2.556l-5.166,7.276l-8.656,0.001c-2.609,0-4.732,2.122-4.732,4.731v3.939l-0.178,0
		c-1.586,0-2.881,1.295-2.881,2.886v2.921c0,1.591,1.294,2.886,2.885,2.886l3.577-0.002c0.176,4.383,3.797,7.894,8.222,7.894
		c4.428,0,8.05-3.514,8.223-7.9l17.426,0.003c0.175,4.384,3.797,7.897,8.225,7.897c4.423,0,8.042-3.51,8.219-7.892l4.337-0.002
		c1.591,0,2.885-1.295,2.885-2.886v-2.921c0-1.591-1.295-2.885-2.886-2.885l-0.083,0c-0.252-4.762-4.158-8.571-8.959-8.669
		l-5.137-7.239C-402.603,552.602-404.07,551.838-406.16,551.838L-406.16,551.838z M-410.309,557.978l2.763-0.001
		c0.021,0.028,0.044,0.058,0.069,0.09l2.557,3.602h-5.389V557.978L-410.309,557.978z M-423.929,561.67l2.589-3.645
		c0.012-0.015,0.024-0.031,0.037-0.048l4.901,0.001v3.691H-423.929L-423.929,561.67z M-399.604,580.075
		c-0.761,0-1.38-0.618-1.38-1.377c0-0.76,0.619-1.377,1.38-1.377c0.758,0,1.375,0.618,1.375,1.377
		C-398.229,579.458-398.846,580.075-399.604,580.075L-399.604,580.075z M-433.479,580.075c-0.76,0-1.379-0.618-1.379-1.377
		c0-0.76,0.618-1.377,1.379-1.377c0.759,0,1.377,0.618,1.377,1.377C-432.102,579.458-432.72,580.075-433.479,580.075
		L-433.479,580.075z"/>
</g>
</svg>
