<?xml version="1.0" encoding="utf-8"?>
<!-- Generator: Adobe Illustrator 17.0.2, SVG Export Plug-In . SVG Version: 6.00 Build 0)  -->
<!DOCTYPE svg PUBLIC "-//W3C//DTD SVG 1.1//EN" "http://www.w3.org/Graphics/SVG/1.1/DTD/svg11.dtd">
<svg version="1.1" id="Your_Icon" xmlns="http://www.w3.org/2000/svg" xmlns:xlink="http://www.w3.org/1999/xlink" x="0px" y="0px"
	 width="24px" height="24px" viewBox="0 0 24 24" enable-background="new 0 0 24 24" xml:space="preserve">
<g>
	<path fill="#B7BABE" d="M24,11.993c0,1.453-1.177,2.63-2.63,2.63h-6.733v6.746c0,1.447-1.184,2.63-2.63,2.63
		c-1.453,0-2.63-1.184-2.63-2.63v-6.746H2.63c-1.447,0-2.63-1.177-2.63-2.63c0-1.447,1.184-2.63,2.63-2.63h6.746V2.63
		c0-1.453,1.177-2.63,2.63-2.63c1.447,0,2.63,1.177,2.63,2.63v6.733h6.733C22.823,9.364,24,10.547,24,11.993z"/>
</g>
</svg>
