<?xml version="1.0" encoding="utf-8"?>
<!-- Generator: Adobe Illustrator 17.0.2, SVG Export Plug-In . SVG Version: 6.00 Build 0)  -->
<!DOCTYPE svg PUBLIC "-//W3C//DTD SVG 1.1//EN" "http://www.w3.org/Graphics/SVG/1.1/DTD/svg11.dtd">
<svg version="1.1" id="Layer_1" xmlns="http://www.w3.org/2000/svg" xmlns:xlink="http://www.w3.org/1999/xlink" x="0px" y="0px"
	 width="28.001px" height="20px" viewBox="0 0 28.001 20" enable-background="new 0 0 28.001 20" xml:space="preserve">
<g>
	
		<radialGradient id="SVGID_1_" cx="-463.159" cy="-1164.0288" r="92.091" gradientTransform="matrix(0.3836 0 0 0.2235 181.8493 263.2235)" gradientUnits="userSpaceOnUse">
		<stop  offset="0" style="stop-color:#00B7E8"/>
		<stop  offset="0.427" style="stop-color:#009ACA"/>
		<stop  offset="0.5191" style="stop-color:#008FBC"/>
		<stop  offset="0.8385" style="stop-color:#006D8F"/>
		<stop  offset="1" style="stop-color:#00607E"/>
	</radialGradient>
	<path fill="url(#SVGID_1_)" d="M2,18.5c-0.827,0-1.5-0.673-1.5-1.5V2c0-0.827,0.673-1.5,1.5-1.5h24c0.827,0,1.5,0.673,1.5,1.5v15
		c0,0.827-0.673,1.5-1.5,1.5H2z"/>
	<g>
		<path fill="#0288B2" d="M26.001,1c0.551,0,1,0.449,1,1v15c0,0.551-0.449,1-1,1h-24c-0.551,0-1-0.449-1-1V2c0-0.551,0.449-1,1-1
			H26.001 M26.001,0h-24c-1.1,0-2,0.9-2,2v15c0,1.1,0.9,2,2,2h24c1.1,0,2-0.9,2-2V2C28.001,0.9,27.101,0,26.001,0L26.001,0z"/>
	</g>
</g>
<rect x="2.001" y="18.826" fill="#BDD5DB" width="23" height="1"/>
<g>
	<path fill="#FFFFFF" d="M28.158,12.021l-1.973-2.397l1.78-2.216L29.096,6h-1.807h-1.862h-0.448l-0.259,0.366L24.173,7.14
		l-0.547-0.774L23.367,6h-0.448h-1.862l-1.792,0.019h-3.9V6.018h-3.59l-1.282,3.084L9.276,6.018H5.669v3.541L4.164,6.018H1.618
		L0,9.825l0.04,3l1.714,0.588l0.569-1.326h1.138l0.566,1.326h1.642h1.638h1.468v-0.869l0.354,0.869h2.661l0.468-1.087v1.087h2.946
		h0.161h3.676l-0.02,0.024h1.835h1.926h0.443l0.259-0.359l0.688-0.953l0.688,0.953l0.259,0.359h0.443h1.925h1.835L28.158,12.021z
		 M21.513,10.412V8.816l0.649,0.808L21.513,10.412z"/>
	<path fill="none" d="M25.645,7.898c-0.113-0.033-0.296-0.051-0.553-0.051h-2.009v1.516h2.01c0.336,0,0.572-0.042,0.714-0.126
		c0.214-0.129,0.321-0.351,0.321-0.665C26.128,8.221,25.966,7.997,25.645,7.898z"/>
	<polygon fill="none" points="1.975,10.218 3.655,10.218 2.817,8.205 	"/>
	<path fill="#0288B2" d="M2.092,6.825l-2.091,5.747h1.122l0.571-1.331h2.244l0.568,1.331H5.98L3.538,6.825H2.092z M1.975,10.218
		l0.842-2.013l0.838,2.013H1.975z"/>
	<polygon fill="#0288B2" points="12.282,10.035 13.048,8.256 13.048,10.035 13.048,12.571 14.49,12.571 14.49,10.035 14.49,6.825 
		12.282,6.825 10.949,10.035 10.42,11.308 8.65,6.825 6.438,6.825 6.438,12.571 7.88,12.571 7.88,8.256 9.633,12.571 11.191,12.571 
			"/>
	<polygon fill="#0288B2" points="21.014,11.463 17.359,11.463 17.359,10.153 20.451,10.153 20.451,10.035 20.451,9.062 
		17.359,9.062 17.359,7.901 20.902,7.901 20.902,6.826 16.001,6.826 16.001,10.035 16.001,12.571 21.014,12.571 	"/>
	<polygon fill="#FFFFFF" points="21.513,7.825 21.513,11.591 22.961,9.708 	"/>
	<polygon fill="#0288B2" points="25.225,9.631 27.446,6.866 25.585,6.866 24.33,8.64 23.076,6.866 21.214,6.866 23.435,9.631 
		21.014,12.571 22.94,12.571 24.33,10.646 25.721,12.571 27.646,12.571 	"/>
</g>
</svg>
