<?xml version="1.0" encoding="utf-8"?>
<!-- Generator: Adobe Illustrator 17.0.2, SVG Export Plug-In . SVG Version: 6.00 Build 0)  -->
<!DOCTYPE svg PUBLIC "-//W3C//DTD SVG 1.1//EN" "http://www.w3.org/Graphics/SVG/1.1/DTD/svg11.dtd">
<svg version="1.1" id="Layer_1" xmlns="http://www.w3.org/2000/svg" xmlns:xlink="http://www.w3.org/1999/xlink" x="0px" y="0px"
	 width="42px" height="39.059px" viewBox="0 0 42 39.059" enable-background="new 0 0 42 39.059" xml:space="preserve">
<g>
	<g id="Pictograms">
		<path fill="#2377C5" d="M34.998,27.8L14.208,7.01c0.446-1.86-0.057-3.897-1.503-5.343c-1.231-1.231-2.928-1.825-4.657-1.63
			C7.863,0.057,7.697,0.202,7.63,0.369C7.552,0.56,7.595,0.772,7.74,0.917l2.741,2.727L9.738,6.798L6.555,7.569L3.828,4.828
			c-0.173-0.18-0.453-0.198-0.651-0.05L3.125,4.817c-0.11,0.081-0.184,0.205-0.198,0.347C2.729,6.89,3.323,8.587,4.553,9.818
			c1.453,1.453,3.505,1.956,5.372,1.503l20.804,20.804c-0.407,1.835,0.106,3.84,1.531,5.266c2.224,2.224,5.846,2.224,8.07,0
			c2.228-2.228,2.224-5.846,0-8.07C38.884,27.874,36.851,27.369,34.998,27.8z M5.261,9.11C4.5,8.35,4.034,7.374,3.917,6.331
			L6.042,8.47c0.124,0.124,0.304,0.177,0.474,0.134l3.756-0.905c0.187-0.046,0.329-0.187,0.371-0.371l0.877-3.727
			c0.039-0.173-0.014-0.347-0.138-0.47L9.281,1.037c1.018,0.127,1.97,0.591,2.716,1.337c1.825,1.825,1.825,4.788,0.004,6.609
			L11.87,9.114C10.049,10.935,7.085,10.935,5.261,9.11z M12.577,9.821l0.131-0.131c0.484-0.484,0.866-1.036,1.139-1.627
			L33.94,28.157c-0.608,0.276-1.178,0.661-1.68,1.163c-0.513,0.513-0.912,1.103-1.188,1.733L10.968,10.949
			C11.552,10.677,12.096,10.302,12.577,9.821z M39.623,36.683c-1.832,1.832-4.82,1.835-6.655,0c-1.835-1.835-1.832-4.824,0-6.655
			c1.835-1.835,4.82-1.835,6.655,0C41.458,31.863,41.458,34.848,39.623,36.683z"/>
		<path fill="#2377C5" d="M39.349,34.656l-1.831,1.831l-2.546-0.123l-1.812-1.812l-0.071-2.502l1.823-1.823l2.665-0.122l1.842,1.842
			L39.349,34.656z M37.123,35.466l1.236-1.236l0.048-1.88l-1.226-1.226l-1.837,0.084l-1.244,1.244l0.047,1.674l1.257,1.257
			L37.123,35.466z"/>
		<path fill="#2377C5" d="M31.209,28.307c-0.195,0.195-0.512,0.195-0.707,0L13.531,11.337c-0.195-0.195-0.195-0.512,0-0.707
			s0.512-0.195,0.707,0L31.209,27.6C31.404,27.795,31.404,28.112,31.209,28.307z"/>
	</g>
	<g>
		<path fill="#FFFFFF" d="M36.623,3.776l0.393-1.029l-1.262,1.262c-0.194,0.194-0.509,0.198-0.707,0
			c-0.194-0.194-0.194-0.513,0-0.707l1.255-1.255l-1.018,0.389L20.784,16.935l1.34,1.34L36.623,3.776z"/>
		<path fill="#FFFFFF" d="M16.94,19.173l-5.64,4.155L1.207,33.421l4.431,4.431l10.096-10.096l4.18-5.609L16.94,19.173z
			 M5.584,34.182c-0.195,0.195-0.512,0.195-0.707,0c-0.195-0.195-0.195-0.512,0-0.707l10.907-10.907
			c0.195-0.195,0.512-0.195,0.707,0s0.195,0.512,0,0.707L5.584,34.182z"/>
		
			<rect x="17.519" y="17.999" transform="matrix(0.7071 0.7071 -0.7071 0.7071 19.3379 -8.5517)" fill="#FFFFFF" width="4.946" height="2.135"/>
		<path fill="#2377C5" d="M20.741,22.713c0.191,0.106,0.435,0.081,0.598-0.081l2.217-2.217c0.194-0.194,0.194-0.513,0-0.707
			l-0.725-0.725L37.405,4.409c0.05-0.05,0.088-0.11,0.113-0.177l0.835-2.185c0.071-0.184,0.028-0.396-0.11-0.534l-0.697-0.697
			c-0.138-0.138-0.35-0.18-0.534-0.11l-2.185,0.835c-0.067,0.025-0.127,0.064-0.177,0.113L20.077,16.227l-0.725-0.725
			c-0.194-0.194-0.513-0.195-0.707,0l-2.217,2.217c-0.17,0.17-0.191,0.439-0.06,0.633l-5.69,4.191
			c-0.021,0.014-0.039,0.032-0.057,0.05L0.146,33.067c-0.194,0.194-0.195,0.513,0,0.707l5.138,5.138
			c0.194,0.194,0.513,0.194,0.707,0l10.475-10.475c0.018-0.018,0.035-0.035,0.046-0.053L20.741,22.713z M35.283,2.436l1.018-0.389
			l-1.255,1.255c-0.194,0.194-0.194,0.513,0,0.707c0.198,0.198,0.513,0.194,0.707,0l1.262-1.262l-0.393,1.029L22.124,18.275
			l-1.34-1.34L35.283,2.436z M18.998,16.563l3.497,3.497l-1.51,1.51l-3.497-3.497L18.998,16.563z M5.638,37.852l-4.431-4.431
			l10.093-10.093l5.64-4.155l2.974,2.974l-4.18,5.609L5.638,37.852z"/>
		<path fill="#2377C5" d="M16.492,22.567c-0.195-0.195-0.512-0.195-0.707,0L4.877,33.474c-0.195,0.195-0.195,0.512,0,0.707
			c0.195,0.195,0.512,0.195,0.707,0l10.907-10.907C16.687,23.079,16.687,22.762,16.492,22.567z"/>
	</g>
</g>
</svg>
