<?xml version="1.0" encoding="utf-8"?>
<!-- Generator: Adobe Illustrator 17.0.2, SVG Export Plug-In . SVG Version: 6.00 Build 0)  -->
<!DOCTYPE svg PUBLIC "-//W3C//DTD SVG 1.1//EN" "http://www.w3.org/Graphics/SVG/1.1/DTD/svg11.dtd">
<svg version="1.1" id="Layer_1" xmlns="http://www.w3.org/2000/svg" xmlns:xlink="http://www.w3.org/1999/xlink" x="0px" y="0px"
	 width="18px" height="20px" viewBox="-386.5 316.5 18 20" enable-background="new -386.5 316.5 18 20" xml:space="preserve">
<polygon fill="none" points="-377.489,318.301 -377.501,316.5 -377.501,318.3 "/>
<path fill="#164A7B" d="M-368.558,326.51c-0.369,3.307-2.529,6.069-5.486,7.3c-1.065,0.443-2.232,0.689-3.456,0.689
	c-0.013,0-0.026,0-0.039,0c-1.222-0.005-2.384-0.256-3.444-0.702c-2.951-1.24-5.096-4.006-5.458-7.308
	c-0.036,0.319-0.057,0.643-0.059,0.971c-0.021,4.971,3.991,9.017,8.961,9.039c0.013,0,0.026,0,0.039,0c4.954,0,8.979-4.004,9-8.961
	C-368.498,327.191-368.521,326.848-368.558,326.51z"/>
<g>
	<path fill="#2377C5" d="M-377.5,333.25c-4.273,0-7.75-3.477-7.75-7.75s3.477-7.75,7.75-7.75s7.75,3.477,7.75,7.75
		S-373.227,333.25-377.5,333.25z"/>
	<path fill="#FFFFFF" d="M-377.5,319c3.584,0,6.5,2.916,6.5,6.5s-2.916,6.5-6.5,6.5s-6.5-2.916-6.5-6.5S-381.084,319-377.5,319
		 M-377.5,316.5c-4.971,0-9,4.029-9,9s4.029,9,9,9c4.971,0,9-4.029,9-9S-372.529,316.5-377.5,316.5L-377.5,316.5z"/>
</g>
</svg>
