<?xml version="1.0" encoding="utf-8"?>
<!-- Generator: Adobe Illustrator 17.0.2, SVG Export Plug-In . SVG Version: 6.00 Build 0)  -->
<!DOCTYPE svg PUBLIC "-//W3C//DTD SVG 1.1//EN" "http://www.w3.org/Graphics/SVG/1.1/DTD/svg11.dtd">
<svg version="1.1" id="Art" xmlns="http://www.w3.org/2000/svg" xmlns:xlink="http://www.w3.org/1999/xlink" x="0px" y="0px"
	 width="20.711px" height="22.292px" viewBox="0 0 20.711 22.292" enable-background="new 0 0 20.711 22.292" xml:space="preserve">
<g>
	<path fill="#969696" d="M9.499,0l0.03,2.895c1.764,0.008,3.42,0.702,4.662,1.955c1.242,1.253,1.922,2.914,1.914,4.679
		c-0.015,3.626-2.978,6.576-6.634,6.576c-1.764-0.008-3.42-0.702-4.662-1.954c-1.242-1.253-1.922-2.915-1.914-4.679
		c0.016-3.626,2.978-6.577,6.604-6.577V0 M9.499,0C4.271,0,0.023,4.226,0,9.459C-0.023,14.706,4.212,18.978,9.459,19
		c0.014,0,0.028,0,0.042,0c5.228,0,9.477-4.226,9.499-9.459C19.023,4.294,14.788,0.023,9.541,0C9.527,0,9.512,0,9.499,0L9.499,0z"/>
	
		<line fill="none" stroke="#969696" stroke-width="4.053" stroke-linecap="round" stroke-linejoin="round" stroke-miterlimit="10" x1="15.199" y1="16.78" x2="18.685" y2="20.265"/>
</g>
</svg>
