<?xml version="1.0" encoding="utf-8"?>
<!-- Generator: Adobe Illustrator 17.0.2, SVG Export Plug-In . SVG Version: 6.00 Build 0)  -->
<!DOCTYPE svg PUBLIC "-//W3C//DTD SVG 1.1//EN" "http://www.w3.org/Graphics/SVG/1.1/DTD/svg11.dtd">
<svg version="1.1" id="Layer_1" xmlns="http://www.w3.org/2000/svg" xmlns:xlink="http://www.w3.org/1999/xlink" x="0px" y="0px"
	 width="75px" height="49px" viewBox="0 0 75 49" enable-background="new 0 0 75 49" xml:space="preserve">
<g>
	<path fill="#FFD520" d="M8.015,4.249c0,0,1.601,0.572,1.83,1.029c0.229,0.457,0.801,2.059,0.343,2.745
		c-0.457,0.686-0.743,2.001-2.059,2.23s-3.488,0.915-4.289,1.144c-0.801,0.229-2.573,1.372-2.745,1.944s-0.686,1.773-0.572,2.573
		s1.029,1.887,2.287,2.402s2.802,1.029,4.517,1.258c1.715,0.229,2.688,0.4,3.317,1.201c0.629,0.801,1.315,2.001,1.086,2.63
		c-0.229,0.629-0.915,1.658-1.372,2.402c-0.457,0.743-1.086,2.344-1.258,3.088c-0.172,0.743,0.057,1.83,0.286,2.573
		s0.801,1.658,1.144,2.173c0.343,0.515,0.972,1.086,0.572,1.487c-0.4,0.4-1.086,0.457-2.116,0.743
		c-1.029,0.286-1.315,0.743-1.887,1.144c-0.572,0.4-1.086,0.801-0.743,1.086c0.343,0.286,1.144,0.915,2.116,0.972
		c0.972,0.057,1.201,0.286,2.573,0.457s3.145,0.114,4.289,0c1.144-0.114,2.402-0.286,2.916-0.515c0.515-0.229,0.686-0.629,0.4-1.086
		c-0.286-0.457-0.743-0.457-1.372-0.915c-0.629-0.457-0.915-1.601-0.801-1.887c0.114-0.286,1.029-0.515,1.544-0.343
		c0.515,0.172,1.201,0.915,2.287,1.086c1.086,0.172,1.658-0.057,2.573,0.114c0.915,0.172,1.544,0.629,1.773-0.172
		c0.229-0.801,0.229-1.315-0.286-2.23c-0.515-0.915-0.515-1.258-1.258-1.487c-0.743-0.229-1.315-0.515-2.402-0.057
		c-1.086,0.457-2.23,1.029-3.088,0.801c-0.858-0.229-0.229-0.801-0.114-1.315c0.114-0.515,0.343-1.715-0.343-2.802
		c-0.686-1.086-0.858-1.487-1.372-2.63c-0.515-1.144-0.572-2.573-0.4-3.202c0.172-0.629,0.801-1.658,1.487-1.944
		s1.487-0.4,2.116-0.4c0.629,0,2.459,0.858,2.459,0.858s-0.057-2.001-0.057-2.802c0-0.801,0.057-2.402,0.457-2.688
		c0.4-0.286,0.972-0.457,1.315-0.4c0.343,0.057,1.029,0.343,1.029,0.343s-0.114-1.086-0.515-1.43
		c-0.4-0.343-1.487-1.601-1.601-2.344c-0.114-0.743-0.057-1.258,0.229-1.487c0.286-0.229,1.086-0.972,1.315-0.972
		c0.229,0,0.915,0.4,0.915,0.4s-0.114-0.858-0.629-1.086c-0.515-0.229-1.315-0.343-1.601-0.686
		c-0.286-0.343-0.858-0.515-0.972-0.915c-0.094-0.33,1.372-3.831,1.372-3.831s-1.086,1.487-1.658,1.887s-1.601,1.487-2.173,1.715
		c-0.572,0.229-1.544,0.858-1.658,0s-0.172-2.287-0.229-3.088c-0.057-0.801-0.858-2.859-0.858-2.859s-0.515,2.63-1.43,2.859
		c-0.632,0.158-3.317-3.488-3.317-3.488s0.114,3.088-0.457,3.374C10.359,4.192,8.015,4.249,8.015,4.249z"/>
	<path fill="#FFD520" d="M44.782,9.453c0,0,2.173,1.201,2.459,2.173c0.286,0.972,0.457,2.573-0.515,3.374
		c-0.972,0.801-1.83,1.601-3.317,1.887s-3.888,0.229-5.775,0.515s-3.374,0.972-4.117,1.658s-1.201,2.001-0.801,2.973
		c0.4,0.972,2.573,2.859,3.717,3.602c1.144,0.743,3.488,1.83,4.174,2.287c0.686,0.457,1.544,0.972,1.887,1.773
		c0.343,0.801,0.572,1.658,0.4,2.63c-0.172,0.972-0.457,1.944-0.858,2.63c-0.4,0.686-0.858,0.972-0.572,1.658
		c0.286,0.686,0.457,1.372,0.972,1.773s1.201,0.172,1.487,0.515c0.286,0.343,0.4,1.029,0.229,1.773s-0.743,2.173-0.915,3.088
		s-0.629,1.715,0,2.059s1.544,0.515,2.173,0.229c0.629-0.286,1.315-1.43,1.658-2.23c0.343-0.801,0.858-1.773,0.743-2.973
		c-0.114-1.201-0.457-1.773-0.972-3.031c-0.515-1.258-0.801-2.516-0.686-3.317c0.114-0.801-0.057-1.601,0.343-2.059
		c0.4-0.457,0.801-0.915,1.601-1.086s1.544-0.172,2.001,0.114c0.457,0.286,1.487,1.487,1.487,1.487s1.086-3.545,2.001-4.06
		s3.317,1.029,3.317,1.029s-0.629-2.402-0.915-3.488c-0.286-1.086-0.343-2.63-0.286-3.202s0.343-1.43,0.686-1.887
		s2.916-1.201,2.916-1.201s-1.487-0.172-2.287-0.343s-2.001-0.229-2.116-0.629c-0.114-0.4,0.457-1.315,0.915-2.287
		c0.457-0.972,2.513-3.331,2.513-3.331s-3.657,1.444-4.458,1.044c-0.801-0.4-1.144-5.832-1.144-5.832s-2.402,3.259-3.374,3.031
		C48.385,11.568,44.782,9.453,44.782,9.453z"/>
	<path d="M12.138,1.649c0.016,0.665,0.335,1.206,0.606,1.79c0.364,0.566,0.68,1.175,1.16,1.701c0.087,0.096,0.08,0.255-0.038,0.342
		c-0.077,0.18-0.282,0.17-0.446,0.255c-0.457-0.021-0.759-0.423-1.187-0.58c-0.445-0.295-0.328-0.839-0.562-1.239
		c-0.098-0.371-0.056-0.781-0.27-1.111c-0.049-0.437-0.121-0.875-0.332-1.274C11.07,0.96,11.078,0.273,11.617,0
		C12.123,0.458,11.584,1.235,12.138,1.649z"/>
	<path d="M17.503,2.509c0.086,0.118-0.101,0.202-0.107,0.339c-0.038,0.342,0.342,0.542,0.303,0.907
		c0.062,0.14,0.098,0.371,0.022,0.528c-0.307,0.215-0.143,0.635-0.36,0.877c0.148,0.281-0.165,0.611,0.077,0.828
		c-0.037,0.319,0.371,0.406,0.287,0.746c0.062,0.14,0.172,0.237,0.355,0.245c0.65-0.2,1.223-0.723,1.791-1.133
		c0.24-0.241,0.549-0.502,0.678-0.817c0.521-0.389,0.818-0.879,1.362-1.267c0.048-0.547,0.685-0.473,1.018-0.733
		c0.139-0.04,0.272,0.058,0.359,0.154c0.219,0.216,0.024,0.482,0.013,0.733c-0.6,0.614-1.38,1.151-1.849,1.909
		c-0.387,0.463-1.065,0.776-1.365,1.335c-0.619,0.522-1.675,0.588-1.876,1.495c-0.008,0.183-0.194,0.243-0.311,0.307
		c-0.182-0.031-0.43-0.111-0.574,0.043c-0.217-0.262-0.582-0.301-0.755-0.515c-0.066-0.575-0.154-1.152-0.174-1.725
		c-0.037-0.711,0.177-1.389,0.094-2.079c-0.037-0.711-0.119-1.425-0.364-2.077c-0.14-0.441,0.149-0.772,0.146-1.207
		C16.715,1.695,16.81,2.638,17.503,2.509z"/>
	<path d="M9.264,3.946c0.71-0.014,1.227,0.719,1.547,1.237c0.103,0.256,0.298,0.494,0.261,0.813c0.13,0.166-0.043,0.456,0.085,0.645
		c-0.059,0.295,0.153,0.671,0.002,0.962c0.012,0.252-0.137,0.498-0.148,0.749c-0.148,0.245-0.207,0.517-0.444,0.713
		c-0.263,0.744-1.116,0.888-1.644,1.414c-0.278,0.079-0.516,0.274-0.858,0.236c-0.352,0.19-0.666,0.542-1.1,0.523
		c-0.644,0.063-1.183,0.336-1.847,0.329c-0.435,0.003-0.854,0.145-1.231,0.38c-0.758,0.057-1.666,0.383-1.954,1.194
		c-0.426,0.301-0.404,0.829-0.74,1.18c0.051,0.392-0.437,0.553-0.319,0.97c0.055,0.3,0.492,0.251,0.406,0.637
		c0.087,0.096-0.031,0.182,0.033,0.276c0.232,0.445,0.77,0.699,0.93,1.21c0.604,0.325,1.106,0.851,1.864,0.817
		c0.269,0.127,0.665-0.016,1.006,0.023c0.318,0.06,0.611,0.165,0.93,0.202c0.438,0.432,1.04,0.299,1.556,0.528
		c0.383,0.132,0.886,0.154,1.265,0.378c0.297,0.013,0.532-0.113,0.824,0.014c0.522,0.092,1.06-0.158,1.584-0.089
		c0.883,0.223,1.724-0.151,2.516-0.459c0.302-0.101,0.717-0.151,0.824-0.512c0.041-0.41,0.533-0.64,0.438-1.079
		c0.191-0.175,0.233-0.608,0.527-0.526c0.317,0.083,0.418,0.385,0.451,0.661c-0.107,0.339,0.109,0.623-0.042,0.937
		c-0.147,0.222-0.453,0.392-0.444,0.713c-0.169,0.198-0.444,0.209-0.592,0.431c-0.617-0.028-1.088,0.271-1.581,0.524
		c-0.2-0.124-0.46,0.048-0.626,0.178c-0.023,0.503-0.63,0.269-0.766,0.744c-0.225,0.425,0.031,0.826,0.268,1.157
		c0.112,0.051,0.221,0.17,0.311,0.22c-0.165,0.107-0.059,0.295-0.042,0.433c-0.367,0.533-0.078,1.233-0.356,1.793
		c-0.374,0.166-0.69,0.587-1.09,0.821c-0.08,0.248-0.453,0.392-0.377,0.739c-0.396,0.142,0.014,0.71-0.515,0.755
		c-0.365,0.487-0.555,1.143-0.491,1.741c-0.228,0.493-0.349,1.129-0.144,1.665c0.208,0.467,0.3,0.952,0.717,1.36
		c0.018,0.115-0.192,0.197-0.06,0.318c0.247,0.103,0.565,0.163,0.669,0.397c0.076,0.347-0.233,0.608,0.003,0.939
		c0.15,0.236,0.448,0.226,0.697,0.283c0.622-0.086,1.337-0.192,1.977-0.186c0.2,0.124-0.037,0.319-0.112,0.453
		c-0.297,0.49-0.852,0.626-1.212,0.976c-0.055,0.204,0.168,0.328,0.022,0.528c-0.008,0.183,0.069,0.507-0.12,0.636
		c-0.304,0.147-0.548,0.479-0.93,0.324c-0.368,0.029-0.756,0.012-1.104,0.11c-0.545-0.093-1.2-0.306-1.588,0.18
		c-0.219,0.288-0.575,0.569-0.965,0.575c-0.302,0.101-0.298,0.513-0.643,0.543c-0.094,0.064-0.147,0.222-0.083,0.317
		c0.421,0.317,1.001,0.137,1.477,0.25c0.251,0.011,0.397,0.338,0.676,0.237c0.651-0.726,1.625-1.003,2.187-1.779
		c0.403-0.302,0.959,0.066,1.384-0.235c0.605-0.225,1.613,0.279,1.705-0.747c0.09-0.477-0.454-1.097,0.2-1.388
		c0.142-0.108,0.353-0.213,0.534-0.159c0.179,0.1,0.358,0.176,0.418,0.385c-0.034,0.25,0.187,0.421,0.129,0.693
		c0.15,0.236-0.068,0.501,0.011,0.779c0.097,0.394,0.034,0.78,0.061,1.193c-0.052,0.135-0.129,0.315-0.313,0.329
		c-0.31-0.243-0.71,0.014-1.072-0.094c-0.695,0.175-1.448,0.118-2.185,0.222c-0.274-0.012-0.534,0.159-0.811,0.215
		c-0.032,0.205-0.177,0.381-0.403,0.302c-0.285,0.216-0.728,0.402-0.745,0.791c0.466,0.319,1.046,0.162,1.593,0.209
		c0.948,0.295,1.905-0.097,2.863-0.031c0.369-0.052,0.732,0.01,1.083-0.157c0.425-0.278,0.988-0.07,1.454-0.255
		c0.412-0.004,0.982,0.067,1.338-0.214c0.077-0.18,0.015-0.343-0.116-0.463c-0.518-0.184-1.072-0.598-1.658-0.304
		c-0.164,0.084-0.314-0.152-0.448-0.226c-0.19-0.856-0.287-1.753-0.337-2.671c-0.009-0.298,0.186-0.564,0.42-0.691
		c0.482-0.024,0.941-0.049,1.419,0.018c0.48,0.022,0.835,0.267,1.216,0.444c0.382,0.658,1.164,0.579,1.698,0.924
		c0.61,0.188,1.283-0.011,1.925-0.028c0.579-0.157,1.33,0.472,1.772-0.195c0.075-0.134,0.153-0.337,0.068-0.501
		c-0.398-0.316-0.421-0.82-0.608-1.241c-0.01-0.275-0.041-0.62-0.329-0.816c-0.443-0.34-1.069-0.666-1.63-0.417
		c-0.495,0.321-1.111,0.27-1.564,0.662c-0.28,0.125-0.498,0.39-0.859,0.259c-0.256,0.103-0.382,0.349-0.639,0.452
		c-0.547-0.048-1.274,0.332-1.61-0.347c-0.477-0.09-1.047,0.365-1.488,0.002c-0.395-0.384,0.499-0.916-0.135-1.059
		c-0.391,0.028-0.78,0.034-1.109,0.225c-0.495-0.183-0.582-0.805-0.746-1.224c-0.348-0.405-0.117-0.967-0.279-1.432
		c-0.212-0.376-0.283-0.837-0.587-1.194c0.265-0.286,0.25-0.973,0.815-0.81c0.248,0.08,0.467,0.296,0.665,0.488
		c0.14,0.441,0.047,0.987,0.514,1.305c0.104,0.234,0.114,0.509,0.265,0.722c0.297,0.013,0.153-0.337,0.273-0.469
		c0.103-0.247,0.229-0.516,0.531-0.594c0.182,0.031,0.353,0.291,0.414,0.477c-0.016,0.366,0.317,0.587,0.302,0.929
		c0.353,0.291-0.203,0.952,0.416,0.935c0.221-0.333,0.427-0.828,0.216-1.227c0.1-0.179,0.11-0.407,0.027-0.594
		c-0.148-0.281-0.434-0.523-0.442-0.867c-0.35-0.359-0.698-0.764-1.071-1.124c-0.248-0.584-0.31-1.25-0.885-1.688
		c-0.092-0.508-0.477-1.098-0.203-1.589c-0.032-0.299-0.062-0.667-0.092-1.012c0.161-0.519,0.071-1.073,0.163-1.572
		c0.008-0.183,0.281-0.148,0.268-0.354c0.117-0.063,0.194-0.243,0.375-0.189c0.298-0.009,0.644-0.063,0.773-0.377
		c0.23-0.539,0.787-0.697,1.212-0.976c0.393-0.074,0.71-0.014,0.997,0.228c0.355,0.245-0.023,0.503,0.055,0.804
		c-0.315,0.375-0.905,0.257-1.199,0.701c-0.437,0.049-0.729,0.425-1.062,0.708c0.021,0.55-0.751,0.905-0.386,1.448
		c0.262,0.287,0.129,0.693,0.345,0.977c0.164,0.42,0.097,0.897,0.497,1.167c0.102,0.279,0.367,0.497,0.328,0.839
		c0.3,0.449,0.433,1.05,0.9,1.369c0.116,0.463,0.117,0.967,0.304,1.387c0.03,0.345,0.248,0.584,0.232,0.949
		c-0.086,0.385-0.352,0.694-0.393,1.104c-0.03,0.159-0.194,0.243-0.18,0.427c0.427,0.18,1.051,0.551,1.483,0.113
		c0.826-0.031,1.259-1.019,2.105-0.981c0.411,0.019,0.783-0.102,1.132-0.224c0.406,0.133,0.963-0.025,1.125,0.44
		c0.292,0.128,0.461,0.433,0.754,0.538c0.19,0.352,0.542,0.666,0.779,0.997c0.2,0.124,0.547,0.048,0.625,0.349
		c0.096,0.416-0.326,0.626-0.321,1.016c-0.148,0.245-0.048,0.547-0.036,0.8c0.141,0.419,0.093,0.989-0.063,1.394
		c-0.427,0.324-0.869,0.487-1.357,0.649c-0.505,0.023-0.729-0.582-1.231-0.628c-0.344,0.007-0.755-0.011-1.082,0.134
		c-0.059,0.295-0.095,0.591-0.267,0.835c0.069,0.507-0.425,0.782-0.536,1.212c-0.291,0.353-0.434,0.988-1.046,0.846
		c-0.23,0.013-0.399-0.293-0.637-0.097c-0.357,0.304-0.94,0.026-1.277,0.4c-0.578,0.134-1.309,0.078-1.908,0.166
		c-0.493,0.275-1.01,0.573-1.622,0.431c-0.869-0.52-1.856,0.031-2.855-0.152c-0.582-0.301-1.261,0.035-1.853-0.038
		C9.178,40.37,8.8,40.628,8.361,40.722c-0.392,0.051-0.776-0.058-1.037-0.367c-0.213-0.353,0.142-1.115-0.477-1.098
		c-0.397,0.165-0.917,0.027-1.21,0.426c-0.435,0.003-0.911-0.11-1.31,0.101c-0.226-0.056-0.508,0.092-0.683-0.077
		c-0.192-0.306-0.17-0.809-0.018-1.123c0.366-0.51,1.186,0.099,1.446-0.576c0.008-0.183,0.063-0.386,0.25-0.47
		c0.62-0.041,0.859-0.763,1.44-0.965c0.282-0.17,0.457-0.483,0.761-0.63c0.304-0.147,0.346-0.557,0.669-0.611
		c0.488-0.161,1.14,0.097,1.61-0.156c0.205,0.032,0.414-0.05,0.559-0.204c0.058-0.272-0.243-0.194-0.352-0.314
		c-0.144-0.35-0.543-0.643-0.548-1.055c-0.151-0.213-0.32-0.518-0.595-0.508c-0.112-0.051-0.032-0.299-0.192-0.306
		c-0.077-0.324-0.131-0.647-0.302-0.929c0.053-0.158,0.04-0.387-0.043-0.574c-0.13-0.166-0.431-0.088-0.512-0.321
		c-0.157-0.579,0.274-0.995,0.366-1.517c0.475-0.368,0.366-1.014,0.842-1.404c0.161-0.519,0.142-1.116,0.572-1.508
		c0.372-0.624,0.631-1.299,0.753-1.981c0.175-0.336,0.684-0.45,0.747-0.836c0.225-0.425,0.089-0.958-0.053-1.353
		c-0.419-0.362-0.456-1.051-1.065-1.262c-0.537-0.276-1.213-0.009-1.649-0.487c-0.9-0.361-1.8-0.699-2.803-0.79
		c-0.383-0.132-0.839-0.175-1.276-0.126c-0.428-0.157-0.938-0.019-1.244-0.331c-0.685-0.031-1.043-0.734-1.7-0.878
		c-0.214-0.33-0.763-0.332-0.671-0.855c-0.044-0.048-0.111-0.074-0.18-0.077c-0.049,0.066-0.117,0.063-0.166,0.13
		c-0.171-0.26-0.088-0.576-0.169-0.832c-0.029-0.368-0.171-0.786-0.039-1.169c-0.256-0.424,0.19-0.655,0.141-1.093
		c0.428-0.347-0.051-0.895,0.263-1.27c0.143-0.131,0.131-0.36,0.362-0.419c0.147-0.222,0.228-0.493,0.376-0.716
		c0.007-0.16,0.105-0.293,0.111-0.43c0.292-0.376,0.789-0.239,1.103-0.591c0.218-0.265,0.506-0.55,0.85-0.58
		c0.225,0.079,0.438-0.072,0.626-0.178c0.785-0.148,1.692,0.053,2.397-0.35c0.502,0.046,0.777-0.469,1.259-0.493
		C8.182,9.667,8.768,9.35,9.136,8.817c0.218-0.265,0.191-0.678,0.565-0.845C9.941,7.205,9.96,6.29,9.416,5.648
		c-0.427-0.18-0.699-0.741-1.253-0.652c-0.566,0.364-1.235,0.471-1.92,0.44C6.086,5.36,5.933,5.216,5.894,5.054
		C5.858,4.846,5.981,4.645,6.058,4.466c0.384-0.395,0.951-0.278,1.269-0.721c0.423-0.233,1.007,0,1.422-0.05
		C8.928,3.794,9.083,3.892,9.264,3.946z"/>
	<path d="M53.105,9.13c-0.195,0.77-0.593,1.462-0.654,2.306c-0.079,0.729-0.36,1.38-0.596,2.057c-0.05,0.593-0.392,1.081-0.35,1.678
		c0,0.504,0.574,0.988,0.141,1.449c-0.192,0.197-0.43,0.393-0.745,0.264c-0.429-0.134-0.919-0.431-1.035-0.917
		c-0.167-1.381,0.528-2.563,1.015-3.732c0.19-0.655,0.582-1.233,0.794-1.865c0.154-0.359,0.374-0.67,0.482-1.031
		c0.282-0.17,0.401-0.76,0.784-0.629C53.05,8.829,53.02,8.988,53.105,9.13z"/>
	<path d="M45.66,9.206c0.044,0.048,0.135,0.052,0.132,0.12c-0.111,0.43,0.464,0.364,0.683,0.603c0.527,0.505,1.096,1.08,1.319,1.731
		c0.255,0.447,0.414,0.98,0.252,1.523c0.014,0.207,0.21,0.422,0.062,0.667c-0.077,0.18-0.264,0.263-0.387,0.463
		c-0.033,1.235-1.361,1.747-2.214,2.396c-0.45,0.323-0.977,0.345-1.449,0.644c-0.434-0.02-0.728,0.402-1.204,0.289
		c-0.404,0.325-0.97,0.185-1.455,0.278c-0.793-0.196-1.62-0.119-2.344,0.192c-0.705-0.101-1.361-0.29-2.037-0.023
		c-0.733,0.013-1.347,0.42-1.959,0.782c-0.426,0.301-1.039,0.182-1.382,0.693c-0.337,0.374-0.481,1.009-0.295,1.475
		c-0.069,0.523-0.112,0.957,0.354,1.298c0.098,0.371,0.452,0.639,0.62,0.967c0.211,0.399,0.752,0.583,0.823,1.045
		c0.525,0.047,0.82,0.609,1.319,0.701c0.152,0.19,0.375,0.315,0.603,0.348c0.654,0.739,1.562,0.895,2.344,1.342
		c0.595,0.004,1.014,0.366,1.504,0.663c0.416,0.431,0.909,0.659,1.327,1.044c0.568,0.598,1.04,1.306,1.328,2.029
		c0.429,0.134,0.086,0.622,0.257,0.905c-0.468,0.734-0.173,1.801-0.888,2.433c-0.15,0.291-0.212,0.632-0.181,0.976
		c-0.304,0.65-1.315,1.246-0.733,2.028c0.01,0.275,0.207,0.49,0.194,0.764c0.043,0.071,0.085,0.141,0.176,0.168
		c0.045,0.025,0.071-0.043,0.116-0.041c0.25-0.47,0.456-0.964,0.794-1.361c0.176-0.358,0.528-0.549,0.858-0.74
		c0.272,0.058,0.492,0.251,0.619,0.486c-0.004,0.595,0.082,1.217-0.014,1.831c-0.129,0.315,0.015,0.688,0.07,0.988
		c-0.053,0.662-0.309,1.268-0.361,1.907c0.095,0.439-0.243,0.813-0.056,1.234c-0.114,0.499-0.251,0.996-0.545,1.418
		c-0.098,0.66-0.538,1.258-0.362,1.93c0.35,0.359,0.897,0.407,1.401,0.407c0.166-0.13,0.506-0.046,0.564-0.318
		c0.422-0.21,0.831-0.649,0.967-1.124c0.178-0.404,0.336-0.855,0.628-1.231c0.016-0.366-0.01-0.802,0.277-1.064
		c0.199-0.357-0.415-0.454-0.239-0.789c0.049-0.57,0.053-1.165-0.223-1.659c-0.196-0.215-0.55,0.021-0.648-0.35
		c-0.087-0.599,0.058-1.28-0.425-1.736c0.076-0.157,0.222-0.356,0.116-0.544c-0.082-0.21,0.022-0.48-0.13-0.67
		c-0.086-0.118-0.27-0.104-0.331-0.267c-0.008-0.847,0.216-1.753-0.048-2.498c0.12-0.636,0.397-1.196,0.652-1.756
		c0.071-0.043,0.185-0.037,0.231-0.035c0.4-0.234,0.718-0.7,1.219-0.632c-0.003,0.069,0.019,0.092,0.062,0.14
		c0.249,0.057,0.447-0.255,0.689-0.038c0.224,0.628-0.541,0.823-0.857,1.243c-0.249,0.447-0.883,0.784-0.772,1.385
		c-0.343,0.488,0.206,1.017-0.071,1.577c0.167,0.351,0.081,0.736,0.088,1.103c0.354,0.772,0.8,1.547,1.388,2.215
		c0.474,0.662,0.318,1.571,0.536,2.337c-0.06,0.318-0.26,0.698,0.025,0.963c0.018,0.115,0.059,0.209,0.03,0.345
		c0.131,0.143,0.165-0.107,0.237-0.172c1.16-0.841,2.451-1.538,3.926-1.265c1.391,0.131,2.808,0.172,4.107-0.181
		c0.553-0.067,1.166,0.03,1.736,0.101c0.46-0.048,0.883-0.281,1.379-0.121c0.302,0.403,0.37,0.933,0.279,1.432
		c-0.284,0.216-0.258,0.652-0.651,0.726c-0.24,0.241-0.346,0.557-0.269,0.881c0.364,0.062,0.252,0.515,0.449,0.707
		c0.864,0.131,1.743-0.059,2.592-0.112c0.226,0.056,0.436-0.026,0.586,0.21c0.369-0.052,0.783-0.102,1.154-0.2
		c0.16,0.007,0.32,0.014,0.429,0.134c0.304-0.147,0.642-0.017,0.946-0.163c0.29,0.173,0.617,0.028,0.957,0.112
		c0.41,0.041,0.809-0.17,1.193-0.061c1.126-0.087,2.151-0.475,3.235-0.655c0.25,0.034,0.484-0.07,0.61,0.188
		c0.037,0.185-0.106,0.316-0.203,0.449c-0.655,0.314-1.31,0.628-2.007,0.848c-0.321,0.008-0.607-0.256-0.913-0.064
		c-0.367,0.006-0.692,0.106-0.952,0.3c1.321,0.151,2.633,0.004,3.778-0.516c1.218-0.105,2.216-0.907,3.471-0.805
		c0.181,0.054,0.197,0.192,0.26,0.332c-0.026,0.068-0.03,0.159-0.102,0.224c-0.677,0.29-1.252,0.859-2.091,0.684
		c-0.611,0.339-1.445,0.049-2.033,0.412c-1.662,0.291-3.393,0.603-5.138,0.203c-0.243-0.194-0.198-0.696-0.662-0.556
		c-0.67,0.13-1.323-0.105-2.008-0.159c-0.192,0.197-0.489,0.184-0.743,0.218c-0.204-0.055-0.433-0.042-0.577,0.111
		c-0.475-0.136-1.027-0.069-1.555-0.047c-0.282,0.17-0.278,0.583-0.292,0.88c0.006,0.367-0.306,0.696-0.28,1.132
		c-0.219,0.288-0.478,0.436-0.63,0.773c-0.673-0.305-1.398-0.475-2.098-0.69c-0.253,0.034-0.509,0.114-0.728-0.102
		c-0.148-0.281-0.441-0.386-0.638-0.578c-0.314-0.152-0.749-0.148-1.138-0.143c-0.299,0.032-0.56,0.227-0.856,0.19
		c-0.371,0.098-0.784,0.125-1.155,0.223c-0.872,0.052-1.887,0.213-2.696-0.122c-0.839-0.175-1.554-0.574-2.194-1.106
		c-0.246-0.126-0.506,0.046-0.758,0.057c-0.172,0.267-0.348,0.603-0.604,0.705c-0.019-0.092,0.146-0.199,0.012-0.274
		c-0.486,0.115-0.879,0.716-1.484,0.414c-0.428-0.157-0.992,0.161-1.389-0.177c-0.299,0.032-0.409,0.439-0.745,0.264
		c-0.61-0.188-0.943,0.599-1.619,0.362c-0.51,0.137-0.619-0.99-1.127-0.394c-0.425-0.225-0.345,0.534-0.746,0.287
		c-0.365-0.543-1.056,0.067-1.471-0.387c-0.383,0.372-0.809,0.673-1.314,0.696c-0.064,0.409-0.386-0.063-0.579,0.157
		c-0.273-0.035-0.397-0.338-0.645-0.418c-0.167-0.855-0.731-1.567-0.758-2.484c-0.084-0.164-0.336-0.175-0.497-0.16
		c-0.483,0.047-0.995-0.274-1.466,0.025c-0.164,0.084-0.373,0.143-0.577,0.111c-0.588,0.34-1.315,0.215-1.901,0.532
		c-0.945,0.141-1.951,0.118-2.876,0.305c-0.159-0.03-0.365-0.039-0.401-0.247c-0.036-0.208,0.092-0.522-0.18-0.581
		c-0.703-0.146-1.334,0.123-1.994,0.047c-0.308,0.238-0.663-0.03-0.993,0.184c-0.736,0.081-1.39,0.349-2.146,0.361
		c-0.252,0.012-0.508,0.092-0.733,0.013c-0.259,0.149-0.546-0.07-0.744-0.263c-0.722-0.239-1.423,0.073-2.134,0.11
		c-0.553,0.067-1.063,0.227-1.595,0.34c-0.112-0.051-0.27-0.104-0.333-0.221c-0.059-0.209,0.132-0.383,0.293-0.399
		c1.237-0.517,2.532-0.802,3.89-0.969c1.233,0.079,2.22-0.495,3.412-0.51c0.19-0.152,0.442-0.163,0.666-0.039
		c0.042,0.093-0.034,0.25,0.03,0.345c0.941-0.049,1.868-0.305,2.854-0.329c0.365,0.039,0.735-0.058,1.077-0.02
		c0.994-0.207,2.011-0.413,2.9-0.854c0.207-0.014,0.392-0.051,0.594,0.027c0.062,0.14-0.013,0.297-0.087,0.408
		c-0.173,0.29-0.517,0.297-0.644,0.566c0.126,0.258,0.386,0.063,0.543,0.139c0.187-0.083,0.388,0.018,0.595,0.004
		c0.233-0.081,0.597-0.042,0.834-0.214c0.376-0.212,0.764-0.194,1.2-0.198c0.085,0.141,0.269,0.127,0.407,0.11
		c0.283-0.193,0.159-0.474,0.148-0.749c-0.27-0.607-0.354-1.298-0.438-1.966c-0.031-0.826,0.126-1.78,0.278-2.62
		c0.05-0.593-0.46-1.486,0.22-1.822c0.181,0.054,0.302-0.101,0.481-0.001c0.646,0.395,1.094,1.125,1.362,1.779
		c0.185-0.037,0.129-0.315,0.183-0.495c-0.014-0.207,0.041-0.41,0.074-0.615c-0.028-0.391-0.166-0.878,0.1-1.209
		c0.587,0.187,0.974,0.731,1.612,0.805c0.511,0.344,0.321,0.999,0.412,1.53c0.054,0.323,0.318,0.564,0.466,0.845
		c0.279-0.102,0.321-0.512,0.492-0.756c0.132-0.383,0.511-0.664,0.53-1.098c0.1-0.179,0.109-0.384,0.163-0.565
		c0.292-0.376,0.358-0.831,0.783-1.109c0.416-0.096,0.507-0.572,0.703-0.861c0.432-0.438,0.371-1.128,0.534-1.693
		c-0.448-0.73,0.722-1.295,0.133-1.94c-0.114-0.005-0.088-0.073-0.04-0.139c-0.191-0.329,0.02-0.961-0.478-1.075
		c-0.459,0.025-0.714-0.421-1.173-0.396c-0.399-0.293-0.849-0.473-1.173-0.9c-0.522-0.092-0.838-0.702-1.413-0.659
		c-0.704-0.123-0.773-1.134-1.551-1.146c-0.476-0.617-1.304-0.54-1.879-0.978c-0.38-0.704-1.218-0.398-1.626-1.012
		c-0.398-0.316-0.467-0.822-0.84-1.183c0.018-0.388-0.056-0.781-0.342-1.046c0.026-0.571,0.214-1.181-0.154-1.655
		c-0.114-0.509,0.402-0.783,0.665-1.046c0.178-0.404,0.49-0.711,0.512-1.19c0.1-0.179,0.349-0.122,0.45-0.323
		c0.556-0.135,1.01-0.573,1.439-0.943c0.543,0.139,0.928-0.279,1.242-0.631c0.368-0.029,0.821,0.083,1.087-0.249
		c0.366,0.016,0.725,0.17,1.054-0.021c0.491,0.274,1.032-0.045,1.526,0.183c0.402-0.28,0.952,0.203,1.358-0.168
		c0.295,0.059,0.627,0.303,0.893-0.005c0.359,0.154,0.644-0.063,1.026,0.092c0.228,0.01,0.352-0.19,0.539-0.273
		c0.456,0.043,0.874-0.098,1.272-0.286c0.227,0.033,0.435-0.003,0.6-0.11c0.068-0.501,0.734-0.539,0.824-1.016
		c0.42-0.164,0.19-0.655,0.543-0.868c0.026-0.571,0.417-1.126,0.076-1.691c0.002-0.549-0.601-0.897-0.691-1.428
		c-0.334-0.198-0.597-0.462-0.883-0.727c-0.316-0.106-0.607-0.256-0.929-0.225c-0.301,0.078-0.606,0.247-0.95,0.255
		c-0.043-0.071-0.04-0.139-0.13-0.166c-0.145,0.177-0.323,0.054-0.506,0.046C42.72,9.92,42.56,9.913,42.656,9.826
		c0.07-0.02,0.163-0.061,0.19-0.152c0.007-0.16-0.17-0.282-0.071-0.461c0.768-0.286,1.836-0.604,2.589-0.043
		C45.456,9.174,45.571,9.156,45.66,9.206z"/>
	<path d="M24.6,9.126c0.216,0.285,0.315,0.632,0.344,1c0.161,0.488,0.589,1.148,0.088,1.607c-0.046-0.002-0.048,0.044-0.095,0.064
		c-0.386-0.59-0.725-1.177-1.322-1.662c-0.029-0.368-0.336-0.679-0.603-0.851c-0.452-0.135-0.745,0.264-1.201,0.221
		c-0.236,0.15-0.555,0.112-0.802,0.01c-0.111-0.074-0.106-0.188-0.102-0.279c0.229-0.516,0.771-0.858,1.198-1.182
		c0.621-0.064,1.379-0.121,1.887,0.291C24.261,8.515,24.616,8.76,24.6,9.126z"/>
	<path d="M58.331,13.555c0.067,1.056-0.853,1.656-1.302,2.46c-0.531,0.594-0.837,1.29-1.411,1.837
		c-0.04,0.387-0.441,0.644-0.368,1.059c-0.003,0.069,0.088,0.073,0.109,0.119c0.721,0.261,1.556,0.528,2.364,0.381
		c0.594,0.027,1.061,0.345,1.632,0.371c0.592,0.073,0.772,0.653,0.982,1.075c-0.027,0.09-0.099,0.156-0.168,0.176
		c-0.354-0.268-0.707-0.559-1.162-0.625c-0.744-0.263-1.634,0.178-2.372-0.199c-0.548-0.025-1.056-0.437-1.596-0.141
		c-0.406-0.133-0.953-0.18-1.115-0.668c-0.089-0.554,0.519-0.847,0.544-1.395c0.387-0.967,1.133-1.758,1.722-2.647
		c0.537-0.731,1.074-1.486,1.811-2.071C58.162,13.25,58.292,13.416,58.331,13.555z"/>
	<path d="M10.865,12.605c0.258,0.378,0.373,0.864,0.237,1.339c-0.197,0.312-0.264,0.767-0.657,0.863
		c-0.206-0.009-0.442,0.163-0.617-0.028c-0.326-0.381-0.373-0.864-0.282-1.364c0.136-0.475,0.542-0.846,0.944-1.125
		C10.643,12.457,10.904,12.263,10.865,12.605z"/>
	<path d="M14.368,13.129c0.123,0.326,0.312,0.701,0.18,1.084c0.04,0.139,0.1,0.325-0.042,0.433
		c-0.208,0.036-0.356,0.282-0.586,0.294c-0.074,0.111-0.125,0.223-0.263,0.24c-0.161,0.016-0.276,0.033-0.41-0.041
		c-0.326-0.381-0.416-0.935-0.234-1.407c0.219-0.288,0.105-0.797,0.433-0.965c0.224,0.102,0.243-0.31,0.489-0.184
		C14.133,12.752,14.262,12.941,14.368,13.129z"/>
	<path d="M23.749,13.781c0.39,0.498,0.499,1.122,0.96,1.554c-0.219,0.288-0.328,0.672-0.389,1.013
		c-0.143,0.131-0.292,0.376-0.473,0.345c-0.174-0.214-0.277-0.448-0.266-0.699c-0.02-0.07-0.064-0.094-0.016-0.161
		c0.05-0.089,0.112,0.051,0.162-0.038c-0.404-0.179,0.006-0.641-0.447-0.753c-0.226-0.056-0.426-0.202-0.655-0.19
		c-0.039-0.139-0.15-0.236-0.31-0.243c-0.296-0.036-0.407,0.394-0.668,0.084c-0.368,0.029-0.258-0.378-0.388-0.544
		c0.06-0.318,0.078-0.706,0.449-0.827c0.425-0.278,0.99-0.116,1.438,0.088C23.322,13.602,23.546,13.703,23.749,13.781z"/>
	<path d="M21.404,18.048c0.417,0.408,0.32,1.022,0.387,1.574c-0.038,0.342-0.012,0.778,0.063,1.148
		c0.084,0.164-0.264,0.263-0.041,0.41c0.061,0.163-0.125,0.223-0.086,0.385c-0.186,0.06-0.394,0.097-0.572-0.003
		c-0.697-0.283-0.432-1.073-0.754-1.568c0.048-0.547-0.388-1.048-0.159-1.541c0.055-0.204,0.112-0.453,0.368-0.556
		C20.887,17.842,21.182,17.901,21.404,18.048z"/>
	<path d="M44.512,20.442c0.073,0.415-0.033,0.731-0.052,1.142c-0.155,0.382-0.148,0.749-0.235,1.157
		c-0.26,0.171-0.344,0.511-0.666,0.542c-0.136-0.029-0.317-0.083-0.378-0.246c0.324-0.581-0.152-1.197,0.06-1.829
		c0.106-0.316,0.189-0.633,0.361-0.9c0.157,0.076,0.254-0.057,0.413-0.027C44.074,20.01,44.571,20.147,44.512,20.442z"/>
	<path d="M56.262,25.414c0.334,0.725,0.389,1.529,0.606,2.294c-0.087,0.408,0.151,0.717,0.296,1.044
		c-0.065,0.432,0.398,0.819,0.103,1.264c0.171,0.26,0.127,0.738,0.54,0.711c0.403,0.201,0.699-0.77,0.923-0.164
		c-0.202,0.426-0.581,0.706-1.023,0.847c-0.452-0.135-0.949-0.272-1.231-0.628c-0.271-0.585-0.263-1.271-0.442-1.875
		c-0.059-0.712-0.446-1.279-0.809-1.868c-0.153-0.671-0.631-1.242-0.922-1.896c0.052-0.135,0.149-0.268,0.18-0.427
		c0.101-0.202,0.267-0.331,0.476-0.391C55.529,24.419,56.082,24.856,56.262,25.414z"/>
	<path d="M52.096,28.454c0.336,0.679,0.317,1.594-0.101,2.239c-0.009,0.206-0.109,0.384-0.186,0.564
		c0.099,0.348,0.08,0.759,0.342,1.046c0.122,0.349-0.209,0.563-0.311,0.81c-0.333,0.283-0.662-0.053-0.931-0.179
		c-0.382-0.155-0.205-0.536-0.284-0.814c-0.008-1.351,0.886-2.387,0.65-3.748c0.251,0.011,0.405-0.348,0.695-0.175
		C52.058,28.269,52.03,28.382,52.096,28.454z"/>
	<path fill="#FFFFFF" d="M19.003,36.257c0.131,0.143,0.309,0.266,0.23,0.491c-0.005,0.114-0.1,0.179-0.237,0.172
		c-0.493-0.228-1.234-0.056-1.434-0.706c-0.149-0.259-0.316-0.61-0.121-0.875c0.187-0.083,0.412-0.004,0.591,0.095
		C18.29,35.812,18.646,36.035,19.003,36.257z"/>
	<path fill="#FFD520" d="M41.583,39.702c-0.11,1.415-0.158,2.992-0.967,4.169c-0.319,0.466-0.594,0.981-0.778,1.522
		c-0.103,0.247-0.248,0.424-0.524,0.457c-0.131-0.143-0.211-0.399-0.132-0.624c0.249-0.447,0.098-1.163,0.77-1.339
		c0.358-0.327,0.085-0.866,0.307-1.223c0.436-0.53,0.964-1.078,0.903-1.745c0.408-0.417-0.028-0.894-0.17-1.313
		c0.111-0.43-0.38-0.704-0.087-1.126c0.104-0.27,0.043-0.456,0.259-0.675c0.073-0.088,0.035-0.273,0.172-0.267
		C41.675,38.172,41.591,39.016,41.583,39.702z"/>
	<path fill="#FFD520" d="M20.733,36.976c-0.202,0.426-0.315,0.902-0.608,1.301c-0.263,0.24-0.634,0.361-0.996,0.253
		c0.081-0.271-0.034-0.78,0.446-0.758c0.206,0.009,0.373-0.143,0.472-0.322c0.078-0.203-0.227-0.56,0.164-0.588
		C20.372,36.868,20.652,36.743,20.733,36.976z"/>
	<path fill="#FFD520" d="M36.003,39.542c-0.003,0.572-0.235,1.157-0.287,1.796c-0.129,0.315-0.028,0.617-0.066,0.959
		c0.007,0.87,0.78,1.478,0.857,2.328c0.282,0.356,0.305,0.861,0.284,1.318c-0.049,0.066-0.115,0.018-0.184,0.015
		c-0.044-0.048-0.048,0.044-0.072,0.065c-0.031,0.182,0.169,0.305,0.024,0.482c-0.258,0.126-0.578,0.134-0.874,0.098
		c-0.277-0.448-0.368-0.978-0.552-1.467c0.202-0.426,0.132-0.887,0.222-1.364c-0.109-0.119-0.054-0.323-0.003-0.435
		c-0.13-0.67-0.537-1.284-0.412-2.033c-0.031-0.322,0.123-0.704,0.025-1.052c0.08-0.248-0.111-0.577,0.148-0.749
		c-0.071-0.461,0.085-0.866,0.105-1.323C35.519,38.605,35.61,39.135,36.003,39.542z"/>
	<path fill="#FFD520" d="M39.201,42.251c0.055,0.3-0.027,0.594-0.063,0.89c-0.473,0.849-0.992,1.695-0.971,2.749
		c-0.164,0.084-0.328,0.168-0.486,0.115c-0.297-0.517-0.176-1.176-0.45-1.692c-0.055-0.804-0.506-1.465-0.285-2.302
		c0.181-0.45-0.21-0.925,0.194-1.251c-0.007-0.344,0.188-0.61,0.203-0.952c0.336-0.351,0.159-0.977,0.407-1.401
		C38.685,39.48,38.593,41.01,39.201,42.251z"/>
	<path fill="#FFD520" d="M43.89,39.303c0.066,0.575-0.32,0.993-0.344,1.541c-0.251,0.492-0.457,0.987-0.708,1.479
		c-0.238,0.699-0.59,1.416-1.14,1.918c0.032-0.205,0.157-0.428,0.213-0.654c0.324-0.077,0.227-0.471,0.374-0.67
		c0.031-0.685,0.443-1.194,0.472-1.833c0.241-0.264,0.147-0.726,0.543-0.868c0.119-0.109,0.103-0.247,0.132-0.383
		c0.145-0.177,0.271-0.423,0.39-0.532C43.845,39.301,43.867,39.302,43.89,39.303z"/>
	<path fill="#FFD520" d="M40.389,40.29c0.012,0.252-0.043,0.456-0.077,0.683c-0.216,0.219-0.253,0.538-0.491,0.733
		c0.061-0.341-0.17-0.809-0.266-1.203c0.086-0.385,0.021-0.984,0.461-1.078C40.163,39.707,40.149,40.027,40.389,40.29z"/>
	<path fill="#FFD520" d="M59.154,42.006c0.103,0.257-0.249,0.447-0.418,0.645c-0.334,0.305-0.556,0.662-0.487,1.146
		c0.182,0.535,0.644,0.945,0.594,1.561c-0.069,0.523-0.363,0.945-0.342,1.496c-0.173,0.29-0.538,0.25-0.812,0.238
		c-0.931-0.179-1.458-1.188-2.441-1.209c-0.663-0.03-1.286,0.079-1.906,0.12c-0.234,0.104-0.48-0.022-0.736,0.081
		c-1.348-0.061-2.906-0.04-4.143-0.53c-0.265-0.218-0.72-0.284-0.77-0.699c-0.004-0.412,0.329-0.695,0.528-1.052
		c0.261-0.194,0.601-0.133,0.841-0.374c0.455,0.066,0.704-0.38,1.115-0.362c0.775-0.423,1.612-0.706,2.406-1.059
		c0.457,0.021,0.785,0.356,1.243,0.354c0.254-0.057,0.503,0.023,0.681,0.122c0.503,0.023,0.883-0.281,1.363-0.259
		c0.347-0.076,0.675-0.244,1.041-0.228c0.354-0.236,0.746-0.287,1.097-0.454C58.465,41.563,58.994,41.495,59.154,42.006z"/>
	<path fill="#FFFFFF" d="M30.925,44.007c-0.074,0.111-0.256,0.103-0.373,0.143c-0.596,0.019-1.18,0.267-1.771,0.172
		c0.585-0.271,1.37-0.419,2.1-0.363C30.904,43.96,30.926,43.984,30.925,44.007z"/>
	<path fill="#FFD520" d="M41.802,45.505c-0.424,0.256,0.043,1.078-0.688,1.045c-0.226-0.056-0.429-0.134-0.68-0.145
		c-0.019-0.092,0.031-0.182,0.147-0.222c0.116-0.041,0.25,0.034,0.348-0.099c-0.007-0.344,0.382-0.349,0.551-0.548
		c0.052-0.135,0.218-0.265,0.336-0.351C41.903,45.281,41.807,45.391,41.802,45.505z"/>
</g>
</svg>
