<?xml version="1.0" encoding="utf-8"?>
<!-- Generator: Adobe Illustrator 17.0.2, SVG Export Plug-In . SVG Version: 6.00 Build 0)  -->
<!DOCTYPE svg PUBLIC "-//W3C//DTD SVG 1.1//EN" "http://www.w3.org/Graphics/SVG/1.1/DTD/svg11.dtd">
<svg version="1.1" id="Art" xmlns="http://www.w3.org/2000/svg" xmlns:xlink="http://www.w3.org/1999/xlink" x="0px" y="0px"
	 width="32px" height="32px" viewBox="0 0 32 32" enable-background="new 0 0 32 32" xml:space="preserve">
<g>
	<g>
		<circle fill="#CFD1D4" cx="15.752" cy="16.483" r="14.5"/>
		<circle fill="none" stroke="#CFD1D4" stroke-width="0.9667" stroke-miterlimit="10" cx="15.752" cy="16.483" r="14.5"/>
	</g>
	<g>
		<circle fill="#FFFFFF" cx="15.752" cy="15.5" r="14.5"/>
		<circle fill="none" stroke="#CFD1D4" stroke-width="0.9667" stroke-miterlimit="10" cx="15.752" cy="15.5" r="14.5"/>
	</g>
</g>
<path fill="#737373" d="M17.659,16l2.997-2.997c0.458-0.458,0.458-1.201,0-1.659c-0.459-0.458-1.2-0.458-1.659,0L16,14.341
	l-2.997-2.997c-0.459-0.458-1.2-0.458-1.659,0c-0.458,0.458-0.458,1.201,0,1.659L14.341,16l-2.997,2.997
	c-0.458,0.458-0.458,1.201,0,1.659C11.573,20.886,11.873,21,12.173,21s0.6-0.114,0.83-0.343L16,17.659l2.997,2.997
	C19.227,20.885,19.526,21,19.827,21s0.6-0.114,0.83-0.343c0.458-0.458,0.458-1.201,0-1.659L17.659,16z"/>
</svg>
