<?xml version="1.0" encoding="utf-8"?>
<!-- Generator: Adobe Illustrator 17.0.2, SVG Export Plug-In . SVG Version: 6.00 Build 0)  -->
<!DOCTYPE svg PUBLIC "-//W3C//DTD SVG 1.1//EN" "http://www.w3.org/Graphics/SVG/1.1/DTD/svg11.dtd">
<svg version="1.1" id="Layer_1" xmlns="http://www.w3.org/2000/svg" xmlns:xlink="http://www.w3.org/1999/xlink" x="0px" y="0px"
	 width="13px" height="12.997px" viewBox="-340.5 361.5 13 12.997" enable-background="new -340.5 361.5 13 12.997"
	 xml:space="preserve">
<path fill="#FFFFFF" d="M-327.633,372.421c-0.736,1.765-2.463,2.075-3.027,2.075c-0.166,0-2.746,0.137-6.455-3.381
	c-2.985-2.831-3.35-5.876-3.381-6.455c-0.031-0.563,0.13-1.977,2.075-3.027c0.241-0.13,0.719-0.188,0.842-0.064
	c0.055,0.055,1.687,2.74,1.73,2.829c0.043,0.089,0.064,0.176,0.064,0.262c0,0.123-0.087,0.276-0.262,0.46
	c-0.175,0.184-0.365,0.353-0.57,0.506c-0.206,0.153-0.396,0.316-0.571,0.488c-0.175,0.172-0.262,0.313-0.262,0.423
	c0.012,0.286,0.247,1.312,2.035,2.884c1.788,1.572,2.65,2.014,2.733,2.045c0.083,0.031,0.152,0.046,0.207,0.046
	c0.111,0,0.252-0.087,0.423-0.262c0.172-0.175,0.749-0.966,0.933-1.141c0.184-0.175,0.337-0.262,0.46-0.262
	c0.086,0,0.173,0.021,0.262,0.064c0.089,0.043,2.778,1.616,2.83,1.669C-327.429,371.722-327.528,372.168-327.633,372.421"/>
</svg>
