<?xml version="1.0" encoding="utf-8"?>
<!-- Generator: Adobe Illustrator 17.0.2, SVG Export Plug-In . SVG Version: 6.00 Build 0)  -->
<!DOCTYPE svg PUBLIC "-//W3C//DTD SVG 1.1//EN" "http://www.w3.org/Graphics/SVG/1.1/DTD/svg11.dtd">
<svg version="1.1" id="Layer_1" xmlns="http://www.w3.org/2000/svg" xmlns:xlink="http://www.w3.org/1999/xlink" x="0px" y="0px"
	 width="28px" height="20px" viewBox="0 0 28 20" enable-background="new 0 0 28 20" xml:space="preserve">
<g>
	<path fill="#F3F5F6" d="M2,18.5c-0.827,0-1.5-0.673-1.5-1.5V2c0-0.827,0.673-1.5,1.5-1.5h24c0.827,0,1.5,0.673,1.5,1.5v15
		c0,0.827-0.673,1.5-1.5,1.5H2z"/>
	<path fill="#B5B5B5" d="M26,1c0.551,0,1,0.449,1,1v15c0,0.551-0.449,1-1,1H2c-0.551,0-1-0.449-1-1V2c0-0.551,0.449-1,1-1H26 M26,0
		H2C0.895,0,0,0.895,0,2v15c0,1.105,0.895,2,2,2h24c1.105,0,2-0.895,2-2V2C28,0.895,27.105,0,26,0L26,0z"/>
</g>
<g>
	<g>
		<g>
			<circle fill="#ED1C2E" cx="9.5" cy="9.5" r="6.5"/>
			<g>
				<path fill="#FCB131" d="M18.227,3c-1.68,0-3.21,0.637-4.364,1.683c-0.235,0.213-0.454,0.443-0.656,0.688h1.313
					c0.179,0.218,0.345,0.448,0.496,0.688h-2.304c-0.138,0.221-0.263,0.451-0.375,0.688h3.053c0.104,0.223,0.196,0.452,0.275,0.688
					h-3.604c-0.075,0.224-0.138,0.454-0.189,0.688h3.981C15.949,8.567,16,9.028,16,9.5c0,0.722-0.118,1.416-0.335,2.065h-3.604
					c0.079,0.236,0.171,0.465,0.275,0.688h3.053c-0.111,0.238-0.236,0.467-0.375,0.688h-2.304c0.15,0.24,0.316,0.47,0.496,0.688
					h1.313c-0.202,0.245-0.421,0.475-0.657,0.688C15.017,15.363,16.547,16,18.227,16c3.59,0,6.5-2.91,6.5-6.5
					C24.727,5.911,21.817,3,18.227,3z"/>
			</g>
		</g>
		<path fill="#FCB131" d="M23.86,13.123c0-0.116,0.094-0.21,0.21-0.21c0.116,0,0.21,0.094,0.21,0.21c0,0.116-0.094,0.21-0.21,0.21
			C23.954,13.333,23.86,13.239,23.86,13.123z M24.07,13.283c0.088,0,0.159-0.072,0.159-0.16c0-0.088-0.072-0.159-0.159-0.159
			c-0.088,0-0.16,0.071-0.16,0.159C23.911,13.211,23.982,13.283,24.07,13.283z M24.042,13.216h-0.043v-0.184h0.078
			c0.016,0,0.033,0,0.047,0.009c0.015,0.01,0.023,0.028,0.023,0.046c0,0.021-0.012,0.04-0.032,0.048l0.034,0.081h-0.048
			l-0.028-0.073h-0.032V13.216z M24.042,13.111h0.024c0.009,0,0.018,0.001,0.026-0.004c0.007-0.005,0.011-0.013,0.011-0.021
			c0-0.007-0.005-0.015-0.011-0.019c-0.008-0.004-0.019-0.004-0.027-0.004h-0.023V13.111z"/>
	</g>
	<g>
		<g>
			<path fill="#003473" d="M7.982,10.212c-0.074-0.009-0.107-0.011-0.158-0.011c-0.4,0-0.602,0.137-0.602,0.408
				c0,0.167,0.099,0.273,0.253,0.273C7.763,10.882,7.97,10.608,7.982,10.212z M8.496,11.406c-0.094,0-0.585,0-0.585,0l0.013-0.278
				c-0.178,0.22-0.416,0.324-0.74,0.324c-0.382,0-0.645-0.299-0.645-0.732c0-0.653,0.456-1.034,1.239-1.034
				c0.08,0,0.183,0.007,0.288,0.021c0.022-0.088,0.028-0.126,0.028-0.174c0-0.177-0.123-0.244-0.452-0.244
				C7.296,9.286,7.012,9.372,6.895,9.41c0.007-0.044,0.098-0.603,0.098-0.603c0.352-0.103,0.583-0.142,0.845-0.142
				c0.606,0,0.927,0.272,0.926,0.786c0.001,0.138-0.022,0.308-0.057,0.531C8.645,10.371,8.513,11.204,8.496,11.406z"/>
			<polygon fill="#003473" points="6.245,11.406 5.539,11.406 5.943,8.872 5.041,11.406 4.56,11.406 4.5,8.886 4.075,11.406 
				3.415,11.406 3.967,8.109 4.981,8.109 5.043,9.955 5.662,8.109 6.79,8.109 			"/>
			<path fill="#003473" d="M19.099,10.212c-0.074-0.009-0.106-0.011-0.157-0.011c-0.4,0-0.602,0.137-0.602,0.408
				c0,0.167,0.098,0.273,0.253,0.273C18.879,10.882,19.087,10.608,19.099,10.212z M19.612,11.406c-0.094,0-0.585,0-0.585,0
				l0.013-0.278c-0.178,0.22-0.416,0.324-0.739,0.324c-0.383,0-0.645-0.299-0.645-0.732c0-0.653,0.456-1.034,1.239-1.034
				c0.08,0,0.182,0.007,0.288,0.021c0.022-0.088,0.027-0.126,0.027-0.174c0-0.177-0.123-0.244-0.452-0.244
				c-0.345-0.004-0.63,0.083-0.747,0.121c0.008-0.044,0.098-0.603,0.098-0.603c0.351-0.103,0.583-0.142,0.844-0.142
				c0.606,0,0.927,0.272,0.927,0.786c0.001,0.138-0.022,0.308-0.057,0.531C19.762,10.371,19.63,11.204,19.612,11.406z"/>
			<path fill="#003473" d="M11.632,11.366c-0.193,0.061-0.344,0.087-0.507,0.087c-0.361,0-0.558-0.207-0.558-0.589
				c-0.005-0.118,0.052-0.43,0.097-0.715c0.041-0.25,0.306-1.83,0.306-1.83h0.701l-0.082,0.406h0.424L11.917,9.37h-0.425
				c-0.081,0.51-0.198,1.145-0.199,1.229c0,0.138,0.074,0.199,0.242,0.199c0.08,0,0.143-0.008,0.19-0.025L11.632,11.366z"/>
			<path fill="#003473" d="M13.782,11.344c-0.241,0.074-0.473,0.11-0.72,0.109c-0.785-0.001-1.195-0.411-1.195-1.196
				c0-0.916,0.521-1.591,1.228-1.591c0.578,0,0.948,0.378,0.948,0.97c0,0.197-0.025,0.389-0.087,0.66H12.56
				c-0.047,0.389,0.202,0.551,0.61,0.551c0.251,0,0.477-0.052,0.729-0.169L13.782,11.344z M13.388,9.754
				c0.004-0.056,0.074-0.479-0.327-0.479c-0.223,0-0.383,0.17-0.448,0.479H13.388z"/>
			<path fill="#003473" d="M8.919,9.573c0,0.339,0.164,0.573,0.537,0.749c0.286,0.134,0.33,0.174,0.33,0.296
				c0,0.167-0.126,0.243-0.405,0.243c-0.211,0-0.407-0.033-0.632-0.106c0,0-0.093,0.591-0.097,0.619
				c0.16,0.035,0.303,0.067,0.734,0.079c0.745,0,1.088-0.283,1.088-0.896c0-0.368-0.144-0.585-0.497-0.747
				c-0.296-0.136-0.33-0.166-0.33-0.291c0-0.145,0.117-0.219,0.345-0.219c0.139,0,0.328,0.015,0.507,0.04l0.1-0.622
				c-0.183-0.029-0.46-0.052-0.621-0.052C9.19,8.665,8.916,9.078,8.919,9.573z"/>
			<path fill="#003473" d="M17.214,8.736c0.196,0,0.379,0.051,0.631,0.178l0.116-0.716c-0.104-0.041-0.467-0.279-0.776-0.279
				c-0.472,0-0.872,0.234-1.152,0.621c-0.41-0.136-0.578,0.138-0.784,0.412l-0.183,0.043c0.014-0.09,0.027-0.179,0.022-0.27h-0.648
				c-0.088,0.83-0.245,1.671-0.368,2.501l-0.032,0.18h0.706c0.118-0.766,0.182-1.256,0.222-1.588l0.266-0.147
				c0.04-0.148,0.164-0.198,0.413-0.192c-0.032,0.175-0.05,0.359-0.05,0.55c0,0.877,0.474,1.423,1.233,1.423
				c0.196,0,0.364-0.026,0.624-0.096l0.124-0.751c-0.234,0.115-0.426,0.169-0.599,0.169c-0.41,0-0.658-0.303-0.658-0.803
				C16.318,9.245,16.687,8.736,17.214,8.736z"/>
			<path fill="#003473" d="M23.189,8.109l-0.157,0.953c-0.193-0.254-0.4-0.438-0.674-0.438c-0.356,0-0.68,0.27-0.892,0.667
				c-0.296-0.061-0.601-0.166-0.601-0.166l0,0.003c0.024-0.222,0.034-0.357,0.031-0.404h-0.648c-0.088,0.83-0.245,1.671-0.368,2.501
				l-0.032,0.18h0.706c0.095-0.619,0.168-1.133,0.222-1.541c0.241-0.218,0.362-0.408,0.606-0.395
				c-0.108,0.261-0.171,0.562-0.171,0.87c0,0.67,0.339,1.112,0.852,1.112c0.259,0,0.457-0.089,0.651-0.296l-0.033,0.249h0.668
				l0.537-3.297H23.189z M22.306,10.787c-0.24,0-0.362-0.178-0.362-0.529c0-0.527,0.227-0.901,0.547-0.901
				c0.243,0,0.374,0.184,0.374,0.525C22.866,10.415,22.635,10.787,22.306,10.787z"/>
		</g>
		<g>
			<polygon fill="#FFFFFF" points="6.448,11.211 5.742,11.211 6.146,8.676 5.244,11.211 4.763,11.211 4.703,8.691 4.278,11.211 
				3.618,11.211 4.17,7.914 5.185,7.914 5.213,9.955 5.898,7.914 6.993,7.914 			"/>
			<path fill="#FFFFFF" d="M8.185,10.016c-0.074-0.009-0.107-0.011-0.158-0.011c-0.4,0-0.602,0.137-0.602,0.408
				c0,0.167,0.099,0.273,0.253,0.273C7.966,10.687,8.173,10.413,8.185,10.016z M8.699,11.211c-0.094,0-0.585,0-0.585,0l0.013-0.278
				c-0.178,0.219-0.416,0.324-0.74,0.324c-0.382,0-0.645-0.299-0.645-0.733c0-0.653,0.456-1.033,1.239-1.033
				c0.08,0,0.183,0.007,0.288,0.021c0.022-0.089,0.028-0.126,0.028-0.174c0-0.177-0.123-0.243-0.452-0.243
				c-0.345-0.004-0.63,0.082-0.747,0.12C7.105,9.17,7.196,8.612,7.196,8.612C7.547,8.508,7.779,8.47,8.04,8.47
				c0.606,0,0.927,0.272,0.926,0.786c0.001,0.138-0.022,0.308-0.057,0.531C8.848,10.175,8.717,11.008,8.699,11.211z"/>
			<path fill="#FFFFFF" d="M18.163,8.003l-0.116,0.715c-0.252-0.127-0.435-0.178-0.63-0.178c-0.527,0-0.896,0.509-0.896,1.235
				c0,0.5,0.248,0.803,0.659,0.803c0.174,0,0.366-0.054,0.599-0.169l-0.124,0.751c-0.26,0.071-0.428,0.097-0.624,0.097
				c-0.76,0-1.233-0.546-1.233-1.423c0-1.179,0.654-2.003,1.589-2.003C17.696,7.831,18.06,7.962,18.163,8.003z"/>
			<path fill="#FFFFFF" d="M19.302,10.016c-0.074-0.009-0.106-0.011-0.157-0.011c-0.4,0-0.602,0.137-0.602,0.408
				c0,0.167,0.099,0.273,0.253,0.273C19.082,10.687,19.29,10.413,19.302,10.016z M19.815,11.211c-0.094,0-0.585,0-0.585,0
				l0.013-0.278c-0.178,0.219-0.416,0.324-0.739,0.324c-0.383,0-0.644-0.299-0.644-0.733c0-0.653,0.456-1.033,1.239-1.033
				c0.08,0,0.182,0.007,0.287,0.021c0.022-0.089,0.028-0.126,0.028-0.174c0-0.177-0.123-0.243-0.452-0.243
				c-0.345-0.004-0.63,0.082-0.747,0.12c0.007-0.044,0.098-0.603,0.098-0.603c0.352-0.103,0.583-0.142,0.845-0.142
				c0.606,0,0.927,0.272,0.926,0.786c0.001,0.138-0.022,0.308-0.057,0.531C19.965,10.175,19.833,11.008,19.815,11.211z"/>
			<path fill="#FFFFFF" d="M11.835,11.17c-0.193,0.061-0.344,0.087-0.507,0.087c-0.361,0-0.558-0.207-0.558-0.589
				c-0.005-0.119,0.052-0.43,0.097-0.715c0.041-0.251,0.306-1.83,0.306-1.83h0.701L11.792,8.53h0.36l-0.096,0.644h-0.361
				c-0.081,0.51-0.198,1.145-0.199,1.229c0,0.139,0.074,0.199,0.242,0.199c0.08,0,0.143-0.008,0.19-0.025L11.835,11.17z"/>
			<path fill="#FFFFFF" d="M13.986,11.149c-0.241,0.074-0.474,0.109-0.72,0.108c-0.785-0.001-1.195-0.411-1.195-1.196
				c0-0.917,0.521-1.592,1.227-1.592c0.579,0,0.948,0.378,0.948,0.971c0,0.197-0.026,0.388-0.086,0.659h-1.397
				c-0.047,0.389,0.202,0.551,0.609,0.551c0.251,0,0.478-0.052,0.73-0.169L13.986,11.149z M13.591,9.559
				c0.004-0.056,0.074-0.479-0.327-0.479c-0.223,0-0.383,0.171-0.448,0.479H13.591z"/>
			<path fill="#FFFFFF" d="M9.122,9.377c0,0.339,0.165,0.573,0.538,0.749c0.286,0.134,0.33,0.174,0.33,0.296
				c0,0.167-0.126,0.243-0.405,0.243c-0.211,0-0.406-0.033-0.632-0.105c0,0-0.093,0.591-0.097,0.619
				c0.16,0.035,0.303,0.067,0.734,0.08c0.745,0,1.089-0.283,1.089-0.896c0-0.369-0.144-0.585-0.497-0.747
				C9.884,9.478,9.85,9.448,9.85,9.323c0-0.145,0.117-0.22,0.345-0.22c0.138,0,0.328,0.015,0.507,0.041l0.1-0.622
				c-0.183-0.029-0.46-0.052-0.621-0.052C9.393,8.47,9.119,8.882,9.122,9.377z"/>
			<path fill="#FFFFFF" d="M23.55,11.211h-0.667l0.033-0.25c-0.194,0.207-0.392,0.296-0.651,0.296c-0.513,0-0.852-0.442-0.852-1.113
				c0-0.892,0.526-1.643,1.148-1.643c0.274,0,0.481,0.112,0.674,0.366l0.156-0.953h0.696L23.55,11.211z M22.509,10.591
				c0.329,0,0.56-0.372,0.56-0.904c0-0.341-0.131-0.526-0.374-0.526c-0.32,0-0.547,0.374-0.547,0.901
				C22.147,10.414,22.269,10.591,22.509,10.591z"/>
			<path fill="#FFFFFF" d="M20.451,8.53c-0.088,0.83-0.245,1.67-0.368,2.501l-0.032,0.18h0.706c0.253-1.64,0.313-1.96,0.709-1.92
				c0.063-0.336,0.18-0.629,0.268-0.778c-0.296-0.062-0.461,0.106-0.677,0.423c0.017-0.137,0.048-0.271,0.042-0.407H20.451z"/>
			<path fill="#FFFFFF" d="M14.642,8.53c-0.089,0.83-0.246,1.67-0.368,2.501l-0.032,0.18h0.706c0.253-1.64,0.313-1.96,0.709-1.92
				c0.063-0.336,0.181-0.629,0.268-0.778c-0.295-0.062-0.461,0.106-0.677,0.423c0.017-0.137,0.048-0.271,0.042-0.407H14.642z"/>
			<g>
				<path fill="#FFFFFF" d="M23.86,11.001c0-0.116,0.094-0.21,0.21-0.21c0.116,0,0.21,0.094,0.21,0.21c0,0.116-0.094,0.21-0.21,0.21
					C23.954,11.211,23.86,11.116,23.86,11.001z M24.07,11.16c0.088,0,0.16-0.072,0.16-0.159c0-0.088-0.071-0.16-0.16-0.16
					c-0.088,0-0.159,0.072-0.159,0.16C23.91,11.089,23.982,11.16,24.07,11.16z M24.042,11.093h-0.043v-0.184h0.078
					c0.016,0,0.033,0.001,0.047,0.009c0.015,0.01,0.024,0.028,0.024,0.046c0,0.021-0.012,0.04-0.032,0.048l0.034,0.081h-0.048
					l-0.028-0.073h-0.032V11.093z M24.042,10.988h0.024c0.009,0,0.019,0.001,0.026-0.004c0.007-0.004,0.011-0.013,0.011-0.021
					c0-0.007-0.004-0.015-0.01-0.019c-0.007-0.004-0.019-0.003-0.027-0.003h-0.023V10.988z"/>
			</g>
		</g>
	</g>
</g>
<rect x="1" y="19" fill="#EAEAEA" width="26" height="1"/>
</svg>
