<?xml version="1.0" encoding="utf-8"?>
<!-- Generator: Adobe Illustrator 17.0.2, SVG Export Plug-In . SVG Version: 6.00 Build 0)  -->
<!DOCTYPE svg PUBLIC "-//W3C//DTD SVG 1.1//EN" "http://www.w3.org/Graphics/SVG/1.1/DTD/svg11.dtd">
<svg version="1.1" id="Layer_1" xmlns="http://www.w3.org/2000/svg" xmlns:xlink="http://www.w3.org/1999/xlink" x="0px" y="0px"
	 width="18px" height="20px" viewBox="0 0 18 20" enable-background="new 0 0 18 20" xml:space="preserve">
<g>
	<g>
		<circle fill="#164A7B" cx="9" cy="11" r="9"/>
	</g>
	<g>
		<circle fill="#9AE21C" cx="9" cy="9" r="9"/>
	</g>
</g>
<g>
	<path fill="#FFFFFF" d="M8.857,12.506c-0.013,0-0.026-0.004-0.038-0.005c-0.304-0.025-0.556-0.236-0.765-0.446L5.811,9.695
		C5.598,9.482,5.48,9.197,5.48,8.893S5.598,8.304,5.813,8.09c0.215-0.215,0.5-0.333,0.804-0.333c0.303,0,0.589,0.118,0.804,0.333
		l1.449,1.448l3.711-3.711c0.215-0.215,0.5-0.333,0.804-0.333c0.299,0,0.585,0.121,0.804,0.34c0.208,0.208,0.333,0.517,0.333,0.826
		c0,0.313-0.124,0.625-0.333,0.833l-4.503,4.563c-0.223,0.223-0.493,0.451-0.804,0.451"/>
</g>
</svg>
