<?xml version="1.0" encoding="utf-8"?>
<!-- Generator: Adobe Illustrator 17.0.2, SVG Export Plug-In . SVG Version: 6.00 Build 0)  -->
<!DOCTYPE svg PUBLIC "-//W3C//DTD SVG 1.1//EN" "http://www.w3.org/Graphics/SVG/1.1/DTD/svg11.dtd">
<svg version="1.1" id="Layer_1" xmlns="http://www.w3.org/2000/svg" xmlns:xlink="http://www.w3.org/1999/xlink" x="0px" y="0px"
	 width="87px" height="87px" viewBox="0 0 87 87" enable-background="new 0 0 87 87" xml:space="preserve">
<circle fill="none" stroke="#2277C5" stroke-width="3" stroke-miterlimit="10" cx="43.5" cy="43.5" r="42"/>
<path fill="#2377C5" d="M54.793,38.673h-0.354v-4.119c0-6.067-4.916-10.983-10.939-10.983S32.561,28.487,32.561,34.51v4.119h-0.354
	c-2.303,0-4.207,1.86-4.207,4.207v16.386c0,2.303,1.86,4.207,4.207,4.207h22.586c2.303,0,4.207-1.86,4.207-4.207V42.836
	C59,40.533,57.096,38.673,54.793,38.673z M45.936,56.564c0.133,0.709-0.399,1.329-1.107,1.329h-2.657
	c-0.709,0-1.24-0.62-1.107-1.329l0.31-5.359c-0.886-0.664-1.461-1.727-1.461-2.923c0-1.993,1.639-3.631,3.631-3.631
	c1.993,0,3.631,1.639,3.631,3.631c0,1.196-0.576,2.259-1.461,2.923L45.936,56.564z M50.01,38.673H36.99v-4.119
	c0-3.587,2.923-6.51,6.51-6.51s6.51,2.923,6.51,6.51V38.673z"/>
</svg>
