<?xml version="1.0" encoding="utf-8"?>
<!-- Generator: Adobe Illustrator 17.0.2, SVG Export Plug-In . SVG Version: 6.00 Build 0)  -->
<!DOCTYPE svg PUBLIC "-//W3C//DTD SVG 1.1//EN" "http://www.w3.org/Graphics/SVG/1.1/DTD/svg11.dtd">
<svg version="1.1" id="Layer_1" xmlns="http://www.w3.org/2000/svg" xmlns:xlink="http://www.w3.org/1999/xlink" x="0px" y="0px"
	 width="18px" height="20px" viewBox="-386.5 316.5 18 20" enable-background="new -386.5 316.5 18 20" xml:space="preserve">
<g>
	<path fill="#2377C5" d="M-377.5,333.25c-4.273,0-7.75-3.477-7.75-7.75s3.477-7.75,7.75-7.75s7.75,3.477,7.75,7.75
		S-373.227,333.25-377.5,333.25z"/>
	<path fill="#0E3268" d="M-377.5,319c3.584,0,6.5,2.916,6.5,6.5s-2.916,6.5-6.5,6.5s-6.5-2.916-6.5-6.5S-381.084,319-377.5,319
		 M-377.5,316.5c-4.971,0-9,4.029-9,9s4.029,9,9,9s9-4.029,9-9S-372.529,316.5-377.5,316.5L-377.5,316.5z"/>
</g>
</svg>
