<?xml version="1.0" encoding="utf-8"?>
<!-- Generator: Adobe Illustrator 17.0.2, SVG Export Plug-In . SVG Version: 6.00 Build 0)  -->
<!DOCTYPE svg PUBLIC "-//W3C//DTD SVG 1.1//EN" "http://www.w3.org/Graphics/SVG/1.1/DTD/svg11.dtd">
<svg version="1.1" id="Layer_1" xmlns="http://www.w3.org/2000/svg" xmlns:xlink="http://www.w3.org/1999/xlink" x="0px" y="0px"
	 width="32px" height="32px" viewBox="0 0 32 32" enable-background="new 0 0 32 32" xml:space="preserve">
<circle fill="#AFAFAF" cx="16" cy="16" r="16"/>
<g>
	<g>
		<path fill="#FFFFFF" d="M12.173,21c-0.3,0-0.6-0.115-0.829-0.344c-0.458-0.458-0.458-1.201,0-1.659l7.653-7.654
			c0.458-0.458,1.201-0.458,1.659,0c0.458,0.458,0.458,1.201,0,1.659l-7.653,7.654C12.774,20.885,12.473,21,12.173,21z"/>
	</g>
	<g>
		<path fill="#FFFFFF" d="M19.827,21c-0.3,0-0.6-0.115-0.829-0.344l-7.654-7.653c-0.458-0.458-0.458-1.201,0-1.659
			c0.458-0.458,1.201-0.458,1.659,0l7.654,7.653c0.458,0.458,0.458,1.201,0,1.659C20.427,20.885,20.127,21,19.827,21z"/>
	</g>
</g>
</svg>
