<?xml version="1.0" encoding="utf-8"?>
<!-- Generator: Adobe Illustrator 17.0.2, SVG Export Plug-In . SVG Version: 6.00 Build 0)  -->
<!DOCTYPE svg PUBLIC "-//W3C//DTD SVG 1.1//EN" "http://www.w3.org/Graphics/SVG/1.1/DTD/svg11.dtd">
<svg version="1.1" id="Layer_1" xmlns="http://www.w3.org/2000/svg" xmlns:xlink="http://www.w3.org/1999/xlink" x="0px" y="0px"
	 width="87px" height="87px" viewBox="0 0 87 87" enable-background="new 0 0 87 87" xml:space="preserve">
<circle fill="none" stroke="#2277C5" stroke-width="3" stroke-miterlimit="10" cx="43.5" cy="43.5" r="42"/>
<path fill="#2377C5" d="M64.698,57.93c1.784,1.785,1.712,4.64-0.072,6.497c-1.855,1.784-4.713,1.784-6.497-0.072L35.64,41.294
	c-1.93-1.857-3.07-2.428-4.641-1.929c-1.571,0.572-3.785,0.572-5.856-0.786c-4.426-2.855-4.139-8.21-4.139-8.21l0.356-0.572
	c0,0,3.998,2.57,4.498,2.857c0.644,0.5,2.855,1.499,4.854-1.571c2.071-3.07,0.359-4.997-0.212-5.355
	c-0.5-0.286-4.498-2.926-4.498-2.926l0.356-0.572c0,0,4.641-2.357,8.996,0.214c0,0.144,1.071,0.786,1.499,1.143
	c2.786,2.499,2.786,5.283,2.286,7.568c-0.431,2.071,0,2.785,1.64,4.57L64.698,57.93z M63.055,59.429
	c-0.928-0.929-2.427-0.929-3.426,0c-0.856,0.928-0.856,2.499,0,3.354c0.999,0.929,2.499,1.071,3.426,0.072
	C63.982,61.999,63.982,60.357,63.055,59.429z"/>
</svg>
