<?xml version="1.0" encoding="utf-8"?>
<!-- Generator: Adobe Illustrator 17.0.2, SVG Export Plug-In . SVG Version: 6.00 Build 0)  -->
<!DOCTYPE svg PUBLIC "-//W3C//DTD SVG 1.1//EN" "http://www.w3.org/Graphics/SVG/1.1/DTD/svg11.dtd">
<svg version="1.1" id="Layer_1" xmlns="http://www.w3.org/2000/svg" xmlns:xlink="http://www.w3.org/1999/xlink" x="0px" y="0px"
	 width="38px" height="22px" viewBox="-449 551 38 22" enable-background="new -449 551 38 22" xml:space="preserve">
<g>
	<path fill="#616D75" d="M-424.326,552.854c0.866,0,1.41,0.294,1.976,1.047l3.215,4.531h0.414c2.314,0,4.189,1.876,4.189,4.189
		v0.727l1.048,0.003c0.348,0,0.629,0.282,0.629,0.628v1.657c0,0.348-0.281,0.629-0.629,0.629l-3.557,0.002
		c0.06,0.265,0.092,0.536,0.092,0.817c0,2.022-1.639,3.66-3.658,3.66c-2.022,0-3.662-1.638-3.662-3.66
		c0-0.282,0.032-0.556,0.093-0.82l-12.084-0.002c0.062,0.265,0.094,0.539,0.094,0.822c0,2.022-1.639,3.66-3.661,3.66
		c-2.022,0-3.66-1.638-3.66-3.66c0-0.281,0.032-0.555,0.092-0.82l-3.126,0.002c-0.347,0-0.628-0.282-0.628-0.629v-1.657
		c0-0.346,0.281-0.629,0.628-0.629l1.107-0.003v-3.241c0-0.926,0.751-1.676,1.676-1.676l5.432-0.001l3.216-4.531
		c0.566-0.753,1.109-1.047,1.977-1.047H-424.326 M-427.059,558.432h4.759c0.347,0,0.429-0.281,0.184-0.629l-2.153-3.032
		c-0.318-0.42-0.447-0.452-0.796-0.452l-1.995,0.001c-0.348,0-0.629,0.281-0.629,0.628v2.854
		C-427.688,558.15-427.407,558.432-427.059,558.432 M-435.729,558.432h5.973c0.347,0,0.628-0.281,0.628-0.629v-2.854
		c0-0.347-0.281-0.628-0.628-0.628l-3.208-0.001c-0.35,0-0.479,0.032-0.796,0.452l-2.153,3.032
		C-436.157,558.15-436.075,558.432-435.729,558.432 M-420.606,568.874c0.988,0,1.789-0.801,1.789-1.79
		c0-0.989-0.801-1.79-1.789-1.79c-0.99,0-1.791,0.801-1.791,1.79C-422.397,568.073-421.596,568.874-420.606,568.874
		 M-439.825,568.874c0.989,0,1.79-0.801,1.79-1.79c0-0.989-0.801-1.79-1.79-1.79c-0.988,0-1.791,0.801-1.791,1.79
		C-441.615,568.073-440.813,568.874-439.825,568.874 M-424.326,551h-8.785c-1.443,0-2.542,0.568-3.458,1.787l-0.015,0.02
		l-0.015,0.021l-2.662,3.75l-4.474,0c-1.946,0-3.529,1.583-3.529,3.529v1.504c-1.004,0.317-1.735,1.259-1.735,2.368v1.657
		c0,1.369,1.113,2.483,2.482,2.483l1.278-0.001c0.486,2.547,2.73,4.478,5.416,4.478c2.688,0,4.933-1.933,5.417-4.482l8.383,0.002
		c0.485,2.548,2.73,4.48,5.418,4.48c2.685,0,4.928-1.931,5.415-4.478l1.709-0.001c1.368,0,2.482-1.114,2.482-2.482v-1.657
		c0-1.118-0.744-2.066-1.763-2.375c-0.454-2.669-2.664-4.747-5.395-5l-2.68-3.776l-0.015-0.021l-0.015-0.02
		C-421.785,551.568-422.883,551-424.326,551L-424.326,551z M-425.834,556.174l0.288,0l0.287,0.405h-0.576V556.174L-425.834,556.174z
		 M-432.77,556.578l0.287-0.404l1.501,0v0.404H-432.77L-432.77,556.578z"/>
</g>
</svg>
