<?xml version="1.0" encoding="utf-8"?>
<!-- Generator: Adobe Illustrator 17.0.2, SVG Export Plug-In . SVG Version: 6.00 Build 0)  -->
<!DOCTYPE svg PUBLIC "-//W3C//DTD SVG 1.1//EN" "http://www.w3.org/Graphics/SVG/1.1/DTD/svg11.dtd">
<svg version="1.1" id="Layer_1" xmlns="http://www.w3.org/2000/svg" xmlns:xlink="http://www.w3.org/1999/xlink" x="0px" y="0px"
	 width="16px" height="16px" viewBox="0 0 16 16" enable-background="new 0 0 16 16" xml:space="preserve">

	<circle cx="8.1" cy="8.1" r="7" stroke-width="1.5" stroke="#2377C5" fill="transparent"/>
	
<g>
	<path fill="#2377C5" d="M5.5,7.01C5.531,5.557,6.486,4.5,7.969,4.5C9.89,4.5,10.5,5.679,10.5,6.461
		c0,0.985-0.417,1.382-0.854,1.717C9.209,8.504,8.742,8.768,8.65,9.368v0.386H7.279V9.296c0.061-0.884,0.478-1.28,0.884-1.596
		c0.396-0.315,0.742-0.549,0.742-1.098c0-0.62-0.325-0.914-0.864-0.914c-0.732,0-1.037,0.6-1.046,1.321H5.5z M7.136,10.364h1.596
		v1.565H7.136V10.364z"/>
</g>

</svg>
