<?xml version="1.0" encoding="utf-8"?>
<!-- Generator: Adobe Illustrator 17.0.2, SVG Export Plug-In . SVG Version: 6.00 Build 0)  -->
<!DOCTYPE svg PUBLIC "-//W3C//DTD SVG 1.1//EN" "http://www.w3.org/Graphics/SVG/1.1/DTD/svg11.dtd">
<svg version="1.1" id="Layer_1" xmlns="http://www.w3.org/2000/svg" xmlns:xlink="http://www.w3.org/1999/xlink" x="0px" y="0px"
	 width="26px" height="26px" viewBox="0 0 26 26" enable-background="new 0 0 26 26" xml:space="preserve">
<circle fill="#FA6E10" cx="13" cy="13" r="13"/>
<path fill="#FFFFFF" d="M18,8.747c0-0.28-0.149-0.734-0.39-0.874c-0.242-0.14-0.54-0.141-0.783-0.003
	c-0.423,0.242-2.229,0.962-3.334,0.071c-2.276-1.836-5.015-0.124-5.13-0.05C8.11,8.052,7.985,8.529,8.007,8.808
	C8.005,8.832,8,8.854,8,8.878v9.739c0,0.433,0.351,0.784,0.784,0.784c0.433,0,0.784-0.351,0.784-0.784v-4.43
	c0.616-0.282,1.903-0.697,2.939,0.139c0.718,0.58,1.556,0.778,2.353,0.778c1.173,0,2.258-0.43,2.744-0.707
	c0.284-0.162,0.427-0.475,0.389-0.78C17.995,13.594,18,13.573,18,13.551L18,8.747L18,8.747z"/>
</svg>
