<?xml version="1.0" encoding="utf-8"?>
<!-- Generator: Adobe Illustrator 17.0.2, SVG Export Plug-In . SVG Version: 6.00 Build 0)  -->
<!DOCTYPE svg PUBLIC "-//W3C//DTD SVG 1.1//EN" "http://www.w3.org/Graphics/SVG/1.1/DTD/svg11.dtd">
<svg version="1.1" id="Isolation_Mode" xmlns="http://www.w3.org/2000/svg" xmlns:xlink="http://www.w3.org/1999/xlink" x="0px"
	 y="0px" width="30px" height="70px" viewBox="0 0 30 70" enable-background="new 0 0 30 70" xml:space="preserve">
<g>
	<path d="M18.277,0c-1.158,0.577-2.617,0.129-3.92,0.151c-0.732,0.011-1.398,0.417-2.093,0.483C11.59,0.7,10.963,0.468,10.268,0.523
		C9.85,0.554,9.411,0.639,9.051,0.812C8.784,0.966,8.516,1.126,8.249,1.281C7.864,1.365,7.481,1.455,7.096,1.536
		C6.565,1.578,5.94,1.459,5.476,1.672C5.142,1.936,4.809,2.199,4.474,2.458C3.694,3.212,2.737,4.522,2.622,5.591
		C2.564,6.089,2.741,7.038,2.577,7.459C2.433,7.811,1.982,8.061,1.704,8.286c-0.719,0.572-1.56,1.458-1.662,2.391
		c-0.207,1.809,0.359,3.54,1.762,4.475c0.084,0.059,0.498,0.444,0.295,0.444c-0.191,0.457-0.641,0.736-0.961,1.118
		c-0.496,0.58-1.269,2.016-1.059,2.867c0.186,0.772,0.574,1.52,1.059,2.151c0.205,0.267,1.875,1.535,1.875,1.535
		c0.031,0,0.057,0,0.084,0c-0.314,0.872-0.971,1.709-1.023,2.67c-0.018,0.346,0.115,0.684,0.199,0.991
		c0.309,1.129,0.783,2.02,1.853,2.622c0.648,0.364,0.998,0.272,1.613,0.907c0.482,0.498,1.021,2.542,1.033,3.323
		c0.008,0.338-0.705,0.816-0.881,1.184c-0.301,0.611-0.232,1.497-0.176,2.24c0.01,0.144,0.004,0.344-0.082,0.448
		c-0.199,0.248-0.572,0.277-0.832,0.423c-1.154,0.638-1.541,1.179-1.607,2.62c-0.043,0.942,0.369,1.671,0.443,2.591
		c0.051,0.644-0.244,1.137-0.189,1.829c0.123,0.585-0.025,1.41,0.096,1.995c0.058,0.414,0.004,0.892,0.059,1.307
		c-0.002,0.46,0.115,1.069,0.115,1.529c0.092,0.519,0.018,1.403,0.338,1.818c0.166,0.16,0.348,0.634,0.512,0.793
		c0.268,0.575,0.695,0.638,1.021,1.193c0.305,0.528,0.805,0.591,1.293,0.993c0.195,0.139,0.393,0.28,0.586,0.416
		c0.203,0.272,0.408,0.539,0.613,0.805c0.174,0.21,0.394,0.322,0.494,0.574c0.191,0.465-0.494,1.264-0.473,1.902
		c0.018,0.643,0.482,1.053,0.568,1.67c0.076,0.525-0.383,0.945-0.42,1.437c-0.059,0.621,0.455,1.025,0.572,1.58
		c0.055,0.283-0.08,0.571-0.133,0.832c-0.121,0.558,0.158,1.29,0.482,1.689c0.201,0.248,0.519,0.288,0.785,0.445
		c0.687,0.413,1.371,0.792,2.029,1.236c0.594,0.399,1.051,1.024,1.652,1.418c0.728,0.478,2.24,0.633,3.222,0.633
		c0.408-0.221,0.865-0.305,1.254-0.576c0.744-0.516,1.338-1.158,2.119-1.616c0.271-0.166,0.631-0.064,0.953-0.117
		c0.465-0.084,1.508-0.856,1.719-1.294c0.281-0.609-0.115-1.393-0.07-2.062c0.023-0.328,0.23-0.448,0.379-0.709
		c0.117-0.209,0.158-0.479,0.201-0.719c0.065-0.38,0.117-0.788-0.01-1.148c-0.107-0.301-0.316-0.504-0.336-0.851
		c-0.047-0.707,0.393-1.17,0.057-1.84c-0.061-0.128-0.41-0.655-0.264-0.655c0.072-0.129,0.418-0.836,0.418-0.836
		c0.197-0.114,0.398-0.222,0.596-0.335c0.225-0.242,0.451-0.481,0.678-0.723c0.297-0.233,0.594-0.465,0.892-0.696
		c0.359-0.311,0.658-0.776,0.949-1.14c0.219-0.28,0.496-0.501,0.654-0.81c0.467-0.918,0.529-3.07,0.435-4.216
		c-0.092-0.725,0.33-1.202,0.236-1.928c-0.015-0.993,0.108-1.898,0-2.872c-0.072-0.609,0.076-1.091,0-1.667
		c-0.088-0.718-0.211-1.395-0.301-2.119c0.076-0.226,0.15-0.793-0.039-1.02c-0.092-0.284-0.556-0.564-0.719-0.794
		c-0.203-0.288-1.564-0.481-1.66-0.824c-0.07-0.235,0.096-0.492,0.113-0.713c0.027-0.485-0.088-1.055-0.234-1.467
		c-0.156-0.44-0.75-0.705-0.777-1.188c-0.061-0.891,0.033-1.75,0.004-2.674c-0.031-0.841-0.227-1.552,0.08-2.335
		c0.221-0.585,0.629-0.92,1.01-1.414c0.24-0.408,0.48-0.812,0.719-1.22c0.209-0.334,0.541-0.589,0.678-0.957
		c0.219-0.608,0.189-1.469,0.189-2.159c0.605-0.099,1.328-0.465,1.756-0.909c0.215-0.257,0.43-0.514,0.646-0.774
		c0.236-0.232,0.568-0.366,0.682-0.69c0.109-0.314,0.08-0.771,0.088-1.129c0.008-0.802,0.16-1.685-0.129-2.405
		c-0.267-0.656-1.375-1.484-1.324-2.182c0.051-0.771,0.299-1.243,0.412-1.928c0.234-1.429-0.234-2.863-1.012-3.874
		c-0.4-0.519-1.486-1.075-1.683-1.584c-0.291-0.754,0.433-1.938,0.34-2.7c-0.057-0.199-0.113-0.393-0.17-0.594
		c-0.123-0.567-0.131-1.232-0.393-1.728c-0.213-0.402-0.666-0.714-1.008-0.989c-0.162-0.191-0.326-0.386-0.494-0.581
		c-0.4-0.425-0.91-0.816-1.455-0.97c-0.762-0.217-1.595-0.33-2.426-0.346c-0.254-0.004-0.504-0.006-0.756-0.013
		C19.304,0.202,18.87,0.018,18.277,0z"/>
	<path fill="#FFE400" d="M14.855,1.587c0.543,0.051,0.98,0.292,1.51,0.354c0.412-0.035,0.828-0.069,1.242-0.107
		c0.732-0.43,1.877-0.133,2.664,0.017c0.891,0.169,1.845,0.181,2.644,0.541c0.422,0.187,0.676,0.573,0.982,0.907
		c0.67,0.733,0.996,0.933,1.213,1.952c0.053,0.246,0.152,0.537,0.098,0.821c-0.092,0.231-0.182,0.465-0.275,0.699
		c-0.061,0.272-0.021,0.538-0.139,0.778c-0.424,0.822-1.307,1.622-2.101,2.127c-0.313,0.137-0.623,0.275-0.941,0.412
		c-0.822,0.551-1.586,1.078-2.572,1.296c-0.779,0.171-1.613-0.126-2.394,0.021c-0.451,0.169-0.902,0.335-1.355,0.501
		c-0.576,0.168-1.199,0.111-1.822,0.226c-0.477,0.174-0.951,0.349-1.43,0.523c-0.586,0.122-1.205,0.088-1.82,0.159
		c-0.424,0.098-0.848,0.196-1.273,0.293c-0.297,0.016-0.594,0.032-0.894,0.044c-0.256,0.102-0.514,0.209-0.77,0.308
		c-0.383,0.003-0.767,0.007-1.152,0.011c-0.662,0.095-1.109,0.523-1.695,0.74C4.36,14.288,4.099,14.27,3.853,14.31
		c-0.166,0.04-0.336,0.08-0.504,0.117c-0.363-0.485-0.879-0.65-1.273-1.066c-0.514-0.552-1.217-2.487-0.717-3.177
		C1.458,10.049,2.513,8.84,2.513,8.84c0.031,0,0.058,0,0.082,0c0.221,0.028,0.449,0.056,0.67,0.084
		c0.195-0.03,0.391-0.056,0.58-0.084c0.338-0.236,1.635-0.533,2.09-0.56c0.41,0.009,0.828,0.021,1.242,0.031
		c0.127-0.012,0.34-0.01,0.34-0.136c0.76,0.07,1.369-0.333,2.094-0.434c0.273,0.004,0.551,0.01,0.822,0.016c0.279,0,0.558,0,0.836,0
		c0.221,0,0.445,0,0.666,0c0.289-0.247,1.308-0.815,1.674-0.872c0.416-0.071,0.826,0.024,1.242,0.006
		c0.305-0.044,0.615-0.089,0.918-0.135c0.391-0.263,0.83-0.253,1.334-0.253c0.496-0.389,1.197-0.404,1.668-0.833
		c0.652-0.589,0.318-1.769-0.592-1.846c-0.961-0.087-0.849,1.087-1.435,1.274c-0.324,0.04-0.652,0.08-0.975,0.117
		c-0.396,0.052-0.754,0.253-1.166,0.249c-0.334-0.017-0.66-0.038-0.992-0.059c-0.797,0.128-1.392,0.841-2.191,0.94
		c-0.594,0.067-1.211-0.153-1.816-0.053c-0.734,0.12-1.383,0.572-2.101,0.638c-0.596,0.05-1.035-0.297-1.652-0.215
		C5.343,6.783,4.317,7.37,3.88,7.236C3.423,7.097,3.448,6.419,3.444,6.003c-0.018-1.14,0.935-2.797,2.082-3.032
		C6.2,2.828,6.804,3.085,7.434,3.085c0.285-0.225,0.623-0.204,0.971-0.32c0.227-0.119,0.459-0.239,0.687-0.359
		c0.357-0.162,0.779-0.239,1.172-0.323c0.309-0.072,0.699,0.082,1.012,0.103c0.246-0.013,0.494-0.025,0.74-0.038
		c0.447-0.035,0.853-0.23,1.338-0.23c0.338-0.199,1.086-0.251,1.5-0.251C14.855,1.64,14.855,1.614,14.855,1.587z"/>
	<path fill="#FFE400" d="M24.694,9.675c1.445,0.137,3.236,2.51,3.042,3.993c-0.103,0.774-0.971,1.825-1.664,2.184
		c-0.428,0.217-0.967,0.087-1.443,0.219c-0.293,0.158-0.584,0.318-0.877,0.474c-0.412,0.219-0.844,0.378-1.299,0.487
		c-0.557,0.132-1.187,0.003-1.754,0.096c-0.551,0.088-0.961,0.481-1.517,0.587c-0.586,0.107-1.152-0.065-1.74-0.006
		c-0.748,0.069-1.252,0.527-1.931,0.677c-0.853,0.189-1.801,0.063-2.64,0.264c-0.672,0.238-1.342,0.474-2.013,0.707
		c-0.258,0.146-0.519,0.296-0.775,0.443c-0.408,0.15-0.949,0.102-1.396,0.156c-0.586,0.066-1.092,0.204-1.648,0.367
		c-0.576,0.165-1.029,0.548-1.557,0.792c-0.435,0.202-0.998,0.273-1.472,0.37c-0.262,0.049-0.646,0.036-0.881-0.065
		c-0.801-0.336-2.115-2.036-2.086-2.908c0.045-1.278,1.982-2.75,3.222-2.75c0.348-0.208,1.559-0.669,2-0.669
		c0.113-0.029,0.223-0.053,0.334-0.084c0.274-0.075,0.59,0.105,0.908,0.045c0.445-0.084,0.723-0.377,1.26-0.377
		c0.322-0.177,0.939-0.332,1.334-0.332c0-0.032,0-0.058,0-0.085c0.51,0.071,1.037,0,1.584,0c0.273-0.072,0.547-0.142,0.818-0.212
		c0.373-0.089,0.682-0.272,1.094-0.324c0.476,0.012,0.949,0.027,1.424,0.035c0.234-0.139,0.547-0.149,0.812-0.227
		c0.424-0.136,0.777-0.356,1.271-0.356c0.529,0.025,1.056,0.051,1.582,0.074c0.418-0.049,0.84-0.103,1.254-0.158
		c0.461-0.21,0.926-0.423,1.386-0.631c0.424-0.259,0.744-0.621,1.133-0.932c0.293-0.186,0.582-0.37,0.873-0.554
		C23.786,10.542,24.241,10.11,24.694,9.675z"/>
	<path fill="#FFE400" d="M26.946,17.014c1.33,0.272,2.111,1.693,1.933,3.085c-0.043,0.324-0.049,0.617-0.236,0.867
		c-0.275,0.355-0.629,0.279-0.984,0.459c-0.551,0.275-0.98,0.758-1.556,0.984c-1.625,0.634-3.414,0.812-5.158,1.193
		c-0.484,0.101-0.951,0.273-1.393,0.457c-0.404,0.164-0.756,0.416-1.205,0.496c-1.051,0.177-2.222-0.173-3.236,0.071
		c-0.639,0.149-1.197,0.833-1.933,1.014c-0.656,0.161-1.383,0.042-2.07,0.081c-0.748,0.038-1.525,0.367-2.09,0.797
		c-0.459,0.352-1.5,1.789-0.404,2.026c0.879,0.186,1.627-0.81,2.336-1.161c0.049-0.009,0.105-0.017,0.154-0.031
		c0,0.031,0,0.058,0,0.084c0.025,0,0.055,0,0.084,0c-0.225,1.108,0.131,1.769,0.449,2.769c0.316,0.999,0.555,2.107,0.543,3.233
		c-0.006,0.164,0.041,0.67-0.16,0.67c-0.41,0.088-0.701-0.116-1.086-0.125c-0.637,0.054-1.273,0.102-1.906,0.146
		c-0.18-0.04-0.359-0.082-0.541-0.124c-0.123-0.063-0.16-0.23-0.301-0.23c0.037-0.435-0.166-0.732-0.274-1.104
		c-0.076-0.328-0.148-0.658-0.219-0.989c-0.117-0.244-0.234-0.492-0.355-0.74c-0.234-0.673-0.176-1.292-0.654-1.84
		c-0.289-0.328-0.629-0.7-1.031-0.846c-0.408-0.151-0.75-0.208-1.105-0.452c-1.31-0.882-1.478-2.729-0.51-3.935
		c0.221-0.166,0.443-0.33,0.664-0.494c0.221-0.213,0.434-0.292,0.674-0.443c0.115-0.12,0.234-0.235,0.354-0.356
		c0.344-0.279,0.992-0.642,1.453-0.642c0-0.031,0-0.058,0-0.084c0.057,0.058,0.061,0.084,0.166,0.084c0-0.031,0-0.058,0-0.084
		c0.451-0.093,0.828-0.25,1.336-0.25c0.353-0.18,0.851-0.096,1.244-0.193c1.258-0.329,1.998-1.144,3.507-1.144
		c0.42-0.028,0.834-0.054,1.252-0.08c0.197-0.032,0.389-0.058,0.584-0.085c0.432-0.301,1.504-0.557,2.084-0.572
		c0.363,0.021,0.723,0.047,1.082,0.072c0.256-0.116,0.615-0.084,0.918-0.084c0.834-0.512,1.804-0.502,2.923-0.502
		c0.227-0.159,0.523-0.248,0.832-0.248c0.209-0.08,0.418-0.155,0.619-0.233c0.463-0.273,0.76-0.77,1.31-0.86
		c0.301,0.002,0.603,0.004,0.906,0.006C26.278,17.457,26.612,17.236,26.946,17.014z"/>
	<path fill="#FFE400" d="M25.11,24.266c0.113,0.071,0.207,0.25,0.334,0.25c-0.117,0.496-0.195,0.969-0.43,1.408
		c-0.484,0.884-1.299,1.616-1.849,2.467c-0.268,0.408-0.426,0.984-0.547,1.464c-0.234,0.932,0.129,1.831,0.045,2.825
		c-0.029,0.345,0.117,0.74-0.074,1.02c-0.217,0.319-2.203,0.208-2.652,0.231c-0.108,0.004-0.246,0.073-0.246-0.072
		c-0.029,0-0.055,0-0.08,0c-0.016-0.412-0.014-0.74-0.238-1.033c-0.207-0.269-0.473-0.376-0.549-0.732
		c-0.164-0.798,0.143-1.524,0.092-2.323c-0.041-0.629-0.443-1.081-0.443-1.754c0-1.339,1.279-2.664,2.634-2.664
		c0.32-0.2,0.75-0.251,1.172-0.251c0.279-0.143,0.65-0.166,0.998-0.166C23.799,24.572,24.542,24.55,25.11,24.266z"/>
	<path fill="#FFE400" d="M15.439,26.018c0.195,0.03,0.389,0.059,0.584,0.084c0.193-0.078,1.584,0.159,1.584,0.332
		c0.137,0.772-0.547,1.316-0.519,2.087c0.016,0.552,0.264,0.971,0.34,1.499c0.088,0.627-0.137,1.214-0.076,1.835
		c0.082,0.841,0.422,1.542,0.422,2.42c-0.767,0.208-1.635-0.04-2.336-0.253c-0.51-0.142-1.017-0.283-1.525-0.429
		c-0.59-0.36-0.594-2.828-0.781-3.56c-0.129-0.496-0.789-1.619-0.541-2.102C13.053,27.028,14.605,26.574,15.439,26.018z"/>
	<path fill="#FFFFFF" d="M13.437,35.193c0.754,0.044,1.349,0.285,2.013,0.45c0.752,0.184,1.549,0.215,2.41,0.215
		c0.195-0.027,0.39-0.052,0.58-0.082c0.168-0.029,0.334-0.055,0.502-0.081c0.676-0.422,1.306-0.351,2.162-0.39
		c0.256-0.013,0.559-0.098,0.816-0.036c0.309,0.146,0.623,0.292,0.935,0.437c0.254,0.105,0.594,0.224,0.771,0.454
		c0.281,0.368,0.293,0.865,0.467,1.292c0.041,0.096,0.051,0.243,0.187,0.243c0,0.052,0,0.111,0,0.165
		c-0.471,0-0.851,0.092-1.254,0.127c-0.723-0.022-1.443-0.043-2.162-0.067c-0.482-0.047-0.853-0.211-1.279-0.326
		c-0.324-0.018-0.65-0.036-0.98-0.056c-1.008-0.016-1.898,0.356-2.914,0.307c-0.711-0.036-1.256-0.396-2.006-0.444
		c-0.25,0.031-0.5,0.062-0.754,0.092c-0.482,0.063-0.945,0.036-1.392,0.155c-0.443,0.117-0.935,0.28-1.43,0.236
		C9.768,37.78,9.43,37.676,9.09,37.569c-0.963-0.222-1.879-0.076-2.24-1.126c-0.08-0.229-0.135-0.478-0.002-0.696
		c0.068-0.117,0.213-0.223,0.332-0.269c0.281,0.021,0.564,0.044,0.842,0.06c0.803,0.048,1.498,0.085,2.324,0.129
		c0.476,0.028,0.898,0.191,1.424,0.191c0.17-0.115,1.443-0.585,1.666-0.585C13.437,35.246,13.437,35.221,13.437,35.193z"/>
	<path fill="#FFFFFF" d="M23.206,55.541c0.215-0.251,0.557-0.43,0.791-0.625c0.621-0.512,1.443-1.144,1.744-1.898
		c0.402-1.01,0.428-2.34,0.26-3.48c-0.092-0.558,0.371-1.037,0.281-1.596c0.025-0.581-0.102-1.159-0.076-1.74
		c0.029-0.221,0.121-0.61,0.149-0.832c-0.049-0.948-0.203-1.386-0.303-2.269c0.006-0.47,0.033-0.59,0.037-1.06
		c0.379-1.853-1.355-3.137-2.644-2.847c-0.252,0.028-0.502,0.054-0.754,0.083c-0.719-0.011-1.441-0.025-2.164-0.033
		c-0.672-0.102-1.254-0.34-1.924-0.462c-0.412-0.054-0.828-0.115-1.246-0.173c-0.025,0-0.058,0-0.084,0
		c0,0.138-0.191,0.217-0.287,0.267c-0.533,0.234-1.437,0.447-2.062,0.239c-0.445-0.156-0.888-0.306-1.33-0.461
		c-0.779-0.141-1.543,0.18-2.238,0.279c-0.305,0.062-0.611,0.12-0.922,0.177c-0.137,0.028-0.277,0.053-0.416,0.084
		c-0.658,0-0.924-0.265-1.443-0.443c-0.58-0.202-1.158-0.328-1.808-0.395c-0.168,0.058-0.338,0.116-0.502,0.168
		c-0.719,0-1.363,0.653-1.584,1.322c-0.268,0.8,0.197,1.174,0.31,1.851c0.084,0.511,0.172,1.123,0.15,1.664
		c-0.016,0.356-0.129,0.696-0.098,1.079c0.088,1.082,0.078,2.392,0.094,3.519c0.006,0.569-0.111,1.556,0,2.1
		c0.082,0.426,0.267,1.349,0.393,1.761c0.172,0.556,0.57,0.209,0.908,0.678c0.531,0.732,1.125,1.178,1.761,1.759
		c0.361,0.329,0.557,1.017,1.021,1.193c0.26,0.097,0.672,0.328,0.967,0.342c0.551,0.012,1.006-0.307,1.586-0.229
		c0.9,0.113,1.92,0.177,2.834,0.282c0.722-0.012,1.443-0.026,2.164-0.04c0.904,0.072,1.92-0.123,2.853-0.035
		c1,0.097,1.494-0.156,2.156,0.34c0.01,0,0.215-0.048,0.428-0.101l0.326-0.162L23.206,55.541z"/>
	<path fill="#AD9D1D" d="M20.276,57.956c0,0.111-0.029,0.084,0.084,0.084c0,0.116,0.053,0.167-0.084,0.167
		c-0.67,0.977-2.099,0.109-2.962,0.14c-0.547,0.013-0.877,0.116-1.313,0.315c-0.252,0.075-0.5,0.15-0.752,0.225
		c-0.457,0.119-1.021-0.026-1.48-0.052c-0.635-0.038-1.965,0.478-2.287,0.985c-0.123,0.188-0.045,0.418-0.045,0.639
		c0.305,0.065,0.611,0.133,0.916,0.198c0.379,0.004,0.781-0.097,1.162-0.057c0.262,0.026,0.43,0.277,0.674,0.277
		c0,0.109,0.027,0.084-0.084,0.084c-0.453,0.601-1.92,0.166-2.054,1.106c0.018,0.187,0.037,0.372,0.053,0.564
		c-0.205,0.164-0.334,0.389-0.334,0.665c0.674,0,1.291,0.084,2.002,0.084c0.131-0.063,1.25,0.002,1.25,0.084
		c0.029,0,0.055,0,0.084,0c-0.182,0.936-1.076,1.047-1.916,1.202c-0.254,0.08-0.508,0.157-0.765,0.235
		c-0.666,0.097-1.615-0.063-2.047-0.543c-0.086-0.095-0.115-0.175-0.115-0.312c-0.012-0.523,0.228-0.941,0.139-1.497
		c-0.084-0.498-0.502-0.813-0.549-1.336c0-0.031,0-0.052,0-0.084c1.728-1.848-0.715-2.394-0.242-3.368
		c0.146-0.303,0.564-0.523,0.822-0.718c0.252,0.031,0.5,0.057,0.754,0.084c0.562-0.252,1.252,0.183,1.756,0.295
		c0.662,0.143,1.338,0.206,2.078,0.206c0.472-0.217,1.129-0.182,1.697-0.053l0.484-0.057l0.451-0.114h0.721h0.605l0.568,0.038
		l0.34,0.076l0.262,0.115L20.276,57.956z"/>
	<path fill="#AD9D1D" d="M18.341,61.239c0.471-0.046,0.928-0.151,1.429-0.231c0.283-0.069,0.559-0.144,0.84-0.215
		c0.252,0,0.272,0.364,0.231,0.552c-0.15,0.618-1.642,0.98-2.15,1.283c-0.39,0,0.025,0.745,0.443,0.856
		c0.443,0.115,0.791-0.135,1.172-0.207c0.182,0.007,0.367,0.012,0.556,0.016c0.234,0,0.41-0.196,0.596-0.311
		c1.029-0.651,0.223-1.307,0.105-2.114c-0.061-0.408,0.006-0.781,0.047-1.161c-0.25-0.083-0.502-0.165-0.748-0.249
		c0,0.027,0,0.052,0,0.084c-0.467,0-0.771,0.35-1.183,0.448c-0.385,0.044-0.771,0.089-1.156,0.133c-0.385,0-0.625,0.078-0.885,0.221
		l-0.246,0.004l-0.303,0.038h-0.34L16.369,60.5l-0.226,0.151l-0.152,0.267l0.152,0.377l0.301,0.078h0.416h0.379h0.414L18.341,61.239
		z"/>
	<path fill="#AD9D1D" d="M20.946,64.045c0.566,0.362,0.787,1.514-0.037,1.723c-0.385,0.092-1.658-0.045-2.119-0.045
		c0-0.113-0.609-0.265-0.717-0.265c0-0.111,0.682-0.417,0.793-0.417C19.298,64.388,20.425,64.632,20.946,64.045z"/>
	<path fill="#AD9D1D" d="M17.357,67.048c0.166,0.053,0.334,0.111,0.502,0.164c-0.094,0.266-0.274,0.532-0.545,0.661
		c-0.391,0.174-2.291,0.048-2.291-0.493c0.349-0.168,0.73-0.168,1.166-0.168C16.578,67.159,16.968,67.106,17.357,67.048z"/>
</g>
</svg>
