<?xml version="1.0" encoding="utf-8"?>
<!-- Generator: Adobe Illustrator 17.0.2, SVG Export Plug-In . SVG Version: 6.00 Build 0)  -->
<!DOCTYPE svg PUBLIC "-//W3C//DTD SVG 1.1//EN" "http://www.w3.org/Graphics/SVG/1.1/DTD/svg11.dtd">
<svg version="1.1" id="Layer_1" xmlns="http://www.w3.org/2000/svg" xmlns:xlink="http://www.w3.org/1999/xlink" x="0px" y="0px"
	 width="9px" height="11.896px" viewBox="16.983 12.721 9 11.896" enable-background="new 16.983 12.721 9 11.896"
	 xml:space="preserve">
<path fill="{{fill}}" d="M25.469,24.617h-7.971c-0.284,0-0.514-0.23-0.514-0.515v-5.194c0-0.284,0.23-0.514,0.514-0.514h0.514v-2.201
	c0-1.917,1.554-3.471,3.472-3.471c1.917,0,3.471,1.554,3.471,3.471v2.201h0.514c0.284,0,0.514,0.23,0.514,0.514v5.194
	C25.983,24.386,25.753,24.617,25.469,24.617z M23.321,16.295c0-1.015-0.823-1.837-1.837-1.837c-1.015,0-1.837,0.823-1.837,1.837
	v2.098h3.675L23.321,16.295L23.321,16.295z"/>
</svg>
