<?xml version="1.0" encoding="utf-8"?>
<!-- Generator: Adobe Illustrator 17.0.2, SVG Export Plug-In . SVG Version: 6.00 Build 0)  -->
<!DOCTYPE svg PUBLIC "-//W3C//DTD SVG 1.1//EN" "http://www.w3.org/Graphics/SVG/1.1/DTD/svg11.dtd">
<svg version="1.1" id="Layer_1" xmlns="http://www.w3.org/2000/svg" xmlns:xlink="http://www.w3.org/1999/xlink" x="0px" y="0px"
	 width="87px" height="87px" viewBox="0 0 87 87" enable-background="new 0 0 87 87" xml:space="preserve">
<circle fill="none" stroke="#2277C5" stroke-width="3" stroke-miterlimit="10" cx="43.5" cy="43.5" r="42"/>
<g>
	<g>
		<path fill="#2377C5" d="M64.5,53.056c0-1.787-1.451-3.236-3.238-3.236c-1.787,0-3.236,1.449-3.236,3.236s1.449,3.236,3.236,3.236
			C63.049,56.292,64.5,54.843,64.5,53.056L64.5,53.056z M29.755,53.056c0-1.787-1.449-3.236-3.239-3.236
			c-1.786,0-3.234,1.449-3.234,3.236s1.448,3.236,3.234,3.236C28.306,56.292,29.755,54.843,29.755,53.056L29.755,53.056z
			 M50.298,30.795c-0.574-0.759-0.806-0.816-1.44-0.816l-5.799,0.001c-0.628,0-1.136,0.508-1.136,1.136v5.161
			c0,0.628,0.508,1.137,1.136,1.137h10.798c0.626,0,0.774-0.509,0.334-1.137L50.298,30.795L50.298,30.795z M29.578,37.413h8.605
			c0.629,0,1.137-0.509,1.137-1.137v-5.161c0-0.628-0.508-1.136-1.137-1.136l-3.607-0.001c-0.631,0-0.865,0.057-1.439,0.816
			l-3.892,5.481C28.803,36.904,28.951,37.413,29.578,37.413L29.578,37.413z M58.513,37.413l9.82,0.001
			c1.672,0,3.03,1.356,3.03,3.029v5.859l2.001,0.005c0.628,0,1.136,0.511,1.136,1.137v2.996c0,0.628-0.508,1.137-1.136,1.137
			l-5.653-0.004c0.109,0.478,0.167,0.974,0.167,1.482c0,3.654-2.96,6.617-6.617,6.617c-3.654,0-6.618-2.96-6.618-6.617
			c0-0.513,0.059-1.008,0.171-1.487l-21.847,0.004c0.111,0.477,0.168,0.974,0.168,1.483c0,3.654-2.964,6.617-6.62,6.617
			c-3.651,0-6.614-2.96-6.614-6.617c0-0.507,0.058-0.998,0.167-1.477l-6.43-0.003c-0.629,0-1.137-0.508-1.137-1.137v-2.996
			c0-0.626,0.508-1.136,1.137-1.136l1.896-0.006v-1.315c0-4.182,3.39-7.573,7.574-7.573h0.749l5.813-8.191
			c1.024-1.362,2.007-1.894,3.572-1.894h15.883c1.569,0,2.55,0.532,3.574,1.894L58.513,37.413L58.513,37.413z"/>
	</g>
</g>
</svg>
