<?xml version="1.0" encoding="utf-8"?>
<!-- Generator: Adobe Illustrator 17.0.2, SVG Export Plug-In . SVG Version: 6.00 Build 0)  -->
<!DOCTYPE svg PUBLIC "-//W3C//DTD SVG 1.1//EN" "http://www.w3.org/Graphics/SVG/1.1/DTD/svg11.dtd">
<svg version="1.1" id="Layer_1" xmlns="http://www.w3.org/2000/svg" xmlns:xlink="http://www.w3.org/1999/xlink" x="0px" y="0px"
	 width="27px" height="35px" viewBox="-345.5 356.5 27 35" enable-background="new -345.5 356.5 27 35" xml:space="preserve">
<g>
	<g>
		<g>
			<path fill="#616D75" d="M-335.307,377.662h-4.263c-0.492,0-0.892-0.361-0.892-0.806v-5.442c0-0.445,0.4-0.806,0.892-0.806h4.263
				c0.492,0,0.892,0.361,0.892,0.806v5.442C-334.415,377.301-334.814,377.662-335.307,377.662z M-338.678,376.05h2.479v-3.83h-2.479
				V376.05z"/>
		</g>
	</g>
	<g>
		<g>
			<path fill="#616D75" d="M-324.222,377.662h-4.263c-0.492,0-0.892-0.361-0.892-0.806v-5.442c0-0.445,0.4-0.806,0.892-0.806h4.263
				c0.492,0,0.892,0.361,0.892,0.806v5.442C-323.33,377.301-323.729,377.662-324.222,377.662z M-327.593,376.05h2.479v-3.83h-2.479
				V376.05z"/>
		</g>
	</g>
	<g>
		<g>
			<path fill="#616D75" d="M-335.307,387.32h-4.263c-0.492,0-0.892-0.361-0.892-0.806v-5.442c0-0.445,0.4-0.806,0.892-0.806h4.263
				c0.492,0,0.892,0.361,0.892,0.806v5.442C-334.415,386.959-334.814,387.32-335.307,387.32z M-338.678,385.708h2.479v-3.83h-2.479
				V385.708z"/>
		</g>
	</g>
	<g>
		<path fill="#616D75" d="M-341.321,362.81c-0.449,0-0.813-0.364-0.813-0.813v-4.684c0-0.449,0.364-0.813,0.813-0.813h3.685
			c0.449,0,0.814,0.364,0.814,0.813v1.423c0,0.449-0.364,0.813-0.814,0.813c-0.449,0-0.813-0.364-0.813-0.813v-0.61h-2.059v3.871
			C-340.508,362.446-340.872,362.81-341.321,362.81z"/>
	</g>
	<g>
		<path fill="#616D75" d="M-319.453,368.867h-25.093c-0.403,0-0.762-0.216-0.898-0.539c-0.136-0.323-0.018-0.684,0.293-0.902
			l12.547-8.775c0.351-0.246,0.857-0.246,1.209,0l12.546,8.774c0.311,0.218,0.428,0.579,0.293,0.902
			C-318.691,368.651-319.05,368.867-319.453,368.867z M-341.881,367.24h19.761l-9.881-6.909L-341.881,367.24z"/>
	</g>
	<g>
		<path fill="#616D75" d="M-329.168,391.342h-15.534c-0.441,0-0.799-0.358-0.799-0.799v-22.16c0-0.441,0.358-0.799,0.799-0.799
			c0.441,0,0.799,0.358,0.799,0.799v21.362h14.735c0.442,0,0.799,0.358,0.799,0.799
			C-328.369,390.985-328.726,391.342-329.168,391.342z"/>
	</g>
	<g>
		<path fill="#616D75" d="M-319.394,391.351h-5.106c-0.494,0-0.894-0.364-0.894-0.813v-8.493h-2.486v8.493
			c0,0.449-0.4,0.813-0.894,0.813s-0.604-0.364-0.604-0.813v-9.306c0-0.449,0.4-0.813,0.894-0.813h3.983
			c0.494,0,0.894,0.364,0.894,0.813v8.493h3.319v-21.747c0-0.449,0.4-0.813,0.894-0.813s0.894,0.364,0.894,0.813v22.56
			C-318.5,390.987-318.9,391.351-319.394,391.351z"/>
	</g>
</g>
</svg>
