<?xml version="1.0" encoding="utf-8"?>
<!-- Generator: Adobe Illustrator 17.0.2, SVG Export Plug-In . SVG Version: 6.00 Build 0)  -->
<!DOCTYPE svg PUBLIC "-//W3C//DTD SVG 1.1//EN" "http://www.w3.org/Graphics/SVG/1.1/DTD/svg11.dtd">
<svg version="1.1" id="Layer_1" xmlns="http://www.w3.org/2000/svg" xmlns:xlink="http://www.w3.org/1999/xlink" x="0px" y="0px"
	 width="430px" height="84.507px" viewBox="0 0 430 84.507" enable-background="new 0 0 430 84.507" xml:space="preserve">
<g>
	<path fill="#ABACAB" d="M23.649,5.633c-0.04-0.751-0.088-1.655-0.08-2.327h-0.024c-0.184,0.632-0.408,1.303-0.68,2.047
		l-0.952,2.614h-0.528l-0.872-2.566c-0.256-0.76-0.472-1.455-0.624-2.095h-0.016c-0.016,0.671-0.056,1.575-0.104,2.383L19.627,8
		h-0.664l0.375-5.389h0.888l0.919,2.607c0.224,0.664,0.408,1.255,0.544,1.815h0.024c0.136-0.544,0.328-1.136,0.567-1.815
		l0.959-2.607h0.888L24.465,8h-0.68L23.649,5.633z"/>
	<path fill="#ABACAB" d="M28.33,5.474h-2.095v1.943h2.335V8h-3.031V2.611h2.911v0.584h-2.215v1.703h2.095V5.474z"/>
	<path fill="#ABACAB" d="M34.017,5.633c-0.04-0.751-0.088-1.655-0.08-2.327h-0.024c-0.184,0.632-0.408,1.303-0.68,2.047
		l-0.952,2.614h-0.528l-0.871-2.566c-0.256-0.76-0.472-1.455-0.624-2.095h-0.016c-0.016,0.671-0.056,1.575-0.104,2.383L29.995,8
		h-0.664l0.375-5.389h0.888l0.919,2.607c0.224,0.664,0.408,1.255,0.544,1.815h0.024c0.136-0.544,0.328-1.136,0.567-1.815
		l0.959-2.607h0.888L34.833,8h-0.68L34.017,5.633z"/>
	<path fill="#ABACAB" d="M40.513,5.25c0,1.855-1.127,2.838-2.502,2.838c-1.423,0-2.422-1.104-2.422-2.734
		c0-1.711,1.063-2.831,2.502-2.831C39.562,2.523,40.513,3.65,40.513,5.25z M36.331,5.337c0,1.151,0.624,2.183,1.719,2.183
		c1.104,0,1.727-1.016,1.727-2.239c0-1.071-0.56-2.19-1.719-2.19C36.907,3.091,36.331,4.154,36.331,5.337z"/>
</g>
<line fill="none" stroke="#CFD1D4" stroke-miterlimit="10" x1="18.5" y1="16" x2="170.5" y2="16"/>
<line fill="none" stroke="#CFD1D4" stroke-miterlimit="10" x1="228.5" y1="16" x2="421.5" y2="16"/>
<g>
	<path d="M34.592,41.314v-2.626c0-0.377,0.169-0.65,0.65-0.65s0.65,0.273,0.65,0.65v3.275c0,0.469-0.312,0.65-0.65,0.65H30.12
		c-0.338,0-0.65-0.182-0.65-0.65c0-0.468,0.312-0.649,0.65-0.649h1.911V33.8H30.12c-0.338,0-0.65-0.182-0.65-0.649
		c0-0.469,0.312-0.65,0.65-0.65h3.211v8.814H34.592z"/>
	<path d="M40.129,41.314h4.472c0.338,0,0.65,0.182,0.65,0.649c0,0.469-0.312,0.65-0.65,0.65H38.83v-4.238
		c0-0.975,0.494-1.469,1.469-1.469h3.653V33.8h-4.472c-0.338,0-0.65-0.182-0.65-0.649c0-0.469,0.312-0.65,0.65-0.65h4.316
		c0.429,0,0.728,0.064,1.053,0.364c0.364,0.338,0.403,0.688,0.403,1.156v2.665c0,0.469-0.039,0.819-0.403,1.157
		c-0.325,0.3-0.624,0.364-1.053,0.364h-3.666V41.314z"/>
	<path d="M53.312,41.314v-2.626c0-0.377,0.169-0.65,0.65-0.65s0.65,0.273,0.65,0.65v3.275c0,0.469-0.312,0.65-0.65,0.65h-5.122
		c-0.338,0-0.65-0.182-0.65-0.65c0-0.468,0.312-0.649,0.65-0.649h1.911V33.8h-1.911c-0.338,0-0.65-0.182-0.65-0.649
		c0-0.469,0.312-0.65,0.65-0.65h3.211v8.814H53.312z"/>
	<path d="M62.671,32.5c0.715,0,1.3,0.585,1.3,1.3v7.515c0,0.728-0.559,1.3-1.3,1.3h-3.822c-0.741,0-1.3-0.572-1.3-1.3V33.8
		c0-0.715,0.585-1.3,1.3-1.3H62.671z M62.671,41.314V33.8h-3.822v7.515H62.671z"/>
	<path d="M72.031,32.5c0.715,0,1.3,0.585,1.3,1.3v7.515c0,0.728-0.559,1.3-1.3,1.3h-3.822c-0.741,0-1.3-0.572-1.3-1.3V33.8
		c0-0.715,0.585-1.3,1.3-1.3H72.031z M72.031,41.314V33.8h-3.822v7.515H72.031z"/>
	<path d="M81.391,32.5c0.715,0,1.3,0.585,1.3,1.3v7.515c0,0.728-0.559,1.3-1.3,1.3h-3.822c-0.741,0-1.3-0.572-1.3-1.3V33.8
		c0-0.715,0.585-1.3,1.3-1.3H81.391z M81.391,41.314V33.8h-3.822v7.515H81.391z"/>
	<path d="M90.101,38.012v-3.757c0-0.325,0.156-0.65,0.65-0.65s0.65,0.325,0.65,0.65v3.757c0.338,0,0.65,0.183,0.65,0.65
		s-0.312,0.65-0.65,0.65v2.651c0,0.416-0.182,0.65-0.65,0.65c-0.468,0-0.65-0.234-0.65-0.65v-2.651h-3.822V33.15
		c0-0.325,0.156-0.65,0.65-0.65s0.65,0.325,0.65,0.65v4.861H90.101z"/>
	<path d="M100.111,37.128h-4.472c-0.364,0-0.65-0.312-0.65-0.649V33.15c0-0.339,0.286-0.65,0.65-0.65h5.122
		c0.364,0,0.65,0.312,0.65,0.65v8.813c0,0.352-0.26,0.65-0.65,0.65h-0.65c-0.39,0-0.65-0.299-0.65-0.65
		c0-0.39,0.273-0.649,0.65-0.649V37.128z M100.111,35.828V33.8h-3.822v2.028H100.111z"/>
	<path d="M105.648,33.8c0,0.286-0.234,0.65-0.65,0.65s-0.65-0.364-0.65-0.65V33.15c0-0.286,0.234-0.65,0.65-0.65h5.772v3.77
		c0,0.455,0.013,0.508-0.351,0.819l-1.82,1.573c-0.338,0.299-0.364,0.325-0.364,0.78v2.521c0,0.416-0.182,0.65-0.65,0.65
		c-0.468,0-0.65-0.234-0.65-0.65v-3.133c0-0.429,0.013-0.468,0.338-0.754l1.794-1.547c0.429-0.377,0.403-0.364,0.403-0.937V33.8
		H105.648z"/>
</g>
<g>
	<path d="M138.092,41.314v-2.626c0-0.377,0.169-0.65,0.65-0.65s0.65,0.273,0.65,0.65v3.275c0,0.469-0.312,0.65-0.65,0.65h-5.122
		c-0.338,0-0.65-0.182-0.65-0.65c0-0.468,0.312-0.649,0.65-0.649h1.911V33.8h-1.911c-0.338,0-0.65-0.182-0.65-0.649
		c0-0.469,0.312-0.65,0.65-0.65h3.211v8.814H138.092z"/>
	<path d="M143.629,41.314h4.472c0.338,0,0.65,0.182,0.65,0.649c0,0.469-0.312,0.65-0.65,0.65h-5.772v-4.238
		c0-0.975,0.494-1.469,1.469-1.469h3.653V33.8h-4.472c-0.338,0-0.65-0.182-0.65-0.649c0-0.469,0.312-0.65,0.65-0.65h4.316
		c0.429,0,0.728,0.064,1.053,0.364c0.364,0.338,0.403,0.688,0.403,1.156v2.665c0,0.469-0.039,0.819-0.403,1.157
		c-0.325,0.3-0.624,0.364-1.053,0.364h-3.666V41.314z"/>
	<path d="M152.339,33.8c-0.338,0-0.65-0.182-0.65-0.649c0-0.469,0.312-0.65,0.65-0.65h4.472c0.741,0,1.3,0.559,1.3,1.3v2.496
		c0,0.521-0.104,0.897-0.507,1.261c0.403,0.364,0.507,0.741,0.507,1.262v2.496c0,0.741-0.559,1.3-1.3,1.3h-4.472
		c-0.338,0-0.65-0.182-0.65-0.65c0-0.468,0.312-0.649,0.65-0.649h4.472v-2.158c0-0.729-0.286-0.949-0.65-0.949h-2.548
		c-0.338,0-0.65-0.182-0.65-0.65c0-0.468,0.312-0.649,0.65-0.649h2.548c0.364,0,0.65-0.222,0.65-0.949V33.8H152.339z"/>
	<path d="M165.521,38.012v-3.757c0-0.325,0.156-0.65,0.65-0.65s0.65,0.325,0.65,0.65v3.757c0.338,0,0.65,0.183,0.65,0.65
		s-0.312,0.65-0.65,0.65v2.651c0,0.416-0.182,0.65-0.65,0.65c-0.468,0-0.65-0.234-0.65-0.65v-2.651h-3.822V33.15
		c0-0.325,0.156-0.65,0.65-0.65s0.65,0.325,0.65,0.65v4.861H165.521z"/>
	<path d="M172.996,36.907h2.392c0.416,0,0.728,0.064,1.04,0.364c0.364,0.338,0.403,0.649,0.403,1.104v2.782
		c0,0.403-0.039,0.689-0.312,1.014c-0.325,0.391-0.663,0.442-1.131,0.442h-2.886c-0.338,0-0.533-0.091-0.858-0.234l-0.494-0.221
		c-0.351-0.156-0.741-0.272-0.741-0.728c0-0.339,0.286-0.65,0.624-0.65c0.156,0,0.273,0.039,0.416,0.104l0.39,0.17
		c0.182,0.077,0.481,0.26,0.689,0.26h3.003v-3.107h-3.835V32.5h4.485c0.338,0,0.65,0.182,0.65,0.65c0,0.468-0.312,0.649-0.65,0.649
		h-3.185V36.907z"/>
	<path d="M181.069,38.012h4.342c0.65,0,0.78,0.273,0.78,0.871v2.912c0,0.611-0.26,0.819-0.845,0.819h-4.732
		c-0.611,0-0.845-0.221-0.845-0.819V33.15c0-0.3,0.104-0.65,0.559-0.65h0.78c0.338,0,0.611,0.312,0.611,0.65
		c0,0.39-0.273,0.649-0.65,0.649V38.012z M181.069,39.312v2.002h3.822v-2.002H181.069z"/>
	<path d="M190.429,33.8c0,0.286-0.234,0.65-0.65,0.65s-0.65-0.364-0.65-0.65V33.15c0-0.286,0.234-0.65,0.65-0.65h5.772v3.77
		c0,0.455,0.013,0.508-0.351,0.819l-1.82,1.573c-0.338,0.299-0.364,0.325-0.364,0.78v2.521c0,0.416-0.182,0.65-0.65,0.65
		c-0.468,0-0.65-0.234-0.65-0.65v-3.133c0-0.429,0.013-0.468,0.338-0.754l1.794-1.547c0.429-0.377,0.403-0.364,0.403-0.937V33.8
		H190.429z"/>
	<path d="M202.961,32.5c0.442,0,0.65,0.312,0.65,0.65v3.757c0.403,0,0.715,0.143,0.949,0.364c0.234,0.221,0.351,0.546,0.351,0.948
		v3.095c0,0.793-0.494,1.3-1.3,1.3h-3.822c-0.806,0-1.3-0.507-1.3-1.3V38.22c0-0.402,0.117-0.728,0.351-0.948
		c0.234-0.222,0.546-0.364,0.949-0.364V33.15c0-0.339,0.208-0.65,0.65-0.65H202.961z M203.611,41.314v-3.107h-3.822v3.107H203.611z
		 M202.311,36.907V33.8h-1.222v3.107H202.311z"/>
	<path d="M212.971,37.128h-4.472c-0.364,0-0.65-0.312-0.65-0.649V33.15c0-0.339,0.286-0.65,0.65-0.65h5.122
		c0.364,0,0.65,0.312,0.65,0.65v8.813c0,0.352-0.26,0.65-0.65,0.65h-0.649c-0.391,0-0.65-0.299-0.65-0.65
		c0-0.39,0.273-0.649,0.65-0.649V37.128z M212.971,35.828V33.8h-3.822v2.028H212.971z"/>
	<path d="M222.33,32.5c0.715,0,1.3,0.585,1.3,1.3v7.515c0,0.728-0.559,1.3-1.3,1.3h-3.822c-0.741,0-1.3-0.572-1.3-1.3V33.8
		c0-0.715,0.585-1.3,1.3-1.3H222.33z M222.33,41.314V33.8h-3.822v7.515H222.33z"/>
</g>
<g>
	<path d="M254.092,41.314v-2.626c0-0.377,0.169-0.65,0.649-0.65c0.481,0,0.65,0.273,0.65,0.65v3.275c0,0.469-0.312,0.65-0.65,0.65
		h-5.122c-0.338,0-0.649-0.182-0.649-0.65c0-0.468,0.312-0.649,0.649-0.649h1.911V33.8h-1.911c-0.338,0-0.649-0.182-0.649-0.649
		c0-0.469,0.312-0.65,0.649-0.65h3.211v8.814H254.092z"/>
	<path d="M263.451,32.5c0.715,0,1.3,0.585,1.3,1.3v7.515c0,0.728-0.559,1.3-1.3,1.3h-3.822c-0.741,0-1.3-0.572-1.3-1.3V33.8
		c0-0.715,0.585-1.3,1.3-1.3H263.451z M263.451,41.314V33.8h-3.822v7.515H263.451z"/>
	<path d="M272.812,32.5c0.715,0,1.3,0.585,1.3,1.3v7.515c0,0.728-0.56,1.3-1.3,1.3h-3.822c-0.741,0-1.3-0.572-1.3-1.3V33.8
		c0-0.715,0.585-1.3,1.3-1.3H272.812z M272.812,41.314V33.8h-3.822v7.515H272.812z"/>
	<path d="M282.171,41.314v-2.626c0-0.377,0.169-0.65,0.65-0.65c0.48,0,0.649,0.273,0.649,0.65v3.275c0,0.469-0.312,0.65-0.649,0.65
		h-5.122c-0.338,0-0.65-0.182-0.65-0.65c0-0.468,0.312-0.649,0.65-0.649h1.911V33.8h-1.911c-0.338,0-0.65-0.182-0.65-0.649
		c0-0.469,0.312-0.65,0.65-0.65h3.211v8.814H282.171z"/>
</g>
<g>
	<g>
		<path d="M23.711,36.543c-0.286,0-0.494,0-0.676-0.247c-0.143-0.194-0.143-0.338-0.143-0.585v-0.729c0-0.246,0-0.39,0.143-0.584
			c0.182-0.248,0.39-0.248,0.676-0.248h0.937c0.286,0,0.494,0,0.676,0.248c0.143,0.194,0.143,0.338,0.143,0.584v0.729
			c0,0.247,0,0.391-0.143,0.585c-0.182,0.247-0.39,0.247-0.676,0.247H23.711z M23.711,40.963c-0.286,0-0.494,0-0.676-0.246
			c-0.143-0.195-0.143-0.339-0.143-0.586v-0.728c0-0.247,0-0.39,0.143-0.585c0.182-0.247,0.39-0.247,0.676-0.247h0.937
			c0.286,0,0.494,0,0.676,0.247c0.143,0.195,0.143,0.338,0.143,0.585v0.728c0,0.247,0,0.391-0.143,0.586
			c-0.182,0.246-0.39,0.246-0.676,0.246H23.711z"/>
	</g>
	<g>
		<path d="M19.163,36.299c0-0.533,0.208-0.78,0.793-0.78s0.793,0.247,0.793,0.78v3.042c0,0.533-0.208,0.78-0.793,0.78
			s-0.793-0.247-0.793-0.78V36.299z"/>
	</g>
</g>
<g>
	<g>
		<path d="M118.211,36.543c-0.286,0-0.494,0-0.676-0.247c-0.143-0.194-0.143-0.338-0.143-0.585v-0.729c0-0.246,0-0.39,0.143-0.584
			c0.182-0.248,0.39-0.248,0.676-0.248h0.937c0.286,0,0.494,0,0.676,0.248c0.143,0.194,0.143,0.338,0.143,0.584v0.729
			c0,0.247,0,0.391-0.143,0.585c-0.182,0.247-0.39,0.247-0.676,0.247H118.211z M118.211,40.963c-0.286,0-0.494,0-0.676-0.246
			c-0.143-0.195-0.143-0.339-0.143-0.586v-0.728c0-0.247,0-0.39,0.143-0.585c0.182-0.247,0.39-0.247,0.676-0.247h0.937
			c0.286,0,0.494,0,0.676,0.247c0.143,0.195,0.143,0.338,0.143,0.585v0.728c0,0.247,0,0.391-0.143,0.586
			c-0.182,0.246-0.39,0.246-0.676,0.246H118.211z"/>
	</g>
	<g>
		<path d="M113.663,36.299c0-0.533,0.208-0.78,0.793-0.78s0.793,0.247,0.793,0.78v3.042c0,0.533-0.208,0.78-0.793,0.78
			s-0.793-0.247-0.793-0.78V36.299z"/>
	</g>
</g>
<g>
	<path d="M229.955,40.381c0,0.338-0.183,0.65-0.65,0.65s-0.65-0.312-0.65-0.65v-5.122c0-0.338,0.183-0.649,0.65-0.649
		s0.65,0.312,0.65,0.649V40.381z M232.711,40.381c0,0.338-0.182,0.65-0.65,0.65c-0.468,0-0.649-0.312-0.649-0.65v-5.122
		c0-0.338,0.182-0.649,0.649-0.649c0.469,0,0.65,0.312,0.65,0.649V40.381z"/>
</g>
<g>
	<path d="M234.681,33.092h2.978v4.688h-2.978V33.092z"/>
</g>
<polygon fill="#CFD1D4" points="429,58.5 1,58.5 1,0 0,0 0,59.5 430,59.5 430,0 429,0 "/>
<rect x="23.625" y="25" fill="none" stroke="#FECC2F" stroke-width="1.8224" stroke-miterlimit="10" width="90.5" height="24"/>
<rect x="128.5" y="25" fill="none" stroke="#FECC2F" stroke-width="1.9012" stroke-miterlimit="10" width="98.5" height="24"/>
<g>
	<path d="M25.911,74.024c0.528-0.108,1.283-0.168,2.003-0.168c1.115,0,1.835,0.204,2.338,0.659c0.408,0.36,0.636,0.912,0.636,1.535
		c0,1.068-0.671,1.775-1.523,2.063v0.036c0.624,0.216,0.995,0.791,1.187,1.631c0.264,1.127,0.456,1.907,0.624,2.219h-1.08
		c-0.132-0.228-0.312-0.924-0.54-1.931c-0.24-1.115-0.672-1.535-1.619-1.571h-0.983V82h-1.043V74.024z M26.955,77.706h1.067
		c1.115,0,1.823-0.611,1.823-1.535c0-1.043-0.755-1.499-1.859-1.511c-0.504,0-0.863,0.048-1.031,0.096V77.706z"/>
	<path d="M37.632,79.05c0,2.146-1.487,3.082-2.89,3.082c-1.571,0-2.783-1.151-2.783-2.986c0-1.942,1.271-3.082,2.878-3.082
		C36.505,76.063,37.632,77.274,37.632,79.05z M33.026,79.109c0,1.271,0.732,2.231,1.763,2.231c1.007,0,1.763-0.948,1.763-2.255
		c0-0.983-0.492-2.231-1.739-2.231C33.566,76.854,33.026,78.006,33.026,79.109z"/>
	<path d="M43.824,80.417c0,0.6,0.012,1.127,0.048,1.583h-0.936l-0.06-0.947h-0.024c-0.276,0.468-0.887,1.079-1.919,1.079
		c-0.911,0-2.003-0.504-2.003-2.543v-3.394h1.056v3.214c0,1.104,0.336,1.848,1.295,1.848c0.708,0,1.199-0.492,1.391-0.96
		c0.06-0.156,0.096-0.348,0.096-0.54v-3.562h1.056V80.417z"/>
	<path d="M46.85,74.528v1.667h1.511v0.804H46.85v3.13c0,0.72,0.204,1.128,0.792,1.128c0.276,0,0.479-0.036,0.612-0.072l0.048,0.791
		c-0.204,0.084-0.528,0.145-0.936,0.145c-0.492,0-0.888-0.156-1.14-0.444c-0.3-0.312-0.408-0.827-0.408-1.511v-3.166h-0.899v-0.804
		h0.899v-1.392L46.85,74.528z"/>
	<path d="M50.726,74.564c0.012,0.359-0.252,0.647-0.671,0.647c-0.372,0-0.636-0.288-0.636-0.647c0-0.372,0.276-0.66,0.66-0.66
		C50.474,73.904,50.726,74.192,50.726,74.564z M49.551,82v-5.805h1.056V82H49.551z"/>
	<path d="M52.359,77.767c0-0.6-0.012-1.092-0.048-1.571h0.936l0.06,0.959h0.024c0.288-0.552,0.959-1.091,1.919-1.091
		c0.803,0,2.051,0.479,2.051,2.471V82h-1.056v-3.346c0-0.936-0.348-1.716-1.343-1.716c-0.695,0-1.235,0.492-1.415,1.08
		c-0.048,0.132-0.072,0.312-0.072,0.491V82h-1.056V77.767z"/>
	<path d="M64.02,76.195c-0.024,0.42-0.048,0.888-0.048,1.595v3.37c0,1.332-0.264,2.147-0.827,2.65
		c-0.564,0.528-1.379,0.696-2.111,0.696c-0.696,0-1.463-0.168-1.931-0.479l0.264-0.804c0.384,0.239,0.984,0.455,1.703,0.455
		c1.08,0,1.871-0.563,1.871-2.026v-0.647h-0.024c-0.324,0.539-0.948,0.971-1.847,0.971c-1.439,0-2.471-1.223-2.471-2.83
		c0-1.967,1.284-3.082,2.615-3.082c1.007,0,1.559,0.527,1.811,1.007h0.024l0.048-0.875H64.02z M62.928,78.486
		c0-0.181-0.012-0.336-0.06-0.48c-0.192-0.611-0.708-1.115-1.476-1.115c-1.007,0-1.727,0.852-1.727,2.195
		c0,1.139,0.576,2.087,1.715,2.087c0.647,0,1.235-0.408,1.463-1.08c0.06-0.18,0.084-0.384,0.084-0.563V78.486z"/>
	<path d="M68.271,77.767c0-0.6-0.012-1.092-0.048-1.571h0.936l0.06,0.959h0.024c0.288-0.552,0.959-1.091,1.919-1.091
		c0.803,0,2.051,0.479,2.051,2.471V82h-1.056v-3.346c0-0.936-0.348-1.716-1.343-1.716c-0.695,0-1.235,0.492-1.415,1.08
		c-0.048,0.132-0.072,0.312-0.072,0.491V82h-1.056V77.767z"/>
	<path d="M79.788,80.417c0,0.6,0.012,1.127,0.048,1.583H78.9l-0.06-0.947h-0.024c-0.276,0.468-0.887,1.079-1.919,1.079
		c-0.911,0-2.003-0.504-2.003-2.543v-3.394h1.056v3.214c0,1.104,0.336,1.848,1.295,1.848c0.708,0,1.199-0.492,1.391-0.96
		c0.06-0.156,0.096-0.348,0.096-0.54v-3.562h1.056V80.417z"/>
	<path d="M81.542,77.767c0-0.6-0.012-1.092-0.048-1.571h0.923l0.048,0.936h0.036c0.324-0.552,0.864-1.067,1.823-1.067
		c0.792,0,1.391,0.479,1.643,1.163h0.024c0.18-0.324,0.408-0.575,0.647-0.756c0.348-0.264,0.731-0.407,1.283-0.407
		c0.768,0,1.907,0.504,1.907,2.519V82h-1.032v-3.286c0-1.115-0.408-1.787-1.259-1.787c-0.6,0-1.067,0.443-1.247,0.96
		c-0.048,0.144-0.084,0.335-0.084,0.527V82h-1.032v-3.479c0-0.923-0.408-1.595-1.211-1.595c-0.66,0-1.14,0.527-1.308,1.056
		c-0.06,0.155-0.084,0.336-0.084,0.516V82h-1.031V77.767z"/>
	<path d="M91.502,82c0.024-0.396,0.048-0.983,0.048-1.499v-7.017h1.043v3.646h0.024c0.372-0.647,1.043-1.067,1.979-1.067
		c1.439,0,2.458,1.199,2.447,2.962c0,2.075-1.308,3.106-2.603,3.106c-0.84,0-1.511-0.323-1.943-1.091h-0.036L92.414,82H91.502z
		 M92.594,79.673c0,0.133,0.024,0.265,0.048,0.384c0.204,0.732,0.816,1.235,1.583,1.235c1.103,0,1.763-0.899,1.763-2.23
		c0-1.163-0.6-2.159-1.727-2.159c-0.72,0-1.391,0.492-1.607,1.296c-0.024,0.12-0.06,0.264-0.06,0.432V79.673z"/>
	<path d="M98.966,79.289c0.024,1.428,0.935,2.016,1.991,2.016c0.755,0,1.211-0.132,1.607-0.3l0.18,0.755
		c-0.372,0.168-1.007,0.36-1.931,0.36c-1.787,0-2.854-1.176-2.854-2.927s1.032-3.13,2.723-3.13c1.895,0,2.399,1.667,2.399,2.734
		c0,0.216-0.024,0.384-0.036,0.491H98.966z M102.06,78.534c0.012-0.672-0.276-1.716-1.463-1.716c-1.067,0-1.535,0.984-1.619,1.716
		H102.06z"/>
	<path d="M104.39,78.006c0-0.684-0.012-1.271-0.048-1.811h0.923l0.036,1.14h0.048c0.264-0.78,0.899-1.271,1.607-1.271
		c0.12,0,0.204,0.012,0.3,0.036v0.995c-0.108-0.024-0.216-0.036-0.36-0.036c-0.744,0-1.271,0.563-1.416,1.355
		c-0.024,0.144-0.048,0.312-0.048,0.491V82h-1.043V78.006z"/>
</g>
<g>
	<path d="M130.81,79.457L129.971,82h-1.08l2.747-8.084h1.259L135.655,82h-1.115l-0.864-2.543H130.81z M133.46,78.642l-0.792-2.326
		c-0.18-0.528-0.3-1.008-0.419-1.476h-0.024c-0.12,0.479-0.251,0.972-0.408,1.463l-0.792,2.339H133.46z"/>
	<path d="M140.804,81.784c-0.276,0.144-0.888,0.336-1.667,0.336c-1.751,0-2.891-1.188-2.891-2.963c0-1.787,1.224-3.082,3.119-3.082
		c0.624,0,1.175,0.156,1.463,0.3l-0.24,0.815c-0.252-0.144-0.647-0.275-1.223-0.275c-1.332,0-2.051,0.983-2.051,2.194
		c0,1.344,0.864,2.171,2.015,2.171c0.6,0,0.996-0.156,1.295-0.288L140.804,81.784z"/>
	<path d="M146.108,81.784c-0.276,0.144-0.887,0.336-1.667,0.336c-1.751,0-2.891-1.188-2.891-2.963c0-1.787,1.224-3.082,3.119-3.082
		c0.624,0,1.175,0.156,1.463,0.3l-0.24,0.815c-0.252-0.144-0.647-0.275-1.223-0.275c-1.332,0-2.051,0.983-2.051,2.194
		c0,1.344,0.864,2.171,2.015,2.171c0.6,0,0.996-0.156,1.295-0.288L146.108,81.784z"/>
	<path d="M152.527,79.05c0,2.146-1.487,3.082-2.89,3.082c-1.571,0-2.783-1.151-2.783-2.986c0-1.942,1.271-3.082,2.878-3.082
		C151.4,76.063,152.527,77.274,152.527,79.05z M147.922,79.109c0,1.271,0.732,2.231,1.763,2.231c1.007,0,1.763-0.948,1.763-2.255
		c0-0.983-0.492-2.231-1.739-2.231C148.462,76.854,147.922,78.006,147.922,79.109z"/>
	<path d="M158.72,80.417c0,0.6,0.012,1.127,0.048,1.583h-0.936l-0.06-0.947h-0.024c-0.276,0.468-0.887,1.079-1.919,1.079
		c-0.911,0-2.003-0.504-2.003-2.543v-3.394h1.056v3.214c0,1.104,0.336,1.848,1.295,1.848c0.708,0,1.199-0.492,1.391-0.96
		c0.06-0.156,0.096-0.348,0.096-0.54v-3.562h1.056V80.417z"/>
	<path d="M160.475,77.767c0-0.6-0.012-1.092-0.048-1.571h0.936l0.06,0.959h0.024c0.288-0.552,0.959-1.091,1.919-1.091
		c0.803,0,2.051,0.479,2.051,2.471V82h-1.056v-3.346c0-0.936-0.348-1.716-1.343-1.716c-0.695,0-1.235,0.492-1.415,1.08
		c-0.048,0.132-0.072,0.312-0.072,0.491V82h-1.056V77.767z"/>
	<path d="M168.357,74.528v1.667h1.511v0.804h-1.511v3.13c0,0.72,0.204,1.128,0.792,1.128c0.276,0,0.479-0.036,0.611-0.072
		l0.048,0.791c-0.204,0.084-0.528,0.145-0.936,0.145c-0.492,0-0.888-0.156-1.14-0.444c-0.3-0.312-0.408-0.827-0.408-1.511v-3.166
		h-0.899v-0.804h0.899v-1.392L168.357,74.528z"/>
	<path d="M173.602,77.767c0-0.6-0.012-1.092-0.048-1.571h0.936l0.06,0.959h0.024c0.288-0.552,0.959-1.091,1.919-1.091
		c0.803,0,2.051,0.479,2.051,2.471V82h-1.056v-3.346c0-0.936-0.348-1.716-1.343-1.716c-0.695,0-1.235,0.492-1.415,1.08
		c-0.048,0.132-0.072,0.312-0.072,0.491V82h-1.056V77.767z"/>
	<path d="M185.119,80.417c0,0.6,0.012,1.127,0.048,1.583h-0.936l-0.06-0.947h-0.024c-0.276,0.468-0.887,1.079-1.919,1.079
		c-0.911,0-2.003-0.504-2.003-2.543v-3.394h1.056v3.214c0,1.104,0.336,1.848,1.295,1.848c0.708,0,1.199-0.492,1.391-0.96
		c0.06-0.156,0.096-0.348,0.096-0.54v-3.562h1.056V80.417z"/>
	<path d="M186.874,77.767c0-0.6-0.012-1.092-0.048-1.571h0.923l0.048,0.936h0.036c0.324-0.552,0.864-1.067,1.823-1.067
		c0.792,0,1.391,0.479,1.643,1.163h0.024c0.18-0.324,0.408-0.575,0.647-0.756c0.348-0.264,0.731-0.407,1.283-0.407
		c0.768,0,1.907,0.504,1.907,2.519V82h-1.032v-3.286c0-1.115-0.408-1.787-1.259-1.787c-0.6,0-1.067,0.443-1.247,0.96
		c-0.048,0.144-0.084,0.335-0.084,0.527V82h-1.032v-3.479c0-0.923-0.408-1.595-1.211-1.595c-0.66,0-1.14,0.527-1.308,1.056
		c-0.06,0.155-0.084,0.336-0.084,0.516V82h-1.031V77.767z"/>
	<path d="M196.833,82c0.024-0.396,0.048-0.983,0.048-1.499v-7.017h1.043v3.646h0.024c0.372-0.647,1.043-1.067,1.979-1.067
		c1.439,0,2.458,1.199,2.447,2.962c0,2.075-1.308,3.106-2.603,3.106c-0.84,0-1.511-0.323-1.943-1.091h-0.036L197.745,82H196.833z
		 M197.925,79.673c0,0.133,0.024,0.265,0.048,0.384c0.204,0.732,0.816,1.235,1.583,1.235c1.103,0,1.763-0.899,1.763-2.23
		c0-1.163-0.6-2.159-1.727-2.159c-0.72,0-1.391,0.492-1.607,1.296c-0.024,0.12-0.06,0.264-0.06,0.432V79.673z"/>
	<path d="M204.297,79.289c0.024,1.428,0.935,2.016,1.991,2.016c0.755,0,1.211-0.132,1.607-0.3l0.18,0.755
		c-0.372,0.168-1.007,0.36-1.931,0.36c-1.787,0-2.854-1.176-2.854-2.927s1.032-3.13,2.723-3.13c1.895,0,2.399,1.667,2.399,2.734
		c0,0.216-0.024,0.384-0.036,0.491H204.297z M207.391,78.534c0.012-0.672-0.276-1.716-1.463-1.716c-1.067,0-1.535,0.984-1.619,1.716
		H207.391z"/>
	<path d="M209.721,78.006c0-0.684-0.012-1.271-0.048-1.811h0.923l0.036,1.14h0.048c0.264-0.78,0.899-1.271,1.607-1.271
		c0.12,0,0.204,0.012,0.3,0.036v0.995c-0.108-0.024-0.216-0.036-0.359-0.036c-0.744,0-1.271,0.563-1.416,1.355
		c-0.024,0.144-0.048,0.312-0.048,0.491V82h-1.043V78.006z"/>
</g>
<line fill="none" stroke="#FECC2F" stroke-width="1.8224" stroke-miterlimit="10" x1="68.875" y1="49" x2="68.875" y2="68"/>
<line fill="none" stroke="#FECC2F" stroke-width="1.8224" stroke-miterlimit="10" x1="177.751" y1="49" x2="177.751" y2="68"/>
</svg>
