<?xml version="1.0" encoding="utf-8"?>
<!-- Generator: Adobe Illustrator 17.0.2, SVG Export Plug-In . SVG Version: 6.00 Build 0)  -->
<!DOCTYPE svg PUBLIC "-//W3C//DTD SVG 1.1//EN" "http://www.w3.org/Graphics/SVG/1.1/DTD/svg11.dtd">
<svg version="1.1" id="Art" xmlns="http://www.w3.org/2000/svg" xmlns:xlink="http://www.w3.org/1999/xlink" x="0px" y="0px"
	 width="26px" height="26px" viewBox="0 0 26 26" enable-background="new 0 0 26 26" xml:space="preserve">
<rect x="4.138" y="6.5" fill="#FFFFFF" width="17.333" height="13.867"/>
<g>
	<g>
		<path fill="#9AE21C" d="M13.056,0C5.876-0.031,0.031,5.764,0,12.944C-0.03,20.124,5.764,25.969,12.943,26
			c7.18,0.03,13.025-5.764,13.056-12.944C26.031,5.877,20.236,0.031,13.056,0z M19.223,10.841l-6.693,6.781
			c-0.332,0.332-0.733,0.671-1.195,0.671h0h0H11.33h0h-0.001h-0.027c-0.019,0-0.038-0.005-0.057-0.007
			c-0.452-0.036-0.826-0.351-1.137-0.663l-3.334-3.509c-0.316-0.316-0.491-0.74-0.491-1.191s0.176-0.875,0.495-1.194
			c0.319-0.319,0.743-0.495,1.194-0.495c0.451,0,0.875,0.176,1.194,0.495l2.153,2.152l5.516-5.516
			c0.319-0.32,0.743-0.495,1.194-0.495c0.445,0,0.869,0.18,1.194,0.506c0.31,0.309,0.495,0.768,0.495,1.227
			C19.718,10.069,19.533,10.532,19.223,10.841z"/>
	</g>
</g>
</svg>
