<?xml version="1.0" encoding="utf-8"?>
<!-- Generator: Adobe Illustrator 17.0.2, SVG Export Plug-In . SVG Version: 6.00 Build 0)  -->
<!DOCTYPE svg PUBLIC "-//W3C//DTD SVG 1.1//EN" "http://www.w3.org/Graphics/SVG/1.1/DTD/svg11.dtd">
<svg version="1.1" id="Layer_1" xmlns="http://www.w3.org/2000/svg" xmlns:xlink="http://www.w3.org/1999/xlink" x="0px" y="0px"
	 width="24px" height="24px" viewBox="0 0 24 24" enable-background="new 0 0 24 24" xml:space="preserve">
<g>
	<path fill="#FAFAFA" d="M4,23.5c-1.93,0-3.5-1.57-3.5-3.5V4c0-1.93,1.57-3.5,3.5-3.5h16c1.93,0,3.5,1.57,3.5,3.5v16
		c0,1.93-1.57,3.5-3.5,3.5H4z"/>
	<path fill="#E5E7EB" d="M20,1c1.654,0,3,1.346,3,3v16c0,1.654-1.346,3-3,3H4c-1.654,0-3-1.346-3-3V4c0-1.654,1.346-3,3-3H20 M20,0
		H4C1.791,0,0,1.791,0,4v16c0,2.209,1.791,4,4,4h16c2.209,0,4-1.791,4-4V4C24,1.791,22.209,0,20,0L20,0z"/>
</g>
<path fill="#D9D9D9" d="M20,1H4C2.346,1,1,2.346,1,4v16c0,1.654,1.346,3,3,3h16c1.654,0,3-1.346,3-3V4C23,2.346,21.654,1,20,1z"/>
<path fill="#FAFAFA" d="M20,2H5C3.346,2,2,3.346,2,5v15c0,1.654,1.346,3,3,3h15c1.654,0,3-1.346,3-3V5C23,3.346,21.654,2,20,2z"/>
</svg>
