<?xml version="1.0" encoding="utf-8"?>
<!-- Generator: Adobe Illustrator 17.0.2, SVG Export Plug-In . SVG Version: 6.00 Build 0)  -->
<!DOCTYPE svg PUBLIC "-//W3C//DTD SVG 1.1//EN" "http://www.w3.org/Graphics/SVG/1.1/DTD/svg11.dtd">
<svg version="1.1" id="Layer_1" xmlns="http://www.w3.org/2000/svg" xmlns:xlink="http://www.w3.org/1999/xlink" x="0px" y="0px"
	 width="24px" height="24px" viewBox="0 0 24 24" enable-background="new 0 0 24 24" xml:space="preserve">
<g>
	<path fill="#FAFAFA" d="M4,23.5c-1.93,0-3.5-1.57-3.5-3.5V4c0-1.93,1.57-3.5,3.5-3.5h16c1.93,0,3.5,1.57,3.5,3.5v16
		c0,1.93-1.57,3.5-3.5,3.5H4z"/>
	<path fill="#E5E7EB" d="M20,1c1.654,0,3,1.346,3,3v16c0,1.654-1.346,3-3,3H4c-1.654,0-3-1.346-3-3V4c0-1.654,1.346-3,3-3H20 M20,0
		H4C1.791,0,0,1.791,0,4v16c0,2.209,1.791,4,4,4h16c2.209,0,4-1.791,4-4V4C24,1.791,22.209,0,20,0L20,0z"/>
</g>
<path fill="#D9D9D9" d="M20,1H4C2.346,1,1,2.346,1,4v16c0,1.654,1.346,3,3,3h16c1.654,0,3-1.346,3-3V4C23,2.346,21.654,1,20,1z"/>
<path fill="#FAFAFA" d="M20,2H5C3.346,2,2,3.346,2,5v15c0,1.654,1.346,3,3,3h15c1.654,0,3-1.346,3-3V5C23,3.346,21.654,2,20,2z"/>
<g>
	<path fill="#77a246" d="M17.095,10.166l-5.48,5.552c-0.272,0.272-0.6,0.549-0.979,0.549h0h0h-0.004h0h-0.001H10.61
		c-0.016,0-0.031-0.004-0.047-0.006c-0.37-0.03-0.676-0.287-0.931-0.543l-2.729-2.873C6.644,12.587,6.5,12.24,6.5,11.87
		c0-0.369,0.144-0.717,0.405-0.978c0.261-0.261,0.609-0.405,0.978-0.405c0.369,0,0.717,0.144,0.978,0.405l1.763,1.762l4.516-4.516
		c0.261-0.262,0.609-0.406,0.978-0.406c0.364,0,0.711,0.147,0.978,0.414C17.349,8.401,17.5,8.776,17.5,9.152
		C17.5,9.534,17.349,9.913,17.095,10.166z"/>
</g>
</svg>
