<?xml version="1.0" encoding="utf-8"?>
<!-- Generator: Adobe Illustrator 17.0.2, SVG Export Plug-In . SVG Version: 6.00 Build 0)  -->
<!DOCTYPE svg PUBLIC "-//W3C//DTD SVG 1.1//EN" "http://www.w3.org/Graphics/SVG/1.1/DTD/svg11.dtd">
<svg version="1.1" id="Art" xmlns="http://www.w3.org/2000/svg" xmlns:xlink="http://www.w3.org/1999/xlink" x="0px" y="0px"
	 width="15px" height="15px" viewBox="0 0 15 15" enable-background="new 0 0 15 15" xml:space="preserve">
<g>
	<path fill="#96CE35" d="M7.532,0C3.39-0.018,0.018,3.326,0,7.468C-0.018,11.61,3.326,14.982,7.467,15
		c4.143,0.018,7.515-3.326,7.533-7.468C15.018,3.391,11.674,0.018,7.532,0z"/>
</g>
<g>
	<path fill="#FFFFFF" d="M11.09,6.208L7.229,10.12c-0.191,0.191-0.423,0.387-0.69,0.387h0h0H6.536h0H6.536H6.52
		c-0.011,0-0.022-0.003-0.033-0.004C6.227,10.481,6.011,10.3,5.831,10.12L3.908,8.096C3.726,7.913,3.624,7.669,3.624,7.409
		S3.726,6.904,3.91,6.72c0.184-0.184,0.429-0.286,0.689-0.286c0.26,0,0.505,0.101,0.689,0.286L6.53,7.961l3.182-3.182
		c0.184-0.184,0.429-0.286,0.689-0.286c0.257,0,0.501,0.104,0.689,0.292c0.179,0.178,0.285,0.443,0.285,0.708
		C11.376,5.762,11.269,6.029,11.09,6.208z"/>
</g>
</svg>
