<?xml version="1.0" encoding="utf-8"?>
<!-- Generator: Adobe Illustrator 17.0.2, SVG Export Plug-In . SVG Version: 6.00 Build 0)  -->
<!DOCTYPE svg PUBLIC "-//W3C//DTD SVG 1.1//EN" "http://www.w3.org/Graphics/SVG/1.1/DTD/svg11.dtd">
<svg version="1.1" id="Layer_1" xmlns="http://www.w3.org/2000/svg" xmlns:xlink="http://www.w3.org/1999/xlink" x="0px" y="0px"
	 width="119.146px" height="45.648px" viewBox="-0.333 60.667 119.146 45.648"
	 enable-background="new -0.333 60.667 119.146 45.648" xml:space="preserve">
<g>
	<g>
		<path fill="#1D64A5" d="M47.595,81.84H35.522c0,2.336,1.229,3.596,3.595,3.596c1.229,0,2.11-0.411,2.742-1.483h5.518
			c-0.917,3.815-4.541,5.547-8.231,5.547c-5.358,0-9.362-3.026-9.362-8.604c0-5.393,3.689-8.64,8.955-8.64
			c5.611,0,8.857,3.47,8.857,8.985v0.599H47.595z M42.268,78.531c-0.284-1.545-1.703-2.553-3.246-2.553
			c-1.673,0-3.058,0.881-3.407,2.553H42.268z"/>
		<path fill="#1D64A5" d="M57.696,89.217h-5.738V77.774h-2.867v-4.728h2.867v-4.855h5.738v4.855h2.827v4.728h-2.827V89.217z"/>
		<path fill="#1D64A5" d="M83.987,89.217H78.25V71.94h5.737V89.217z"/>
		<path fill="#1D64A5" d="M95.498,89.148h-5.737V78.263h-2.86v-4.73h2.86V72.69c0-2.237,0.064-3.877,1.64-5.674
			c1.42-1.672,3.466-2.585,5.643-2.585c0.884,0,1.669,0.157,2.459,0.569v4.946c-0.664-0.282-1.26-0.535-2.019-0.535
			c-1.48,0-1.985,0.884-1.985,2.711v1.411h3.429v4.73h-3.429L95.498,89.148L95.498,89.148z"/>
		<path fill="#1D64A5" d="M118,81.852h-12.077c0,2.333,1.231,3.593,3.597,3.593c1.226,0,2.112-0.409,2.745-1.483h5.513
			c-0.913,3.816-4.539,5.551-8.227,5.551c-5.357,0-9.364-3.027-9.364-8.607c0-5.392,3.688-8.638,8.955-8.638
			c5.612,0,8.858,3.468,8.858,8.984L118,81.852L118,81.852z M112.67,78.543c-0.28-1.546-1.699-2.554-3.243-2.554
			c-1.674,0-3.058,0.881-3.407,2.554H112.67z"/>
		<path fill="#1D64A5" d="M81.112,62.667c-1.959,0-3.548,1.586-3.548,3.541c0,1.956,1.588,3.543,3.548,3.543
			c1.952,0,3.539-1.586,3.539-3.543C84.652,64.253,83.064,62.667,81.112,62.667z"/>
		<path fill="#1D64A5" d="M3.849,66.565h5.802l4.599,12.118l4.872-12.118h5.863l3.427,22.671H22.52l-1.655-13.049h-0.06
			l-5.442,13.05h-2.344L7.816,76.188h-0.06L5.861,89.237H0L3.849,66.565z"/>
		<path fill="#1D64A5" d="M68.936,84.133h7.18v5.068H62.947V66.167h5.989V84.133z"/>
	</g>
	<g>
		<g>
			<g>
				<g>
					<path fill="#FFFFFF" d="M47.595,79.84H35.522c0,2.336,1.229,3.596,3.595,3.596c1.229,0,2.11-0.411,2.742-1.483h5.518
						c-0.917,3.815-4.541,5.547-8.231,5.547c-5.358,0-9.362-3.026-9.362-8.604c0-5.393,3.689-8.64,8.955-8.64
						c5.611,0,8.857,3.47,8.857,8.985v0.599H47.595z M42.268,76.531c-0.284-1.545-1.703-2.553-3.246-2.553
						c-1.673,0-3.058,0.881-3.407,2.553H42.268z"/>
					<path fill="#FFFFFF" d="M57.696,87.217h-5.738V75.774h-2.867v-4.728h2.867v-4.855h5.738v4.855h2.827v4.728h-2.827V87.217z"/>
					<path fill="#FFFFFF" d="M83.987,87.217H78.25V69.94h5.737V87.217z"/>
					<path fill="#FFFFFF" d="M95.498,87.148h-5.737V76.263h-2.86v-4.73h2.86V70.69c0-2.237,0.064-3.877,1.64-5.674
						c1.42-1.672,3.466-2.585,5.643-2.585c0.884,0,1.669,0.157,2.459,0.569v4.946c-0.664-0.282-1.26-0.535-2.019-0.535
						c-1.48,0-1.985,0.884-1.985,2.711v1.411h3.429v4.73h-3.429L95.498,87.148L95.498,87.148z"/>
					<path fill="#FFFFFF" d="M118,79.852h-12.077c0,2.333,1.231,3.593,3.597,3.593c1.226,0,2.112-0.409,2.745-1.483h5.513
						c-0.913,3.816-4.539,5.551-8.227,5.551c-5.357,0-9.364-3.027-9.364-8.607c0-5.392,3.688-8.638,8.955-8.638
						c5.612,0,8.858,3.468,8.858,8.984L118,79.852L118,79.852z M112.67,76.543c-0.28-1.546-1.699-2.554-3.243-2.554
						c-1.674,0-3.058,0.881-3.407,2.554H112.67z"/>
					<path fill="#FFFFFF" d="M81.112,60.667c-1.959,0-3.548,1.586-3.548,3.541c0,1.956,1.588,3.543,3.548,3.543
						c1.952,0,3.539-1.586,3.539-3.543C84.652,62.253,83.064,60.667,81.112,60.667z"/>
					<path fill="#FFFFFF" d="M3.849,64.565h5.802l4.599,12.118l4.872-12.118h5.863l3.427,22.671H22.52l-1.655-13.049h-0.06
						l-5.442,13.05h-2.344L7.816,74.188h-0.06L5.861,87.237H0L3.849,64.565z"/>
				</g>
				<path fill="#FFFFFF" d="M68.936,82.133h7.18v5.068H62.947V64.167h5.989V82.133z"/>
			</g>
		</g>
	</g>
</g>
<g>
	<g>
		<path fill="#1D64A5" d="M-0.333,98.644H1.45l2.366,6.267l2.323-6.267h1.783v7.541H6.84v-6.525H6.819l-2.496,6.525H3.265
			l-2.496-6.525H0.748v6.525h-1.081V98.644z"/>
		<path fill="#1D64A5" d="M14.288,105.958c-0.389,0.141-0.832,0.356-1.739,0.356c-1.956,0-2.852-1.188-2.852-2.981
			c0-1.632,1.026-2.788,2.582-2.788c1.836,0,2.431,1.34,2.431,3.111h-3.933c0,1.092,0.854,1.837,1.815,1.837
			c0.67,0,1.448-0.346,1.696-0.551V105.958z M13.629,102.9c0-0.843-0.497-1.534-1.372-1.534c-0.994,0-1.404,0.821-1.48,1.534H13.629
			z"/>
		<path fill="#1D64A5" d="M19.278,101.496H17.82v3.014c0,0.638,0.389,0.983,0.854,0.983c0.313,0,0.54-0.098,0.691-0.194v0.864
			c-0.227,0.064-0.54,0.151-0.864,0.151c-1.048,0-1.696-0.497-1.696-1.599v-3.22h-1.242v-0.821h1.242V99.4l1.016-0.324v1.599h1.458
			V101.496z"/>
		<path fill="#1D64A5" d="M20.811,98.644h1.081v6.59h3.154v0.951h-4.235V98.644z"/>
		<path fill="#1D64A5" d="M27.53,99.443h-1.145v-1.146h1.145V99.443z M26.45,100.675h1.015v5.51H26.45V100.675z"/>
		<path fill="#1D64A5" d="M30.127,101.496H28.83v-0.821h1.296v-0.508c0-1.34,0.346-2.215,1.847-2.215
			c0.259,0,0.476,0.033,0.681,0.065l-0.043,0.821c-0.119-0.044-0.313-0.065-0.486-0.065c-0.875,0-0.983,0.562-0.983,1.308v0.594
			H32.6v0.821h-1.458v4.688h-1.015V101.496z"/>
		<path fill="#1D64A5" d="M38.079,105.958c-0.389,0.141-0.832,0.356-1.739,0.356c-1.956,0-2.852-1.188-2.852-2.981
			c0-1.632,1.026-2.788,2.582-2.788c1.836,0,2.431,1.34,2.431,3.111h-3.933c0,1.092,0.854,1.837,1.815,1.837
			c0.67,0,1.448-0.346,1.696-0.551V105.958z M37.42,102.9c0-0.843-0.497-1.534-1.372-1.534c-0.994,0-1.404,0.821-1.48,1.534H37.42z"
			/>
		<path fill="#1D64A5" d="M45.779,98.644h1.134l3.187,7.541h-1.178l-0.767-1.901h-3.695l-0.767,1.901H42.56L45.779,98.644z
			 M46.309,99.659l-1.502,3.738h3.003L46.309,99.659z"/>
		<path fill="#1D64A5" d="M56.044,106.185h-0.983v-0.875H55.04c-0.303,0.627-1.037,1.005-1.804,1.005
			c-1.426,0-2.063-0.886-2.063-2.366v-3.273h1.016v2.853c0,1.285,0.281,1.912,1.167,1.966c1.156,0,1.675-0.929,1.675-2.269v-2.55
			h1.015V106.185z"/>
		<path fill="#1D64A5" d="M60.991,101.496h-1.458v3.014c0,0.638,0.389,0.983,0.854,0.983c0.313,0,0.54-0.098,0.691-0.194v0.864
			c-0.227,0.064-0.54,0.151-0.864,0.151c-1.048,0-1.696-0.497-1.696-1.599v-3.22h-1.242v-0.821h1.242V99.4l1.016-0.324v1.599h1.458
			V101.496z"/>
		<path fill="#1D64A5" d="M64.809,100.545c1.675,0,2.798,1.21,2.798,2.885c0,1.577-1.145,2.885-2.798,2.885
			c-1.663,0-2.809-1.308-2.809-2.885C62,101.755,63.123,100.545,64.809,100.545z M64.809,105.493c1.188,0,1.718-1.08,1.718-2.063
			c0-1.048-0.638-2.063-1.718-2.063c-1.091,0-1.729,1.016-1.729,2.063C63.08,104.413,63.61,105.493,64.809,105.493z"/>
		<path fill="#1D64A5" d="M78.536,102.111c-0.097,1.222-0.432,1.924-0.863,2.582l1.317,1.491H77.64l-0.615-0.734
			c-0.54,0.615-1.199,0.864-2.161,0.864c-1.49,0-2.431-0.843-2.431-2.106c0-1.146,0.67-1.794,1.686-2.204
			c-0.399-0.486-0.778-0.994-0.778-1.718c0-1.21,0.887-1.771,1.967-1.771c0.983,0,1.869,0.519,1.869,1.707
			c0,0.961-0.854,1.609-1.653,1.966l1.534,1.75c0.292-0.465,0.41-0.962,0.465-1.826H78.536z M75.058,105.493
			c0.702,0,1.156-0.454,1.394-0.724l-1.814-2.128c-0.572,0.389-1.059,0.745-1.059,1.49C73.578,104.964,74.28,105.493,75.058,105.493
			z M75.026,101.582c0.454-0.216,1.135-0.681,1.135-1.317c0-0.691-0.378-0.93-0.896-0.93c-0.497,0-0.908,0.324-0.908,0.973
			C74.356,100.815,74.701,101.226,75.026,101.582z"/>
		<path fill="#1D64A5" d="M83.783,98.644h1.08v3.155h3.608v-3.155h1.08v7.541h-1.08v-3.436h-3.608v3.436h-1.08V98.644z"/>
		<path fill="#1D64A5" d="M94.133,100.545c1.675,0,2.798,1.21,2.798,2.885c0,1.577-1.145,2.885-2.798,2.885
			c-1.663,0-2.809-1.308-2.809-2.885C91.324,101.755,92.447,100.545,94.133,100.545z M94.133,105.493
			c1.188,0,1.718-1.08,1.718-2.063c0-1.048-0.638-2.063-1.718-2.063c-1.091,0-1.729,1.016-1.729,2.063
			C92.404,104.413,92.934,105.493,94.133,105.493z"/>
		<path fill="#1D64A5" d="M98.528,100.675h0.95v0.8h0.022c0.389-0.638,0.939-0.93,1.75-0.93c0.637,0,1.274,0.324,1.566,1.07
			c0.378-0.789,1.21-1.07,1.707-1.07c1.404,0,1.912,0.908,1.912,2.107v3.532h-1.016V102.9c0-0.681-0.162-1.534-0.983-1.534
			c-1.037,0-1.447,1.016-1.447,2.042v2.776h-1.016V102.9c0-0.681-0.162-1.534-0.983-1.534c-1.037,0-1.447,1.016-1.447,2.042v2.776
			h-1.016V100.675z"/>
		<path fill="#1D64A5" d="M112.64,105.958c-0.389,0.141-0.831,0.356-1.739,0.356c-1.955,0-2.852-1.188-2.852-2.981
			c0-1.632,1.026-2.788,2.582-2.788c1.836,0,2.431,1.34,2.431,3.111h-3.933c0,1.092,0.854,1.837,1.815,1.837
			c0.67,0,1.447-0.346,1.695-0.551V105.958z M111.982,102.9c0-0.843-0.497-1.534-1.372-1.534c-0.994,0-1.404,0.821-1.48,1.534
			H111.982z"/>
		<path fill="#1D64A5" d="M114.264,100.389c0-1.254,1.021-2.275,2.274-2.275s2.275,1.021,2.275,2.275s-1.021,2.274-2.275,2.274
			S114.264,101.643,114.264,100.389z M118.259,100.389c0-1.065-0.769-1.834-1.721-1.834c-0.951,0-1.72,0.769-1.72,1.834
			c0,1.064,0.769,1.834,1.72,1.834C117.49,102.223,118.259,101.453,118.259,100.389z M115.662,99.091h0.958
			c0.618,0,0.952,0.214,0.952,0.756c0,0.441-0.253,0.655-0.675,0.693l0.693,1.128H117.1l-0.668-1.109h-0.29v1.109h-0.479V99.091z
			 M116.142,100.193h0.422c0.283,0,0.529-0.038,0.529-0.385c0-0.303-0.277-0.353-0.522-0.353h-0.429V100.193z"/>
	</g>
	<g>
		<path fill="#CADFED" d="M-0.333,96.644H1.45l2.366,6.267l2.323-6.267h1.783v7.541H6.84v-6.525H6.819l-2.496,6.525H3.265
			l-2.496-6.525H0.748v6.525h-1.081V96.644z"/>
		<path fill="#CADFED" d="M14.288,103.958c-0.389,0.141-0.832,0.356-1.739,0.356c-1.956,0-2.852-1.188-2.852-2.981
			c0-1.632,1.026-2.788,2.582-2.788c1.836,0,2.431,1.34,2.431,3.111h-3.933c0,1.092,0.854,1.837,1.815,1.837
			c0.67,0,1.448-0.346,1.696-0.551V103.958z M13.629,100.9c0-0.843-0.497-1.534-1.372-1.534c-0.994,0-1.404,0.821-1.48,1.534H13.629
			z"/>
		<path fill="#CADFED" d="M19.278,99.496H17.82v3.014c0,0.638,0.389,0.983,0.854,0.983c0.313,0,0.54-0.098,0.691-0.194v0.864
			c-0.227,0.064-0.54,0.151-0.864,0.151c-1.048,0-1.696-0.497-1.696-1.599v-3.22h-1.242v-0.821h1.242V97.4l1.016-0.324v1.599h1.458
			V99.496z"/>
		<path fill="#CADFED" d="M20.811,96.644h1.081v6.59h3.154v0.951h-4.235V96.644z"/>
		<path fill="#CADFED" d="M27.53,97.443h-1.145v-1.146h1.145V97.443z M26.45,98.675h1.015v5.51H26.45V98.675z"/>
		<path fill="#CADFED" d="M30.127,99.496H28.83v-0.821h1.296v-0.508c0-1.34,0.346-2.215,1.847-2.215
			c0.259,0,0.476,0.033,0.681,0.065l-0.043,0.821c-0.119-0.044-0.313-0.065-0.486-0.065c-0.875,0-0.983,0.562-0.983,1.308v0.594
			H32.6v0.821h-1.458v4.688h-1.015V99.496z"/>
		<path fill="#CADFED" d="M38.079,103.958c-0.389,0.141-0.832,0.356-1.739,0.356c-1.956,0-2.852-1.188-2.852-2.981
			c0-1.632,1.026-2.788,2.582-2.788c1.836,0,2.431,1.34,2.431,3.111h-3.933c0,1.092,0.854,1.837,1.815,1.837
			c0.67,0,1.448-0.346,1.696-0.551V103.958z M37.42,100.9c0-0.843-0.497-1.534-1.372-1.534c-0.994,0-1.404,0.821-1.48,1.534H37.42z"
			/>
		<path fill="#CADFED" d="M45.779,96.644h1.134l3.187,7.541h-1.178l-0.767-1.901h-3.695l-0.767,1.901H42.56L45.779,96.644z
			 M46.309,97.659l-1.502,3.738h3.003L46.309,97.659z"/>
		<path fill="#CADFED" d="M56.044,104.185h-0.983v-0.875H55.04c-0.303,0.627-1.037,1.005-1.804,1.005
			c-1.426,0-2.063-0.886-2.063-2.366v-3.273h1.016v2.853c0,1.285,0.281,1.912,1.167,1.966c1.156,0,1.675-0.929,1.675-2.269v-2.55
			h1.015V104.185z"/>
		<path fill="#CADFED" d="M60.991,99.496h-1.458v3.014c0,0.638,0.389,0.983,0.854,0.983c0.313,0,0.54-0.098,0.691-0.194v0.864
			c-0.227,0.064-0.54,0.151-0.864,0.151c-1.048,0-1.696-0.497-1.696-1.599v-3.22h-1.242v-0.821h1.242V97.4l1.016-0.324v1.599h1.458
			V99.496z"/>
		<path fill="#CADFED" d="M64.809,98.545c1.675,0,2.798,1.21,2.798,2.885c0,1.577-1.145,2.885-2.798,2.885
			c-1.663,0-2.809-1.308-2.809-2.885C62,99.755,63.123,98.545,64.809,98.545z M64.809,103.493c1.188,0,1.718-1.08,1.718-2.063
			c0-1.048-0.638-2.063-1.718-2.063c-1.091,0-1.729,1.016-1.729,2.063C63.08,102.413,63.61,103.493,64.809,103.493z"/>
		<path fill="#CADFED" d="M78.536,100.111c-0.097,1.222-0.432,1.924-0.863,2.582l1.317,1.491H77.64l-0.615-0.734
			c-0.54,0.615-1.199,0.864-2.161,0.864c-1.49,0-2.431-0.843-2.431-2.106c0-1.146,0.67-1.794,1.686-2.204
			c-0.399-0.486-0.778-0.994-0.778-1.718c0-1.21,0.887-1.771,1.967-1.771c0.983,0,1.869,0.519,1.869,1.707
			c0,0.961-0.854,1.609-1.653,1.966l1.534,1.75c0.292-0.465,0.41-0.962,0.465-1.826H78.536z M75.058,103.493
			c0.702,0,1.156-0.454,1.394-0.724l-1.814-2.128c-0.572,0.389-1.059,0.745-1.059,1.49C73.578,102.964,74.28,103.493,75.058,103.493
			z M75.026,99.582c0.454-0.216,1.135-0.681,1.135-1.317c0-0.691-0.378-0.93-0.896-0.93c-0.497,0-0.908,0.324-0.908,0.973
			C74.356,98.815,74.701,99.226,75.026,99.582z"/>
		<path fill="#CADFED" d="M83.783,96.644h1.08v3.155h3.608v-3.155h1.08v7.541h-1.08v-3.436h-3.608v3.436h-1.08V96.644z"/>
		<path fill="#CADFED" d="M94.133,98.545c1.675,0,2.798,1.21,2.798,2.885c0,1.577-1.145,2.885-2.798,2.885
			c-1.663,0-2.809-1.308-2.809-2.885C91.324,99.755,92.447,98.545,94.133,98.545z M94.133,103.493c1.188,0,1.718-1.08,1.718-2.063
			c0-1.048-0.638-2.063-1.718-2.063c-1.091,0-1.729,1.016-1.729,2.063C92.404,102.413,92.934,103.493,94.133,103.493z"/>
		<path fill="#CADFED" d="M98.528,98.675h0.95v0.8h0.022c0.389-0.638,0.939-0.93,1.75-0.93c0.637,0,1.274,0.324,1.566,1.07
			c0.378-0.789,1.21-1.07,1.707-1.07c1.404,0,1.912,0.908,1.912,2.107v3.532h-1.016V100.9c0-0.681-0.162-1.534-0.983-1.534
			c-1.037,0-1.447,1.016-1.447,2.042v2.776h-1.016V100.9c0-0.681-0.162-1.534-0.983-1.534c-1.037,0-1.447,1.016-1.447,2.042v2.776
			h-1.016V98.675z"/>
		<path fill="#CADFED" d="M112.64,103.958c-0.389,0.141-0.831,0.356-1.739,0.356c-1.955,0-2.852-1.188-2.852-2.981
			c0-1.632,1.026-2.788,2.582-2.788c1.836,0,2.431,1.34,2.431,3.111h-3.933c0,1.092,0.854,1.837,1.815,1.837
			c0.67,0,1.447-0.346,1.695-0.551V103.958z M111.982,100.9c0-0.843-0.497-1.534-1.372-1.534c-0.994,0-1.404,0.821-1.48,1.534
			H111.982z"/>
		<path fill="#CADFED" d="M114.264,98.389c0-1.254,1.021-2.275,2.274-2.275s2.275,1.021,2.275,2.275s-1.021,2.274-2.275,2.274
			S114.264,99.643,114.264,98.389z M118.259,98.389c0-1.065-0.769-1.834-1.721-1.834c-0.951,0-1.72,0.769-1.72,1.834
			c0,1.064,0.769,1.834,1.72,1.834C117.49,100.223,118.259,99.453,118.259,98.389z M115.662,97.091h0.958
			c0.618,0,0.952,0.214,0.952,0.756c0,0.441-0.253,0.655-0.675,0.693l0.693,1.128H117.1l-0.668-1.109h-0.29v1.109h-0.479V97.091z
			 M116.142,98.193h0.422c0.283,0,0.529-0.038,0.529-0.385c0-0.303-0.277-0.353-0.522-0.353h-0.429V98.193z"/>
	</g>
</g>
</svg>
