<?xml version="1.0" encoding="utf-8"?>
<!-- Generator: Adobe Illustrator 17.0.2, SVG Export Plug-In . SVG Version: 6.00 Build 0)  -->
<!DOCTYPE svg PUBLIC "-//W3C//DTD SVG 1.1//EN" "http://www.w3.org/Graphics/SVG/1.1/DTD/svg11.dtd">
<svg version="1.1" id="Layer_1" xmlns="http://www.w3.org/2000/svg" xmlns:xlink="http://www.w3.org/1999/xlink" x="0px" y="0px"
	 width="183px" height="57.402px" viewBox="0 0 183 57.402" enable-background="new 0 0 183 57.402" xml:space="preserve">
<path fill="#FFD520" d="M26.963,14.983c0,0-1.602,1.294-2.095,1.972c-0.493,0.678-1.047,2.834-0.493,3.574s1.047,2.157,2.403,2.403
	c1.356,0.246,3.82,1.417,4.621,1.787c0.801,0.37,2.341,2.218,2.526,2.773c0.185,0.555,0.555,1.725,0.37,2.526
	c-0.185,0.801-0.801,2.157-1.848,2.465c-1.047,0.308-3.45,1.047-4.251,1.356c-0.801,0.308-1.787,1.664-1.91,2.095
	c-0.123,0.431-0.123,1.972,0.185,2.649c0.308,0.678,0.863,1.171,1.294,2.095s1.171,2.958,0.801,3.635
	c-0.37,0.678-0.185,1.294-0.678,1.972c-0.493,0.678-0.801,1.109-0.678,1.91s0.308,1.725,0.185,2.28
	c-0.123,0.555-0.123,1.171-0.739,1.109c-0.616-0.062-1.725,0.37-2.218,0.37s-1.171-0.123-1.356-0.678
	c-0.185-0.555-0.555-1.356-0.431-1.787c0.123-0.431-0.123-1.972-0.308-2.588s-1.109-0.185-1.356-1.725
	c-0.246-1.54-0.863-1.972-0.37-3.019s1.356-2.526,1.417-3.389s0.431-1.294-0.246-2.157c-0.678-0.863-0.616-1.109-2.157-1.109
	c-1.54,0-2.341,0.246-2.896,0.062c-0.555-0.185-1.972-0.308-1.972-0.308s0.986-0.924,0.616-1.232s-3.081-0.863-3.081-0.863
	s1.417-2.157,0.678-2.711c-0.739-0.555-3.574-0.924-3.574-0.924s3.82-2.588,3.45-3.758c-0.37-1.171-4.929-1.171-4.929-1.171
	s1.972-1.356,2.958-1.602c0.986-0.246,1.787-0.123,1.91-0.986c0.123-0.863-0.431-1.602-0.493-2.773s-0.246-2.526-0.308-3.45
	c-0.062-0.924,0-1.54,0.185-1.848c0.185-0.308,0.555-1.171,0.555-1.171s1.848,4.436,2.773,4.375s4.251-5.237,4.251-5.237
	s1.232,4.991,2.157,4.868S26.963,14.983,26.963,14.983z"/>
<path fill="#FFD520" d="M48.097,9.314c0,0,2.28,1.725,2.403,2.341s0.431,2.588-0.246,3.327c-0.678,0.739-3.574,1.664-5.114,1.787
	s-3.142,0.246-4.436,0.493c-1.294,0.246-2.033,0.678-2.649,1.171s-1.479,1.91-1.417,2.588c0.062,0.678,0.555,2.649,1.54,3.574
	s3.266,1.725,4.683,2.465s3.45,2.28,4.313,2.773s1.787,1.787,1.848,2.526c0.062,0.739-0.246,1.91-0.986,2.896
	c-0.739,0.986-1.171,2.588-1.417,3.081c-0.246,0.493-0.246,1.664,0,2.588c0.246,0.924,1.54,1.725,1.972,1.972
	c0.431,0.246,1.109,0.924,0.986,1.417c-0.123,0.493-0.185,1.972-0.185,2.28c0,0.308,0.246,1.047,0.924,1.171s2.157,0,3.142,0.062
	s1.787,0.246,2.526,0.431c0.739,0.185,1.356,0.308,2.033,0.555c0.678,0.246,1.294,0.678,1.848,0.431
	c0.555-0.246,0.986-0.616,0.555-1.294c-0.431-0.678-1.171-1.047-1.602-1.294c-0.431-0.246-0.801-0.246-1.787-0.308
	s-2.157,0.185-2.157-0.616s-0.062-1.479,0.246-2.588c0.308-1.109,0.37-2.526,0.308-3.635c-0.062-1.109-0.431-1.417-1.294-3.142
	s-1.54-3.019-1.725-3.758c-0.185-0.739-0.493-1.479,0.062-1.787c0.555-0.308,1.171-0.493,1.664-0.431
	c0.493,0.062,1.356,0.493,1.356,0.493s-0.123-0.801,0.123-1.047c0.246-0.246,2.773,0.062,2.773,0.062s-0.431-2.834,0.431-2.958
	s3.204,0.555,3.204,0.555s-0.739-1.479-0.863-2.095c-0.123-0.616-0.185-1.848-0.062-2.341c0.123-0.493,0.555-0.986,0.924-1.171
	c0.37-0.185,2.649-0.863,2.649-0.863s-2.773-1.91-2.958-3.019s1.91-3.882,1.91-3.882s-2.218,0.924-2.834,1.109
	s-2.341,0.493-2.341,0.493s-0.185-1.725-0.123-2.465c0.062-0.739,0.246-2.403,0.37-3.081s0.308-1.91,0.308-1.91
	s-2.095,2.958-2.896,2.588c-0.801-0.37-2.465-4.744-2.465-4.744s-0.555,4.067-1.356,4.128C51.486,10.3,48.097,9.314,48.097,9.314z"
	/>
<path fill="#FFD520" d="M89.749,5.926c0,0-1.54,0.185-2.157,0.555c-0.616,0.37-1.356,1.417-1.356,1.848s0.308,2.28,1.54,2.896
	s3.697,1.171,5.052,1.725c1.356,0.555,3.758,1.725,4.313,2.341c0.555,0.616,1.602,1.787,1.479,2.465
	c-0.123,0.678-0.986,2.403-1.479,2.773c-0.493,0.37-0.863,1.047-2.403,1.417s-2.095,0.678-3.512,0.801
	c-1.417,0.123-1.972,0.739-2.403,1.171c-0.431,0.431-0.616,1.479-0.37,2.033c0.246,0.555,0.986,2.28,1.356,2.773
	s1.417,2.218,1.602,2.834c0.185,0.616,0.801,2.403,0.616,3.266c-0.185,0.863-0.616,1.848-0.863,2.588s-0.185,2.033-0.185,2.403
	c0,0.37-0.185,1.109-0.246,1.602s0.431,0.986,0.616,1.294c0.185,0.308,0.863,1.417,0.555,1.602
	c-0.308,0.185-0.678,0.493-1.787,0.555c-1.109,0.062-2.649,0-3.882-0.123s-2.896-0.185-3.882-0.431
	c-0.986-0.246-3.142,0.123-2.773-0.678s0.123-1.047,0.863-1.294c0.739-0.246,2.095-0.431,2.649-0.493s1.232-0.431,1.479-1.109
	s0.801-2.157,0.37-2.649s-1.91-0.801-2.157-1.602s-0.678-2.958-0.062-3.882c0.616-0.924,1.91-2.958,1.972-4.067
	c0.062-1.109,0.308-2.341-0.678-3.081c-0.986-0.739-2.834-0.863-3.389-0.924c-0.555-0.062-1.047,0-1.91,0
	c-0.863,0-2.28,0.062-2.28,0.062s1.171-1.171,0.986-1.54c-0.185-0.37-3.635-0.062-3.635-0.062s2.403-3.204,1.725-3.82
	c-0.678-0.616-5.052-0.123-5.052-0.123s3.389-3.697,3.081-4.621c-0.308-0.924-3.204-0.678-3.204-0.678s2.033-2.218,2.649-2.403
	c0.616-0.185,1.417-0.308,2.033-0.123s1.602,1.047,1.848-0.062s0.37-1.109-0.739-2.341c-1.109-1.232-1.479-1.725-1.664-2.341
	s-0.123-4.251-0.123-4.251s2.649,3.635,3.389,3.635c0.739,0,3.081-5.545,3.081-5.545s0.863,3.882,2.157,3.943
	c1.294,0.062,3.327-1.972,3.327-1.972s-0.308,2.773,0.308,3.142C87.222,5.802,89.749,5.926,89.749,5.926z"/>
<path fill="#FFD520" d="M110.821,5.556c0,0,1.725,0.616,1.972,1.109s0.863,2.218,0.37,2.958c-0.493,0.739-0.801,2.157-2.218,2.403
	s-3.758,0.986-4.621,1.232c-0.863,0.246-2.773,1.479-2.958,2.095s-0.739,1.91-0.616,2.773c0.123,0.863,1.109,2.033,2.465,2.588
	c1.356,0.555,3.019,1.109,4.868,1.356c1.848,0.246,2.896,0.431,3.574,1.294c0.678,0.863,1.417,2.157,1.171,2.834
	s-0.986,1.787-1.479,2.588c-0.493,0.801-1.171,2.526-1.356,3.327c-0.185,0.801,0.062,1.972,0.308,2.773s0.863,1.787,1.232,2.341
	c0.37,0.555,1.047,1.171,0.616,1.602c-0.431,0.431-1.171,0.493-2.28,0.801c-1.109,0.308-1.417,0.801-2.033,1.232
	c-0.616,0.431-1.171,0.863-0.801,1.171c0.37,0.308,1.232,0.986,2.28,1.047c1.047,0.062,1.294,0.308,2.773,0.493
	c1.479,0.185,3.389,0.123,4.621,0c1.232-0.123,2.588-0.308,3.142-0.555c0.555-0.246,0.739-0.678,0.431-1.171
	c-0.308-0.493-0.801-0.493-1.479-0.986c-0.678-0.493-0.986-1.725-0.863-2.033c0.123-0.308,1.109-0.555,1.664-0.37
	c0.555,0.185,1.294,0.986,2.465,1.171s1.787-0.062,2.773,0.123c0.986,0.185,1.664,0.678,1.91-0.185s0.246-1.417-0.308-2.403
	s-0.555-1.356-1.356-1.602c-0.801-0.246-1.417-0.555-2.588-0.062c-1.171,0.493-2.403,1.109-3.327,0.863
	c-0.924-0.246-0.246-0.863-0.123-1.417c0.123-0.555,0.37-1.848-0.37-3.019c-0.739-1.171-0.924-1.602-1.479-2.834
	s-0.616-2.773-0.431-3.45c0.185-0.678,0.863-1.787,1.602-2.095c0.739-0.308,1.602-0.431,2.28-0.431c0.678,0,2.649,0.924,2.649,0.924
	s-0.062-2.157-0.062-3.019c0-0.863,0.062-2.588,0.493-2.896c0.431-0.308,1.047-0.493,1.417-0.431c0.37,0.062,1.109,0.37,1.109,0.37
	s-0.123-1.171-0.555-1.54c-0.431-0.37-1.602-1.725-1.725-2.526s-0.062-1.356,0.246-1.602s1.171-1.047,1.417-1.047
	s0.986,0.431,0.986,0.431s-0.123-0.924-0.678-1.171s-1.417-0.37-1.725-0.739c-0.308-0.37-0.924-0.555-1.047-0.986
	c-0.102-0.355,1.479-4.128,1.479-4.128s-1.171,1.602-1.787,2.033c-0.616,0.431-1.725,1.602-2.341,1.848
	c-0.616,0.246-1.664,0.924-1.787,0c-0.123-0.924-0.185-2.465-0.246-3.327s-0.924-3.081-0.924-3.081s-0.555,2.834-1.54,3.081
	c-0.682,0.17-3.574-3.758-3.574-3.758s0.123,3.327-0.493,3.635C113.347,5.494,110.821,5.556,110.821,5.556z"/>
<path fill="#FFD520" d="M150.439,11.163c0,0,2.341,1.294,2.649,2.341s0.493,2.773-0.555,3.635c-1.047,0.863-1.972,1.725-3.574,2.033
	c-1.602,0.308-4.19,0.246-6.223,0.555c-2.033,0.308-3.635,1.047-4.436,1.787c-0.801,0.739-1.294,2.157-0.863,3.204
	c0.431,1.047,2.773,3.081,4.005,3.882c1.232,0.801,3.758,1.972,4.498,2.465c0.739,0.493,1.664,1.047,2.033,1.91
	s0.616,1.787,0.431,2.834c-0.185,1.047-0.493,2.095-0.924,2.834s-0.924,1.047-0.616,1.787s0.493,1.479,1.047,1.91
	c0.555,0.431,1.294,0.185,1.602,0.555c0.308,0.37,0.431,1.109,0.246,1.91s-0.801,2.341-0.986,3.327
	c-0.185,0.986-0.678,1.848,0,2.218c0.678,0.37,1.664,0.555,2.341,0.246c0.678-0.308,1.417-1.54,1.787-2.403s0.924-1.91,0.801-3.204
	c-0.123-1.294-0.493-1.91-1.047-3.266c-0.555-1.356-0.863-2.711-0.739-3.574c0.123-0.863-0.062-1.725,0.37-2.218
	c0.431-0.493,0.863-0.986,1.725-1.171s1.664-0.185,2.157,0.123c0.493,0.308,1.602,1.602,1.602,1.602s1.171-3.82,2.157-4.375
	c0.986-0.555,3.574,1.109,3.574,1.109s-0.678-2.588-0.986-3.758s-0.37-2.834-0.308-3.45c0.062-0.616,0.37-1.54,0.739-2.033
	c0.37-0.493,3.142-1.294,3.142-1.294s-1.602-0.185-2.465-0.37c-0.863-0.185-2.157-0.246-2.28-0.678s0.493-1.417,0.986-2.465
	c0.493-1.047,2.708-3.589,2.708-3.589s-3.941,1.556-4.803,1.124s-1.232-6.285-1.232-6.285s-2.588,3.512-3.635,3.266
	C154.321,13.443,150.439,11.163,150.439,11.163z"/>
<path d="M115.264,2.754c0.017,0.716,0.361,1.299,0.653,1.929c0.392,0.61,0.732,1.267,1.25,1.833
	c0.094,0.103,0.086,0.275-0.041,0.368c-0.083,0.194-0.304,0.184-0.481,0.274c-0.492-0.022-0.818-0.456-1.279-0.625
	c-0.479-0.318-0.354-0.904-0.606-1.335c-0.105-0.399-0.061-0.842-0.291-1.197c-0.053-0.471-0.13-0.943-0.357-1.373
	c0.003-0.617,0.012-1.356,0.593-1.651C115.248,1.471,114.667,2.308,115.264,2.754z"/>
<path d="M81.02,0.025c0.236,0.233-0.003,0.617,0.058,0.891c-0.386,0.895-0.088,1.945-0.277,2.849c-0.12,0.463,0.235,0.8,0.39,1.202
	c-0.171,0.51,0.181,0.921-0.039,1.404c-0.019,0.419,0.06,0.866,0.09,1.287c-0.182,0.214-0.295,0.529-0.594,0.59
	c-0.372,0.033-0.787-0.06-0.968-0.414c-0.049-0.545,0.099-1.106,0.025-1.652c0-0.543-0.073-1.114-0.223-1.614
	c-0.045-0.643,0.203-1.224,0.328-1.811c0.097-0.514-0.023-1.136,0.292-1.541c0.143-0.438-0.028-1.013,0.474-1.212
	C80.726-0.013,80.897,0.02,81.02,0.025z"/>
<path d="M121.045,3.681c0.093,0.128-0.108,0.217-0.115,0.365c-0.041,0.368,0.368,0.584,0.326,0.977
	c0.067,0.151,0.105,0.399,0.024,0.569c-0.331,0.232-0.154,0.684-0.388,0.945c0.159,0.303-0.178,0.658,0.083,0.892
	c-0.04,0.344,0.4,0.437,0.309,0.803c0.067,0.151,0.186,0.255,0.383,0.264c0.7-0.215,1.318-0.779,1.93-1.221
	c0.258-0.26,0.592-0.541,0.73-0.88c0.562-0.419,0.882-0.947,1.468-1.365c0.051-0.59,0.738-0.509,1.096-0.789
	c0.15-0.043,0.293,0.063,0.387,0.165c0.236,0.233,0.026,0.519,0.014,0.79c-0.647,0.662-1.487,1.241-1.992,2.057
	c-0.417,0.499-1.148,0.836-1.471,1.439c-0.667,0.562-1.805,0.634-2.022,1.611c-0.009,0.197-0.209,0.262-0.336,0.33
	c-0.196-0.034-0.463-0.12-0.619,0.046c-0.234-0.282-0.627-0.324-0.814-0.555c-0.071-0.62-0.166-1.241-0.188-1.859
	c-0.039-0.767,0.191-1.496,0.101-2.241c-0.039-0.767-0.128-1.535-0.392-2.238c-0.151-0.476,0.161-0.832,0.157-1.3
	C120.196,2.804,120.298,3.82,121.045,3.681z"/>
<path d="M86.621,2.202c0.105,0.399-0.46,0.349-0.305,0.751c-0.029,0.097,0.015,0.223-0.11,0.242
	c-0.073-0.028-0.15,0.043-0.203,0.114c0.061,0.299,0.337,0.731-0.044,0.985c-0.056,0.146,0.064,0.225,0.11,0.301
	c-0.331,0.232-0.181,0.732-0.654,0.834c-0.293,0.48-0.616,1.082-1.17,1.329c-0.243-0.085-0.797,0.161-0.875-0.286
	c-0.031-0.396-0.034-0.89,0.179-1.225c0.311-0.331,0.844-0.11,1.113-0.616c0.201-0.632,0.668-1.129,0.821-1.789
	c0.035-0.22,0.021-0.468,0.225-0.607C85.983,2.124,86.359,1.993,86.621,2.202z"/>
<path d="M75.023,3.357c-0.35,1.193-0.135,2.436,0.362,3.47c-0.034,0.196,0.156,0.377,0.324,0.483
	c0.217,0.108,0.454,0.317,0.566,0.568c0.243,0.085,0.228,0.405,0.524,0.418c0.131,0.376,0.537,0.666,0.643,1.065
	c0.596,0.471,0.094,1.188,0.165,1.808c0.062,0.274,0.092,0.695-0.164,0.905c-0.6,0.713-1.513,0.721-2.342,0.511
	c-0.563-0.099-0.524-0.961-1.221-0.82c-0.735-0.107-1.206,0.488-1.788,0.807c-0.313,0.381-0.574,0.69-0.908,0.995
	c-0.087,0.292-0.415,0.45-0.622,0.663c0.008,0.37,0.486,0.713,0.174,1.069c-0.198,0.559-0.806,0.358-1.141,0.689
	c-0.199,0.04-0.398,0.081-0.593,0.023c-0.277-0.432,0.134-0.783,0.202-1.2c0.668-0.587,0.54-1.579,1.329-2.111
	c0.382-0.822,1.066-1.753,1.966-2.008c0.236-0.31,0.591-0.516,0.981-0.424c0.517,0.023,0.81,0.629,1.362,0.432
	c0.175-0.041,0.358-0.28,0.523-0.1c0.139,0.204,0.387,0.165,0.588,0.101c0.261-0.309,0.161-0.832-0.023-1.136
	c-0.627-0.324-0.768-1.021-1.343-1.393c-0.339-0.139-0.721-0.427-0.752-0.823c-0.071-0.077-0.142-0.13-0.188-0.206
	c-0.049-1.112,0.353-2.352-0.045-3.382c0.019-0.419-0.034-0.89,0.444-1.09C74.54,2.57,74.843,2.979,75.023,3.357z"/>
<path d="M112.167,5.23c0.765-0.015,1.322,0.775,1.667,1.333c0.111,0.276,0.321,0.533,0.281,0.876
	c0.14,0.179-0.047,0.491,0.092,0.695c-0.064,0.318,0.165,0.723,0.003,1.036c0.012,0.272-0.148,0.536-0.16,0.807
	c-0.16,0.264-0.223,0.557-0.479,0.768c-0.283,0.801-1.203,0.957-1.771,1.524c-0.3,0.085-0.556,0.296-0.924,0.254
	c-0.379,0.205-0.717,0.584-1.185,0.563c-0.694,0.067-1.275,0.362-1.99,0.354c-0.469,0.004-0.92,0.156-1.326,0.409
	c-0.817,0.062-1.795,0.412-2.106,1.287c-0.459,0.325-0.435,0.893-0.797,1.272c0.055,0.422-0.471,0.596-0.343,1.045
	c0.059,0.323,0.531,0.271,0.438,0.686c0.094,0.103-0.034,0.196,0.036,0.298c0.25,0.48,0.83,0.753,1.002,1.303
	c0.65,0.35,1.192,0.917,2.008,0.88c0.29,0.136,0.716-0.017,1.084,0.024c0.342,0.065,0.658,0.178,1.002,0.218
	c0.472,0.465,1.12,0.322,1.677,0.569c0.413,0.142,0.955,0.166,1.363,0.407c0.32,0.014,0.573-0.122,0.887,0.015
	c0.563,0.099,1.143-0.171,1.707-0.096c0.951,0.24,1.858-0.163,2.711-0.494c0.326-0.109,0.772-0.163,0.888-0.552
	c0.045-0.442,0.574-0.69,0.472-1.163c0.206-0.188,0.252-0.655,0.568-0.566c0.341,0.089,0.45,0.415,0.486,0.713
	c-0.115,0.365,0.118,0.671-0.046,1.009c-0.159,0.24-0.488,0.422-0.479,0.768c-0.182,0.214-0.479,0.225-0.638,0.465
	c-0.665-0.03-1.173,0.292-1.703,0.565c-0.216-0.133-0.496,0.052-0.675,0.192c-0.024,0.542-0.679,0.29-0.826,0.802
	c-0.243,0.458,0.034,0.89,0.289,1.247c0.121,0.055,0.238,0.183,0.335,0.237c-0.178,0.115-0.064,0.318-0.046,0.467
	c-0.396,0.574-0.085,1.328-0.383,1.932c-0.403,0.179-0.744,0.633-1.175,0.885c-0.086,0.267-0.488,0.422-0.406,0.796
	c-0.426,0.153,0.015,0.765-0.555,0.814c-0.394,0.525-0.598,1.231-0.529,1.876c-0.246,0.532-0.376,1.217-0.155,1.794
	c0.224,0.504,0.324,1.026,0.773,1.466c0.019,0.124-0.207,0.213-0.065,0.342c0.266,0.111,0.609,0.176,0.721,0.427
	c0.082,0.374-0.252,0.655,0.004,1.012c0.161,0.254,0.482,0.244,0.751,0.305c0.67-0.093,1.44-0.206,2.131-0.2
	c0.216,0.133-0.04,0.344-0.121,0.488c-0.32,0.528-0.919,0.674-1.306,1.051c-0.059,0.219,0.181,0.354,0.024,0.569
	c-0.009,0.197,0.074,0.546-0.13,0.685c-0.328,0.158-0.591,0.516-1.003,0.35c-0.396,0.031-0.815,0.013-1.19,0.119
	c-0.588-0.101-1.293-0.33-1.711,0.194c-0.236,0.31-0.62,0.614-1.039,0.619c-0.326,0.109-0.321,0.553-0.693,0.586
	c-0.102,0.069-0.159,0.24-0.089,0.341c0.453,0.341,1.079,0.147,1.591,0.269c0.271,0.012,0.428,0.365,0.729,0.255
	c0.701-0.783,1.751-1.081,2.356-1.917c0.434-0.326,1.033,0.071,1.492-0.253c0.652-0.242,1.738,0.3,1.837-0.805
	c0.097-0.514-0.489-1.182,0.215-1.495c0.153-0.116,0.38-0.23,0.575-0.171c0.193,0.107,0.386,0.19,0.45,0.415
	c-0.037,0.27,0.202,0.453,0.139,0.746c0.161,0.254-0.074,0.539,0.011,0.839c0.104,0.424,0.036,0.84,0.065,1.286
	c-0.056,0.146-0.139,0.339-0.337,0.355c-0.334-0.262-0.765,0.015-1.155-0.101c-0.749,0.188-1.56,0.127-2.355,0.239
	c-0.295-0.013-0.575,0.171-0.874,0.232c-0.035,0.22-0.191,0.411-0.434,0.326c-0.307,0.233-0.784,0.433-0.803,0.852
	c0.503,0.343,1.127,0.174,1.717,0.225c1.022,0.317,2.052-0.105,3.085-0.034c0.397-0.056,0.789,0.011,1.167-0.169
	c0.458-0.3,1.064-0.075,1.567-0.275c0.444-0.005,1.058,0.072,1.441-0.231c0.083-0.194,0.017-0.369-0.125-0.499
	c-0.559-0.198-1.155-0.644-1.786-0.327c-0.177,0.091-0.338-0.163-0.482-0.244c-0.205-0.922-0.31-1.889-0.364-2.878
	c-0.01-0.321,0.2-0.608,0.453-0.744c0.519-0.026,1.014-0.053,1.529,0.02c0.517,0.023,0.9,0.287,1.311,0.479
	c0.412,0.709,1.255,0.624,1.83,0.995c0.657,0.202,1.382-0.012,2.074-0.03c0.624-0.169,1.433,0.509,1.909-0.21
	c0.081-0.144,0.164-0.363,0.074-0.539c-0.429-0.34-0.454-0.884-0.655-1.337c-0.011-0.297-0.044-0.668-0.355-0.88
	c-0.477-0.367-1.152-0.718-1.756-0.449c-0.534,0.346-1.197,0.291-1.685,0.713c-0.302,0.134-0.537,0.42-0.925,0.279
	c-0.276,0.111-0.412,0.376-0.688,0.487c-0.59-0.051-1.373,0.357-1.735-0.374c-0.514-0.097-1.128,0.393-1.604,0.002
	c-0.425-0.414,0.538-0.987-0.146-1.141c-0.421,0.03-0.84,0.036-1.195,0.242c-0.534-0.197-0.627-0.867-0.804-1.319
	c-0.375-0.436-0.126-1.042-0.3-1.543c-0.228-0.405-0.305-0.902-0.633-1.287c0.285-0.308,0.269-1.049,0.878-0.873
	c0.267,0.086,0.504,0.319,0.716,0.526c0.151,0.476,0.051,1.063,0.553,1.407c0.112,0.252,0.123,0.548,0.286,0.778
	c0.32,0.014,0.164-0.363,0.294-0.505c0.111-0.266,0.247-0.556,0.572-0.64c0.196,0.034,0.381,0.313,0.446,0.514
	c-0.018,0.394,0.342,0.632,0.325,1.002c0.381,0.313-0.219,1.026,0.448,1.007c0.238-0.359,0.46-0.892,0.232-1.322
	c0.107-0.193,0.118-0.439,0.029-0.64c-0.159-0.303-0.468-0.564-0.476-0.934c-0.377-0.387-0.752-0.823-1.154-1.212
	c-0.268-0.629-0.334-1.347-0.954-1.819c-0.099-0.547-0.514-1.183-0.219-1.712c-0.035-0.322-0.066-0.718-0.099-1.09
	c0.173-0.56,0.077-1.156,0.175-1.694c0.009-0.197,0.303-0.159,0.289-0.382c0.126-0.068,0.209-0.262,0.404-0.204
	c0.321-0.01,0.694-0.067,0.832-0.407c0.248-0.581,0.848-0.751,1.306-1.051c0.423-0.08,0.765-0.015,1.074,0.246
	c0.383,0.264-0.024,0.542,0.06,0.866c-0.339,0.404-0.975,0.277-1.292,0.756c-0.471,0.053-0.785,0.458-1.145,0.763
	c0.023,0.593-0.809,0.975-0.416,1.56c0.282,0.309,0.139,0.746,0.372,1.053c0.177,0.452,0.104,0.967,0.535,1.258
	c0.11,0.301,0.395,0.536,0.354,0.904c0.324,0.483,0.467,1.131,0.97,1.475c0.126,0.499,0.126,1.042,0.327,1.495
	c0.033,0.372,0.268,0.629,0.25,1.023c-0.093,0.415-0.379,0.748-0.424,1.19c-0.032,0.171-0.209,0.262-0.193,0.46
	c0.46,0.193,1.133,0.594,1.598,0.121c0.89-0.034,1.357-1.098,2.268-1.057c0.443,0.02,0.844-0.11,1.22-0.241
	c0.438,0.143,1.037-0.027,1.212,0.474c0.315,0.138,0.497,0.466,0.813,0.579c0.205,0.379,0.584,0.717,0.84,1.074
	c0.216,0.133,0.59,0.051,0.674,0.376c0.103,0.449-0.351,0.675-0.345,1.095c-0.16,0.264-0.051,0.59-0.039,0.862
	c0.152,0.451,0.1,1.065-0.068,1.502c-0.46,0.349-0.937,0.525-1.462,0.699c-0.544,0.025-0.786-0.628-1.326-0.677
	c-0.37,0.008-0.814-0.012-1.166,0.145c-0.064,0.318-0.103,0.637-0.287,0.9c0.074,0.546-0.457,0.843-0.577,1.306
	c-0.313,0.381-0.467,1.064-1.127,0.911c-0.247,0.014-0.43-0.315-0.686-0.105c-0.385,0.328-1.013,0.028-1.376,0.431
	c-0.623,0.145-1.41,0.084-2.056,0.179c-0.531,0.297-1.089,0.617-1.748,0.464c-0.937-0.56-2,0.033-3.076-0.163
	c-0.627-0.324-1.359,0.037-1.997-0.041c-0.516-0.048-0.923,0.23-1.397,0.332c-0.422,0.055-0.836-0.062-1.117-0.396
	c-0.23-0.38,0.153-1.202-0.514-1.183c-0.427,0.178-0.988,0.029-1.304,0.459c-0.469,0.004-0.982-0.118-1.411,0.109
	c-0.244-0.06-0.547,0.099-0.736-0.083c-0.207-0.33-0.183-0.872-0.019-1.21c0.395-0.55,1.278,0.107,1.558-0.621
	c0.009-0.197,0.068-0.416,0.27-0.506c0.668-0.044,0.925-0.822,1.552-1.04c0.304-0.184,0.492-0.521,0.82-0.678
	c0.328-0.158,0.372-0.6,0.72-0.658c0.526-0.174,1.229,0.105,1.735-0.168c0.22,0.035,0.447-0.054,0.602-0.22
	c0.063-0.293-0.262-0.209-0.379-0.338c-0.156-0.377-0.586-0.693-0.59-1.137c-0.162-0.229-0.345-0.558-0.641-0.547
	c-0.121-0.055-0.035-0.322-0.207-0.33c-0.083-0.349-0.141-0.697-0.325-1.001c0.057-0.17,0.044-0.417-0.046-0.619
	c-0.14-0.179-0.464-0.095-0.552-0.346c-0.169-0.624,0.295-1.072,0.394-1.635c0.511-0.396,0.395-1.092,0.907-1.513
	c0.173-0.56,0.153-1.202,0.616-1.625c0.4-0.673,0.68-1.4,0.812-2.134c0.189-0.362,0.737-0.485,0.805-0.901
	c0.243-0.458,0.096-1.032-0.058-1.458c-0.451-0.39-0.492-1.132-1.148-1.359c-0.579-0.298-1.307-0.01-1.777-0.524
	c-0.969-0.389-1.94-0.754-3.021-0.852c-0.413-0.142-0.904-0.189-1.375-0.136c-0.461-0.169-1.011-0.021-1.341-0.357
	c-0.739-0.033-1.124-0.791-1.832-0.946c-0.231-0.356-0.823-0.358-0.723-0.921c-0.047-0.051-0.12-0.079-0.194-0.083
	c-0.053,0.072-0.126,0.068-0.179,0.14c-0.185-0.28-0.095-0.621-0.182-0.896c-0.031-0.396-0.184-0.847-0.042-1.26
	c-0.275-0.456,0.205-0.706,0.152-1.177c0.461-0.374-0.055-0.965,0.284-1.369c0.154-0.141,0.141-0.388,0.39-0.451
	c0.159-0.24,0.246-0.532,0.405-0.771c0.008-0.172,0.113-0.316,0.12-0.463c0.314-0.405,0.85-0.258,1.188-0.637
	c0.235-0.285,0.545-0.592,0.916-0.625c0.243,0.085,0.472-0.077,0.675-0.192c0.846-0.159,1.823,0.058,2.583-0.377
	c0.541,0.049,0.837-0.505,1.356-0.531c0.661,0.104,1.294-0.238,1.69-0.812c0.235-0.285,0.206-0.731,0.608-0.91
	c0.259-0.827,0.279-1.813-0.306-2.506c-0.46-0.193-0.753-0.799-1.35-0.702c-0.61,0.392-1.33,0.507-2.069,0.474
	c-0.169-0.082-0.335-0.237-0.376-0.412c-0.039-0.224,0.094-0.44,0.177-0.633c0.414-0.425,1.025-0.299,1.367-0.777
	c0.455-0.251,1.086,0,1.532-0.054C111.805,5.065,111.973,5.172,112.167,5.23z"/>
<path d="M89.851,5.531c0.739,0.033,1.399,0.162,1.979,0.435c0.281,0.333,0.827,0.259,0.928,0.757
	c-0.056,0.145,0.006,0.42-0.17,0.486c-0.096-0.054-0.22-0.035-0.316-0.113c-0.176-0.477-0.718-0.501-1.157-0.595
	c-0.036-0.298-0.337-0.188-0.58-0.273c-0.338-0.163-0.698,0.166-1.063,0.051c-0.087,0.292-0.524,0.124-0.565,0.493
	c-0.621,0.638-1.756,0.636-1.999,1.661c-0.037,0.813,0.578,1.408,1.147,1.927c0.799,0.332,1.486,0.955,2.421,1.022
	c0.627,0.324,1.146,0.841,1.939,0.778c0.609,0.176,1.162,0.496,1.828,0.502c0.508,0.22,0.991,0.464,1.528,0.587
	c0.827,0.802,2.072,1.105,2.614,2.215c0.355,0.337,0.531,0.813,0.833,1.222c-0.036,0.245-0.122,0.513,0.066,0.718
	c-0.049,0.541-0.39,0.994-0.241,1.519c-0.158,0.215-0.197,0.534-0.475,0.694c-0.319,0.504-1.045,0.742-1.197,1.377
	c-0.324,0.627-1.117,0.69-1.607,1.161c-0.461,0.374-1.034,0.496-1.626,0.494c-0.555,0.271-1.155,0.441-1.776,0.537
	c-0.613-0.077-1.277-0.132-1.782,0.117c-0.283,0.259-0.611,0.417-0.96,0.499c-0.337,0.355-0.479,0.768-0.791,1.124
	c0.033,0.372,0.118,0.671,0.2,1.045c0.204,0.404,0.058,0.891,0.288,1.271c0.424,0.439,0.851,0.828,1.048,1.38
	c0.268,0.629,1.117,0.939,1.233,1.659c0.226,0.454,0.553,0.864,0.704,1.339c-0.102,0.612,0.35,1.003,0.349,1.57
	c0.212,0.232,0.123,0.548,0.186,0.798c-0.008,0.172-0.089,0.341,0.077,0.472c0.084,0.325-0.221,0.533-0.087,0.835
	c-0.084,0.218,0.027,0.495-0.059,0.762c0.761,0.084,1.586-0.151,2.34,0.081c0.043,0.15-0.165,0.387,0.054,0.446
	c0.251-0.087,0.474-0.127,0.745-0.114c0.732-0.362,1.589-0.224,2.407-0.311c0.242,0.11,0.355,0.337,0.418,0.586
	c-0.103,0.637-0.829,0.333-1.231,0.487c-0.761,0.459-1.85-0.009-2.476,0.752c-0.391-0.092,0.037-0.812-0.56-0.716
	c-0.595,0.072-1.146,0.244-1.742,0.341c-0.252,0.112-0.582,0.319-0.843,0.085c-0.171-0.032-0.179,0.14-0.256,0.211
	c0.161,0.254-0.276,0.654,0.137,0.796c0.295,0.013,0.689,0.031,0.922-0.205c0.545-0.049,1.117-0.147,1.678,0.002
	c0.196,0.033,0.257-0.235,0.448-0.078c0.198-0.016,0.232-0.212,0.31-0.307c0.926,0.264,1.804-0.067,2.737,0.025
	c0.05-0.022,0.1-0.02,0.15-0.043c0.915-0.057,1.9-0.013,2.794-0.145c0.383-0.279,0.922-0.205,1.354-0.482
	c0.252-0.112,0.596-0.096,0.893-0.108c0.495-0.027,0.882-0.404,1.398-0.356c0.248-0.038,0.621-0.095,0.835,0.087
	c0.02,0.1,0.113,0.227,0.01,0.321c-0.236,0.31-0.6,0.17-0.903,0.329c-0.161,0.289-0.546,0.074-0.797,0.161
	c-0.323,0.059-0.557,0.32-0.878,0.33c-0.053,0.072-0.228,0.138-0.11,0.242c0.701,0.328,1.512-0.154,2.293,0.029
	c0.645-0.07,1.337-0.112,2.028-0.106c0.779-0.31,1.964,0.212,2.38-0.805c0.201-0.09,0.422-0.055,0.642-0.02
	c0.146,0.056,0.237,0.208,0.33,0.336c-0.065,0.342-0.301,0.653-0.65,0.735c-0.52,0.051-0.956,0.401-1.519,0.302
	c-0.425,0.129-0.828,0.308-1.323,0.335c-0.386-0.19-0.728,0.288-1.146,0.244c-0.491-0.047-0.946,0.179-1.482,0.032
	c-0.653,0.267-1.401-0.113-2.057,0.203c-0.496,0.052-1.036,0.003-1.53,0.005c-0.516-0.048-1.049-0.269-1.576-0.071
	c-0.321,0.01-0.586-0.125-0.852-0.26c-0.369-0.017-0.855-0.187-1.141,0.146c-0.399,0.105-0.843,0.085-1.263,0.116
	c-0.092-0.152-0.157-0.352-0.326-0.434c-0.645,0.07-1.249,0.338-1.94,0.357c-0.463-0.12-1.061,0.001-1.36-0.481
	c-0.122-0.03-0.217-0.108-0.339-0.139c-0.199,0.583-0.326,1.219-0.081,1.797c0.302,0.408,0.776,0.306,1.199,0.227
	c0.331-0.232,0.714,0.032,1.11,0.001c0.695-0.092,1.241,0.377,1.96,0.31c0.703,0.278,1.345,0.801,1.734,1.484
	c-0.003,0.074,0.018,0.149,0.091,0.177c0.148,0.007,0.251-0.087,0.369,0.017c0.044,0.125,0.503,0.343,0.083,0.349
	c-0.018,0.394,0.957,0.66,0.325,1.001c-0.376,0.131-0.615,0.515-0.971,0.746c-0.482,0.299-1.018,0.694-1.624,0.445
	c-0.376,0.131-0.836-0.062-1.144,0.195c-0.372,0.033-0.638-0.078-0.902-0.238c-0.98-0.143-2.109-0.292-3.061,0.035
	c-0.842,0.061-1.581,0.595-2.479,0.258c-0.688-0.056-1.265-0.402-2.032-0.338c-0.544,0.025-1.037,0.027-1.561,0.152
	c-0.487-0.145-1.086,0-1.492-0.289c-0.815,0.013-1.596-0.171-2.386-0.157c-0.598-0.422-1.489-0.363-2.141-0.121
	c-0.317-0.088-0.658-0.178-0.841-0.507c-0.148-0.549-0.099-1.09,0.146-1.597c0.019-0.419,0.484-0.348,0.67-0.636
	c0.971-0.203,1.742-0.884,2.799-0.787c0.227-0.113,0.45-0.128,0.693-0.043c0.473-0.102,1.029,0.17,1.32-0.286
	c0.098-0.538,0.412-0.919,0.749-1.298c0.043-0.417,0.14-0.907-0.092-1.238c-0.381-0.313-0.641-0.547-1.049-0.812
	c-0.146-0.056-0.252,0.112-0.331,0.232c-0.008,0.172-0.113,0.316-0.17,0.486c-0.33,0.207-0.658,0.365-1.008,0.473
	c-0.392-0.067-0.693-0.5-1.098-0.272c-0.3,0.085-0.675,0.192-0.788,0.507c-0.23,0.73-1.002,0.325-1.437,0.675
	c-0.639-0.054-1.089,0.074-1.684,0.146c-0.269-0.061-0.472,0.077-0.673,0.142c-0.685-0.13-1.265,0.14-1.932,0.16
	c-0.274,0.062-0.191,0.411-0.465,0.472c-0.259,0.827-1.203,0.957-1.771,1.524c-0.51,0.372-1.133,0.516-1.753,0.587
	c-0.219-0.059-0.35,0.108-0.525,0.149c-0.669,0.068-1.276-0.156-1.879,0.088c-0.496,0.052-0.984-0.069-1.449-0.139
	c-0.216-0.133-0.279-0.383-0.218-0.627c0.083-0.194,0.239-0.384,0.441-0.474c0.832,0.161,1.588-0.2,2.332,0.253
	c0.612,0.102,1.241-0.166,1.877-0.039c0.369,0.017,0.585-0.393,0.818-0.629c0.022-0.492-0.505-0.837-0.259-1.369
	c0.022-0.492-0.052-1.039,0.166-1.497c0.151-0.61,0.21-1.372,0.214-2.013c0.216-0.41,0.631-0.86,1.103-0.937
	c0.424-0.647,1.183-0.514,1.808-0.708c0.464,0.095,1.014-0.053,1.501,0.092c0.624-0.169,1.337-0.112,1.962-0.282
	c0.763,0.034,1.601,0.048,2.289,0.128c0.365,0.115,0.545,0.493,0.856,0.705c0.288,0.186,0.318,0.606,0.662,0.647
	c0.237-0.335,0.086-0.81,0.155-1.251c-0.22-0.602-0.233-1.392,0.112-1.944c0.045-0.442,0.356-0.773,0.329-1.268
	c0.064-0.861,1.231-1.03,1.198-1.944c0.209-0.262,0.227-0.656,0.412-0.919c0.156-0.733,0.02-1.529,0.078-2.266
	c-0.226-0.454-0.268-1.172-0.904-1.299c-0.273,0.037-0.466-0.07-0.658-0.178c-1.106-0.099-2.186-0.222-3.207,0.003
	c-0.753-0.256-1.435,0.083-2.127,0.126c-0.316-0.113-0.731-0.206-0.837-0.581c0.063-0.293-0.044-0.668,0.163-0.881
	c0.741-0.559,1.444,0.263,2.294,0.005c0.439,0.118,0.992-0.103,1.462-0.131c1.223,0.228,2.338,0.13,3.514,0.307
	c0.478,0.342,0.674,0.919,1.176,1.287c0.507,0.245,0.457,0.81,0.459,1.304c0.382,0.289,0.111,0.819,0.267,1.196
	c-0.116,0.39-0.499,0.668-0.469,1.089c-0.128,0.093-0.086,0.267-0.212,0.336c0.127,0.474-0.276,0.654-0.344,1.07
	c-0.135,0.265-0.463,0.423-0.454,0.769c-0.378,0.18-0.178,0.658-0.556,0.838c-0.041,0.368-0.324,0.627-0.316,0.997
	c-0.34,0.429-0.248,1.124-0.271,1.641c0.147,0.574,0.115,1.288,0.615,1.681c0.276-0.111,0.218-0.459,0.423-0.622
	c-0.099-0.547,0.575-0.714,0.548-1.209c0.041-0.368-0.131-0.919,0.225-1.149c0.42-0.006,0.521,0.492,0.655,0.794
	c-0.112,0.291,0.145,0.623-0.113,0.858c-0.059,0.219-0.313,0.381-0.202,0.657c-0.138,0.315-0.371,0.575-0.413,0.944
	c0.045,0.101,0.138,0.228,0.26,0.258c0.564,0.075,0.568-0.566,0.781-0.902c-0.015-0.223,0.116-0.389,0.077-0.613
	c0.256-0.21,0.333-0.824,0.72-0.658c0.358,0.263,0.387,0.708,0.27,1.122c-0.444,0.547,0.235,1.343-0.45,1.781
	c-0.3,0.085-0.721,0.116-0.86,0.479c-0.113,0.316-0.031,0.689,0.029,0.988c-0.169,0.461-0.268,1.024-0.168,1.547
	c-0.235,0.285-0.325,0.651-0.633,0.909c-0.037,0.27-0.44,0.449-0.207,0.755c-0.084,0.218,0.104,0.424-0.028,0.616
	c-0.181,0.189-0.432,0.277-0.679,0.29c-0.496,0.052-0.271-0.555-0.661-0.671c-0.669,0.068-1.393-0.285-1.999,0.009
	c-0.2,0.065-0.497,0.076-0.583,0.344c-0.203,0.114-0.496,0.052-0.656,0.316c-0.007,0.148,0.089,0.226,0.157,0.352
	c0.046,0.076,0.119,0.104,0.216,0.133c0.95,0.265,2.054-0.129,2.866,0.45c1.182,0.053,2.34,0.081,3.444,0.229
	c0.075-0.021,0.125-0.044,0.2-0.065c1.21-0.019,2.522,0.434,3.651,0.017c0.274-0.062,0.688,0.056,0.828-0.308
	c0.018-0.394-0.44-0.637-0.652-0.868c-0.591-0.027-1.078-0.172-1.674-0.076c-0.433-0.242-1.099-0.247-1.532,0.054
	c-0.511,0.396-1.289,0.139-1.859,0.188c-0.442-0.045-0.443-0.563-0.752-0.823c-0.04-0.199,0.186-0.288,0.313-0.381
	c0.619-0.046,1.124,0.248,1.725,0.053c0.694-0.067,1.426,0.114,2.032-0.204c0.379-0.205,0.156-0.733,0.368-1.044
	c0.327-0.133,0.79-0.014,0.981-0.424c0.225-0.607-0.249-1.047-0.172-1.661c-0.328-0.385,0.014-0.863-0.04-1.309
	c0.413-0.401,0.658-0.908,1.094-1.283c0.039-0.319,0.444-0.547,0.212-0.879c0.088-0.317,0.417-0.499,0.311-0.874
	c-0.324-0.483,0.228-1.223-0.296-1.642c0.192-0.435-0.241-0.677-0.273-1.049c-0.287-0.21-0.222-0.553-0.509-0.738
	c0.311-0.331-0.224-0.504-0.161-0.797c-0.701-0.328-0.714-1.118-1.365-1.468c-0.091-0.177,0.043-0.417-0.047-0.594
	c-0.202-0.453-0.379-0.905-0.681-1.314c-0.017-0.173-0.054-0.447-0.299-0.482c-0.726,0.239-0.442-0.587-0.6-0.915
	c0.085-0.243,0.146-0.511,0.28-0.728c-0.064-0.225-0.028-0.47-0.067-0.694c0.584-0.911,1.562-1.262,2.399-1.767
	c0.398-0.081,0.948-0.229,1.306,0.034c0.468,0.021,0.802-0.285,1.267-0.19c0.671-0.118,1.212-0.611,1.947-0.504
	c0.228-0.138,0.502-0.199,0.754-0.311c0.437-0.4,0.866-0.602,1.323-0.878c0.234-0.261,0.187-0.855,0.701-0.783
	c0.278-0.136,0.017-0.369,0.075-0.564c0.399-0.105,0.246-0.532,0.501-0.718c0.16-0.264-0.442-0.587,0.103-0.637
	c0.178-0.115,0.039-0.319,0.07-0.466c-0.326-0.434-0.673-0.943-1.181-1.163c-0.357-0.287-0.713-0.6-1.152-0.718
	c-0.235-0.8-1.217-0.376-1.456-1.077c-0.708-0.155-1.586-0.392-2.337-0.698c-0.282-0.309-0.591-0.569-1.016-0.441
	c-0.243-0.085-0.461-0.169-0.677-0.302c-0.992,0.103-1.858-0.38-2.624-0.908c-0.479-0.86-1.534-1.007-1.786-1.98
	C85.75,9.49,86.028,8.787,85.5,8.468c-0.225-0.479,0.517-0.519,0.462-0.941c0.189-0.362,0.413-0.944,0.93-0.92
	c0.395-0.55,1.017-0.67,1.505-1.092C88.83,5.189,89.415,5.363,89.851,5.531z"/>
<path d="M159.407,10.815c-0.21,0.829-0.638,1.575-0.704,2.485c-0.085,0.786-0.388,1.487-0.643,2.216
	c-0.053,0.639-0.423,1.165-0.378,1.809c0,0.543,0.618,1.064,0.152,1.561c-0.207,0.213-0.463,0.423-0.802,0.285
	c-0.462-0.144-0.991-0.464-1.115-0.988c-0.18-1.488,0.569-2.762,1.094-4.021c0.205-0.706,0.627-1.329,0.855-2.009
	c0.165-0.387,0.403-0.722,0.519-1.111c0.304-0.184,0.432-0.819,0.845-0.677C159.348,10.491,159.315,10.663,159.407,10.815z"/>
<path d="M54.271,6.171c0.096,0.596,0.393,1.128,0.364,1.768c-0.123,1.08,0.195,2.229-0.048,3.254
	c-0.283,0.259,0.048,0.57-0.089,0.884c0.016,0.198,0.179,0.403,0.373,0.486c0.29,0.136,0.793-0.088,0.973,0.315
	c-0.039,0.319-0.252,0.655-0.577,0.763c-0.474,0.127-1.195,0.242-1.599-0.097c-0.372-0.51-0.12-1.165-0.317-1.717
	c0.184-0.806-0.198-1.637,0.132-2.387c0.121-1.031-0.109-1.954-0.063-2.988C53.53,6.187,54.021,5.691,54.271,6.171z"/>
<path d="M151.385,10.897c0.047,0.051,0.145,0.056,0.142,0.13c-0.12,0.463,0.5,0.393,0.735,0.65c0.568,0.544,1.181,1.163,1.421,1.865
	c0.274,0.481,0.446,1.056,0.271,1.641c0.015,0.223,0.226,0.454,0.066,0.718c-0.083,0.194-0.284,0.283-0.417,0.499
	c-0.035,1.331-1.467,1.883-2.386,2.582c-0.484,0.348-1.053,0.372-1.561,0.694c-0.468-0.021-0.784,0.433-1.297,0.312
	c-0.435,0.35-1.045,0.2-1.568,0.299c-0.854-0.211-1.746-0.128-2.526,0.207c-0.76-0.108-1.466-0.313-2.195-0.025
	c-0.79,0.014-1.451,0.453-2.11,0.842c-0.459,0.325-1.119,0.196-1.489,0.747c-0.364,0.403-0.518,1.087-0.318,1.589
	c-0.075,0.564-0.121,1.031,0.381,1.399c0.105,0.399,0.487,0.688,0.668,1.042c0.227,0.43,0.81,0.629,0.887,1.126
	c0.565,0.05,0.883,0.657,1.422,0.755c0.163,0.205,0.404,0.339,0.649,0.375c0.704,0.797,1.683,0.964,2.525,1.446
	c0.641,0.004,1.092,0.395,1.621,0.715c0.448,0.464,0.979,0.71,1.429,1.125c0.612,0.644,1.121,1.407,1.431,2.186
	c0.462,0.144,0.093,0.67,0.277,0.975c-0.504,0.791-0.186,1.941-0.957,2.621c-0.162,0.313-0.228,0.681-0.195,1.052
	c-0.328,0.701-1.417,1.342-0.789,2.185c0.011,0.297,0.223,0.528,0.21,0.824c0.046,0.076,0.092,0.152,0.189,0.181
	c0.048,0.027,0.076-0.046,0.125-0.044c0.27-0.506,0.491-1.039,0.856-1.466c0.19-0.386,0.569-0.591,0.924-0.797
	c0.293,0.063,0.531,0.271,0.667,0.524c-0.004,0.641,0.089,1.312-0.015,1.973c-0.139,0.339,0.016,0.741,0.075,1.064
	c-0.057,0.713-0.333,1.367-0.389,2.055c0.102,0.473-0.262,0.876-0.06,1.33c-0.123,0.537-0.27,1.073-0.587,1.528
	c-0.106,0.711-0.579,1.355-0.39,2.079c0.377,0.387,0.967,0.438,1.51,0.438c0.179-0.14,0.545-0.049,0.608-0.343
	c0.454-0.226,0.895-0.7,1.041-1.211c0.192-0.435,0.362-0.921,0.677-1.326c0.018-0.394-0.01-0.864,0.298-1.146
	c0.215-0.385-0.447-0.489-0.258-0.85c0.052-0.614,0.057-1.256-0.24-1.787c-0.212-0.232-0.593,0.023-0.698-0.377
	c-0.094-0.646,0.062-1.379-0.458-1.871c0.082-0.169,0.239-0.384,0.125-0.586c-0.088-0.226,0.023-0.517-0.14-0.722
	c-0.093-0.128-0.291-0.112-0.357-0.287c-0.008-0.913,0.233-1.889-0.051-2.691c0.13-0.685,0.428-1.288,0.702-1.893
	c0.076-0.046,0.199-0.04,0.248-0.038c0.431-0.252,0.774-0.755,1.314-0.681c-0.003,0.074,0.02,0.1,0.067,0.151
	c0.269,0.061,0.481-0.274,0.742-0.041c0.241,0.677-0.583,0.887-0.924,1.34c-0.268,0.481-0.951,0.845-0.832,1.492
	c-0.369,0.526,0.222,1.096-0.077,1.699c0.18,0.378,0.088,0.793,0.094,1.188c0.382,0.831,0.862,1.667,1.496,2.387
	c0.511,0.714,0.343,1.693,0.577,2.518c-0.065,0.342-0.281,0.752,0.027,1.037c0.019,0.124,0.064,0.225,0.033,0.372
	c0.141,0.154,0.178-0.115,0.255-0.186c1.25-0.906,2.641-1.657,4.231-1.363c1.499,0.142,3.026,0.186,4.425-0.195
	c0.595-0.072,1.257,0.032,1.87,0.109c0.496-0.052,0.951-0.302,1.486-0.13c0.326,0.434,0.399,1.005,0.3,1.543
	c-0.307,0.233-0.278,0.703-0.701,0.783c-0.258,0.26-0.372,0.6-0.29,0.949c0.392,0.067,0.271,0.555,0.484,0.762
	c0.931,0.141,1.878-0.063,2.793-0.121c0.244,0.06,0.47-0.028,0.631,0.226c0.397-0.056,0.844-0.11,1.243-0.215
	c0.172,0.008,0.345,0.016,0.462,0.144c0.328-0.158,0.692-0.018,1.019-0.176c0.312,0.187,0.665,0.03,1.031,0.121
	c0.442,0.045,0.872-0.183,1.286-0.065c1.213-0.093,2.318-0.512,3.486-0.706c0.27,0.037,0.521-0.075,0.657,0.202
	c0.04,0.199-0.114,0.34-0.219,0.484c-0.706,0.338-1.412,0.676-2.163,0.914c-0.346,0.009-0.654-0.276-0.984-0.069
	c-0.395,0.007-0.745,0.114-1.026,0.324c1.424,0.163,2.837,0.005,4.071-0.556c1.313-0.113,2.388-0.978,3.74-0.867
	c0.195,0.058,0.213,0.207,0.28,0.358c-0.028,0.073-0.032,0.171-0.11,0.242c-0.73,0.312-1.349,0.926-2.254,0.737
	c-0.658,0.365-1.557,0.053-2.191,0.444c-1.79,0.314-3.656,0.649-5.536,0.219c-0.262-0.209-0.213-0.75-0.713-0.6
	c-0.722,0.14-1.426-0.114-2.163-0.172c-0.207,0.213-0.527,0.198-0.8,0.235c-0.219-0.059-0.467-0.046-0.622,0.12
	c-0.512-0.146-1.107-0.075-1.675-0.051c-0.304,0.184-0.3,0.628-0.314,0.948c0.007,0.395-0.33,0.75-0.302,1.22
	c-0.236,0.31-0.515,0.47-0.679,0.833c-0.725-0.329-1.507-0.512-2.261-0.743c-0.273,0.037-0.548,0.123-0.785-0.109
	c-0.159-0.303-0.475-0.416-0.687-0.623c-0.338-0.163-0.807-0.16-1.227-0.154c-0.322,0.035-0.603,0.244-0.922,0.205
	c-0.399,0.105-0.845,0.135-1.244,0.24c-0.94,0.056-2.033,0.229-2.905-0.131c-0.904-0.189-1.674-0.618-2.364-1.192
	c-0.265-0.135-0.545,0.049-0.817,0.062c-0.186,0.288-0.375,0.649-0.651,0.76c-0.02-0.1,0.158-0.215,0.013-0.295
	c-0.524,0.124-0.948,0.771-1.599,0.446c-0.461-0.169-1.069,0.174-1.496-0.191c-0.322,0.035-0.441,0.474-0.802,0.285
	c-0.657-0.202-1.016,0.645-1.745,0.39c-0.549,0.148-0.667-1.066-1.214-0.425c-0.458-0.243-0.371,0.575-0.803,0.309
	c-0.393-0.585-1.138,0.072-1.585-0.417c-0.413,0.401-0.872,0.726-1.415,0.75c-0.069,0.441-0.416-0.068-0.624,0.169
	c-0.294-0.038-0.428-0.365-0.695-0.451c-0.18-0.921-0.787-1.688-0.817-2.677c-0.091-0.177-0.362-0.189-0.535-0.172
	c-0.52,0.051-1.072-0.295-1.58,0.027c-0.177,0.091-0.402,0.155-0.622,0.12c-0.633,0.366-1.417,0.232-2.049,0.574
	c-1.018,0.151-2.103,0.127-3.099,0.329c-0.171-0.032-0.393-0.042-0.432-0.266c-0.039-0.224,0.099-0.563-0.194-0.626
	c-0.758-0.158-1.437,0.133-2.149,0.051c-0.332,0.256-0.714-0.032-1.07,0.198c-0.793,0.088-1.497,0.377-2.312,0.389
	c-0.272,0.012-0.547,0.099-0.79,0.014c-0.279,0.16-0.589-0.076-0.801-0.283c-0.778-0.257-1.533,0.079-2.3,0.118
	c-0.595,0.072-1.146,0.244-1.719,0.367c-0.121-0.055-0.291-0.112-0.359-0.238c-0.064-0.225,0.142-0.413,0.315-0.43
	c1.333-0.557,2.728-0.864,4.192-1.044c1.328,0.085,2.392-0.534,3.676-0.55c0.205-0.163,0.477-0.176,0.717-0.042
	c0.045,0.101-0.037,0.27,0.033,0.372c1.014-0.053,2.013-0.329,3.075-0.355c0.393,0.042,0.792-0.063,1.161-0.022
	c1.071-0.223,2.166-0.445,3.125-0.92c0.223-0.015,0.422-0.055,0.64,0.029c0.067,0.151-0.014,0.32-0.094,0.44
	c-0.187,0.312-0.557,0.32-0.694,0.61c0.136,0.277,0.416,0.068,0.585,0.15c0.201-0.09,0.419,0.019,0.641,0.004
	c0.251-0.087,0.643-0.045,0.899-0.231c0.405-0.228,0.824-0.21,1.293-0.213c0.092,0.152,0.29,0.136,0.439,0.118
	c0.305-0.208,0.171-0.51,0.16-0.807c-0.291-0.655-0.381-1.399-0.472-2.118c-0.034-0.89,0.136-1.918,0.3-2.824
	c0.054-0.639-0.495-1.601,0.237-1.963c0.195,0.058,0.326-0.109,0.518-0.001c0.696,0.426,1.179,1.213,1.468,1.917
	c0.199-0.04,0.139-0.339,0.197-0.534c-0.015-0.223,0.045-0.442,0.079-0.663c-0.03-0.421-0.179-0.946,0.108-1.303
	c0.632,0.201,1.05,0.788,1.737,0.868c0.551,0.37,0.346,1.076,0.444,1.648c0.058,0.348,0.343,0.608,0.502,0.911
	c0.301-0.11,0.346-0.552,0.53-0.815c0.142-0.413,0.55-0.715,0.571-1.183c0.107-0.193,0.117-0.414,0.175-0.609
	c0.314-0.405,0.386-0.895,0.843-1.195c0.449-0.103,0.546-0.617,0.757-0.928c0.465-0.472,0.4-1.216,0.576-1.824
	c-0.483-0.787,0.778-1.396,0.144-2.091c-0.123-0.006-0.095-0.078-0.043-0.15c-0.206-0.355,0.022-1.035-0.515-1.158
	c-0.495,0.027-0.769-0.454-1.264-0.427c-0.43-0.315-0.914-0.51-1.264-0.97c-0.563-0.099-0.903-0.756-1.522-0.71
	c-0.759-0.133-0.833-1.222-1.671-1.235c-0.513-0.665-1.405-0.581-2.025-1.054c-0.41-0.759-1.313-0.429-1.752-1.091
	c-0.429-0.34-0.503-0.886-0.905-1.274c0.019-0.419-0.061-0.842-0.369-1.127c0.028-0.616,0.23-1.273-0.166-1.784
	c-0.123-0.548,0.433-0.844,0.717-1.127c0.192-0.435,0.528-0.766,0.551-1.283c0.107-0.193,0.376-0.131,0.484-0.348
	c0.599-0.146,1.089-0.617,1.551-1.016c0.585,0.15,1-0.3,1.338-0.68c0.396-0.031,0.884,0.089,1.172-0.268
	c0.394,0.018,0.781,0.183,1.136-0.023c0.529,0.295,1.112-0.049,1.644,0.198c0.433-0.301,1.026,0.219,1.464-0.181
	c0.318,0.064,0.676,0.327,0.962-0.006c0.387,0.165,0.694-0.067,1.106,0.099c0.246,0.011,0.379-0.205,0.581-0.295
	c0.491,0.047,0.942-0.106,1.371-0.308c0.245,0.036,0.469-0.003,0.647-0.119c0.074-0.539,0.791-0.581,0.888-1.095
	c0.452-0.177,0.205-0.706,0.585-0.936c0.028-0.616,0.449-1.213,0.082-1.822c0.002-0.592-0.647-0.967-0.745-1.539
	c-0.36-0.214-0.644-0.498-0.952-0.783c-0.34-0.114-0.654-0.276-1.001-0.243c-0.325,0.084-0.653,0.267-1.024,0.275
	c-0.046-0.076-0.043-0.15-0.14-0.179c-0.157,0.19-0.348,0.058-0.545,0.049c-0.022-0.05-0.195-0.058-0.092-0.152
	c0.075-0.021,0.176-0.066,0.205-0.163c0.008-0.172-0.184-0.304-0.076-0.497c0.828-0.308,1.978-0.651,2.79-0.047
	C151.165,10.862,151.289,10.843,151.385,10.897z"/>
<path d="M128.692,10.811c0.233,0.307,0.339,0.681,0.371,1.078c0.174,0.526,0.635,1.238,0.095,1.731
	c-0.049-0.002-0.051,0.047-0.102,0.069c-0.415-0.636-0.782-1.269-1.424-1.791c-0.031-0.396-0.362-0.732-0.649-0.917
	c-0.487-0.145-0.802,0.285-1.294,0.238c-0.254,0.161-0.598,0.121-0.864,0.01c-0.12-0.079-0.114-0.203-0.11-0.301
	c0.247-0.556,0.831-0.925,1.291-1.274c0.669-0.068,1.486-0.13,2.034,0.314C128.327,10.153,128.71,10.417,128.692,10.811z"/>
<path d="M59.238,8.738c0.07,0.645-0.139,1.449-0.097,2.142c0.037,0.273-0.08,0.687,0.031,0.964
	c-0.056,0.145,0.036,0.298,0.029,0.445c-0.046,0.467-0.384,0.846-0.258,1.345c0.158,0.328-0.331,0.775,0.05,1.088
	c0.259,0.283,0.712,0.081,1.08,0.123c0.449-0.103,0.921-0.18,1.327-0.434c0.342,0.065,0.556-0.296,0.857-0.405
	c0.529-0.248,1.234-0.561,1.786-0.216c0.071,0.077,0.039,0.224,0.01,0.321c-0.368,0.501-0.934,0.476-1.346,0.852
	c-0.369-0.017-0.631,0.317-0.864,0.553c-0.615,0.515-1.441,0.231-2.146,0.545c-0.858-0.113-1.126,0.887-1.805,1.177
	c-0.293-0.063-0.627,0.218-0.783-0.134c0.018-0.394-0.109-0.868,0.081-1.255c0.004-0.641,0.274-1.147,0.375-1.759
	c0.168-0.437,0.042-0.936,0.114-1.426c0.278-0.703-0.032-1.482,0.126-2.239c0.424-0.647,0.532-1.407,0.883-2.082
	C58.934,8.355,59.098,8.559,59.238,8.738z"/>
<path d="M48.979,9.188c0.697,0.402,1.446,0.756,1.957,1.47c0.084,0.325,0.571,0.47,0.529,0.863
	c-0.122,0.513-0.174,1.127,0.277,1.517c-0.017,0.369-0.278,0.703-0.514,1.013c-0.052,0.614-0.54,1.037-0.713,1.596
	c-0.082,0.169-0.258,0.26-0.365,0.428c-1.072,0.79-2.474,0.703-3.678,1.142c-0.563-0.099-0.84,0.579-1.403,0.479
	c-1.134-0.026-2.302,0.168-3.432,0.067c-0.547,0.099-1.205-0.079-1.666,0.295c-0.542-0.024-0.952,0.327-1.383,0.579
	c-0.31,0.307-0.789,0.532-0.907,0.971c-0.335,0.306-0.162,0.856-0.496,1.162c0.018,0.692,0.162,1.34,0.556,1.9
	c0.198,0.527,0.412,1.252,1.069,1.455c0.415,0.636,1.165,0.965,1.873,1.145c0.461,0.169,0.865,0.508,1.407,0.532
	c0.39,0.659,1.192,0.374,1.638,0.888c0.481,0.268,1.068,0.394,1.39,0.902c0.47-0.028,0.802,0.258,1.136,0.52
	c0.463,0.12,0.82,0.407,1.342,0.332c0.893-0.108,1.8,0.032,2.581-0.328c0.594-0.047,1.24-0.141,1.84-0.312
	c0.605-0.293,0.861-1.047,1.556-1.139c0.266,0.111,0.584,0.174,0.694,0.475c0.136,0.277-0.142,0.413-0.249,0.606
	c-0.386,0.353-0.881,0.38-1.196,0.81c-0.48,0.25-1.07,0.198-1.482,0.575c-0.867,0.084-1.578,0.521-2.511,0.429
	c-0.128,0.093-0.323,0.059-0.382,0.254c-0.006,0.123,0.064,0.225,0.109,0.326c0.236,0.233,0.657,0.202,0.763,0.577
	c0.321,0.533,0.392,1.153,0.339,1.792c0.282,0.309-0.077,0.613-0.163,0.881c-0.117,0.414,0.183,0.872-0.32,1.071
	c-0.186,0.288-0.492,0.521-0.508,0.865c-0.037,0.812-0.607,1.428-0.911,2.155c-0.233,0.236-0.563,0.443-0.53,0.815
	c-0.318,0.479-0.048,1.059-0.242,1.543c-0.068,0.416,0.286,0.778,0.167,1.216c0.034,0.347,0.343,0.608,0.629,0.818
	c0.219,0.059,0.515,0.073,0.717-0.042c0.413-0.401,0.341-0.996,0.777-1.371c0.415-0.45,0.172-1.078,0.048-1.601
	c-0.098-0.572-0.023-1.136-0.146-1.684c0.082-0.169,0.044-0.417,0.245-0.507c0.225-0.064,0.316,0.113,0.46,0.193
	c0.385,0.758,0.151,1.586,0.286,2.406c0.187,0.23,0.048,0.57,0.364,0.683c0.617,0.003,0.638-1.007,1.291-0.731
	c0.206,0.355,0.036,0.84-0.2,1.151c0.213,0.207-0.092,0.391-0.149,0.561c-0.136,0.29-0.059,0.762-0.506,0.816
	c-0.512,0.421-1.006,0.966-0.889,1.662c-0.003,0.617,0.166,1.241-0.082,1.822c0.167,0.674-0.576,1.282-0.012,1.899
	c0.132,0.351,0.499,0.417,0.843,0.457c0.518-0.001,1.037-0.027,1.445-0.305c0.586,0.125,1.162-0.046,1.753-0.02
	c0.44,0.094,0.894,0.41,1.325,0.158c0.649,0.375,1.499,0.142,2.092,0.662c0.534,0.197,1.147,0.274,1.571,0.712
	c0.218,0.084,0.464,0.095,0.642-0.02c0.156-0.166,0.213-0.336,0.295-0.529c-0.146-0.599-0.903-0.756-1.176-1.287
	c-0.347-0.509-0.976-0.241-1.445-0.238c-0.761-0.084-1.586,0.15-2.263-0.151c-0.392-0.067-0.994,0.153-1.193-0.35
	c-0.077-0.472,0.382-0.822,0.38-1.315c0.111-0.809-1.022-1.403-0.296-2.184c0.213-0.336,0.695-0.092,0.886-0.503
	c0.071-0.49,0.067-0.934,0.284-1.369c0.087-0.835-0.274-1.591-0.386-2.386c-0.089-0.226-0.127-0.474-0.289-0.704
	c-0.454-0.317-0.682-0.746-0.882-1.224c-0.033-0.372-0.417-0.611-0.55-0.938c-0.147-0.574-0.315-1.223-0.867-1.569
	c-0.014-0.79-0.605-1.36-0.469-2.192c0.34-0.429-0.071-1.163,0.532-1.407c0.479-0.225,0.828-0.851,1.436-0.651
	c0.423-0.08,1.025-0.299,1.377,0.111c0.165,0.18,0.105,0.399,0.071,0.62c-0.082,0.169-0.214,0.36-0.413,0.401
	c-0.547,0.099-1.347-0.209-1.673,0.443c-0.059,0.219-0.192,0.435-0.13,0.685c0.301,0.433,0.251,0.998,0.628,1.385
	c0.063,0.25,0.124,0.524,0.236,0.775c0.403,0.364,0.955,0.709,0.979,1.278c0.272,0.53,0.645,1.016,0.593,1.63
	c0.28,0.358,0.408,0.808,0.765,1.095c0.187,0.23,0.123,0.548,0.234,0.825c0.157,0.352-0.016,0.912,0.495,1.059
	c0.194,0.083,0.391,0.092,0.591,0.027c0.094-0.44,0.6-0.17,0.875-0.257c0.389-0.427,1.022-0.225,1.521-0.351
	c0.824-0.21,1.628-0.543,2.535-0.404c0.406-0.253,1-0.3,1.356,0.012c0.116,0.153,0.232,0.331,0.148,0.549
	c-0.081,0.144-0.351,0.132-0.311,0.331c0.093,0.128,0.29,0.136,0.439,0.118c0.712-0.461,1.657-0.098,2.457-0.333
	c0.433-0.301,1.064-0.075,1.473-0.378c0.489,0.096,1.221-0.266,1.443,0.287c-0.257,0.778-1.156,0.466-1.645,0.913
	c-0.796,0.137-1.595,0.347-2.341,0.486c-0.494,0.002-0.983-0.094-1.388,0.135c-0.517-0.023-0.949,0.253-1.444,0.28
	c-0.562,0.419-1.377,0.456-2.037,0.303c-0.56-0.173-0.059-0.891-0.543-1.085c-0.821,0.16-1.654,0.024-2.363,0.436
	c-0.131,0.167-0.286,0.332-0.509,0.347c-0.246-0.011-0.41-0.216-0.66-0.128c0.007,0.395-0.558,0.345-0.527,0.741
	c-0.167,0.412-0.455,0.794-0.379,1.29c-0.162,0.313-0.153,0.659-0.291,0.974c0.025,0.544,0.269,1.147,0.803,1.344
	c0.419,0.019,0.911,0.041,1.334-0.038c0.795,0.431,1.85,0.009,2.641,0.514c0.475,0.416,0.975,0.809,1.532,1.031
	c0.356,0.312,0.831,0.728,0.733,1.242c-0.14,0.364-0.38,0.772-0.804,0.877c-1.039-0.491-1.634,1.209-2.689,0.545
	c-0.724,0.189-0.827,1.369-1.751,1.081c-0.367-0.066-0.676,0.216-1.047,0.249c-1.064,0.075-2.341-0.056-3.347,0.367
	c-0.657-0.202-1.3-0.157-1.966-0.163c-0.814-0.012-1.535,0.128-2.323,0.093c-0.445,0.029-0.944,0.155-1.352-0.11
	c-0.397,0.056-0.814-0.012-1.206-0.054c-0.41-0.216-0.862-0.039-1.302-0.133c-0.359-0.238-0.94-0.486-0.891-1.027
	c0.206-0.731,0.105-1.772,0.979-2.004c0.305-0.208,0.722-0.14,1.004-0.374c0.298-0.036,0.63,0.25,0.84-0.036
	c0.328-0.158,0.276-0.654,0.696-0.659c0.667-0.019,1.407-0.011,1.803-0.585c0.149-0.561-0.069-1.212,0.251-1.74
	c-0.059-0.323-0.041-0.742-0.402-0.931c-0.5,0.15-1.014-0.49-1.434,0.059c-0.22,0.508-0.816,0.58-1.224,0.882
	c-0.614,0.49-1.542,0.276-2.241,0.466c-0.657-0.202-1.053,0.372-1.711,0.194c-0.72,0.091-1.239,0.66-1.684,1.232
	c-0.412,0.376-1.014,0.596-1.283,1.102c-0.549,0.691-1.438,0.7-2.124,1.138c-0.35,0.108-0.503-0.343-0.692-0.525
	c-0.085-0.3-0.371-0.535-0.381-0.856c0.165-0.387-0.054-0.989,0.4-1.215c0.211-0.854,0.274-1.69-0.011-2.492
	c-0.087-0.251,0.118-0.439,0.153-0.659c0.32-0.528,1.088-0.05,1.362-0.654c0.275-0.086,0.552-0.197,0.781-0.36
	c0.57-0.048,0.963-0.573,1.535-0.671c0.514-0.446,1.388-0.135,1.855-0.656c0.694-0.067,1.113,0.494,1.786,0.327
	c0.547-0.099,1.201,0.178,1.703,0.521c0.198-0.016,0.448-0.078,0.483-0.324c0.069-0.441,0.015-0.887-0.038-1.334
	c0.221-0.533,0.25-1.173,0.177-1.744c-0.054-0.447,0.377-0.698,0.445-1.115c0.178-0.658,0.283-1.344,0.605-1.922
	c0.615-0.515,0.434-1.411,0.928-1.981c0.199-0.583,0.001-1.11-0.098-1.657c-0.034-0.347-0.137-0.796-0.526-0.912
	c-0.27-0.037-0.468-0.021-0.738-0.058c-0.634-0.719-1.616-0.813-2.147-1.626c-0.235-0.257-0.579-0.297-0.865-0.508
	c-0.87,0.133-1.097-0.839-1.773-1.166c-1.068-0.394-2.326-0.401-3.094-1.422c-0.761-0.084-1.496-0.734-1.66-1.481
	c-0.024-0.569-0.663-0.622-0.891-1.027c-0.228-0.405-0.408-0.808-0.336-1.298c-0.326-0.977,0.208-1.866,0.348-2.797
	c0.289-0.382,0.656-0.859,1.153-0.959c0.172-0.535,0.725-0.757,0.945-1.265c0.239-0.384,0.676-0.216,1.004-0.374
	c0.663-0.488,1.493-0.278,2.29-0.439c0.686,0.105,1.382-0.012,2.031-0.18c0.344,0.04,0.758,0.158,1.063-0.051
	c0.728-0.288,1.57,0.194,2.122-0.546c0.621-0.095,1.175-0.342,1.814-0.288c0.562-0.419,1.203-0.957,1.188-1.723
	c-0.173-0.551,0.127-1.178-0.221-1.663c-0.605-0.817-1.261-1.586-2.213-1.802c-0.169-0.082-0.336-0.213-0.376-0.412
	c-0.008-0.37-0.11-0.844,0.15-1.128C47.909,8.301,48.741,8.438,48.979,9.188z"/>
<path d="M165.039,15.584c0.072,1.138-0.919,1.784-1.402,2.651c-0.572,0.64-0.902,1.39-1.52,1.979
	c-0.044,0.417-0.475,0.694-0.397,1.142c-0.003,0.074,0.095,0.078,0.118,0.129c0.777,0.282,1.677,0.569,2.547,0.411
	c0.64,0.029,1.143,0.372,1.758,0.4c0.638,0.078,0.832,0.704,1.058,1.158c-0.029,0.097-0.106,0.168-0.181,0.189
	c-0.382-0.289-0.762-0.602-1.253-0.673c-0.801-0.283-1.76,0.192-2.556-0.214c-0.591-0.027-1.138-0.471-1.72-0.152
	c-0.438-0.143-1.027-0.194-1.201-0.72c-0.096-0.596,0.559-0.912,0.586-1.503c0.417-1.042,1.22-1.894,1.856-2.852
	c0.578-0.788,1.158-1.601,1.951-2.231C164.857,15.255,164.996,15.434,165.039,15.584z"/>
<path d="M113.893,14.559c0.278,0.407,0.402,0.931,0.256,1.442c-0.213,0.336-0.284,0.826-0.708,0.93
	c-0.222-0.01-0.477,0.176-0.665-0.03c-0.352-0.411-0.402-0.931-0.304-1.469c0.146-0.512,0.584-0.911,1.017-1.212
	C113.653,14.4,113.934,14.191,113.893,14.559z"/>
<path d="M117.667,15.124c0.132,0.351,0.336,0.755,0.194,1.168c0.043,0.15,0.108,0.35-0.046,0.467
	c-0.224,0.039-0.384,0.303-0.631,0.317c-0.079,0.12-0.134,0.241-0.283,0.259c-0.173,0.017-0.298,0.036-0.442-0.045
	c-0.352-0.411-0.448-1.007-0.252-1.516c0.236-0.31,0.113-0.858,0.466-1.04c0.242,0.11,0.262-0.334,0.527-0.198
	C117.414,14.718,117.552,14.922,117.667,15.124z"/>
<path d="M127.775,15.827c0.42,0.537,0.538,1.208,1.035,1.675c-0.236,0.31-0.353,0.724-0.419,1.091
	c-0.154,0.141-0.314,0.405-0.51,0.372c-0.187-0.23-0.299-0.482-0.287-0.753c-0.021-0.075-0.069-0.102-0.017-0.173
	c0.054-0.096,0.121,0.055,0.175-0.041c-0.435-0.192,0.006-0.691-0.482-0.811c-0.244-0.06-0.459-0.218-0.706-0.205
	c-0.043-0.15-0.161-0.254-0.334-0.262c-0.319-0.039-0.439,0.424-0.72,0.091c-0.396,0.031-0.278-0.407-0.418-0.586
	c0.065-0.342,0.084-0.761,0.484-0.891c0.458-0.3,1.066-0.125,1.55,0.095C127.315,15.634,127.556,15.743,127.775,15.827z"/>
<path d="M20.004,12.717c0.046,0.619-0.129,1.228-0.082,1.822c-0.306,0.776-0.396,1.66-0.678,2.461
	c0.144,1.191-0.513,2.074-1.144,2.934c-0.267,0.457-0.814-0.012-1.082,0.469c-0.122-0.03-0.25,0.063-0.319-0.039
	c-0.123-0.548-0.864-1.075-0.295-1.666c0.102-0.069,0.257-0.235,0.352-0.157c0.047,0.051,0.143,0.105,0.219,0.059
	c0.515-0.47,0.596-1.182,0.894-1.761c0.358-0.823,0.353-1.81,0.758-2.581c0.135-0.808,0.079-1.748,0.212-2.507
	c0.105-0.143,0.373-0.057,0.504-0.224C19.957,11.555,19.8,12.313,20.004,12.717z"/>
<path d="M85.114,16.468c0.131,0.376-0.207,0.755,0.05,1.088c0.057,0.373-0.275,0.629-0.504,0.791
	c-0.342-0.065-0.658-0.178-0.919-0.412c-0.148-0.007-0.28,0.185-0.449,0.103c-0.134-0.302,0.006-0.691-0.153-0.994
	c0.195-0.485-0.241-1.22,0.411-1.462c0.122-0.513,0.575-0.171,0.86-0.479C84.789,15.467,85.312,15.91,85.114,16.468z"/>
<path d="M89.022,15.707c0.04,0.199,0.207,0.33,0.298,0.507c0.105,0.399,0.383,0.807,0.167,1.216
	c0.003,0.469-0.425,0.672-0.757,0.928c-0.15,0.043-0.347,0.034-0.468-0.021c-0.353-0.386-0.627-0.867-0.456-1.377
	c0.366-0.452,0.2-1.151,0.589-1.577C88.667,15.37,88.909,15.48,89.022,15.707z"/>
<path d="M76.294,16.194c-0.342,0.478-0.972,0.228-1.492,0.253c-0.623,0.145-1.254,0.461-1.673,0.985
	c-0.514,0.446-0.879,0.898-1.463,1.266c-0.169,0.461-0.697,0.684-0.89,1.144c-0.154,0.141-0.405,0.228-0.623,0.145
	c-0.121-0.055-0.238-0.183-0.282-0.309c-0.077-0.472,0.472-0.62,0.442-1.041c-0.128-0.45,0.183-0.781,0.297-1.121
	c0.502-0.199,0.827-0.826,1.418-0.8c0.394-0.525,1.057-0.47,1.519-0.869c0.562,0.124,0.815-0.555,1.353-0.457
	C75.518,15.345,75.945,15.734,76.294,16.194z"/>
<path d="M12.604,14.875c-0.067,0.392-0.282,0.777-0.201,1.175c-0.073,1.082,0.251,2.084,0.728,2.993
	c0.116,0.721,0.33,1.446,0.947,1.967c0.235,0.257,0.494,0.54,0.404,0.882c-0.261,0.309-0.366,0.995-0.927,0.871
	c-0.203,0.114-0.495,0.027-0.721,0.116c-0.676,0.216-1.328,0.458-1.939,0.875c-0.419-0.019-0.576,0.739-0.984,0.474
	c-0.947,0.204-1.673,0.985-2.531,1.415c-0.292-0.087-0.498-0.442-0.584-0.717c-0.033-0.372,0.411-0.352,0.548-0.666
	c0.491-0.496,1.141-0.689,1.653-1.085c0.659-0.39,1.319-0.804,2.129-0.718c0.357-0.255,0.596-0.639,0.906-0.946
	c-0.023-0.593-0.118-1.214-0.416-1.721c-0.085-0.3,0.155-0.708-0.079-0.99c-0.028-1.013-0.733-1.809-0.413-2.88
	c0.259-0.827,0.421-1.683,0.776-2.432c0.154-0.141,0.168-0.437,0.416-0.475c0.242,0.11,0.305-0.208,0.546-0.074
	c0.156-0.166,0.222,0.01,0.141,0.154C12.807,13.65,12.362,14.222,12.604,14.875z"/>
<path d="M29.487,14.699c0.163,0.205,0.562,0.124,0.522,0.468c0.038,0.248-0.165,0.387-0.344,0.527
	c-0.349,0.083-0.708-0.155-1.063,0.051c-0.647,0.119-1.318-0.306-1.904,0.087c-0.919,0.674-1.529,1.633-1.847,2.655
	c-0.029,0.64-0.015,1.43,0.405,1.967c0.446,0.514,0.795,0.973,1.215,1.51c0.646,0.449,1.51,0.438,2.179,0.912
	c0.641,0.004,1.035,0.565,1.677,0.569c0.355,0.337,0.794,0.455,1.148,0.792c0.488,0.121,0.809,0.653,1.324,0.726
	c0.331,0.311,0.611,0.669,0.996,0.884c0.378,0.362,0.558,0.765,0.835,1.173c0.158,0.328,0.315,0.68,0.323,1.051
	c0.019,0.124,0.163,0.205,0.109,0.326c0.307,0.31-0.005,0.666,0.1,1.065c-0.124,0.562-0.205,1.274-0.477,1.829
	c-0.272,0.012-0.164,0.363-0.341,0.453c-0.321,0.553-0.911,1.044-1.509,1.19c-0.278,0.136-0.512,0.421-0.81,0.457
	c-0.281,0.209-0.629,0.268-0.931,0.402c-0.048-0.027-0.147-0.031-0.193-0.107c-0.152,0.092-0.164,0.363-0.406,0.253
	c-0.699,0.19-1.309,0.582-2.118,0.472c-0.45,0.128-0.911,0.502-1.199,0.883c-0.277,0.136-0.338,0.379-0.423,0.622
	c-0.066,0.367,0.386,0.733-0.022,1.035c-0.163,0.338-0.006,0.691,0.052,1.039c0.27,0.58,0.768,1.021,1.113,1.58
	c0.339,0.139,0.495,0.516,0.86,0.631c0.445,1.081,1.139,2.099,1.056,3.378c0.017,0.716,0.543,1.628-0.221,2.161
	c-0.529,0.248-0.73,0.88-1.235,1.129c-0.114,0.34-0.629,0.268-0.594,0.59c0.288,0.728,0.625,1.459,0.564,2.271
	c0.204,0.404,0.735,0.107,1.103,0.148c0.822-0.185,1.797,0.081,2.621-0.128c0.372-0.033,0.66,0.128,0.924,0.288
	c0.471-0.053,0.965-0.055,1.347,0.209c0.141,0.697,0.916,0.485,1.321,0.8c0.598-0.121,0.713,0.6,1.229,0.648
	c0.336,0.212,0.118,0.671,0.203,0.971c-0.107,0.735-0.919,0.674-1.422,0.898c-0.789-0.011-1.401,0.43-2.19,0.419
	c-0.594,0.59-1.326,0.952-2.141,0.964c-0.404,0.204-0.873,0.207-1.342,0.211c-0.805,0.334-1.777,0.019-2.622,0.153
	c-0.939,0.032-2.014-0.19-2.96-0.01c-1.745-0.153-3.489,0.237-5.235,0.109c-0.49-0.071-0.892-0.46-1.419-0.261
	c-0.64-0.029-1.275-0.181-1.877,0.039c-0.7,0.215-1.502-0.068-2.138,0.372c-0.539-0.074-0.949,0.253-1.446,0.33
	c-0.453,0.202-0.949,0.253-1.377,0.456c-0.903,0.329-1.877,0.581-2.823,0.785c-0.131,0.167-0.331,0.232-0.53,0.272
	c-0.443-0.02-0.569-0.519-0.678-0.82c0.06-0.244,0.412-0.376,0.277-0.678c-0.163-0.205-0.487-0.145-0.686-0.105
	c-1.382,0.012-2.48,0.826-3.774,1.088c-0.489,0.447-1.129,0.418-1.713,0.243c-0.224,0.039-0.478,0.2-0.717,0.042
	c-0.163-0.205-0.349-0.46-0.212-0.774c0.054-0.096,0.131-0.167,0.232-0.212c0.318,0.064,0.712,0.081,0.967-0.104
	c0.51-0.372,0.996-0.745,1.637-0.74c0.302-0.134,0.69,0.006,0.99-0.079c0.839-0.011,1.479-0.525,2.339-0.437
	c0.576-0.196,1.157-0.491,1.865-0.335c0.976-0.301,1.997-0.527,2.973-0.828c0.476-0.151,1.04-0.076,1.47-0.328
	c0.351-0.132,0.793-0.088,1.191-0.144c0.147,0.031,0.087,0.251,0.009,0.346c-0.091,0.366-0.504,0.224-0.689,0.512
	c-0.664-0.055-1.127,0.369-1.72,0.391c-0.402,0.155-0.855,0.356-1.21,0.562c1.683-0.121,3.294-0.838,5.007-1.057
	c0.745-0.114,1.494-0.303,2.237-0.368c0.226-0.089,0.214-0.36,0.393-0.5c0.746-0.682,1.501-1.561,2.535-1.514
	c0.409-0.327,0.987-0.005,1.44-0.206c0.108-0.217,0.576-0.196,0.417-0.499c-0.277-0.432-0.377-0.93-0.327-1.495
	c0.14-0.364,0.207-0.755,0.516-1.038c-0.015-0.223-0.153-0.426-0.345-0.558c-1.143,0.171-1.886,1.346-2.963,1.692
	c-0.234,0.261-0.579,0.245-0.811,0.482c-0.276,0.111-0.617-0.003-0.911-0.041c-0.318,0.479-0.97,0.178-1.426,0.429
	c-0.448,0.078-0.878,0.33-1.371,0.308c-0.649,0.168-1.255,0.486-1.928,0.628c-0.233,0.236-0.595,0.072-0.85,0.258
	c-0.423,0.08-0.891,0.059-1.291,0.188c-0.241-0.134-0.426-0.389-0.668-0.499c-0.216-0.133-0.105-0.399-0.145-0.623
	c-0.184-0.847,0.032-1.8,0.048-2.712c0.4-0.673-0.259-1.369-0.301-2.086c-0.213-0.207-0.251-0.455-0.239-0.726
	c0.239-0.384,0.661-0.439,0.873-0.75c0.372-0.033,0.899,0.312,1.257,0.032c0.754-0.311,1.529-0.523,2.348-0.634
	c0.57,0.494,1.318-0.237,1.837,0.305c0.646,0.449,1.265,0.945,1.992,1.225c0.094,0.103,0.111,0.276,0.231,0.356
	c1.011,0.021,1.734,0.942,2.803,0.768c0.208-0.237-0.15-0.5-0.164-0.748c-0.039-0.224-0.156-0.377-0.221-0.577
	c-0.218-1.194-0.939-2.707-0.025-3.825c0.247-0.556,0.589-1.034,0.739-1.62c0.146-0.511,0.68-0.857,0.631-1.402
	c-0.054-0.447-0.455-0.859-0.261-1.319c-0.207-0.33-0.465-0.638-0.881-0.706c-0.518,0.001-0.958-0.093-1.413,0.158
	c-0.573,0.122-1.191,0.144-1.75-0.03c-0.459-0.218-0.997-0.316-1.401-0.655c-0.298,0.036-0.533-0.221-0.747-0.404
	c0.007-0.148,0.161-0.289,0.287-0.357c0.902-0.305,1.629,0.542,2.506,0.236c0.667-0.019,1.315-0.163,1.974-0.01
	c0.271,0.012,0.474-0.127,0.7-0.215c0.27,0.037,0.45-0.128,0.742-0.041c0.385,0.215,0.818,0.456,1.021,0.885
	c0.148,0.007,0.266,0.111,0.359,0.238c0.01,0.321,0.213,0.75-0.095,1.007c0.278,0.95,0.232,1.959-0.13,2.881
	c-0.099,0.563-0.489,0.989-0.805,1.444c-0.28,0.728-0.913,1.636-0.381,2.425c0.01,0.321,0.32,0.557,0.23,0.923
	c0.071,0.077,0.083,0.349,0.261,0.234c0.459-0.325,0.266-0.975,0.508-1.408c0.15-0.585,0.324-1.17,0.45-1.781
	c0.126-0.068,0.087-0.292,0.26-0.284c0.148,0.007,0.318,0.064,0.359,0.238c0.231,0.899-0.334,1.934,0.273,2.701
	c0.896-0.724,0.831-2.01,1.268-2.953c0.223-0.015,0.386,0.19,0.477,0.367c0.093,1.213,0.031,2.592-0.92,3.437
	c-0.336,0.33-0.871,0.158-1.206,0.488c-0.123-0.006-0.25,0.063-0.303,0.159c-0.016,0.345,0.346,0.534,0.231,0.899
	c0.132,0.351,0.063,0.792,0.529,0.863c0.771,0.948-0.568,1.652-0.438,2.595c0.506,0.27,0.529,0.863,0.959,1.154
	c0.368,0.041,0.648-0.143,0.951-0.303c-0.012-0.272-0.127-0.474-0.165-0.723c0.03-0.665,0.337-1.465-0.106-2.028
	c-0.019-0.124-0.062-0.274-0.007-0.395c0.229-0.162,0.465-0.472,0.781-0.36c0.254,0.382,0.686,0.648,0.664,1.14
	c0.217,0.651,0.008,1.456-0.216,2.063c-0.053,0.072-0.131,0.167-0.087,0.292c0.315,0.138,0.72-0.091,1.03,0.145
	c0.226-0.089-0.011-0.297-0.03-0.421c-0.735-0.65-0.198-1.637-0.508-2.416c-0.007-0.395,0.162-0.856-0.145-1.166
	c-0.034-0.347,0.466-0.497,0.237-0.877c0.394-1.068,1.995-1.563,1.736-2.932c-0.128-0.45-0.005-0.987-0.259-1.369
	c-0.35-0.435-0.497-1.009-0.671-1.535c-0.709-0.698-1.518-1.351-1.546-2.364c0.012-0.271-0.25-0.48-0.065-0.743
	c-0.015-0.765-0.35-1.545-0.142-2.325c0.215-0.385,0.381-0.797,0.718-1.152c0.603-0.244,1.14-0.664,1.765-0.833
	c1.314-0.138,2.454-0.802,3.703-1.141c0.486-0.373,1.2-0.341,1.547-0.942c0.218-0.459,0.734-0.954,0.39-1.537
	c-0.196-0.576-0.091-1.262-0.587-1.753c0.066-0.91-0.67-1.56-1.234-2.177c-0.356-0.312-0.851-0.285-1.181-0.621
	c-0.933-0.091-1.403-1.173-2.47-1.024c-0.452-0.366-1.081-0.098-1.559-0.44c-0.676,0.216-0.932-0.659-1.522-0.71
	c-0.716-0.526-1.101-1.308-1.563-1.995c-0.27-0.58,0.137-1.4-0.359-1.891c-0.159-0.846,0.271-1.641,0.916-2.253
	c0.632-0.342,0.982-0.992,1.546-1.46c0.564-0.468,1.245-0.807,1.956-0.701C28.296,14.3,28.793,14.766,29.487,14.699z"/>
<path d="M125.248,20.425c0.449,0.44,0.345,1.101,0.417,1.696c-0.041,0.368-0.013,0.838,0.068,1.237
	c0.091,0.177-0.284,0.283-0.045,0.442c0.066,0.176-0.134,0.241-0.093,0.415c-0.2,0.065-0.424,0.104-0.617-0.003
	c-0.751-0.305-0.466-1.156-0.812-1.69c0.051-0.59-0.418-1.129-0.172-1.661c0.059-0.219,0.121-0.488,0.397-0.599
	C124.691,20.203,125.009,20.266,125.248,20.425z"/>
<path d="M150.148,23.004c0.078,0.448-0.036,0.788-0.056,1.231c-0.167,0.412-0.16,0.807-0.254,1.247
	c-0.28,0.185-0.37,0.551-0.717,0.584c-0.147-0.031-0.341-0.089-0.407-0.265c0.349-0.626-0.164-1.29,0.064-1.971
	c0.114-0.34,0.203-0.682,0.389-0.969c0.169,0.082,0.274-0.062,0.445-0.029C149.676,22.539,150.212,22.686,150.148,23.004z"/>
<path d="M61.323,19.392c0.588,0.101,1.113,0.494,1.41,1.001c0.69,0.574,1.577,0.046,2.328,0.352c0.165,0.18,0.562,0.124,0.524,0.418
	c-0.585,0.393-1.255,0.486-1.972,0.503c-0.616-0.028-1.315,0.163-1.948-0.014c-0.332-0.286-0.61-0.694-1.05-0.788
	c-0.401-0.413-1.081-0.641-1.176-1.287c0.132-0.191,0.193-0.46,0.468-0.522C60.402,19.029,60.916,19.102,61.323,19.392z"/>
<path d="M48.563,18.939c0.184,0.304,0.639,0.596,0.447,1.032c-0.361,0.354-0.118,0.981-0.527,1.284
	c-0.432,0.277-0.756,0.903-1.337,0.655c-0.378-0.362-0.177-0.995-0.18-1.488c0.268-0.481,0.488-0.965,0.609-1.477
	C47.856,18.76,48.278,18.705,48.563,18.939z"/>
<path d="M51.639,20.213c-0.007,0.148,0.161,0.254,0.205,0.379c0.072,0.595-0.295,1.072-0.466,1.583
	c-0.188,0.337-0.561,0.394-0.952,0.327c-0.158-0.328-0.216-0.676-0.474-0.984c-0.063-0.25,0.191-0.411,0.275-0.629
	c0.073-0.515-0.118-1.214,0.485-1.458C51.185,19.354,51.457,19.884,51.639,20.213z"/>
<path d="M77.56,21.506c-0.013,0.295-0.364,0.403-0.567,0.542c-0.834-0.112-1.081,0.987-1.828,1.151
	c-0.37,0.008-0.683,0.364-1.044,0.175c-0.165-0.18-0.226-0.454-0.166-0.698c0.162-0.313,0.375-0.649,0.658-0.908
	c0.426-0.153,0.808-0.408,1.235-0.586c0.516,0.048,1.185-0.021,1.644,0.198C77.515,21.405,77.537,21.455,77.56,21.506z"/>
<path d="M162.81,28.361c0.36,0.781,0.419,1.647,0.653,2.472c-0.094,0.44,0.163,0.772,0.319,1.125
	c-0.07,0.466,0.429,0.883,0.111,1.362c0.185,0.28,0.137,0.796,0.582,0.766c0.434,0.217,0.753-0.83,0.995-0.177
	c-0.218,0.459-0.626,0.761-1.102,0.912c-0.487-0.145-1.023-0.293-1.326-0.677c-0.292-0.63-0.284-1.37-0.476-2.02
	c-0.064-0.768-0.481-1.379-0.871-2.013c-0.165-0.723-0.68-1.338-0.993-2.043c0.056-0.146,0.161-0.289,0.193-0.46
	c0.108-0.217,0.287-0.357,0.512-0.421C162.019,27.29,162.615,27.761,162.81,28.361z"/>
<path d="M61.219,23.877c0.073,1.114,0.247,2.182,0.948,3.053c0.263,0.185,0.472,0.465,0.683,0.722
	c-0.009,0.197-0.162,0.313-0.314,0.405c-0.591-0.027-1.147-0.274-1.681-0.471c-0.493-0.565,0.069-1.527-0.626-1.977
	c-0.101-0.498-0.353-0.929-0.379-1.448c0.063-0.293-0.038-0.791,0.337-0.898C60.609,23.184,61.041,23.45,61.219,23.877z"/>
<path d="M24.789,25.318c0.087,0.251,0.175,0.501,0.137,0.796c0.129,0.425,0.355,0.88,0.334,1.347
	c-0.409,0.327-0.476,1.261-1.231,1.03c-0.281-0.333-0.636-0.67-0.74-1.094c0.058-0.738-0.008-1.456,0.267-2.085
	C23.888,25.055,24.453,25.105,24.789,25.318z"/>
<path d="M21.426,25.487c0.309,0.261,0.192,0.675,0.176,1.019c-0.078,0.095-0.133,0.216-0.234,0.261
	c0.023,0.593-0.365,0.97-0.584,1.454c-0.23,0.187-0.534,0.346-0.824,0.21c-0.4-0.437-0.747-0.947-0.474-1.526
	c0.213-0.336,0.069-0.984,0.588-1.01c0.163-0.338,0.4-0.673,0.729-0.855C21.073,25.101,21.128,25.523,21.426,25.487z"/>
<path d="M158.32,31.638c0.362,0.732,0.342,1.718-0.109,2.413c-0.01,0.222-0.117,0.414-0.2,0.608
	c0.106,0.375,0.086,0.818,0.369,1.127c0.131,0.376-0.225,0.607-0.335,0.873c-0.359,0.305-0.713-0.057-1.003-0.193
	c-0.412-0.167-0.221-0.577-0.306-0.877c-0.008-1.456,0.955-2.572,0.7-4.039c0.271,0.012,0.436-0.375,0.749-0.188
	C158.279,31.438,158.249,31.56,158.32,31.638z"/>
<path d="M58.351,28.929c0.131,0.376,0.532,0.789,0.096,1.164c-0.177,0.091-0.357,0.255-0.576,0.196
	c-0.251-0.455-0.771-0.405-1.023-0.836c-0.109-0.326-0.166-0.698-0.052-1.039c0.208-0.237,0.486-0.373,0.777-0.261
	C57.886,28.316,58.219,28.577,58.351,28.929z"/>
<path d="M13.673,28.369c0.061,0.299-0.029,0.64-0.233,0.779c-0.141-0.154-0.386-0.19-0.586-0.125
	c-0.385,0.328-0.962,0.006-1.416,0.208c-0.376,0.131-0.862-0.039-1.102,0.37c-0.253,0.137-0.473,0.102-0.744,0.09
	c-0.242,0.433-0.506,0.816-0.699,1.276c-0.077,0.071-0.133,0.216-0.256,0.21c-0.223,0.015-0.419-0.019-0.586-0.125
	c0.058-0.738,0.846-1.245,1.123-1.923c0.394-0.525,1.015-0.62,1.547-0.942c0.549-0.148,1.054-0.397,1.625-0.469
	C12.833,27.837,13.478,27.768,13.673,28.369z"/>
<path d="M14.097,32.089c0.34,0.114,0.706,0.205,0.916,0.485c-0.007,0.148,0.136,0.277,0.006,0.42
	c-0.382,0.254-0.735-0.107-1.158-0.028c-0.717,0.042-1.165,0.663-1.794,0.931c-0.2,0.065-0.315-0.138-0.383-0.264
	c-0.344-0.583,0.434-0.869,0.652-1.327c0.431-0.252,0.898-0.774,1.402-0.455C13.886,31.832,13.95,32.057,14.097,32.089z"/>
<path fill="#FFD520" d="M80.428,37.227c0.067,0.151-0.013,0.295-0.045,0.442c-0.182,0.214-0.431,0.252-0.658,0.365
	c-0.406,0.253-0.766,0.582-1.26,0.585c-0.422,0.598-1.23-0.08-1.675,0.492c-0.252,0.112-0.593,0.023-0.891,0.058
	c-0.581,0.295-1.231-0.056-1.768,0.364c-0.704-0.254-1.397,0.899-1.819-0.156c-0.085-0.843,0.096-1.575,0.135-2.436
	c-0.011-0.297,0.287-0.357,0.488-0.422c1.156-0.466,2.421-0.063,3.608-0.133c0.398-0.081,0.751-0.238,1.104-0.419
	c0.545-0.049,1.11,0.001,1.655-0.049C79.807,36.212,80.105,36.719,80.428,37.227z"/>
<path fill="#FFFFFF" d="M122.661,40.045c0.141,0.154,0.332,0.286,0.247,0.529c-0.006,0.123-0.107,0.193-0.255,0.186
	c-0.532-0.246-1.33-0.06-1.545-0.76c-0.16-0.279-0.34-0.657-0.13-0.943c0.201-0.09,0.444-0.005,0.637,0.103
	C121.893,39.567,122.277,39.806,122.661,40.045z"/>
<path d="M88.592,38.903c-0.045,0.442-0.162,0.856,0.016,1.284c-0.141,0.388,0.486,0.713-0.044,0.985
	c-0.205,0.163-0.436,0.375-0.726,0.239c-0.272-0.53-0.068-1.237-0.289-1.789c0.116-0.39-0.203-0.971,0.275-1.172
	C88.15,38.316,88.457,38.626,88.592,38.903z"/>
<path fill="#FFD520" d="M146.992,43.758c-0.118,1.524-0.17,3.224-1.041,4.493c-0.343,0.503-0.64,1.057-0.839,1.64
	c-0.111,0.266-0.267,0.457-0.565,0.493c-0.141-0.154-0.227-0.43-0.142-0.673c0.268-0.481,0.106-1.253,0.83-1.443
	c0.386-0.353,0.091-0.933,0.331-1.317c0.47-0.571,1.039-1.162,0.973-1.88c0.44-0.449-0.031-0.964-0.183-1.415
	c0.12-0.463-0.41-0.759-0.093-1.213c0.112-0.291,0.047-0.491,0.28-0.728c0.078-0.095,0.038-0.294,0.186-0.288
	C147.091,42.11,147,43.018,146.992,43.758z"/>
<path fill="#FFD520" d="M124.526,40.82c-0.218,0.459-0.34,0.972-0.655,1.401c-0.283,0.259-0.684,0.389-1.073,0.272
	c0.087-0.292-0.036-0.84,0.481-0.817c0.222,0.01,0.402-0.155,0.509-0.347c0.084-0.218-0.244-0.603,0.177-0.633
	C124.136,40.704,124.438,40.57,124.526,40.82z"/>
<path fill="#FFD520" d="M140.98,43.586c-0.003,0.617-0.254,1.247-0.309,1.935c-0.139,0.339-0.03,0.665-0.071,1.033
	c0.007,0.938,0.841,1.592,0.923,2.509c0.303,0.384,0.328,0.928,0.306,1.42c-0.053,0.072-0.124,0.019-0.198,0.016
	c-0.047-0.051-0.051,0.047-0.077,0.071c-0.033,0.196,0.183,0.329,0.026,0.519c-0.277,0.136-0.623,0.145-0.942,0.106
	c-0.299-0.482-0.397-1.054-0.595-1.581c0.218-0.459,0.142-0.956,0.239-1.469c-0.118-0.129-0.058-0.348-0.004-0.469
	c-0.14-0.722-0.579-1.383-0.444-2.191c-0.034-0.347,0.133-0.759,0.026-1.134c0.086-0.268-0.12-0.622,0.16-0.807
	c-0.076-0.497,0.091-0.933,0.114-1.426C140.458,42.575,140.555,43.147,140.98,43.586z"/>
<path fill="#FFD520" d="M144.425,46.504c0.059,0.323-0.029,0.64-0.068,0.959c-0.51,0.915-1.069,1.827-1.046,2.963
	c-0.177,0.091-0.354,0.181-0.524,0.124c-0.32-0.557-0.19-1.267-0.485-1.823c-0.06-0.866-0.546-1.579-0.307-2.481
	c0.195-0.485-0.226-0.997,0.209-1.347c-0.008-0.37,0.202-0.657,0.219-1.026c0.362-0.378,0.171-1.053,0.438-1.51
	C143.869,43.519,143.77,45.167,144.425,46.504z"/>
<path fill="#FFD520" d="M149.478,43.328c0.071,0.62-0.344,1.07-0.371,1.661c-0.271,0.531-0.492,1.063-0.763,1.594
	c-0.256,0.753-0.636,1.526-1.228,2.066c0.035-0.22,0.169-0.461,0.229-0.705c0.349-0.083,0.245-0.507,0.403-0.722
	c0.033-0.739,0.477-1.286,0.509-1.975c0.26-0.284,0.159-0.782,0.585-0.936c0.129-0.118,0.111-0.266,0.142-0.413
	c0.157-0.19,0.292-0.456,0.421-0.573C149.429,43.325,149.454,43.326,149.478,43.328z"/>
<path fill="#FFD520" d="M145.705,44.391c0.012,0.272-0.047,0.491-0.083,0.736c-0.233,0.236-0.273,0.58-0.529,0.79
	c0.066-0.367-0.183-0.872-0.287-1.296c0.093-0.415,0.023-1.06,0.496-1.162C145.462,43.763,145.446,44.108,145.705,44.391z"/>
<path fill="#FFD520" d="M93.572,42.261c0.411,0.191,0.913-0.008,1.35,0.16c0.382,0.289,0.791,0.504,1.198,0.794
	c0.447-0.054,0.822,0.382,1.052,0.738c-0.059,0.219-0.289,0.382-0.466,0.497c-0.779-0.233-2.034,0.254-2.461-0.678
	c-0.163-0.772-1.04-0.466-1.491-0.857c-0.313-0.162-0.877-0.237-0.859-0.656c0.001-0.025,0.053-0.072,0.078-0.095
	C92.545,42.067,93.022,42.434,93.572,42.261z"/>
<path fill="#FFD520" d="M165.926,46.241c0.111,0.276-0.268,0.481-0.451,0.695c-0.36,0.329-0.6,0.713-0.524,1.235
	c0.196,0.576,0.694,1.018,0.64,1.682c-0.075,0.564-0.391,1.019-0.369,1.612c-0.187,0.312-0.58,0.27-0.875,0.257
	c-1.003-0.193-1.571-1.28-2.63-1.303c-0.714-0.032-1.385,0.086-2.054,0.129c-0.252,0.112-0.517-0.023-0.793,0.088
	c-1.453-0.066-3.131-0.043-4.464-0.571c-0.285-0.235-0.776-0.306-0.83-0.753c-0.005-0.444,0.355-0.749,0.569-1.134
	c0.281-0.209,0.648-0.143,0.906-0.403c0.49,0.071,0.759-0.41,1.202-0.39c0.835-0.456,1.737-0.76,2.593-1.141
	c0.492,0.022,0.846,0.384,1.34,0.381c0.274-0.062,0.542,0.024,0.734,0.132c0.542,0.024,0.951-0.302,1.468-0.279
	c0.374-0.082,0.727-0.263,1.121-0.245c0.382-0.254,0.803-0.309,1.182-0.489C165.183,45.763,165.753,45.69,165.926,46.241z"/>
<path fill="#FFD520" d="M50.261,40.924c-0.029,0.097-0.155,0.166-0.226,0.089c-0.047-0.051-0.065-0.2-0.012-0.272
	C50.179,40.55,50.419,40.709,50.261,40.924z"/>
<path fill="#FFD520" d="M44.102,42.373c0.419,0.019,0.645,0.473,1.038,0.516c0.263,0.185,0.532,0.246,0.876,0.262
	c0.12,0.079,0.315,0.138,0.331,0.311c-0.222,0.557-0.858,0.43-1.242,0.733c-0.294-0.038-0.56-0.173-0.795,0.112
	c-0.593,0.023-1.143,0.171-1.733,0.144c-0.552,0.197-1.085,0.543-1.659,0.69c-0.736,0.46-0.971,1.288-1.792,1.449
	c-0.473,0.645-1.262,0.634-1.803,1.128c-0.594,0.047-0.096-0.596-0.282-0.852c-0.01-0.321,0.127-0.636,0.066-0.91
	c0.177-0.091,0.04-0.344,0.144-0.462c0.164-0.363-0.045-0.643,0.144-1.005c-0.067-0.151-0.036-0.298-0.004-0.469
	c0.313-0.381,0.743-0.608,1.212-0.611c0.46-0.349,1.026-0.324,1.484-0.624c0.246-0.532,0.86-0.479,1.267-0.732
	c0.643-0.045,1.488-0.18,2.041,0.141C43.671,42.082,43.882,42.314,44.102,42.373z"/>
<path d="M52.342,44.003c-0.102,0.612,0.395,1.079,0.594,1.606c-0.087,0.292-0.154,0.684-0.503,0.767
	c-0.276,0.111-0.541-0.049-0.758-0.158c-0.047-0.051-0.068-0.126-0.091-0.177c-0.068-0.669-0.036-1.383-0.105-2.052
	c0.058-0.195,0.209-0.262,0.384-0.303C52.087,43.646,52.277,43.803,52.342,44.003z"/>
<path fill="#FFFFFF" d="M135.508,48.396c-0.079,0.12-0.276,0.111-0.402,0.155c-0.642,0.02-1.271,0.288-1.908,0.185
	c0.63-0.292,1.476-0.452,2.263-0.391C135.485,48.346,135.509,48.372,135.508,48.396z"/>
<path fill="#FFD520" d="M147.228,50.011c-0.456,0.275,0.046,1.162-0.742,1.126c-0.244-0.06-0.462-0.144-0.733-0.156
	c-0.02-0.1,0.034-0.196,0.159-0.24c0.125-0.044,0.27,0.037,0.375-0.106c-0.008-0.37,0.412-0.376,0.594-0.59
	c0.056-0.145,0.235-0.285,0.362-0.378C147.337,49.769,147.233,49.887,147.228,50.011z"/>
<path fill="#FFD520" d="M15.888,45.985c0.853,0.779,1.84,1.317,3.027,1.271c0.654,0.276,1.24-0.141,1.877-0.039
	c-0.002,0.049-0.003,0.074-0.007,0.148c-0.911,0.502-1.687,1.305-2.729,1.431c-1.147,0.269-2.404,0.237-3.482,0.632
	c-0.529,0.248-1.056,0.446-1.588,0.743c-0.451,0.152-1.013,0.028-1.419,0.281c-0.125,0.044-0.297,0.011-0.392-0.067
	c-0.202-0.453-0.354-0.904-0.406-1.4c0.073-0.515-0.003-1.036,0.119-1.549c0.056-0.688-0.036-1.383,0.597-1.749
	c0.351-0.132,0.713-0.486,1.096-0.222c0.938-0.007,1.847-0.484,2.744-0.123C15.54,45.501,15.826,45.711,15.888,45.985z"/>
<path fill="#FFD520" d="M50.393,48.381c1.201,0.178,2.256-0.244,3.418-0.29c0.464,0.095,0.9,0.287,1.257,0.575
	c0.518-0.001,1.044-0.175,1.526,0.069c0.205,0.379,0.73,0.773,0.389,1.226c-0.354,0.181-0.839,0.011-1.191,0.144
	c-0.469,0.003-0.987,0.005-1.505,0.006c-0.742,0.041-1.556,0.029-2.296,0.044c-0.844,0.11-1.682,0.097-2.546,0.107
	c-0.743,0.065-1.385,0.086-2.148,0.026c-0.55-0.395-1.194,0.218-1.768-0.178c-0.337-0.188-0.883-0.114-1.01-0.588
	c-0.059-0.323,0.15-0.585,0.449-0.646c0.347-0.034,0.703-0.264,1.04-0.076c0.661,0.104,1.089-0.617,1.665-0.813
	c0.5-0.15,1.096-0.222,1.657-0.098C49.663,48.15,50.002,48.314,50.393,48.381z"/>
<path fill="#FFD520" d="M32.936,50.899c0.223-0.015,0.525-0.149,0.664,0.055c0.431,0.834,1.349,0.727,1.996,1.151
	c0.047,0.051,0.142,0.13,0.065,0.2c-0.552,0.197-1.057,0.47-1.634,0.666c-0.062-0.274,0.128-0.66-0.183-0.872
	c-0.287-0.21-0.563-0.099-0.956-0.142c-0.373,0.057-0.744,0.09-1.138,0.072c-0.7-0.352-1.458-0.485-2.269-0.571
	c-0.121-0.055-0.317-0.088-0.334-0.262c0.085-0.243,0.406-0.253,0.611-0.417c0.498-0.101,1.152,0.175,1.635-0.148
	c0.423-0.08,0.665,0.03,0.999,0.267C32.561,51.005,32.785,50.966,32.936,50.899z"/>
<path fill="#FFD520" d="M30.309,52.804c0.44,0.094,0.799,0.332,1.27,0.279c0.321-0.01,0.671-0.118,0.965-0.055
	c0.016,0.198-0.191,0.411-0.393,0.5c-0.543,0-0.997,0.226-1.542,0.276c-0.34-0.114-0.734-0.132-1.049-0.269
	c0.037,0.273-0.029,0.64-0.395,0.55c-0.589-0.076-1.061-0.541-1.71-0.373c-0.347,0.034-0.816,0.037-1.102-0.173
	c-0.591-0.027-1.033,0.472-1.608,0.1c-0.24-0.159-0.507-0.245-0.783-0.134c-0.421,0.03-0.941-0.462-1.308,0.015
	c-0.218-0.084-0.488-0.121-0.625-0.374c-0.923,0.23-1.874,0.532-2.791,0.614c-0.036-0.298,0.338-0.379,0.541-0.518
	c0.651-0.217,1.282-0.534,1.889-0.852c0.441,0.069,1.043,0.392,1.431-0.009c0.425-0.129,0.754,0.231,1.147,0.274
	c0.31-0.307,0.73-0.312,1.093-0.173c0.406-0.253,0.958,0.093,1.341-0.186c0.441,0.069,0.796-0.137,1.234-0.018
	C28.669,52.508,29.5,52.693,30.309,52.804z"/>
</svg>
