<?xml version="1.0" encoding="utf-8"?>
<!-- Generator: Adobe Illustrator 17.0.2, SVG Export Plug-In . SVG Version: 6.00 Build 0)  -->
<!DOCTYPE svg PUBLIC "-//W3C//DTD SVG 1.1//EN" "http://www.w3.org/Graphics/SVG/1.1/DTD/svg11.dtd">
<svg version="1.1" id="Layer_1" xmlns="http://www.w3.org/2000/svg" xmlns:xlink="http://www.w3.org/1999/xlink" x="0px" y="0px"
	 width="160px" height="150px" viewBox="0 0 160 150" enable-background="new 0 0 160 150" xml:space="preserve">
<g>
	<polygon fill="#FFFFFF" points="118.339,70.718 131.098,69.733 133.351,72.437 137.408,74.691 145.072,75.142 150.03,73.339 
		154.087,69.281 157.242,62.521 158.82,54.631 157.919,46.743 156.341,39.756 152.96,32.318 148.227,24.656 144.846,18.57 
		137.86,10.457 132.676,7.301 125.237,4.371 118.476,4.146 110.362,7.526 100.22,13.838 90.303,15.415 77.682,14.964 71.145,15.865 
		62.581,19.246 56.946,23.304 53.115,28.036 49.734,33.446 48.607,39.306 48.832,46.518 51.086,53.956 56.72,61.619 62.805,65.45 
		66.186,65.45 70.695,67.028 75.879,70.183 80.386,71.761 	"/>
	<path fill="#FFD520" d="M100.535,52.811c0,0-3.246,4.074-2.193,6.254c1.052,2.179,3.831,4.733,5.635,4.809
		c1.804,0.075,5.409-0.451,7.438,0c2.028,0.451,6.16,1.428,6.612,3.381c0.452,1.953,1.878,4.133,0.3,5.86
		c-1.578,1.728-4.283,2.779-5.635,4.133c-1.352,1.352-4.507,3.005-5.86,5.184s-2.103,4.658-2.329,5.86
		c-0.225,1.202-0.075,2.929-0.676,3.156c-0.602,0.225-1.953,0.225-2.779-0.225c-0.826-0.451-2.705-1.652-3.156-2.554
		c-0.451-0.902-1.953-1.728-2.779-2.028c-0.826-0.3-2.705-1.352-3.306-1.352c-0.602,0-1.653-0.602-1.728-1.277
		c-0.075-0.676,0.15-1.878-0.976-2.479c-1.127-0.602-1.728-1.503-3.08-1.578c-1.352-0.075-2.028,0.602-2.779,0.451
		c-0.752-0.15-2.179-0.976-1.953-1.653c0.225-0.677,0.115-0.209,0.115-0.209s-0.584-1.182-1.486-1.857
		c-0.902-0.675-1.766-1.114-1.766-1.114s-0.544-1.927,0.807-2.754c1.352-0.826,3.681-2.028,3.156-2.779
		c-0.526-0.752-2.705-3.381-3.231-3.907c-0.526-0.526-1.803-3.005-1.803-3.005s1.719-1.232,2.928-2.787
		c1.3-1.672,2.879-7.059,2.879-7.059s3.638-0.01,5.665-0.836c2.028-0.826,6.037-3.065,6.037-3.065s1.429,2.074,2.693,2.6
		C98.399,52.439,100.535,52.811,100.535,52.811z"/>
	<path d="M94.976,49.137c-0.396,0.726-0.528,1.584-0.858,2.376c-0.66,1.914-1.386,3.828-1.915,5.874
		c0.066,0.925-0.066,1.98,0.594,2.706c0.066,0.198,0.066,0.396,0,0.594c-0.264,0.264-0.725,0.198-1.121,0.131
		c-0.529-0.198-1.121-0.594-1.254-1.254c0.066-1.32,0.725-2.508,1.188-3.761c0.792-2.244,1.782-4.488,2.838-6.732
		C94.447,48.741,95.438,48.543,94.976,49.137z"/>
	<path d="M83.294,52.041c-0.33,1.65,0.131,3.234,0.066,4.818c0.461,2.97,0.396,6.204,2.904,8.316
		c0.725,0.594,1.848,0.726,2.838,0.461c0.066,0.066,0.264,0.066,0.33,0.198c0,0.396-0.33,0.594-0.66,0.792
		c-1.914,0.33-4.29,0.264-5.411-1.65c-0.925-1.98-0.792-4.488-0.99-6.732c0.132-2.179-0.461-4.422,0.792-6.205
		C83.227,52.041,83.227,52.041,83.294,52.041z"/>
	<path d="M102.169,67.418c-0.264,0.594,0.066,1.584-0.66,1.98c-0.99,0.792-1.98,1.518-3.102,2.046
		c-0.198,0.066-0.396-0.066-0.396-0.264c0.066-0.726,0.99-1.188,1.584-1.65c0.461-0.792,1.518-1.188,1.716-2.179
		C101.51,67.154,102.038,67.089,102.169,67.418z"/>
	<path d="M159.919,53.691c0.33-0.792-0.461-1.452-0.33-2.376c0.132-1.188,0.264-2.508-0.396-3.564
		c-0.461-1.254,0.198-2.771-0.33-4.092c-0.99-1.188-0.529-3.036-1.386-4.356c-1.122-0.99-1.32-2.376-1.584-3.761
		c-0.131-1.122-1.056-1.782-1.65-2.706c-0.33-1.254-0.725-2.64-1.98-3.432c-1.254-0.858-0.725-2.574-1.65-3.63
		c-1.848-0.99-2.046-3.169-3.829-4.356c-0.528-1.056-0.33-2.442-0.924-3.498c-2.31-2.179-4.224-4.751-6.137-7.128
		c-0.99-0.461-1.32-1.584-2.31-1.98c-0.925-0.198-1.782-0.858-2.375-1.65c-1.32-0.925-3.102-0.594-4.224-1.98
		c-0.925-0.792-2.376-0.396-3.366-0.99c-1.056-0.396-2.31-0.264-3.365-0.461c-1.65-0.33-3.564,0.529-4.95-0.33
		c-0.594,0.066-1.121-0.265-1.65-0.198c-1.386,0.858-2.508,2.64-4.422,2.111c-0.33,0.066-0.66,0.396-1.056,0.132
		c-1.121-1.254-2.375-1.98-3.696-2.904c-0.858-0.396-1.716-0.925-2.442-1.584c-0.594-0.396-1.122-1.121-1.848-0.925
		c-0.461,1.121-0.396,2.31-0.726,3.432c0,0.198,0.132,0.594,0.461,0.396c0.792-0.461,0.396-1.65,1.188-2.31
		c0.198-0.066,0.461-0.066,0.594,0c1.848,1.32,4.092,1.98,5.544,3.894c0.198,0.594-0.594,0.726-0.925,1.121
		c-0.528,0.396-0.858,1.122-1.65,0.925c-0.66,0.066-0.99,0.792-1.519,1.122c-0.99,0.066-1.452,1.254-2.244,1.716
		c-0.66,0.132-1.121,0.66-1.65,1.056c-0.858,0.198-1.65,0.528-2.179,1.254c-2.046,0.396-3.828,1.584-6.006,1.254
		c-0.858,0.66-2.112,0.461-3.169,0.529c-0.725-0.66-1.716-0.132-2.376,0.198c-1.121,0.461-2.179-0.132-3.234-0.198
		c-0.594-0.066-1.056,0.132-1.518,0.396c-1.848-0.264-3.696-0.858-5.61-0.461c-0.396-0.066-0.726-0.396-1.122-0.461
		c-0.528,0-0.99,0.198-1.386,0.461c-0.792,0.792-2.111,0.396-3.102,0.461c-0.66,0-1.188-0.66-1.848-0.264
		c-1.121,0.594-1.914,1.914-3.365,1.584c-0.66,0.33-1.32-0.264-1.98,0.066c-1.122,0.925-2.31,1.716-3.498,2.31
		c-1.782,0.461-3.234,1.65-4.817,2.508c-0.792,0.858-1.452,1.782-2.376,2.574c-1.188,0.529-2.31,1.584-2.706,2.904
		c-1.452,1.98-2.046,4.421-3.828,6.27c-0.132,0.792-0.198,1.518-0.529,2.179c-0.066,0.792-0.858,1.32-0.66,2.179
		c0.198,1.254-0.461,2.31-0.396,3.498c0.53,1.516-0.13,3.034-0.196,4.551c0.99,1.121,0.461,2.574,0.594,3.96
		c0.99,1.056,0.792,2.574,1.254,3.828c0.396,0.529,1.254,0.792,1.254,1.584c0.396,0.858,0.198,1.98,1.056,2.574
		c1.519,0.594,1.32,2.97,3.169,3.432c0.726,0.726,1.254,1.848,2.244,2.244c0.66,0.792,1.452,1.716,2.508,1.782
		c0.594,0.858,1.584,1.121,2.508,1.32c1.254,0.594,2.904,0.396,4.29,0.264c0.66,0.132,1.254,0.66,1.98,0.528
		c0.858,0.461,1.188,1.716,2.31,1.584c0.792,0.858,1.782,1.121,2.838,1.386c0.66,0.726,1.65,0.792,2.376,1.519
		c0.858-0.066,1.65,0.33,2.64,0.198c0.396,0.066,0.99,0.066,1.056,0.594c-0.132,0.198-0.396,0.198-0.529,0.33
		c-0.461,0.396-1.121,0.594-1.254,1.188c0.066,0.99-0.066,1.914,0.264,2.838c0.198,0.131,0.461-0.066,0.529-0.264
		c0.33-0.792,0.528-1.65,0.858-2.442c0.99-0.66,2.046-1.254,3.102-1.915c0.264-0.131,0.66-0.066,0.99-0.198
		c0.264-0.264,0.594-0.594,0.594-0.99c-0.066-0.594-0.66-1.121-1.122-1.518c-1.914-1.716-3.168-3.829-4.817-5.676
		c-0.33-0.264-0.594-0.66-0.99-0.594c-0.198,0.131-0.264,0.33-0.264,0.528c0.529,2.838,2.442,5.082,4.29,7.326
		c0.066,0.132,0.066,0.264,0.066,0.33c-0.131,0.198-0.264,0.33-0.396,0.264c-1.386-1.056-3.3-0.99-4.686-2.046
		c-1.056-0.131-1.782-1.188-2.904-1.32c-0.858-0.461-1.518-1.188-1.584-2.244c0-0.924-0.99-1.518-1.254-2.442
		c-0.132-1.056-0.792-1.848-0.726-3.036c-0.066-0.594,0.529-0.66,0.792-1.188c0.132-0.33,0.264-0.792-0.132-1.056
		c-1.121-0.396-2.442-0.132-3.3,0.528c-0.198,0.858,0.925,0.264,1.188,0.66c-0.066,1.121,0,2.046,0.132,3.102
		c0.131,0.858,0.792,1.848,0.198,2.706c-0.461,0.264-0.925-0.131-1.386-0.33c-1.056-0.528-2.179,0.198-3.3-0.066
		c-2.442-0.726-4.422-2.244-6.204-4.29c-1.056-1.188-2.574-1.914-3.102-3.432c-0.396-0.594-1.122-1.056-1.452-1.65
		c-0.198-1.188-0.396-2.31-1.32-3.168c-0.66-0.529-0.594-1.452-0.792-2.179c-0.198-1.121-1.121-2.111-0.66-3.3
		c0.198-0.858-0.461-1.386-0.529-2.111c-0.33-1.188,0.33-2.111,0.33-3.234c0.066-0.925-0.264-1.518-0.198-2.442
		c0.792-0.66,0.594-1.914,0.594-2.838c0.529-1.188,1.386-2.244,1.254-3.762c0.858-1.254,1.98-2.442,2.904-3.761
		c-0.066-1.188,1.056-1.914,1.519-2.904c1.188-1.188,2.442-2.244,3.696-3.3c1.519-1.716,3.63-2.046,5.478-2.97
		c0.858-0.132,1.452-0.858,2.31-0.858c1.65-0.066,3.036-0.594,4.29-1.519c0.594-0.396,1.32-0.066,1.98,0
		c1.98,0.396,3.3-1.716,5.214-0.594c0.594,0.528,1.452,0.396,2.244,0.33c0.725-0.264,1.32,0.264,1.98,0.264
		c0.726-0.396,1.716-0.066,2.508,0c0.858,0,1.716-0.396,2.574-0.132c0.858-0.066,1.782-0.198,2.508,0.132
		c0.594,0.132,1.121-0.396,1.65,0c1.452,0.33,2.31-1.188,3.761-0.594c1.188,0,1.98-1.056,3.169-0.858
		c1.782-0.33,3.036-1.848,4.686-2.574c0.594-0.33,1.32-0.461,1.782-1.056c1.254-0.792,2.31-2.179,3.829-2.574
		c0.594-0.198,1.056-1.056,1.782-0.792c0.925,0.396,1.056-0.66,1.716-1.056c1.518-0.66,3.036-1.122,4.488-1.98
		c0.66-0.594,1.519,0.066,2.31-0.264c0.99,0.264,2.111,0.066,3.168,0.066c0.858,0.528,1.848,0.066,2.772,0.264
		c0.99,0.529,2.046,0.925,3.234,1.056c1.386,0.66,2.31,2.376,4.092,2.046c0.528,0.264,0.924,0.858,1.386,1.32
		c0.529,0.925,1.584,0.594,2.244,1.32c0.529,0.924,1.32,1.716,2.31,2.046c1.584,0.594,1.32,2.904,3.168,3.234
		c0.925,0.396,0.792,1.518,1.188,2.31c0.461,0.529,1.121,0.925,1.188,1.65c0.33,0.858,0.264,1.848,0.858,2.64
		c0.858,0.198,0.99,1.188,1.584,1.782c0.396,0.858,0.594,1.98,1.65,2.31c1.188,0.99,0.66,2.771,1.65,3.894
		c1.254,0.33,1.65,1.584,1.848,2.706c0.198,0.792,0.461,1.584,1.188,2.046c0.725,1.188,0.792,2.574,1.121,3.96
		c0.066,0.066,0.066,0.198,0.198,0.264c1.65,0.925,1.519,3.036,1.65,4.686c1.254,1.254,0.66,3.168,0.66,4.751
		c1.056,1.188,0.461,2.904,0.461,4.356c0.792,1.716,0.066,3.564-0.33,5.147c-0.198,0.99,0,1.98-0.594,2.772
		c-0.066,0.924-0.925,1.518-0.858,2.508c-1.254,1.121-0.925,3.036-2.376,3.96c-0.33,0.529-0.396,1.122-0.858,1.584
		c-0.529,0.726-1.848,0.33-1.848,1.452c-0.396,1.254-1.65,1.848-2.706,2.244c-0.99,0.33-2.31,0-3.036,0.99
		c-0.99,0.132-1.848,0.594-2.838,0.396c-0.925-0.132-2.179,0.264-2.97-0.461c-0.99-0.132-1.98-0.528-2.64-1.386
		c-0.529-0.594-1.386-0.33-2.111-0.461c-0.594-0.33-0.66-0.99-0.858-1.518c-1.122-1.121-2.442-2.31-2.046-4.092
		c0.132-1.254-1.254-1.914-1.32-3.036c0.132-0.925,0.066-1.98,0.529-2.772c-0.066,0-0.132-0.066-0.198-0.131
		c0.198-1.122-0.198-2.31,0.066-3.498c0.264-0.66,0.66-1.32,0.66-2.046c-0.33-2.904,1.188-5.082,2.838-7.26
		c0.264-0.99,0.792-2.111,1.254-2.904c-1.32,1.188-1.519,2.904-2.64,4.157c-1.32,1.848-2.376,3.894-2.244,6.336
		c-0.461,1.32-1.056,2.574-0.925,4.092c0.529,1.65-0.792,2.97-0.396,4.751c-0.066,0.792,0.792,1.254,0.925,2.046
		c-0.066,0.858,0.131,1.716-0.264,2.442c-1.782,0.131-3.761,0.33-5.478,0.461c-0.99,0.461-2.111,0.396-3.102,0.726
		c-0.066,0-0.198,0-0.198-0.132c-0.264-1.254-0.726-2.442-1.254-3.564c-0.529-0.594-1.188-0.99-1.518-1.65
		c-0.066-1.056,0.792-1.782,0.858-2.771c0.198-0.66,1.056-0.594,1.386-1.254c0.198-0.461,0-1.056-0.066-1.518
		c-0.198-0.858,0.858-1.254,1.056-1.98c0.461-0.99-0.66-1.65-1.254-2.376c-0.264-0.066-0.725-0.132-0.925,0.198
		c-0.198,0.792-0.066,1.716,0,2.574c0,0.66-0.264,1.188-0.33,1.848c-0.925,1.254-1.122,2.706-2.046,3.894
		c-0.925,1.32-1.98-0.264-3.036-0.198c-0.925-0.396-1.914-0.264-2.838-0.461c-1.254-0.396-2.31,0.594-3.564,0.264
		c-0.792,0-1.716,0.594-2.442-0.066c-0.99-0.066-2.046-0.066-2.904-0.529c-0.99-0.594-1.452-1.65-2.31-2.31
		c-0.198-0.66-0.264-1.32-0.725-1.848c-0.132-0.858,0.132-1.584-0.066-2.508c0.461-1.056,1.188-2.179,2.376-2.574
		c0.264-0.132,0.33-0.461,0.33-0.792c-0.132-0.198-0.33-0.461-0.594-0.461c-0.594,0.33-1.188,0.66-1.782,0.99
		c-0.594,0.66-0.792,1.452-1.452,1.98c-0.198,0.66-0.396,1.32-0.66,1.98c-0.264,1.056,0.264,1.914,0.33,2.904
		c0.529,0.594,0.594,1.32,0.858,1.98c0.264,0.264,0.594,0.396,0.792,0.66c0.33,0.858,1.254,1.121,1.848,1.782
		c0.594,0.264,1.188,0.396,1.782,0.594c0.461,0.132,0.99-0.066,1.518,0c0.792,0.198,1.519,0.461,2.376,0.198
		c0.725-0.396,1.452,0.264,2.244,0c0.925-0.33,1.914-0.529,2.97-0.461c0.529,0.528,1.254,0.594,2.046,0.594
		c0.529,0.264,0.99,0.594,1.519,0.726c0.66,0.858,1.782,0.925,2.244,1.98c0.131,0.99,1.056,1.782,0.594,2.838
		c0,1.386-0.925,2.376-1.716,3.432c-1.386,0.924-2.838,1.98-4.554,2.31c-0.594,0.66-1.386,1.122-2.111,1.452
		c-0.594,1.32-1.848,2.179-2.64,3.3c-0.726,0.33-1.716,0.725-2.442,0.264c-1.386-0.066-2.706-0.264-3.96-0.66
		c-0.726-0.396-0.925-1.188-1.32-1.782c-0.132-0.529-0.396-1.188-0.925-1.386c-0.461,0.594-0.132,1.518-0.198,2.244
		c0.066,0.33,0.329,0.594,0.396,0.99c0.594,0.198,0.858,0.925,1.32,1.188c0.792-0.066,1.254,0.529,1.914,0.594
		c0.726-0.132,1.519,0.198,2.244,0c0.461,0.33,1.32,0.725,1.122,1.452c-0.461,0.726-0.33,1.65-1.188,2.112
		c-0.198,0.594-0.198,1.188-0.461,1.65c-0.264,1.056,0.264,2.112-0.33,2.97c-0.66,0.198-1.32-0.198-2.111-0.066
		c-0.461-0.198-0.792-0.66-1.121-1.056c-0.529-0.132-1.32-0.396-1.386-1.121c-0.33-0.461-0.792-0.858-0.858-1.452
		c-0.66-0.264-1.254-0.925-2.046-0.594c-0.461-0.198-0.924-0.264-1.386-0.396c-0.33-0.461-0.858-0.66-1.254-1.122
		c-0.594-0.396-1.32,0-1.98-0.066c-0.594-0.198-0.198-0.925-0.396-1.386c-0.594-0.66-0.66-1.519-0.858-2.376
		c-0.396-0.529-1.188-0.396-1.716-0.792c-0.858-0.594-1.452-1.782-2.706-1.254c-0.726,0.726-1.848,0.461-2.706,0.726
		c-0.529-0.396-0.99-0.925-0.925-1.65c0.264-0.858,0.792-1.65,0.792-2.706c-0.066-0.131-0.264-0.198-0.461-0.131
		c-0.461,0.725-0.792,1.584-1.254,2.31c-0.461,0.33-0.925,0-1.386,0.066c-0.594,0.264-1.386,0.198-1.98,0.396
		c-0.461,0.264-0.726,0.792-0.99,1.188c-0.264,0.397-0.858,0.33-0.925,0.858c-0.792,0.594-0.792,1.848-1.914,2.046
		c-1.518,0.33-1.584,2.111-2.111,3.234c0.066,1.32-0.529,2.838,0.396,3.894c0.396,0.792-0.66,1.121-1.056,1.65
		c-0.528,1.584-0.33,3.63,0,5.28c0.924,1.056,1.914,1.782,3.036,2.574c0.396,0.264,0.924,0.264,1.32,0.594
		c0.198,0.66-0.198,1.32-0.528,1.914c-0.33,1.519-0.726,2.97-0.461,4.62c0,0.198-0.264,0.396-0.461,0.33
		c-1.32-0.792-2.706-1.386-4.158-1.716c-1.121-0.198-1.716,1.056-2.574,1.519c-0.99,0.198-2.111,0.132-3.036,0.529
		c-0.925,0.99-1.65,2.179-2.772,2.904c-1.584,0.594-2.046,2.442-3.432,3.366c-0.594,1.452-1.188,2.772-2.111,4.026
		c-0.66,0.529-0.792,1.32-1.121,1.98c-0.396,1.386-0.99,2.64-1.386,4.026c-0.66,0.925-0.529,2.244-0.99,3.3
		c-0.529,0.925-0.529,2.046-1.056,2.97c-0.066,1.121-0.132,2.376-0.33,3.498c-0.264,0.99-0.528,1.914-0.461,3.036
		c0.198,1.782-0.264,3.63-0.725,5.346c0.264,1.254,0.33,2.508,0.33,3.894c0.264,0.529,0.925,1.056,0.66,1.782
		c0.925,0.858,2.111,1.32,3.169,1.914c1.188,0.066,2.31,0.198,3.365,0.33c3.894,0.33,7.655-0.461,11.286-0.925
		c0.396-0.066,0.792-0.066,1.188,0c2.706,0.529,5.346,1.386,8.184,1.65c3.894,0.529,7.92-0.131,11.747-0.264
		c6.204-1.188,12.54-1.32,18.612-2.838c0.529-0.33,0.925-0.99,1.386-1.386c0.792-0.131,1.519,0.396,2.442,0.33
		c0.66,0.066,1.386,0.066,1.914,0.396c2.244,0.131,4.422,0.461,6.6,0.66c3.432,0.198,6.797-0.066,10.23-0.066
		c1.782-0.33,3.498-0.66,5.147-1.122c0-0.066,0-0.066,0-0.132c0-0.066,0.132,0,0.198,0c-0.132-0.264,0.198-0.131,0.198-0.33
		c-0.066-0.066,0.066-0.066,0.198-0.066c-0.132-0.33,0.264-0.066,0.198-0.33c0.066-0.396,0.726-0.529,0.529-1.056
		c0.264,0,0.066-0.396,0.132-0.594c0.33,0.131,0.131-0.198,0.198-0.264c-0.066,0-0.131,0-0.198-0.066v-1.188
		c-1.716-1.584-3.366-3.762-5.61-4.356c-4.62-1.188-8.646,1.122-13.2,1.188c-0.925,0-2.046,0.198-2.838-0.264
		c-0.33-0.33,0-0.792-0.066-1.188c-0.132-0.529-0.198-1.056-0.396-1.519c-0.066-0.99-0.792-1.98-0.198-2.97
		c-0.396-1.056,0.132-2.179,0.264-3.234c-0.725-0.792,0.264-1.782-0.264-2.64c-0.198-0.725,0.066-1.519-0.264-2.179
		c-0.066-0.792,0.198-1.519-0.264-2.112c-0.461-1.32,0.198-2.838-0.594-4.026c-0.264-0.725-0.131-1.65-0.33-2.442
		c-0.529-1.254-0.461-2.706-0.594-4.026c-0.594-1.122-0.529-2.442-1.122-3.498c-0.725-1.056-0.396-2.574-1.32-3.564
		c-0.396-0.858,0-2.046-0.529-2.904c-1.056-1.056-0.858-2.706-1.188-4.092c0.264-0.99-0.198-1.98-0.396-2.97
		c-0.925-0.99-1.056-2.31-1.452-3.498c-0.066-1.32-0.066-2.574-0.066-3.829c-0.132-0.66,0.264-1.452-0.33-1.914
		c-0.264-0.396,0.066-0.792,0.264-1.122c0.725-0.33,1.188-1.056,1.386-1.782c0.529-0.99,1.519-1.716,2.179-2.508
		c0.529-0.924,1.716-0.528,2.112-1.584c0.594-0.725,1.716-0.132,2.31-0.925c0.925-0.264,1.716-0.99,2.64-1.386
		c0.925-1.452,2.442-2.706,2.772-4.422c0.131-0.33,0.461-0.461,0.792-0.461c0.925-0.33,1.716,0.066,2.64,0.066
		c1.452-0.396,2.97-0.396,4.488-0.264c0.725-0.066,1.32-0.33,2.111-0.33c1.848-0.461,1.122,1.848,2.244,2.574
		c0.66,0.529,1.65,0.396,2.442,0.792c0.66,0.792,1.519,1.518,2.706,1.452c1.056,0.529,2.31,0.66,3.564,0.925
		c0.858,0.33,1.715-0.198,2.574-0.264c0.924,0.33,1.584-0.264,2.31-0.66c0.726-0.461,1.65-0.131,2.31-0.726
		c1.452,0,2.31-1.386,3.234-2.442c1.254-0.858,2.111-2.046,3.036-3.234c0.264-0.461,0.33-0.99,0.792-1.386
		c1.254-1.452,1.188-3.366,2.31-4.884c0-1.32,0.725-2.376,0.858-3.761c0.529-0.792,0.264-1.98,0.594-2.904
		c0.066-0.858,0.529-1.782,0.264-2.574C159.853,53.558,159.853,53.625,159.919,53.691z M74.648,127.148
		c-0.396,1.188-0.858,2.376-1.452,3.498c-0.131,0.198-0.329,0.131-0.528,0.131c-0.264-0.131-0.264-0.528-0.198-0.725
		c0.33-0.33,0.792-0.461,0.99-0.925c0.264-0.858-0.066-2.111,0.99-2.442C74.78,126.554,74.715,127.015,74.648,127.148z
		 M78.212,118.238c-0.131,0.858-0.858,1.452-0.858,2.376c-0.264,0.264-0.264,0.66-0.594,0.858c-0.264,0-0.33-0.264-0.396-0.461
		c0-0.594,0.264-1.122,0.66-1.519c-0.131-0.792-0.131-1.65-0.131-2.442c-0.198-0.858,0.858-1.254,0.594-2.112
		c-0.461-0.725,0.396-1.65-0.131-2.442c-0.264-0.396-0.33-0.99-0.198-1.519c0-0.066,0.066,0,0.132-0.066
		c0.726,0.726,2.111,0.594,2.376,1.848c0.131,0.198,0.396,0.264,0.66,0.396c0.396,0,0.66,0.461,0.99,0.396
		C80.522,115.202,79.928,117.116,78.212,118.238z"/>
	<path d="M99.2,10.263c0.198,0.198,0.461,0.528,0.198,0.725c-0.66,0.198-1.254-0.132-1.848-0.461
		c-1.056-0.396-2.244-1.716-3.365-0.66c-0.264,0.264-0.264,0.594-0.529,0.858c0.198-0.858,0.726-2.046,1.848-2.244
		C96.956,8.548,98.078,9.472,99.2,10.263z"/>
	<path d="M108.901,23.794c0.66,0.396,1.452,0.66,2.31,0.594c0.792,0.594,1.98,0.594,2.904,0.99c0.66-0.066,1.584-0.396,2.244,0
		c0.725,0.858,2.706,0.132,2.375,1.782c-0.264,0.529-0.792,0.461-1.32,0.529c-0.792,0.066-1.452-0.792-2.31-0.461
		c-1.254,0.858-2.31-0.396-3.564-0.396c-0.925-0.594-2.179-0.396-3.102-1.121c-0.792-0.594-2.179-0.396-2.31-1.65
		c0-0.33,0.264-0.66,0.594-0.792C107.515,23.199,108.109,23.794,108.901,23.794z"/>
	<path d="M100.783,25.113c0,0.461,0,0.792-0.264,1.121c-0.396,0.529-1.056,0.461-1.519,0.594c-1.122,0.726-2.64,0.594-3.894,0.925
		c-1.65,0-3.169-0.264-4.818-0.396c-0.396-0.132-0.66-0.33-0.792-0.726c0-0.329,0.066-0.594,0.264-0.925
		c1.452-0.396,3.102,0,4.554-0.131c0.925-0.33,1.98-0.264,2.97-0.529C98.408,24.783,99.992,23.662,100.783,25.113z"/>
	<path d="M82.502,35.343c0.594,0.066,1.32-0.066,1.716,0.396c0.66,0.726,0.725,1.716,1.452,2.442
		c0.066,0.594-0.594,0.925-0.726,1.452c-0.132,0.792-0.198,1.584-0.858,2.111c-1.121,0.264-1.32,1.584-2.508,1.716
		c-0.925,0-1.782,0.066-2.442,0.594c-0.726,0.132-1.65-0.132-2.31,0.264c-1.32,0.066-2.376-0.594-3.63-0.925
		c-0.594-0.66-1.782,0.131-2.179-0.99c0.066-0.925-1.188-1.452-0.66-2.508c0.264-0.529,0.264-1.188,0.529-1.782
		c0.924-0.264,1.188-1.254,1.716-1.848c0.99,0,1.518-0.858,2.244-1.452c0.925-0.461,1.716,0.396,2.574,0.33
		c0.66-0.529,1.452-1.122,2.31-0.66C80.72,34.618,81.446,35.475,82.502,35.343z"/>
	<path fill="#FFFFFF" d="M80.192,35.871c0,0.264-0.264,0.264-0.461,0.198c-0.066-0.066-0.264-0.132-0.33-0.33
		C79.532,35.409,80.126,35.541,80.192,35.871z"/>
	<path d="M151.404,37.06c0.33,1.32-0.396,2.904,0.396,4.026c0.198,0.198,0.528,0.198,0.792,0.264
		c0.461,0.66,1.056,1.254,1.056,2.046c0,1.386,0.132,2.838,0.132,4.157c0.99,1.121,0.198,2.706,0.792,4.026
		c0.066,0.529,0.198,1.056,0.264,1.519c-0.858,1.452-0.792,3.432-0.726,4.95c-0.066,0.461-0.461,0.726-0.594,1.056
		c-0.529,0.925,0.131,1.914-0.132,2.772c-1.122,0.725-1.715,1.848-1.848,2.97c0.461,0.99-0.594,1.452-0.99,2.111
		c-0.131,1.32-1.715,1.32-2.111,2.442c-0.726,0.99-1.914,1.121-2.838,1.782c-0.925,0-1.518,0.792-2.508,0.66
		c-0.99-0.264-2.046-0.198-2.97-0.396c-1.386,0.594-2.046-0.99-3.365-0.66c-0.858,0-1.188-0.858-1.452-1.452
		c-0.396-0.529-1.056-0.925-0.858-1.716c0.066-0.925-0.396-1.65-0.99-2.178c-0.264-0.529,0.132-0.99,0.132-1.519
		c0-0.66,0-1.386-0.461-1.848c0.198-0.726,0.396-1.65,0.066-2.376c-1.188-0.725,0.198-1.584,0.264-2.442
		c0.198-0.726,0.66-1.584,0.132-2.31c0.594-1.32,1.584-2.574,2.442-3.761c0.594-1.254,1.65-2.442,1.32-3.961
		c0.858-1.584,1.188-3.432,2.442-4.95c0.594-0.726,1.584-1.056,2.31-1.716c1.386-0.925,2.508-2.574,4.092-3.168
		c0,0.066,0.066,0.066,0.132,0.066c-0.461,1.518-1.848,2.574-2.838,3.894c-0.461,0.396-0.99,0.925-1.32,1.519
		c-0.264,1.518-1.386,2.706-1.716,4.157c0,0.066,0.066,0.132,0.131,0.198c0.132,0.066,0.198-0.066,0.33-0.132
		c0.858-1.056,1.98-1.98,2.375-3.234c0.66-0.99,0.99-2.772,2.442-2.904c0.792-0.925,1.518-1.98,2.442-2.706
		c0.33-0.066,0.594,0.198,0.726,0.461c-0.066,1.32-0.396,2.64-1.386,3.63c-0.33,0.396-0.594,0.924-0.396,1.32
		c0.594,0,0.925-0.725,1.452-0.99c0.33-0.132,0.858-0.066,1.056-0.594c0.198-0.594-0.925-0.792-0.33-1.518
		c0.396-0.792,1.056-1.452,0.792-2.574c0.132-0.594-0.725-1.584,0.198-1.848C150.744,36.267,151.14,36.664,151.404,37.06z"/>
	<path fill="#FFFFFF" d="M76.166,36.927c0.066,0.131,0.066,0.329,0,0.461c-0.264,0.396-0.792,0.329-1.122,0.131
		c-0.198-0.066-0.198-0.33-0.066-0.528c0.131-0.132,0.264-0.264,0.461-0.33C75.705,36.664,75.968,36.729,76.166,36.927z"/>
	<path fill="#FFFFFF" d="M78.146,37.587c0,0.198-0.066,0.33-0.198,0.33c-0.264,0-0.329-0.198-0.198-0.396
		C77.882,37.389,78.146,37.455,78.146,37.587z"/>
	<path fill="#FFFFFF" d="M73.592,40.491c0.396,0,0.792,0,1.056,0.264c0.198,0.198,0.198,0.529,0.132,0.726
		c-0.264,0.396-0.725,0.131-0.99,0.131c-0.529-0.198-1.122-0.594-1.386-1.121c-0.132-0.396,0-0.99,0.396-1.254
		c0.132,0,0.198-0.066,0.33,0C73.329,39.567,72.932,40.359,73.592,40.491z"/>
	<path fill="#FFFFFF" d="M81.908,39.501c0.066,0.529-0.594,0.529-0.725,0.99c-0.594,0.66-1.056,1.716-2.111,1.452
		c-0.33,0-0.594-0.066-0.792-0.264c0.528-0.529,1.188-0.792,1.848-1.188c0.594-0.066,1.254-0.461,1.386-1.121
		C81.577,39.304,81.908,39.304,81.908,39.501z"/>
	<path fill="#FFFFFF" d="M149.293,43.395c-0.594,1.848-1.584,3.498-2.244,5.346c-1.056,0.528-1.254,1.716-1.914,2.508
		c-0.132,0.066-0.198,0.132-0.33,0.066c-0.198-0.33-0.066-0.726,0-1.056c0.33-0.99,0.792-1.848,1.056-2.904
		c0.792-1.452,1.518-3.102,2.904-4.224C148.963,43,149.358,43.131,149.293,43.395z"/>
	<path fill="#FFFFFF" d="M149.49,47.157c-0.396,0.726-0.66,1.452-1.188,1.98c-0.461-0.198,0.066-0.594-0.066-0.925
		c0.066-1.056,0.594-1.914,0.792-2.97c0.066-0.066,0.264-0.198,0.396-0.066C149.622,45.771,149.49,46.563,149.49,47.157z"/>
	<path fill="#FFFFFF" d="M142.033,50.589c-0.132,0.726-0.461,1.452-0.792,2.111c-0.264,0.396-0.726,1.056-1.254,0.925
		c-0.264-0.264,0-0.66,0-0.99c0.33-0.858,0.725-1.782,1.518-2.376C141.703,50.259,141.967,50.325,142.033,50.589z"/>
	<path fill="#FFFFFF" d="M144.607,55.209c-0.198,1.452-0.66,2.771-1.518,3.894c-0.264,0.132-0.33-0.132-0.33-0.264
		c0-1.254,0.858-2.179,1.254-3.365C144.145,55.341,144.343,54.945,144.607,55.209z"/>
	<path fill="#FFFFFF" d="M136.357,57.848c0,0.925,0.066,1.98-0.461,2.64c-0.529-0.198-0.198-0.925-0.264-1.386
		c-0.066-0.396-0.264-0.99,0.066-1.386C135.829,57.188,136.423,57.387,136.357,57.848z"/>
	<path fill="#FFFFFF" d="M139.261,58.113c0.066,0.461,0.066,1.056-0.264,1.254c-0.33,0.066-0.461-0.33-0.594-0.529
		c-0.132-0.264,0-0.594,0.066-0.792c0.132-0.132,0.264-0.264,0.396-0.33C139.063,57.717,139.261,57.915,139.261,58.113z"/>
	<path fill="#FFFFFF" d="M146.983,58.905c-0.066,1.056-0.461,2.046-1.32,2.706c-0.529-0.264-0.198-0.925-0.198-1.386
		c0.264-0.594,0.461-1.32,1.122-1.65C146.784,58.509,146.983,58.641,146.983,58.905z"/>
	<path fill="#FFFFFF" d="M141.901,61.742c-0.066,0.594-0.461,1.056-0.925,1.386c-0.528-0.264-0.594-0.99-0.66-1.584
		c0.132-0.33-0.066-0.792,0.264-0.99C141.109,60.884,141.637,61.214,141.901,61.742z"/>
	<path fill="#FFFFFF" d="M149.821,64.449c-0.66,1.452-2.179,2.179-3.102,3.432c-0.726,0.066-1.386,0.726-2.046,0.529
		c-0.264-0.132-0.132-0.529-0.066-0.726c0.858-1.056,2.179-1.386,3.102-2.376C148.5,65.241,149.029,64.053,149.821,64.449z"/>
	<path fill="#FFFFFF" d="M138.997,67.683c-0.066,0.198-0.132,0.396-0.33,0.461c-0.264,0.132-0.528-0.066-0.528-0.33
		c-0.066-0.198,0.131-0.396,0.33-0.461C138.667,67.353,138.997,67.353,138.997,67.683z"/>
	<path fill="#FFFFFF" d="M80.258,79.628c0.066,0.264-0.131,0.792,0.198,0.925c0.66-0.33,1.056,0.132,1.32,0.594
		c0,0.461,0.396,0.858,0.132,1.188c-0.264,0.198-0.66,0.066-0.925,0c-0.594-0.396-0.594-1.188-1.254-1.518
		c-0.461-0.198-1.056-0.198-1.32-0.66c0-0.725,0.858-0.66,1.32-0.99C79.995,79.101,80.192,79.43,80.258,79.628z"/>
	<path fill="#FFFFFF" d="M87.848,81.278c0.461,0.33,1.188,0.529,1.32,1.254c0.66,1.65-0.396,3.102-0.858,4.488
		c-0.132,0.66-0.066,1.452,0.461,1.914c0.726,0.529,1.715,0.066,2.508,0c0.924,0.264,1.65-0.925,2.376,0
		c0.264,0.33,0.529,0.792,0.925,0.792c0.858,0.066,1.65-0.792,2.442-0.198c0.726,0.461,1.386,1.056,2.244,1.121
		c0.66,0.594,1.386,1.452,2.442,1.188c1.188-0.198,1.782,0.99,2.904,1.056c0.594,0.858,1.584,1.584,2.244,2.508
		c0.33,0.925,0.264,2.046,0.396,3.036c0.99,1.056,0.792,2.574,0.99,3.829c1.254,0.925,0.725,2.574,0.99,3.894
		c0.264,0.264,0.594,0.594,0.461,1.056c-0.33,1.254-0.909,2.373-0.579,3.693c1.32,3.696,1.42,5.324,2.662,9.406
		c0.461,0.198,0.689,1.487,1.151,2.081c0.264,0.66-0.066,1.519,0.396,2.111c0,0.792-0.264,1.584,0.264,2.244
		c-0.33,1.056,0.461,1.914,0,2.904c0.461,0.925,0.132,2.046-0.066,2.97c0.33,1.056-0.132,2.046-0.264,2.97
		c-0.264,1.056-1.122,1.98-0.594,3.102c0.132,0.461,0.529,0.925,0.396,1.452c0,1.056-1.188,1.254-1.584,1.98
		c-0.66,0.529-1.386,0.792-1.979,1.32c-0.726,0.725-1.386,1.848-2.508,1.914c-1.518,0.198-3.102,0.198-4.62,0.396
		c-1.518-0.198-3.102-0.198-4.751-0.198c-1.518-0.33-2.904,0.66-4.488,0.66c-2.244,0.461-4.488,0.925-6.732,1.32
		c-1.584,0.461-3.27-0.247-4.789,0.282c-0.858-0.198-1.943,0.312-2.735,0.115c-0.594-0.461-1.518-0.529-1.914-1.188
		c0.132-1.386-1.65-1.121-1.914-2.244c0-0.925-0.528-1.584-0.725-2.442c0.264-1.254-0.396-2.244-0.396-3.432
		c0.198-0.925,0.132-1.848,0.726-2.574c0.198-0.66,0.264-1.386,0.33-2.112c0.792-2.442,1.65-4.751,2.244-7.26
		c0.594-1.32,1.519-2.574,1.65-4.092c0.529-1.386,2.046-2.31,2.111-3.828c0.198-0.132,0.264-0.396,0.529-0.33
		c0.528,0.131,0.924,0.792,1.452,1.056c0.792,0.529,1.65,0.925,2.706,0.99c0.198,0,0.33,0.461,0.594,0.33
		c0.461-0.528,0.725-1.188,0.725-1.914c-0.725-0.461-1.65-0.396-2.442-0.726c-0.725-0.33-1.716-0.396-2.179-1.188
		c0.198-1.32,1.782-1.98,2.112-3.169c0.594-0.66,1.254-1.254,1.98-1.782c0.726,0,1.254,0.66,1.914,0.792
		c0.925,0.396,1.98,0.461,3.036,0.529c0.33,0,0.066,0.529,0.461,0.33c0.066,0,0.066-0.131,0.066-0.198c0.198,0,0.396,0,0.594,0
		c0.066-0.198,0.131-0.461,0.066-0.726c-0.066,0-0.066-0.066-0.066-0.131c0.066,0,0.066,0,0.066-0.066
		c0-0.198-0.264-0.264-0.396-0.33c-1.32-0.33-2.508-0.858-3.696-1.32c-0.198-0.131-0.461-0.33-0.461-0.529
		c0-0.99,1.188-1.32,1.716-1.98c0.726-1.122,2.046-1.254,2.97-2.046c0.529-0.33,1.188-0.066,1.782-0.066
		c0.858-0.396,1.519,0.264,2.179,0.594c1.254,0.99,1.386,2.442,2.442,3.564c0.198,1.122,0.792,2.112,0.792,3.3
		c0.461,1.056-0.132,2.31,0.264,3.366c-0.264,1.121,0.33,2.111-0.198,3.169c-0.594,0.792-0.131,2.111-0.66,2.97
		c-0.461,1.848-1.452,3.432-2.31,5.082c-0.264,0.99-1.254,1.65-1.518,2.64c-0.529,0.33-0.529,1.056-0.396,1.584
		c0.198,0.264,0.66,0.33,0.925,0.131c0.461-0.396,1.056-0.725,1.452-1.254c0.858-0.066,1.518-0.792,2.442-0.529
		c0.66,0.066,1.386,0,1.98-0.264c0.792,0.33,1.782,0.264,2.64,0.198c0.725,0.396,1.584,0.396,2.442,0.264
		c0.792,0.131,1.584,0.396,2.31,0.66c0.33,0.198,0.264,0.792,0.726,0.792c0.529,0.066,0.99-0.132,1.188-0.529
		c0.132-0.198,0.066-0.529-0.066-0.726c-0.66-0.925-1.716-0.792-2.442-1.518c-0.858-0.264-1.848-0.264-2.772-0.396
		c-1.122-0.528-2.508-0.066-3.63-0.264c-1.056,0.33-2.31,0.264-3.365,0.396c-0.594-0.792,0.99-1.188,0.66-2.111
		c0.066-0.792,0.329-1.584,0.858-2.179c-0.066-0.858,0.33-1.584,0.66-2.376c-0.198-1.188-0.198-2.508,0.461-3.498
		c0.132-0.792-0.33-1.584-0.131-2.442c-0.33-0.792-0.066-1.782,0.066-2.574c-0.33-0.792-0.594-1.98-0.264-2.97
		c0.461,0.066,0.792,0.461,1.254,0.529c0.66-0.198,1.254,0.396,1.914,0.132c0.594-0.66,1.584,0.198,1.98-0.66
		c-0.594-1.056-1.914-0.66-2.904-0.99c-0.792-0.461-1.584-0.924-2.442-1.121c-0.528-0.198-0.725-1.056-1.386-0.99
		c-0.858-0.925-1.254-2.244-2.442-2.706c-0.726-0.461-1.65-0.594-2.508-0.66c-0.858-0.461-2.178-0.726-3.102-0.132
		c-0.132,0.066-0.461,0.132-0.594-0.066c-0.529-0.529-0.726-1.32-1.519-1.65c-0.858-0.264-1.848,0.066-2.64-0.33
		c-1.452,0.066-2.442-0.858-3.564-1.518c-0.396-0.66-0.461-1.519-0.066-2.179c0.461-0.528,0.99-1.188,0.66-1.914
		c-0.33-0.594-0.925-0.198-1.452-0.264c-0.66,0.594-1.518,0.858-2.179,1.452c-0.594,0-1.056-0.529-1.584-0.792
		c-0.396-1.254-0.858-3.234,0.396-4.224c0.858-0.066,1.65-0.198,2.244-0.792c0.33-0.198,0.792-0.461,0.792-0.858
		c0.132-1.056-1.122-1.254-1.65-1.848c-0.594-0.396-1.584,0-1.848-0.858c-0.594-1.056,0.33-1.98,0.529-2.904
		c0.529-0.66,0.725-1.584,1.584-1.782c0.594,0.066,1.122-0.33,1.65,0c0.264,0.396,0.66,0.792,1.122,0.858
		c0.396,0.066,0.726-0.131,0.99-0.33c0.725-0.461,0.264-1.386,0.132-2.046c0-0.461-0.264-1.122,0.066-1.584
		c0.725-0.198,1.254-1.122,2.046-0.66C87.056,80.816,87.452,81.014,87.848,81.278z"/>
	<path fill="#FFFFFF" d="M77.882,81.872c0.198,0.264,0.726,0.198,0.792,0.594c-0.198,0.858-0.66,1.584-1.254,2.31
		c-0.461,1.188-0.264,2.64-1.056,3.696c-0.066,0.132-0.198,0.132-0.33,0.198c-0.99-0.33-2.64,0.066-2.838-1.386
		c0.066-1.056-0.066-2.375,0.461-3.3c-0.131-0.066,0-0.132,0.066-0.066c0.396-0.726,1.452-0.461,1.914-1.254
		c0.198-0.461,0.264-1.056,0.792-1.188C76.958,81.609,77.355,81.806,77.882,81.872z"/>
	<path fill="#FFFFFF" d="M92.864,86.228c0,0.198,0.198,0.396,0,0.594c-0.594,0.198-1.254,0.594-1.848,0.33
		c-0.33-0.198-0.33-0.594-0.33-0.925c0.396-0.594,1.188-0.264,1.782-0.33C92.599,86.03,92.798,86.096,92.864,86.228z"/>
	<path fill="#FFFFFF" d="M96.626,87.746c0.066,0.264-0.264,0.198-0.461,0.198c-0.131-0.066-0.528,0.066-0.396-0.198
		C95.966,87.549,96.362,87.549,96.626,87.746z"/>
	<path fill="#FFFFFF" d="M105.602,88.539c0.066,0.198,0,0.33-0.131,0.396c-0.198,0-0.33-0.198-0.264-0.33
		c0-0.132,0-0.33,0.132-0.396C105.536,88.274,105.602,88.406,105.602,88.539z"/>
	<path fill="#FFFFFF" d="M105.734,90.65c0.066,0.33,0.132,0.858-0.066,1.188c-0.264,0.198-0.725,0-0.99-0.131
		c-0.198-0.066-0.396-0.396-0.198-0.594C104.942,90.98,105.404,89.66,105.734,90.65z"/>
	<path fill="#FFFFFF" d="M77.156,91.706c0,1.848-1.782,3.3-1.056,5.214c-0.066,0.264-0.132,0.461-0.33,0.594
		c-1.188,0.33-1.716-0.99-2.64-1.254c-0.925-0.66-0.461-1.65-0.66-2.574c-0.132-0.396-0.264-0.99,0-1.386
		c0.66-0.858,1.848-0.461,2.574-1.121C75.836,91.178,76.628,91.112,77.156,91.706z"/>
	<path fill="#FFFFFF" d="M79.466,100.946c0.528,0.132,1.254-0.066,1.518,0.594c0.066,0.792,0.925,1.188,1.122,1.914
		c0.264,0.396,0.726,0.264,1.056,0.33c0.396,0.264,0.726,0.66,1.121,0.858c1.452,0.396,3.234,0.264,4.686-0.066
		c0.264,0,0.461,0.198,0.529,0.396c-0.132,1.122-1.386,1.848-2.31,2.112c-0.726,0.66-1.121,1.716-2.046,2.179
		c-0.594,0.925-0.99,1.98-1.98,2.706c-0.924,0.132-2.111,0.529-2.97-0.066c-0.461-0.66-1.121-1.188-1.716-1.584
		c-0.198-0.792-0.792-1.32-1.386-1.848c-0.132-0.925-1.452-1.32-1.254-2.376c-0.396-1.254-0.264-2.772,0.461-3.829
		c0.132-0.925,1.254-0.99,1.584-1.914C78.476,100.087,78.872,100.88,79.466,100.946z"/>
	<path fill="#FFFFFF" d="M72.14,106.688c0.66,0.66,1.584,1.121,1.782,2.046c0.594,0.396,1.386,0.726,1.519,1.584
		c0.528,0.858,0.461,2.046,0.726,2.97c-0.132,1.254,0.066,2.442-0.396,3.564c-0.131,1.32-0.33,2.772-0.792,4.026
		c0.066,0.99-0.461,1.716-0.792,2.574c-0.264,0.594-0.198,1.32-0.461,1.914c-0.792,0.792-0.99,1.782-1.386,2.706
		c-1.519,1.254-2.179,2.97-2.904,4.554c-0.066,0.33,0,0.66,0.198,0.858c0.264,0.264,0.726,0.264,1.056,0.131
		c0.66-0.396,0.594-1.386,1.452-1.518c0.396,0.066,0.925-0.198,1.188,0.131c-0.066,1.056-0.726,1.848-0.792,2.904
		c-0.528,0.792-0.198,1.98-0.33,2.904c-0.132,0.858-0.198,1.65-0.33,2.508c0.33,0.99,0.198,2.244,0.198,3.3
		c0.198,0.461,0.66,0.858,0.461,1.32c-1.056,0.529-2.442,0.461-3.564,0.66c-5.29,1.997-5.753,0.541-8.129,1.465
		c-1.386-0.066-1.631,0.529-3.016,0c-0.725-0.264-1.724,0.12-2.384-0.211c-0.726-0.66-1.452-1.254-2.179-1.848
		c-0.725-1.188-1.386-2.575-0.99-4.026c-0.198-1.518,0.066-3.102,0.264-4.554c0.132-1.254,0.925-2.508,0.461-3.894
		c0.066-1.386,0.594-2.508,0.66-3.829c0.132-2.575,1.914-4.488,2.178-6.996c0.264-0.66,0.529-1.386,0.858-2.111
		c0.33-0.66,0.594,0.33,0.99,0.198c1.584,0.132,3.036,0.461,4.554,0.792c0.792-0.198,0.99-1.254,1.848-1.188
		c0.131-0.198-0.198-0.264-0.33-0.396c-0.792-0.198-1.584-0.396-2.376-0.529c-1.254-0.066-2.706,0.066-3.96,0
		c-0.132-0.198,0.066-0.461,0.131-0.66c1.122-1.32,1.32-3.234,3.036-4.092c1.716,0.131,3.564-0.594,5.147,0.264
		c0.461-0.066,0.726-0.66,1.254-0.66c0.198-0.396-0.198-0.66-0.461-0.858c-1.32-0.461-2.904-0.198-4.356-0.33
		c-0.132,0-0.132-0.264,0-0.396c1.32-1.122,2.376-2.772,3.96-3.498c1.188-0.264,2.244-0.726,3.169-1.65
		c0.396-0.066,0.66-0.33,0.99-0.396C70.952,106.49,71.546,106.556,72.14,106.688z"/>
	<path fill="#FFFFFF" d="M134.971,140.742c0.594,0.66,1.254,1.254,1.584,2.046c-0.198,0.858-1.254,0.594-1.914,0.858
		c-1.188,0.726-2.64,0.99-4.158,0.925c-1.188,0.264-2.244,0.792-3.498,0.792c-1.518-0.33-3.169,0.066-4.686,0.264
		c-2.046,0.131-3.696-0.99-5.544-1.254c-0.264-0.132-0.529-0.198-0.66-0.461c-0.066-0.99,0.792-1.716,1.519-2.508
		c0.198-0.198,0.594-0.264,0.66-0.594c0-0.264-0.33-0.594,0.066-0.725c2.442-0.594,5.082-0.99,7.524-1.782
		c2.244-0.594,5.214-0.726,7.128,0.725C133.717,139.489,134.312,140.215,134.971,140.742z"/>
</g>
</svg>
