<?xml version="1.0" encoding="utf-8"?>
<!-- Generator: Adobe Illustrator 17.0.2, SVG Export Plug-In . SVG Version: 6.00 Build 0)  -->
<!DOCTYPE svg PUBLIC "-//W3C//DTD SVG 1.1//EN" "http://www.w3.org/Graphics/SVG/1.1/DTD/svg11.dtd">
<svg version="1.1" id="レイヤー_1" xmlns="http://www.w3.org/2000/svg" xmlns:xlink="http://www.w3.org/1999/xlink" x="0px"
	 y="0px" width="160px" height="150px" viewBox="-328.134 398 160 150" enable-background="new -328.134 398 160 150"
	 xml:space="preserve">
<g>
	<path d="M-195.823,479.056v-0.107c-0.514,0.044-0.897-0.374-1.31-0.536c-0.62-0.245-1.494-0.332-2.211-0.366
		c-0.006,0.175-0.71,0.352-0.945,0.472c-0.641,0.329-1.036,1.106-1.61,1.524c-0.111,0.081-0.757,0.406-0.751,0.451
		c-0.115,0.022-0.182,0.06-0.28,0.043c0.034-1.934,0.617-3.798-0.493-5.13c-0.465-0.557-1.255-0.463-1.975-0.73
		c-0.501-0.185-0.96-0.403-1.502-0.536l-0.944-0.086c-0.157-0.028-0.315-0.057-0.472-0.085c-0.472,0.07-0.771,0.371-1.094,0.58
		c-1.113,0.72-2.534,1.434-3.048,2.812c-0.57,1.526,0.911,2.702,1.116,3.862c-0.412,0.139-1.243,0.388-1.825,0.258
		c-0.551-0.123-0.908-0.158-1.502-0.258c-0.207-0.028-0.416-0.057-0.623-0.085c-0.506,0.072-1.178,0.225-1.674,0.365
		c-0.293,0.028-0.586,0.057-0.88,0.085c-0.036-0.01-0.038-0.097-0.129-0.064c-0.102,0.037-0.331,0.193-0.601,0.108
		c-0.397-0.127-0.96-0.342-1.395-0.451c-0.788-0.197-2.097,0.166-2.768,0.301c-0.311,0.062-2.42-0.102-2.598-0.237
		c-0.171-0.129-0.107-0.398-0.171-0.643c-0.057-0.22-0.177-0.438-0.064-0.665c0.637,0.063,1.312,0.182,1.674-0.257
		c-0.026-0.08-0.058-0.274-0.086-0.301c-0.35-0.395-0.8-1.013-1.375-1.159c-0.02-0.189,0.082-0.441,0.172-0.601
		c0.062,0.003,0.062,0.003,0.129-0.021c0.003-0.79,0.617-1.305,0.902-2.082c0.744-0.241,0.939-1.172,1.696-1.46
		c0.332-0.126,0.89-0.059,1.223-0.043c0.143-0.043,0.286-0.085,0.43-0.129h0.343c0.177-0.098,0.731-0.369,0.922-0.343
		c0.47,0.062,0.852,0.423,1.375,0.322c0.705-0.136,1.197-0.44,1.911-0.623c0.315,0.021,0.63,0.043,0.944,0.065
		c0.349,0.063,0.812-0.044,1.094-0.129c0.535-0.161,1.013-0.538,1.525-0.665c0.68-0.169,1.297,0.079,1.91-0.043
		c0.693-0.139,1.255-0.051,1.889-0.257c0.608-0.198,1.155-0.562,1.867-0.772c0.279-0.014,0.558-0.028,0.837-0.043
		c0.318,0.007,0.674-0.18,0.922-0.301c0.086-0.079,0.172-0.157,0.257-0.236c0.299-0.191,0.639-0.29,0.902-0.515
		c0.119-0.102,0.156-0.23,0.321-0.301c0.401-0.171,0.962-0.261,1.373-0.407l0.516-0.065c0.46-0.186,0.921-0.361,1.395-0.58
		c0.182-0.084,0.23-0.342,0.407-0.43c0.496-0.242,1.021-0.295,1.395-0.643c0.298-0.277,0.445-0.816,0.816-1.009
		c0.382-0.199,1.107-0.226,1.352-0.536c0.338-0.43,0.462-1.202,1.18-1.18c0.007-0.043,0.014-0.085,0.021-0.129
		c0.649-0.198,0.887-0.78,1.244-1.266c0.348-0.472,1.076-0.568,1.416-1.03c0.455-0.618,0.481-1.649,0.858-2.318
		c0.293-0.35,0.586-0.701,0.88-1.052c0.101-0.487,0.2-0.973,0.301-1.46c0.23-0.316,0.633-0.616,0.816-0.966
		c0.293-0.561-0.105-1.619-0.086-2.232c0.005-0.167,0.131-0.275,0.172-0.366c0.046-0.098,0.034-0.796,0.065-0.987
		c0.082-0.517-0.116-1.321-0.15-1.781c0.085-0.393,0.172-0.787,0.257-1.18c0.104-0.556-0.157-1.402-0.257-1.996
		c-0.137-0.801,0.042-1.759-0.172-2.575c-0.121-0.461-0.389-0.765-0.516-1.138c-0.007-0.086-0.014-0.172-0.021-0.257
		c-0.101-0.179-0.2-0.358-0.301-0.536c-0.098-0.386,0.147-0.706,0.086-1.052c-0.094-0.536-0.33-0.956-0.451-1.545
		c-0.093-0.461-0.595-0.784-0.601-1.202c1.102,0.056,2.162,0.439,3.198,0.665c0.635,0.139,1.271,0.109,1.846,0.214
		c0.329-0.05,0.658-0.101,0.987-0.15c0.656-0.093,1.831-0.199,2.683-0.043c1.578,0.29,3.747,0.68,5.322,0.129
		c0.529-0.2,1.059-0.4,1.589-0.601c0.459-0.383,0.625-1.103,1.159-1.416c0.511-0.3,1.392-0.271,1.867-0.6
		c0.402-0.279,0.695-0.72,1.094-0.987c0.208-0.139,0.566-0.274,0.837-0.322c0.101,0.007,0.201,0.014,0.301,0.021
		c0.768-0.217,1.649-0.458,2.103-1.03c0.528-0.662,0.896-2.426,0.516-3.434c-0.157-0.272-0.315-0.544-0.472-0.816
		c-0.188-0.526-0.331-0.931-0.58-1.373c-0.193-0.221-0.386-0.443-0.58-0.665c-0.616-0.95-1.381-2.33-1.675-3.541
		c-0.113-0.466-0.282-1.03-0.214-1.567c0.104-0.82,0.157-1.868-0.085-2.554c-0.182-0.512-0.618-0.94-0.902-1.352
		c-0.122-0.23-0.243-0.457-0.366-0.687c-0.271-0.293-0.543-0.586-0.816-0.88c-0.34-0.503-0.723-1.204-0.922-1.802
		c-0.802-2.408-1.295-5.925-3.241-7.147c-0.681-0.428-1.507-0.479-2.404-0.665c-0.608-0.126-1.104,0.115-1.653,0
		c-0.628-0.131-1.46-0.255-2.082-0.494c-0.977-0.375-1.957-0.858-3.091-1.073c-0.243-0.046-0.503,0.034-0.665,0.065
		c-0.122-0.014-0.243-0.029-0.366-0.043c-0.753,0.123-1.27,0.528-1.481,1.18c-0.296,0.911,1.234,2.387,1.416,3.241
		c0.258,1.207-0.254,2.998-0.472,4.314c-0.083,0.502,0.202,1.29,0.085,1.696c0.306,1.166,1.114,1.758,1.717,2.639
		c0.229,0.207,0.457,0.415,0.687,0.623c0.486,0.615,1.034,1.193,1.61,1.717c0.121,0.093,0.243,0.186,0.365,0.279
		c0.065-0.007,0.129-0.014,0.193-0.021c0.228,0.098,0.425,0.497,0.579,0.687c0.536,0.66,0.989,1.241,1.223,2.082
		c0.068,0.243,0.286,0.728,0.193,1.116c-0.169,0.698-0.639,1.021-0.794,1.739c-0.257,1.194,1.823,2.371,0.343,3.069
		c-0.841,0.398-2.072-0.202-2.768-0.472c-0.439-0.171-0.822-0.219-1.31-0.343c-0.416-0.106-0.802-0.437-1.352-0.15
		c-0.248,0.13-0.423,0.374-0.644,0.516c-0.179,0.079-0.358,0.157-0.536,0.236c-0.698,0.431-1.347,0.958-2.103,1.331
		c-0.248,0.123-1.127,0.518-1.46,0.407l0.065-0.021c-0.129-0.332-0.623-0.518-0.794-0.837c-0.122-0.315-0.243-0.63-0.366-0.945
		l-0.043-0.536c-0.198-0.498-0.811-0.757-1.052-1.202c-0.207-0.382-0.269-0.951-0.515-1.266c-0.289-0.371-1.421-0.957-1.545-1.224
		c-0.289-0.616-0.553-1.558-1.116-2.018c-0.498-0.405-1.304-0.707-1.631-1.266c-0.211-0.361-0.49-0.982-0.793-1.224
		c-0.086-0.021-0.172-0.043-0.257-0.064c-0.115-0.101-0.23-0.2-0.343-0.301l-0.021-0.021c-0.387-0.113-0.688-0.03-1.009-0.237
		c-0.424-0.27-0.532-1.025-0.987-1.352c-0.153-0.111-0.361-0.061-0.516-0.129c-0.315-0.229-0.63-0.457-0.944-0.687
		c-0.516-0.284-1.091-0.311-1.653-0.536c-0.459-0.184-1.111-0.792-1.588-1.073c-0.366-0.214-0.888-0.345-1.331-0.451
		c-0.179-0.029-0.358-0.057-0.536-0.086c-0.637-0.356-1.114-0.784-1.911-1.03c-0.746-0.231-1.5,0.215-2.339,0.064
		c-0.336-0.05-0.673-0.101-1.009-0.15c-0.286-0.107-0.572-0.214-0.858-0.321c-0.377-0.089-0.54,0.035-0.922-0.043
		c-0.215-0.639-0.589-1.177-1.052-1.589l0.065-0.623c-0.176-0.727-0.457-1.584,0-2.275c0.173-0.261,0.742-0.319,1.009-0.494
		c0.546-0.357,1.228-0.825,1.867-1.052c1.102-0.23,2.203-0.457,3.305-0.687c0.325-0.102,0.673-0.326,0.945-0.472
		c0.179-0.094,0.388-0.071,0.58-0.172c0.216-0.113,0.737-0.423,0.944-0.58c0.397-0.298,0.728-0.749,1.202-0.966h0.215
		c0.162-0.033,0.269-0.183,0.386-0.236c0.321-0.144,0.611-0.099,0.944-0.214c0.376-0.13,0.82-0.623,1.073-0.902
		c0.123-0.134,0.818-0.209,0.987-0.279c0.132-0.054,0.072-0.148,0.15-0.214c0.093-0.079,0.229-0.04,0.343-0.107
		c0.371-0.219,0.763-0.546,1.18-0.708c0.175-0.068,0.319-0.036,0.451-0.129c0.625-0.439,0.718-1.075,1.073-1.802
		c0.098-0.199,0.323-0.216,0.386-0.451c0.134-0.496-0.176-1.616-0.493-2.018c-0.313-0.397-0.852-0.535-1.266-0.837
		c-0.775-0.563-0.563-1.08-1.803-1.373c-0.991-0.234-1.789,0.218-2.748,0.043c-0.48-0.088-0.817-0.403-1.31-0.493
		c-0.725-0.139-1.685,0.057-2.509-0.028c-0.48-0.05-1.057-0.339-1.545-0.214c-0.472,0.086-0.945,0.172-1.416,0.257
		c-1.639,0.45-3.23,1.207-4.679,1.889c-0.636,0.299-1.287,0.561-1.91,0.773c-0.093,0.033-0.211,0.191-0.322,0.236
		c-0.257,0.079-0.516,0.157-0.773,0.236c-0.548,0.363-0.894,0.936-1.395,1.331c-0.384,0.303-0.759,0.625-1.138,0.922
		c-0.101,0.05-0.2,0.101-0.301,0.15c-0.075,0.081-0.077,0.173-0.172,0.236c-0.573,0.251-1.145,0.501-1.717,0.752
		c-0.461,0.295-0.728,0.709-1.116,1.03c-1.251,1.038-3.022,2.78-2.446,4.936c0.375,1.405,1.769,1.505,2.768,2.275
		c0.595,0.458,0.81,1.288,1.266,1.867c0.81,1.025,2.175,2.046,3.284,2.79c-0.013,0.355,0.154,0.549,0.108,0.858
		c-1.643,0.171-2.734,0.995-3.799,1.739c-0.796,0.557-1.605,1.013-2.553,1.416c-0.482-0.421-0.72-1.066-1.18-1.502
		c-0.387-0.367-1.239-0.526-1.781-0.708c-0.372,0.043-0.744,0.085-1.116,0.129c-0.181,0.02-0.393-0.104-0.601,0
		c-0.307,0.154-0.466,0.369-0.687,0.601c0.059,0.143,0.007,0.191-0.021,0.343c0.281,0.251,0.507,0.569,0.945,0.665
		c0.271,0.06,0.45-0.182,0.665-0.193c0.647-0.034,2.317,0.585,2.361,1.138l-0.043,0.021c-0.358,0.079-0.716,0.157-1.073,0.236
		c-0.409,0.085-0.821-0.082-1.095-0.085c-0.564-0.007-1.057,0.171-1.696,0c-0.516-0.138-0.998-0.378-1.567-0.515
		c-0.802-0.036-1.602-0.071-2.404-0.108c-0.755-0.175-1.296-0.615-1.975-0.816c-0.717-0.211-1.532,0.048-2.212-0.129
		c-0.615-0.161-1.071-0.585-1.653-0.73c-0.672-0.168-1.266,0.32-2.039,0.172c-0.589-0.114-1.016-0.485-1.653-0.515
		c-0.443,0.101-0.887,0.2-1.33,0.301c-0.545,0.106-1.072-0.252-1.674-0.129c-0.6,0.122-0.96,0.442-1.46,0.558
		c-0.393,0.043-0.787,0.085-1.18,0.129h-0.73c-0.509,0.119-0.869,0.475-1.352,0.623c-0.686,0.208-1.375,0.198-2.039,0.366
		c-0.477,0.12-0.833,0.649-1.116,0.987c-0.307,0.23-0.616,0.457-0.922,0.687c-0.534,0.296-1.252,0.359-1.781,0.687
		c-0.457,0.472-0.916,0.944-1.373,1.416c-0.407,0.257-0.816,0.515-1.224,0.773c-0.524,0.61-0.652,1.481-1.073,2.211
		c-0.332,0.576-0.966,0.84-1.352,1.352c-0.39,0.517-0.509,1.249-0.794,1.867c-0.177,0.385-0.497,0.611-0.73,0.922
		c-0.129,0.293-0.258,0.586-0.386,0.88c-0.108,0.515-0.214,1.03-0.322,1.545c-0.236,0.393-0.472,0.787-0.708,1.18
		c-0.206,0.6-0.196,1.332-0.407,1.953c-0.194,0.57-0.605,0.983-0.772,1.609c-0.184,0.685,0.029,1.443-0.129,2.189
		c-0.079,0.371-0.435,0.89-0.43,1.116c0.017,0.721,0.343,1.404,0.43,2.06c0.053,0.402-0.216,0.799-0.107,1.18
		c0.168,0.58,0.584,0.944,0.73,1.61c0.143,0.653-0.274,1.329-0.021,1.931c0.229,0.544,0.73,1.053,1.138,1.439
		c0.157,0.136,0.314,0.271,0.471,0.407c0.354,0.525,0.305,1.28,0.558,1.911c0.098,0.241,0.389,0.453,0.407,0.73
		c1.028,0.166,1.808,1.33,2.211,1.975c0.134,0.214,0.725,1.211,0.902,1.18c0.282,0.203,0.794,0.169,1.03,0.386
		c0.475,0.439,0.614,1.145,1.202,1.481c0.557,0.319,1.349-0.001,1.91,0.193c0.838,0.291,1.186,1.089,1.954,1.416
		c0.863,0.369,1.665,0.182,2.511,0.472c0.725,0.249,1.228,0.867,1.825,1.244c0.693,0.441,1.573,0.548,2.297,0.945l1.525,1.073
		c0.183,0.201,0.435,0.549,0.665,0.687c0.055,0.034,0.248,0.069,0.301,0.021c0.229,0.143,0.563,0.277,0.858,0.366l0.622,0.085
		c0.451,0.239,0.722,0.666,1.116,0.966c0.306,0.232,0.796,0.244,1.202,0.366c0.523,0.156,0.988,0.403,1.375,0.708
		c0.293,0.308,0.586,0.616,0.88,0.923c0.086,0.129,0.172,0.257,0.257,0.386c0.648,0.539,1.607,0.746,2.361,1.18
		c0.772,0.446,1.308,1.18,1.716,1.996c0.161,0.322,0.655,0.706,0.558,1.223c-0.101,0.539-0.291,0.902-0.43,1.395
		c-0.543,0.087-1.008-0.013-1.524-0.129c-0.336-0.075-0.842-0.052-1.03-0.086c-0.192,0.253-0.651,0.024-0.945,0.558
		c0.058,0.475,0.366,0.609,0.666,0.837c0.895,0.681,1.093,0.665,2.232,0.752c-0.034,0.341-0.571,1.367-0.922,1.567
		c-0.405-0.093-0.656-0.173-1.094-0.215c-0.441-0.042-1.01,0.125-1.46,0.043c-0.293-0.071-0.587-0.143-0.88-0.214h-0.622
		c-0.56-0.08-1.171-0.141-1.76-0.258c-0.793-0.156-1.612-0.524-2.383-0.773c-0.632-0.204-1.155,0.003-1.802-0.129
		c-0.543-0.111-1.03-0.419-1.524-0.536c-0.579-0.051-1.159-0.101-1.739-0.15c-0.406-0.095-0.725-0.392-1.052-0.58
		c-0.415-0.085-0.83-0.172-1.244-0.257c-0.044-0.043-0.021-0.008-0.043-0.085c0.651-0.461,1.3-0.961,1.931-1.439
		c0.456-0.343,0.871-0.495,1.159-1.009c0.166-0.297,0.302-0.626,0.322-1.052c-0.014-0.214-0.028-0.43-0.043-0.643
		c-0.243-0.75-0.637-1.443-0.901-2.147c-0.295-0.78-0.361-1.516-0.922-2.017c-0.495-0.442-1.147-0.552-1.996-0.536
		c-0.139,0.002-0.304-0.053-0.386-0.043c-0.325,0.041-0.701,0.29-1.051,0.236c-0.201-0.057-0.401-0.115-0.601-0.172
		c-0.505-0.126-1.932,0.065-2.147,0.343c-0.07,0.091-0.264,0.789-0.257,0.837c0.016,0.109,0.156,0.273,0.107,0.515
		c-0.03,0.153-0.084,0.435-0.043,0.58c-0.15,0.519-0.508,0.953-0.665,1.502c-0.13,0.01-0.157,0-0.279-0.021
		c-0.052-0.179-0.232-0.258-0.302-0.407v-0.214c-0.311-0.793-1.203-1.593-2.06-1.846c-0.548-0.161-1.287-0.13-1.866-0.301
		c-0.388-0.114-0.984-0.318-1.395-0.515c-0.044-0.021-0.244,0.028-0.366,0.021c-0.129-0.029-0.257-0.057-0.386-0.086
		c-0.327-0.019-1.311,0.44-1.545,0.601c-0.065,0.107-0.129,0.214-0.193,0.322c-0.193,0.223-0.457,0.358-0.622,0.623
		c-0.115,0.279-0.229,0.558-0.343,0.837c-0.135,0.21-0.393,0.332-0.494,0.58c-0.093,0.232-0.239,0.5-0.15,0.837
		c0.136,0.512,0.509,0.852,0.666,1.33c0.151,0.46,0.027,0.935,0.279,1.352c0.338,0.561,0.91,0.867,1.331,1.373
		c-0.11,0.669-2.256,2.01-2.855,2.404c-0.291,0.191-0.521,0.17-0.752,0.407c-0.382,0.394-1.055,1.704-0.901,2.404
		c0.117,0.541,0.609,0.911,0.816,1.395c0.23,0.537,0.322,1.405,0.601,1.846c0.451,0.715,1.268,0.961,1.953,1.395
		c0.085,0.071,0.172,0.143,0.257,0.214c0.467,0.186,1.687,0.162,2.253,0c0.211-0.061,0.77-0.518,0.922-0.407
		c-0.273,0.956-1.157,2.28-0.558,3.412c0.222,0.421,0.687,0.639,0.945,1.009c-0.014,0.035-0.028,0.071-0.043,0.107
		c0.101-0.035,0.069-0.066,0.15-0.021c0.501,0.161,1.018,0.529,1.503,0.687c0.298,0.098,0.511,0.039,0.837,0.129
		c0.135,0.057,0.271,0.116,0.407,0.172c0.117,0.011,0.087-0.09,0.215-0.043c0.493,0.182,0.972,0.545,1.502,0.73
		c0.392,0.137,1.592,0.3,1.889,0.108c0.544-0.351,1.09-0.981,1.417-1.546c0.356-0.613,0.493-1.428,1.137-1.738
		c0.361,0.113,0.665,0.059,1.052,0.171c0.48,0.14,1.125,0.422,1.545,0.601h0.021c0.174-0.107,0.443-0.048,0.643,0
		c0.598,0.141,1.204,0.436,1.867,0.536c0.186,0.021,0.372,0.043,0.558,0.064c0.106-0.024,0.324-0.157,0.536-0.086
		c0.319,0.107,0.752,0.424,1.052,0.516c0.411,0.125,0.669,0,0.88,0.257c-0.131,0.32-0.489,0.447-0.666,0.708
		c-0.54,0.796-1.389,1.307-2.06,1.975c-0.265,0.263-0.498,0.611-0.73,0.902c-0.333,0.417-0.832,0.683-1.159,1.116
		c-0.405,0.535-0.718,1.141-1.138,1.675c-0.338,0.43-0.939,0.677-1.244,1.116c-0.179,0.372-0.358,0.745-0.536,1.116
		c-0.641,0.934-1.429,1.542-1.889,2.725c-0.184,0.471-0.064,1.1-0.15,1.567c-0.167,0.898-0.951,1.624-0.687,2.725
		c0.161,0.672,0.511,1.502,0.666,2.189c0.143,0.637-0.006,1.13,0.193,1.632c0.241,0.607,0.806,1.163,1.03,1.761
		c0.18,0.478,0.113,0.933,0.321,1.352c0.175,0.348,0.562,0.601,0.794,0.901c0.369,0.478,0.726,1.13,0.902,1.717h-0.043
		c-0.336,0.086-0.673,0.172-1.009,0.257c-0.392,0.158-0.772,0.474-1.094,0.644c-0.05-0.014-0.101-0.029-0.15-0.043
		c-0.036-0.065-0.071-0.129-0.107-0.193c0.029,0.007,0.057,0.014,0.086,0.021c-0.044-0.103-0.005-0.067-0.107-0.064
		c0.029-0.071,0.027-0.043,0.021-0.129c-0.495-0.209-0.804-0.837-1.244-1.18c-1.14-0.888-2.656-1.533-3.842-2.297
		c-0.435-0.28-1.201-0.675-1.846-0.622c-0.457,0.038-1.177,0.016-1.696-0.021c-0.207-0.036-0.415-0.071-0.623-0.107
		c-0.357-0.153-0.748-0.152-1.159-0.258c-0.611-0.157-1.378-0.506-2.06-0.407c-1.02,0.145-1.936,0.498-2.833,0.837
		c-0.234,0.089-0.457,0.093-0.643,0.214c-0.263,0.17-0.435,0.434-0.665,0.622c-0.101,0.057-0.201,0.116-0.301,0.172
		c-0.059,0.08-0.071,0.285-0.172,0.387c-0.421,0.421-0.896,0.795-1.223,1.31c-0.316,0.496-0.47,1.434-0.666,1.953
		c-0.146,0.388-0.472,0.784-0.708,1.094v0.172c-0.176,0.433-0.442,0.91-0.579,1.374c-0.27,0.907-0.154,1.901-0.257,2.898
		c-0.058,0.566-0.4,1.436-0.237,2.253c0.152,0.76,0.371,1.352,0.666,1.996c0.07,0.151,0.087,0.446,0.15,0.579
		c0.216,0.46-0.067,1.154,0.021,1.653c0.085,0.484,0.289,0.936,0.451,1.375c0.09,0.248-0.145,0.663,0.021,1.051
		c0.277,0.646,0.975,1.103,1.416,1.61c0.331,0.379,0.497,1.011,0.816,1.331c0.043,0.136,0.085,0.271,0.129,0.407
		c0.257,0.516,0.373,1.372,0.772,1.825c0.435,0.493,1.075,0.842,1.439,1.395c0.093,0.186,0.186,0.372,0.279,0.558
		c0.143,0.15,0.286,0.301,0.43,0.451c0.116,0.161,0.117,0.307,0.193,0.516c0.111,0.303,0.457,0.616,0.687,0.816
		c0.524,0.454,1.371,0.68,1.825,1.203c0.221,0.407,0.443,0.816,0.666,1.224c0.236,0.149,0.471,0.301,0.708,0.451
		c0.284,0.194,0.526,0.661,0.793,0.88c0.945,0.774,1.955,1.098,3.091,1.653c0.65,0.317,1.279,0.819,1.975,1.095
		c0.361,0.143,0.701,0.141,1.116,0.129c0.2,0.071,0.4,0.143,0.6,0.214c0.101-0.007,0.2-0.014,0.302-0.021
		c0.46,0.053,0.985,0.211,1.459,0.301c0.932,0.175,1.691,0.455,2.704,0.236c0.295-0.063,0.73,0.179,0.945,0.258
		c0.536,0.198,1.343,0.324,1.953,0.193c0.125-0.025,0.134-0.143,0.215-0.193c0.315-0.101,0.63-0.201,0.944-0.302h0.386
		c0.085-0.071,0.172-0.143,0.257-0.214c0.315,0.014,0.63,0.028,0.945,0.043c0.723-0.215,1.344-0.609,2.017-0.902
		c0.349-0.152,0.907-0.166,1.309-0.407c0.164-0.098,0.237-0.355,0.343-0.516c0.088-0.132,0.253-0.17,0.365-0.278
		c0.115-0.172,0.23-0.343,0.343-0.516c0.155-0.216,0.535-0.271,0.665-0.493c0.191-0.329,0.2-0.769,0.279-1.052
		c0.101-0.166,0.201-0.329,0.301-0.493c0.28-0.794,0.284-1.878,0.108-2.597c-0.104-0.427,0.129-0.803,0-1.138
		c-0.086-0.223,0.152-1.158,0.107-1.567c-0.043-0.086-0.085-0.172-0.129-0.258c-0.198-0.642-0.298-1.228-0.15-1.781
		c0,0-0.171-0.56-0.171-0.623c-0.004-0.483-1.155-1.876-0.987-2.147c-0.176-0.087-0.187-0.326-0.279-0.493
		c-0.201-0.362-0.592-0.733-0.623-1.244c-0.016-0.282,0.159-0.528,0.214-0.752v-0.536c0.354-0.961,0.414-2.079,0.794-3.09
		c0.272-0.516,0.544-1.03,0.816-1.545c0.036-0.214,0.072-0.43,0.108-0.643c0.248-0.548,0.479-0.968,0.643-1.61h0.085
		c0.098,0.18,0.916,0.526,1.159,0.601c0.121,0.021,0.243,0.043,0.366,0.065c0.101,0.067,0.137,0.164,0.257,0.236
		c0.098,0.029,0.261-0.021,0.343-0.043c0.401,0.036,0.802,0.071,1.202,0.107c0.007,0.05,0.014,0.101,0.021,0.15
		c0.071,0.014,0.143,0.028,0.214,0.043c0.043-0.065,0.086-0.129,0.129-0.193c0.354,0.037,0.814,0.054,1.18,0.129
		c0.102,0.021,0.188,0.143,0.257,0.172c0.172-0.043,0.343-0.086,0.516-0.129c0.633,0.066,0.933,0.112,1.652,0.214
		c0.098,0.276,0.092,0.646,0.15,0.923c0.091,0.434,0.346,1.005,0.536,1.308v0.193c0.199,0.276,0.825,0.803,0.837,1.18
		c0.291-0.011,0.378,0.331,0.58,0.472c0.431,0.302,0.987,0.748,1.502,0.922c0.366,0.123,0.736-0.028,1.116,0.064
		c0.367,0.089,0.756,0.18,1.138,0.236c0.129,0.02,0.297,0.211,0.386,0.237c0.139,0.04,0.337-0.063,0.515-0.021
		c0.357,0.083,1.016,0.081,1.352,0.214v0.086c-0.34,0.318-0.588,0.817-0.88,1.18c-0.471,0.588-1.266,0.905-1.739,1.503
		c-0.514,0.652-0.861,1.461-1.352,2.125c-0.361,0.488-0.827,0.911-1.223,1.374c-0.129,0.122-0.257,0.243-0.387,0.366
		c-0.115,0.257-0.229,0.516-0.343,0.772c-0.19,0.336-0.569,0.634-0.708,1.03c-0.125,0.359-0.15,0.59-0.301,0.922
		c-0.13,0.287-0.366,0.561-0.494,0.88c-0.211,0.53-0.249,1.154-0.386,1.589c-0.429,1.362-0.261,4.139,0.665,5.108
		c0.259,0.271,0.727,0.556,1.03,0.794c0.108,0.129,0.214,0.257,0.322,0.386c0.271,0.157,0.543,0.316,0.816,0.472
		c0.86,0.318,1.653,0.455,2.533,0.643c0.237-0.021,0.472-0.043,0.709-0.064c0.107,0.05,0.214,0.101,0.322,0.149
		c0.251,0.037,0.64-0.172,0.922-0.129c0.079,0.051,0.157,0.101,0.237,0.149c0.505,0.174,1.375,0.078,1.995-0.064
		c0.447-0.102,1,0.026,1.46,0.064c0.766,0.064,1.352-0.112,1.975-0.343c0.686-0.254,0.83-0.917,1.308-1.288
		c0.535-0.412,0.999-0.398,1.589-0.665c0.193-0.107,0.386-0.214,0.58-0.322c0.121-0.007,0.243-0.014,0.365-0.021
		c0.302-0.138,0.486-0.417,0.838-0.493c0.093-0.48,0.78-0.7,1.03-1.094c0.028-0.101,0.057-0.2,0.085-0.301
		c0.079-0.043,0.157-0.086,0.236-0.129c0.271-0.301,0.544-0.601,0.816-0.901c0.243-0.108,0.487-0.215,0.73-0.322
		c0.198-0.113,0.431-0.341,0.623-0.493c0.021-0.065,0.043-0.129,0.064-0.193c0.127-0.2,0.411-0.357,0.536-0.579
		c0.064-0.15,0.129-0.301,0.193-0.451c0.284-0.354,0.816-0.483,1.094-0.837c0.212-0.267,0.516-0.885,0.644-1.202
		c0.153-0.377,0.139-0.805,0.386-1.138c0.339-0.457,0.934-0.631,1.288-1.073c0.196-0.246,0.4-0.678,0.493-0.987
		c0.065-0.216,0.009-0.375,0.107-0.58c0.216-0.45,0.463-0.92,0.708-1.395c0.15-0.291,0.461-0.363,0.708-0.558
		c-0.068-0.168,0.321-0.498,0.386-0.643c0.289-0.647-0.229-1.279-0.064-2.082c0.173-0.841,0.691-1.675,1.202-2.211
		c0.034-0.99-0.242-1.891,0.021-2.875c0.086-0.322,0.121-0.689,0.236-1.094c0.1-0.35,0.322-0.725,0.343-1.095
		c0.02-0.348-0.195-0.557-0.301-0.772c-0.115-0.366-0.23-0.73-0.343-1.094c-0.152-0.651-0.021-1.28-0.065-1.846
		c-0.036-0.461-0.229-0.792-0.386-1.116c0.084-0.579-0.19-1.817-0.343-2.404c-0.498-1.908-3.079-3.783-5.108-4.228
		c-0.358-0.079-1.769,0.193-2.018,0.322c-0.171,0.089-0.307,0.286-0.451,0.407c-0.539,0.458-1.181,0.877-1.46,1.589
		c-0.311,0.794-0.589,1.605-0.88,2.361c-0.319,0.829-0.482,1.726-1.051,2.297c-0.304,0.304-0.843,0.058-1.18-0.021
		c-0.741-0.175-1.633,0.184-2.147-0.472c0.066-0.347,0.286-0.353,0.472-0.558c0.207-0.228,0.343-0.489,0.516-0.752
		c0.129-0.122,0.257-0.243,0.386-0.366c0.111-0.18,0.074-0.317,0.15-0.558l0.386-0.644c0.282-0.648,0.189-1.23,0.493-1.845
		c0.28-0.078,0.507-0.341,0.73-0.495c0.236-0.128,0.471-0.257,0.708-0.386c0.516-0.377,0.972-0.984,1.352-1.502
		c0.093-0.064,0.186-0.129,0.279-0.193c0.23-0.301,0.457-0.601,0.687-0.902c0.157-0.143,0.315-0.286,0.471-0.43
		c1.148-1.465,2.148-3.32,2.683-5.301c0.257-0.951,0.317-1.759,0.516-2.705c0.113-0.538,0.343-1.161,0.043-1.696
		c-0.186-0.064-0.372-0.129-0.558-0.193c-0.497-0.104-0.996,0.718-1.416,0.88c-0.806,0.308-1.639,0.535-2.318,0.987
		c-0.258,0.172-0.48,0.461-0.73,0.622c-0.101,0.029-0.201,0.057-0.301,0.086l-0.021,0.107c-0.253,0.282-0.58,0.509-0.816,0.816
		c-0.429,0.559-0.695,1.201-1.244,1.631c-0.043-0.007-0.085-0.014-0.129-0.021c-0.136-0.379-0.272-0.758-0.407-1.138
		c-0.021-0.457-0.043-0.916-0.064-1.373c-0.253-0.764-0.622-1.521-0.88-2.275c-0.228-0.663-0.232-1.403-0.343-1.952
		c-0.043-0.407-0.086-0.816-0.129-1.224c0.043-0.18,0.086-0.358,0.129-0.537c-0.019-0.168,0.277-0.419,0.171-0.6
		c0.33-0.366,2.089-0.4,2.748-0.279c0.45,0.082,0.941,0.19,1.375,0.279c0.289,0.059,0.787,0.011,1.116-0.043
		c0.43,0.05,0.858,0.101,1.288,0.149c0.28,0.042,1.022-0.067,1.051,0.021c0.152-0.145,0.551-0.089,0.816-0.15
		c0.243-0.057,0.487-0.114,0.73-0.172c0.293,0.007,0.586,0.014,0.88,0.021c0.373-0.064,1.343-0.28,1.632-0.15
		c0.662,0.473,0.087,1.224,0.214,1.975c0.076,0.452,0.38,0.977,0.707,1.287c0.306,0.289,0.69,0.332,1.095,0.536
		c1.325,0.668,1.749,1.136,3.477,0.623c0.175-0.052,0.404,0.039,0.516,0.064c0.412,0.098,0.971-0.018,1.223-0.129
		c0.177-0.077,0.551-0.713,0.858-0.88c0.201-0.043,0.401-0.085,0.601-0.129c0.743-0.41,1.2-1.574,1.073-2.489
		c0.333-0.043,0.625,0.087,0.837,0.236c0.429-0.13,0.806,0.149,1.223,0.086c0.715-0.109,1.179-0.498,1.781-0.772
		c0.286-0.086,0.573-0.172,0.858-0.258c0.282-0.159,0.471-0.408,0.752-0.58c-0.089-0.22,0.314-0.78,0.407-1.03
		c0.082-0.218-0.082-0.363-0.043-0.579c0.057-0.311,0.257-0.65,0.301-1.073c0.13-1.256-0.729-2.008-1.202-2.79
		c-0.12-0.199-0.174-0.412-0.343-0.558c-0.425-0.364-1.467-0.802-1.996-1.073c0.021-0.037,0.043-0.071,0.064-0.107
		c0.222-0.007,0.426-0.138,0.601-0.193c0.339-0.108,0.438,0.143,0.773,0.064c1.003-0.236,1.981-0.83,2.425-1.631
		c0.177-0.319,0.17-0.691,0.343-0.987c0.263-0.448,0.828-0.663,0.73-1.352c-0.089-0.624-0.641-1.103-0.945-1.589
		C-194.252,480.712-194.937,479.181-195.823,479.056"/>
	<path fill="#FFFFFF" d="M-212.907,400.223c0.969-0.006,1.551,0.219,2.511,0.085c0.134-0.018,0.135,0.063,0.257,0.043
		c0.503-0.084,1.1,0.148,1.46-0.043c0.496,0.167,0.917,0.449,1.375,0.623c0.107-0.007,0.214-0.014,0.322-0.021
		c0.552,0.106,1.302-0.244,1.61-0.15c0.207-0.034,0.47,0.313,0.601,0.451c0.247,0.258,0.605,0.39,0.88,0.623
		c0.071,0.061,0.024,0.113,0.065,0.215c0.273,0.676,0.257,0.912-0.086,1.545c-0.329,0.608-1.172,0.877-1.739,1.266
		c-0.71,0.489-1.54,1.055-2.511,1.353c-0.383,0.117-0.711,0.09-1.095,0.172c-0.343,0.073-0.69,0.342-1.051,0.366l0.021-0.108
		c0.678-0.343,0.381-0.958,0.752-1.416c0.437-0.541,1.255-0.89,1.76-1.46c-0.006-0.711-0.582-0.491-1.073-0.536
		c-0.205-0.019-0.367-0.134-0.515-0.193c0.106-0.944-0.366-1.635-1.502-1.309c-0.488,0.139-0.756,0.53-1.18,0.708
		c-1.147,0.48-2.039,0.775-3.477,1.009c-0.417,0.042-0.832,0.085-1.247,0.127c-0.971,0.342-1.818,0.772-2.554,1.353
		c-0.595,0.469-0.85,1.24-1.524,1.652c-0.3,0.184-0.646,0.186-0.987,0.366c-0.813,0.426-2.105,1.409-2.447,2.253
		c-0.139,0.343-0.061,0.802,0.021,1.073c0.043,0.221,0.086,0.443,0.129,0.665c0.274,0.709,1.042,1.22,1.589,1.674
		c0.186,0.101,0.372,0.2,0.558,0.301c0.308,0.328,0.72,0.678,0.88,1.138v0.301c0.108,0.286,0.215,0.573,0.322,0.858
		c0.193,0.284,0.546,0.513,0.73,0.816c0.086,0.308,0.172,0.616,0.257,0.922c0.074,0.171,0.235,0.293,0.257,0.515l-0.065,0.021
		c-0.143,0.067-0.351,0.049-0.515,0c-0.153-0.436-0.446-0.566-0.687-0.88c-0.11-0.143-0.137-0.356-0.257-0.494
		c-0.1-0.043-0.2-0.085-0.301-0.129c-0.251-0.285-0.501-0.572-0.752-0.858c-0.334-0.252-0.683-0.48-1.009-0.752
		c-0.314-0.261-0.171-0.664-0.343-1.094c-0.15-0.23-0.301-0.457-0.451-0.687c-0.267-0.401-1.961-1.498-2.469-1.696
		c-0.196-0.076-0.382-0.062-0.536-0.15c-0.085-0.179-0.171-0.358-0.257-0.536c-0.083-0.272,0.025-0.685,0.064-0.88
		c0.089-0.44,0.116-0.793,0.214-1.03c0.098-0.23,1.198-1.081,1.46-1.266c0.429-0.302,0.637-0.782,1.073-1.073
		c0.279-0.085,0.558-0.172,0.837-0.257c0.275-0.18,0.498-0.342,0.816-0.515c0.373-0.202,0.652-0.75,0.922-1.073
		c0.12-0.143,1.311-1.034,1.481-1.094c0.847-0.298,1.607-0.416,2.446-0.772c0.384-0.163,0.916-0.439,1.33-0.58
		c0.093,0.007,0.187,0.014,0.279,0.021c0.113-0.026,0.284-0.11,0.43-0.172c0.505-0.216,0.855-0.546,1.31-0.794
		C-214.115,400.497-213.195,400.458-212.907,400.223"/>
	<path d="M-206.039,405.18h0.043H-206.039z"/>
	<path fill="#FFFFFF" d="M-213.036,405.975c0.101,0.036,0.2,0.071,0.301,0.107v0.021c-0.078,0.721-2.136,1.349-2.79,0.902
		c0.007-0.029,0.014-0.057,0.021-0.085c0.306-0.564,1.239-0.706,1.868-0.858C-213.366,405.994-213.232,406.141-213.036,405.975"/>
	<path fill="#FFFFFF" d="M-219.003,409.172c0.579,0.03,1.025,0.319,1.46,0.472c0.129,0.046,0.258-0.004,0.387,0.064l-0.043,0.065
		c-0.251,0.157-0.501,0.315-0.752,0.472c-0.28,0.098-0.475,0.089-0.708,0.257c-0.39,0.283-0.711,1.042-1.31,0.772
		c-0.115-0.014-0.23-0.028-0.343-0.043c-0.176-0.069-0.332-0.311-0.451-0.451c-0.106-0.123-0.244-0.046-0.366-0.257
		c0.164-0.434,0.313-1.173,0.816-1.309C-219.854,409.093-219.427,409.348-219.003,409.172"/>
	<path fill="#FFFFFF" d="M-186.851,409.988c1.001,0.174,1.982,0.217,2.79,0.558c0.05,0.051,0.101,0.101,0.15,0.15
		c0.116,0.048,0.366-0.011,0.558,0.043c0.62,0.175,1.516,0.32,2.168,0.472c0.054,0.012,0.295-0.094,0.451-0.064
		c0.679,0.131,1.794,0.304,2.168,0.816c0.282,0.387,0.283,0.73,0.43,1.244c0.231,0.816,0.52,1.722,0.73,2.511
		c0.071,0.266,0.076,0.573,0.172,0.773c-0.014,0.014-0.028,0.029-0.043,0.043c-0.948-0.687-2.179-1.161-3.112-1.867
		c-0.462-0.349-0.467-1.292-1.03-1.524c-0.75-0.31-1.845-0.354-2.233,0.365c-0.605,1.123,0.838,2.166,1.095,2.79
		c0.363,0.882-0.356,2.495-0.108,3.692c0.312,1.504,0.831,2.548,1.352,3.885c0.106,0.271,0.616,0.984,0.58,1.266h-0.086
		c-0.198-0.26-0.657-0.75-0.773-1.052v-0.172c-0.05-0.021-0.1-0.043-0.149-0.064c-0.234-0.221-0.349-0.52-0.536-0.793
		c-0.099-0.145-0.241-0.189-0.343-0.366c-0.107-0.079-0.214-0.157-0.321-0.236c-0.35-0.353-0.624-0.657-1.03-0.966
		c-0.064-0.101-0.129-0.2-0.193-0.301c-0.578-0.535-0.933-1.143-1.416-1.782c-0.107-0.085-0.215-0.172-0.321-0.257
		c-0.051-0.121-0.101-0.243-0.15-0.365c-0.086-0.057-0.172-0.115-0.257-0.172c-0.039-0.066-0.048-0.151,0-0.193
		c-0.088-0.126-0.228-0.203-0.301-0.366c-0.398-0.884-0.522-2.086-0.301-3.048c0.042-0.18-0.071-0.49,0.129-0.623
		c-0.159-0.204-0.099-1.04-0.064-1.373c0.084-0.802-0.767-1.995-0.214-2.94C-186.993,410.045-186.922,410.016-186.851,409.988"/>
	<path fill="#FFFFFF" d="M-179.296,419.003c0.436-0.034,0.689,0.082,0.945,0.279c0.174,0.133,0.971,1.907,1.009,2.189
		c0.02,0.164-0.102,0.584-0.172,0.708C-178.782,422.098-179.225,420.211-179.296,419.003"/>
	<path fill="#FFFFFF" d="M-216.835,419.217c0.711-0.01,1.299,0.198,1.931,0.279c0.28,0.035,0.73-0.053,0.966-0.086
		c0.289-0.041,0.858-0.027,1.116,0.043c0.106,0.028,0.075-0.067,0.129-0.086c0.315,0.043,0.63,0.086,0.944,0.129
		c0.592,0.189,1.048,0.756,1.675,0.944c0.705,0.212,1.484,0.239,2.082,0.601c0.58,0.443,1.159,0.887,1.739,1.33
		c0.557,0.314,1.268,0.379,1.76,0.752c0.605,0.459,0.931,1.269,1.524,1.739c0.751,0.593,1.902,0.854,2.511,1.589
		c0.157,0.285,0.315,0.572,0.472,0.858c0.166,0.277,0.494,0.438,0.665,0.687c0.086,0.2,0.172,0.401,0.257,0.601
		c0.184,0.269,0.567,0.369,0.73,0.665c0.308,0.562,0.409,1.194,0.773,1.674c0.156,0.206,0.398,0.423,0.623,0.558
		c0.289,0.174,0.672,0.2,0.857,0.472c0.239,0.348,0.107,0.903,0.322,1.309c0.189,0.357,0.577,0.553,0.816,0.858
		c-0.021,0.014-0.043,0.028-0.065,0.043c-0.152,0.054-0.362-0.035-0.493-0.064c-0.402-0.088-0.861,0.012-1.116,0.172
		c-0.222,0.902,0.465,1.49,1.095,1.781c0.229,0.071,0.457,0.143,0.687,0.214c0.063,0.041,0,0.006,0.043,0.064
		c-0.129,0.129-0.257,0.257-0.387,0.386c-0.46,0.361-1.347,1.05-0.837,1.825c0.298,0.002,0.57,0.128,0.772,0.086
		c0.282-0.058,0.472-0.201,0.687-0.301c0.566-0.264,1.157-0.482,1.803-0.643c1.214-0.307,2.434,0.375,3.498,0.172
		c1.526-0.292,2.722-1.027,4.271-1.331c0.612-0.12,1.945-0.016,2.619,0.172c0.121,0.079,0.243,0.157,0.365,0.236
		c0.398,0.183,0.9,0.324,1.352,0.386c0.353,0.049,0.747-0.111,0.966-0.172h0.451c0.136-0.048,0.744-0.294,0.857-0.386
		c0.252-0.203,0.519-0.495,0.816-0.643c0.359-0.181,0.831-0.187,1.223-0.343c1.107-0.443,2.034-1.073,2.362-2.275
		c0.155-0.57-0.066-1.048-0.129-1.545c0.021-0.107,0.043-0.214,0.064-0.322c-0.044-0.357-0.091-0.714-0.107-1.073
		c-0.008-0.201,0.322-0.686,0.386-0.858l0.021-0.43c-0.011-0.237,0.198-0.726,0.214-1.052c0.01-0.207-0.09-0.482-0.15-0.665
		c-0.123-0.377-0.129-0.875-0.322-1.288c-0.375-0.802-0.904-1.488-1.223-2.361c-0.316-0.863-0.121-2.119-0.021-2.855
		c0.038-0.273-0.083-0.564,0.043-0.687l0.064,0.043c0.126,0.329,0.392,0.602,0.493,0.966c0.093,0.53,0.186,1.059,0.279,1.589
		c0.014,0.265,0.029,0.53,0.043,0.794c0.104,0.467,0.375,0.92,0.493,1.352v0.322c0.172,0.407,0.343,0.816,0.515,1.223
		c0.151,0.374,0.184,0.898,0.387,1.224c0.115,0.184,0.317,0.361,0.386,0.601v0.708c0.073,0.443,0.139,0.872,0.322,1.224
		c0.54,1.039,1.921,2.323,0.902,3.627c-0.216,0.275-0.737,0.589-1.094,0.708c-0.36,0.119-0.567,0.087-0.816,0.279
		c-0.303,0.234-0.343,0.63-0.58,0.88c-0.561,0.596-1.667,0.648-2.339,1.138c-0.573,0.418-1.351,1.146-2.039,1.46
		c-1.228,0.56-2.512,0.4-3.713,0.472c-1.216-0.122-2.433-0.243-3.648-0.366c-0.396-0.073-1.501,0.139-1.911,0.214
		c-0.286-0.007-0.572-0.014-0.858-0.021c-1.062,0.055-2.01-0.526-2.962-0.343l-0.558-0.021c-0.357-0.016-2.485,0.361-2.64,0.515
		c-0.316,0.316-0.008,0.862,0.237,1.052c0.24,0.186,0.688,0.153,0.858,0.236c0.121,0.322,0.243,0.643,0.365,0.966
		c0.007,0.015,0.088,0.106,0.021,0.129c0.237,0.232,0.506,0.849,0.58,1.202c0.137,0.65-0.098,1.496,0.107,2.168
		c0.164,0.534,0.461,1.082,0.58,1.652c0.154,0.752-0.028,1.493,0.064,2.253c0.063,0.522,0.263,1.161,0.366,1.674
		c0.089,0.453-0.405,1.149-0.279,1.674c0.192,0.802-0.111,1.671-0.279,2.447c-0.061,0.279-0.134,0.585-0.086,0.88
		c0.014,0.143,0.029,0.286,0.043,0.43c-0.078,0.243-0.157,0.487-0.236,0.73c-0.079,0.451-0.157,0.901-0.236,1.352
		c-0.168,0.63-1.032,1.134-1.375,1.717c-0.07,0.119-0.023,0.218-0.043,0.343c-0.042,0.264-0.261,1.286-0.407,1.481
		c-0.365,0.48-1.075,0.668-1.46,1.138c-0.17,0.207-0.246,0.607-0.471,0.752c-0.354,0.226-0.76,0.275-1.073,0.515l-0.516,0.493
		c-0.156,0.223-0.211,0.574-0.43,0.73c-0.343,0.136-0.687,0.272-1.03,0.407c-0.513,0.372-0.878,0.966-1.48,1.244
		c-0.37,0.171-0.831,0.112-1.202,0.301c-0.515,0.261-0.78,0.778-1.438,0.987c-0.644,0.205-1.198-0.065-1.846,0.15
		c-0.792,0.261-1.008,1.072-1.889,1.309c-0.407,0.11-0.913-0.049-1.395,0.107c-0.902,0.293-1.701,0.8-2.662,1.052
		c-0.757,0.198-1.485-0.302-2.34-0.021c-0.43,0.14-0.901,0.494-1.352,0.623c-0.392,0.112-0.918,0.107-1.416,0.021
		c-0.186-0.021-0.372-0.043-0.558-0.064c-0.43,0.115-0.859,0.23-1.288,0.343c-0.177,0.08-0.318,0.261-0.536,0.279
		c-0.554,0.044-1.242-0.349-1.845-0.172c-0.584,0.172-1.144,0.602-1.696,0.772l-0.43,0.021c-0.698,0.142-1.351,0.161-1.846,0.515
		c-0.414,0.297-0.593,0.7-0.857,1.159c-0.15,0.193-0.301,0.386-0.451,0.58c-0.254,0.502-0.475,1.134-0.837,1.61
		c-0.043,0.014-0.085,0.028-0.129,0.043c-0.195,0.306-0.286,0.793-0.429,1.138c-0.401,0.044-0.53-0.121-0.837-0.193
		c-0.291-0.068-0.643-0.068-0.966-0.15c-0.457-0.065-0.916-0.129-1.375-0.193c-1.039-0.33-2.065-0.645-3.262-0.901
		c-0.661-0.141-2.486-0.03-2.791-0.494c0.196-0.706,0.626-1.317,0.816-1.996c0.134-0.477-0.391-0.96-0.536-1.244
		c-0.317-0.618-0.677-1.706-1.202-2.103c-0.666-0.505-1.692-0.639-2.168-1.331c0.064-0.136,0.221-0.392,0.407-0.407
		c0.334,0.067,0.661-0.003,1.03,0.129c0.498,0.179,0.959,0.495,1.502,0.665c0.25,0.078,0.607-0.024,0.902,0.065
		c0.265,0.079,0.438,0.315,0.643,0.43c0.111,0.061,0.769,0.148,0.901,0.172c0.556,0.1,1.149,0.007,1.632-0.085
		c0.201,0.007,0.401,0.014,0.601,0.021c0.138-0.033,0.493-0.129,0.601-0.129c1.102-0.004,2.137,0.154,3.284,0.065
		c0.267-0.021,0.52,0.061,0.837-0.043c0.521-0.17,1.187-0.319,1.674-0.515c0.386-0.155,0.707-0.493,1.18-0.623
		c0.657-0.18,1.395-0.117,1.931-0.301c0.302-0.104,0.588,0.104,0.88-0.021c0.443-0.19,0.992-0.487,1.373-0.772
		c0.529-0.396,0.912-0.984,1.525-1.31c0.554-0.294,1.474-0.299,2.168-0.407h0.601c0.796-0.214,1.171-1.307,1.696-1.867
		c0.34-0.364,0.882-0.589,1.138-1.03c0.665,0.066,1.649-0.83,1.825-1.309c0.136-0.372,0.13-0.876,0.386-1.18
		c0.093-0.05,0.186-0.101,0.279-0.15c0.068-0.072,0.061-0.185,0.15-0.237c0.147-0.084,0.425-0.13,0.536-0.301
		c0.051-0.15,0.101-0.301,0.15-0.451c0.049-0.131,0.109-0.297,0.085-0.386c-0.242-0.935-0.183-1.582-0.901-2.018
		c-0.242-0.147-0.454-0.284-0.837-0.15c-0.503,0.175-0.788,0.907-0.922,1.439c-0.007,0.23-0.014,0.457-0.021,0.687
		c-0.15,0.301-0.301,0.601-0.451,0.902c-0.251,0.625-0.679,1.825-1.331,2.168c-0.476,0.251-1.012,0.393-1.33,0.793
		c-0.301,0.386-0.601,0.773-0.902,1.159c-0.567,0.358-1.605,0.398-2.34,0.558c-0.198,0.043-0.325-0.084-0.558-0.021
		c-0.336,0.121-0.673,0.243-1.009,0.365c-0.532,0.217-0.948,0.785-1.416,1.094c-0.424,0.279-1.025,0.568-1.48,0.773
		c-0.557,0.25-1.389,0.005-2.039,0.129c-0.136-0.007-0.272-0.014-0.407-0.021c-0.594,0.194-1.264,0.357-1.802,0.643
		c-0.241,0.129-0.527,0.328-0.816,0.407c-0.925,0.257-1.747-0.099-2.725,0.085l-1.095,0.107l-0.598-0.019
		c-0.466,0.104-1.397,0.118-1.931-0.021c-0.457-0.179-0.916-0.358-1.375-0.536h-1.652c-0.703-0.166-1.326-0.476-2.103-0.643
		c-0.503-0.108-1.266,0.112-1.631-0.064c-0.257-0.124-0.813-0.383-1.202-0.558c-0.21-0.094-0.269-0.373-0.515-0.451
		c-0.043,0.014-0.086,0.028-0.129,0.043c-0.193-0.071-0.441-0.272-0.665-0.343c-0.466-0.146-0.885-0.115-1.266-0.322
		c-0.079-0.071-0.157-0.143-0.237-0.214c-0.736-0.393-1.196-0.907-1.589-1.696c-0.101-0.203-0.602-0.363-0.451-0.687
		c-0.392-0.371-0.783-0.824-1.094-1.266c-0.043-0.101-0.086-0.2-0.129-0.301c-0.47-0.466-1.114-0.734-1.46-1.266
		c-0.109-0.169-0.035-0.398-0.085-0.58c-0.058-0.207-0.226-0.512-0.28-0.708c-0.118-0.43-0.033-0.799-0.107-1.159
		c0.014-0.071,0.028-0.143,0.043-0.214c-0.057-0.051-0.115-0.101-0.172-0.15c-0.107-0.236-0.214-0.472-0.322-0.708
		c-0.252-0.361-1.444-1.17-2.103-0.773c-0.043,0.071-0.086,0.143-0.129,0.214c-0.098,0.111-0.335,0.216-0.386,0.365
		c-0.124,0.358,0.23,1.254,0.429,1.503c0.243,0.302,0.689,0.472,0.923,0.773c0.021,0.165,0.043,0.329,0.064,0.494
		c0.161,0.67,0.425,1.695,0.945,2.082c0.322,0.239,0.781,0.31,1.073,0.579c0.153,0.143,0.207,0.373,0.322,0.558
		c0.084,0.136,0.284,0.244,0.236,0.451c-0.426-0.002-0.852-0.351-1.116-0.558c-0.122-0.05-0.243-0.101-0.366-0.15
		c-0.383-0.249-0.681-0.548-1.116-0.772c-0.143-0.074-0.182-0.278-0.301-0.366c-0.302-0.219-0.698-0.482-1.03-0.643h-0.193
		c-0.396-0.131-0.737-0.341-1.18-0.451l-0.558-0.043c-0.05-0.05-0.101-0.101-0.15-0.15c-0.323-0.103-0.634-0.129-0.987-0.257
		c-0.186,0.014-0.372,0.028-0.558,0.043c-0.533-0.127-1.185-0.426-1.567-0.752c-0.212-0.181-0.489-0.44-0.772-0.536
		c-0.596-0.202-1.167-0.104-1.652-0.43c-0.236-0.157-0.261-0.535-0.515-0.687c-0.493-0.293-1.169-0.318-1.589-0.73
		c-0.296-0.289-0.511-0.98-0.73-1.373c-0.121-0.093-0.243-0.186-0.365-0.279c-0.078-0.085-0.088-0.202-0.172-0.279
		c-0.321-0.296-0.867-0.622-1.051-1.03c-0.225-0.498-0.352-0.86-0.536-1.33c-0.071-0.272-0.143-0.544-0.214-0.816
		c-0.285-0.402-0.77-0.73-1.03-1.138c-0.226-0.352,0.016-0.63-0.043-1.052c-0.045-0.316-0.312-0.63-0.387-0.944
		c-0.084-0.357-0.202-0.908-0.279-1.223c-0.085-0.348,0.102-0.753,0.129-1.009c-0.303-0.107-0.138-0.367-0.215-0.643
		c-0.039-0.136-0.192-0.179-0.257-0.279c0.027-0.115-0.003-0.83-0.043-1.009c-0.366-1.605,0.354-2.821,0.837-4.078
		c0.113-0.295,0.102-0.565,0.193-0.901c0.249-0.915,0.655-1.52,1.03-2.275l0.043-0.451c0.108-0.535,0.034-1.338,0.214-1.761
		c0.317-0.739,0.989-1.249,1.396-1.975c0.284-0.509,0.249-1.423,0.58-1.846c0.366-0.468,0.905-0.813,1.373-1.18
		c0.27-0.211,0.502-0.6,0.73-0.858c0.347-0.393,0.521-1.045,0.88-1.352c0.42-0.359,1.101-0.5,1.567-0.793
		c0.252-0.159,0.547-0.498,0.901-0.515c-0.022-0.15,0.361-0.352,0.516-0.472l0.643-0.623c0.411-0.237,0.857-0.167,1.373-0.322
		c0.503-0.151,1.13-0.275,1.61-0.493c0.614-0.279,1.139-0.589,1.782-0.793c0.376-0.12,0.805,0.059,1.138,0.085
		c0.338,0.027,1.06-0.002,1.46-0.107c0.521-0.137,1.691-0.772,2.598-0.536c0.715,0.187,1.257,0.375,2.018,0.343
		c0.129-0.006,0.346,0.054,0.407,0.043c0.226-0.039,0.702-0.307,0.987-0.257c0.548,0.097,1.021,0.43,1.502,0.601
		c0.566,0.201,1.381-0.115,2.06,0.021c0.797,0.161,1.66,0.532,2.554,0.73c0.372,0.007,0.745,0.014,1.116,0.021
		c0.608,0.122,1.241,0.271,1.911,0.407c0.302,0.061,0.501-0.053,0.772,0c0.899,0.176,1.689,0.344,2.598,0.257
		c0.416-0.04,1.025-0.246,1.395-0.343c0.471-0.125,1.141-0.054,1.609-0.172c0.62-0.155,1.222-0.514,1.782-0.708
		c0.271-0.093,0.524-0.129,0.752-0.193c0.307-0.143,0.616-0.286,0.922-0.43c0.101-0.021,0.201-0.043,0.301-0.064
		c0.213-0.138,0.484-0.282,0.687-0.451c0.208-0.174,0.348-0.47,0.58-0.623c0.222-0.147,0.489-0.114,0.73-0.257
		c0.129-0.129,0.257-0.257,0.386-0.386c0.057,0.014,0.115,0.029,0.172,0.043c0.079-0.065,0.157-0.129,0.237-0.193
		c0.136-0.063,0.69-0.061,0.793-0.129c0.132-0.086,0.317-0.218,0.493-0.279c0.362-0.125,0.798-0.104,1.159-0.172
		c0.448-0.084,0.888-0.307,1.309-0.471C-217.75,419.389-217.292,419.303-216.835,419.217"/>
	<path d="M-219.582,421.622c-0.148,0.093-0.319,0.036-0.536,0.085c-0.689,0.161-1.365,0.52-1.696,1.052
		c0.014,0.021,0.028,0.043,0.043,0.064c0.102,0.055,0.111,0.156,0.193,0.214c0.292,0.203,0.896,0.316,1.266,0.386
		c0.577,0.111,0.802-0.357,1.287-0.236c0.877,0.217,1.061,1.184,2.039,1.266c0.071-0.085,0.143-0.172,0.214-0.257
		c-0.001-0.434-0.167-0.643-0.279-0.923C-217.495,422.163-218.22,421.71-219.582,421.622"/>
	<path fill="#FFFFFF" d="M-178.823,429.841c0.404,0.249,1.237,1.339,1.309,1.846c0.059,0.416-1.176,1.516-1.631,1.18
		c0.017-0.259-0.164-1.049-0.279-1.288l-0.279-0.279c-0.182-0.275-0.102-0.86,0.085-1.073c0.152-0.193,0.406-0.308,0.773-0.301
		C-178.838,429.876-178.849,429.91-178.823,429.841"/>
	<path d="M-231.128,432.309c-0.783,0.336-2.435,0.761-3.391,0.451c-0.645,0.166-1.154,0.231-1.761,0.321
		c-0.65,0.098-2.316-0.034-2.662,0.215c-0.028,0.064-0.057,0.129-0.085,0.193c-0.152,0.216-0.416,0.447-0.601,0.643
		c0.005,0.266,0.134,0.391,0.279,0.515c0.698,0.595,0.886,0.38,1.91,0.494c0.105,0.011,0.314,0.077,0.516,0.021l0.085-0.129h0.858
		c0.572-0.102,1.044-0.272,1.61-0.43c0.303-0.084,0.623,0.126,0.944,0.064c1.062-0.207,2.166-0.317,2.875-0.902
		c0.129-0.172,0.257-0.343,0.386-0.515C-230.131,432.685-230.528,432.296-231.128,432.309"/>
	<path d="M-223.53,434.07h0.129v0.043c0.343,0.849,0.975,1.352,1.696,1.866c0.087,0.062,0.38,0.052,0.493,0.129
		c0.388,0.259,0.601,0.766,0.945,1.073c0.449,0.401,1.091,0.588,1.545,0.987c0.436,0.384,0.783,0.912,1.288,1.223
		c0.777,0.479,1.58,0.192,1.91-0.536c-0.112-0.253-0.024-0.686-0.236-0.922c-0.354-0.395-1.03-0.726-1.502-0.987
		c-0.179-0.071-0.358-0.143-0.536-0.215c-0.242-0.231-0.516-0.657-0.643-0.922c-0.805-0.102-1.138-0.739-1.567-1.223
		c-0.495-0.56-1.166-0.907-1.889-1.244c-0.093-0.093-0.186-0.186-0.28-0.279c-0.029-0.011-0.772-0.15-0.772-0.15
		C-223.444,433.091-223.585,433.489-223.53,434.07"/>
	<path fill="#FFFFFF" d="M-187.365,433.447c0.509-0.002,1.285,0.049,1.61,0.322c0.046,0.051,0.009-0.002,0.021,0.065l0.043,0.021
		c-0.348,0.03-0.706,0.225-1.008,0.343l-0.407,0.064c-0.691,0.313-1.349,0.607-2.211,0.794c-0.331,0.072-1.441,0.142-1.567,0.043
		v-0.021c0.451-0.2,0.902-0.401,1.352-0.601c0.243-0.193,0.523-0.442,0.816-0.579c0.115-0.029,0.23-0.057,0.343-0.085
		c0.165-0.101,0.329-0.2,0.493-0.301L-187.365,433.447z"/>
	<path d="M-250.424,438.233c-0.395,0.149-0.982,0.048-1.373,0.064c-0.479,0.101-0.959,0.2-1.437,0.301
		c-0.297,0.047-0.511-0.03-0.816,0.021c-0.634,0.107-1.363,0.7-1.567,1.244v0.301c-0.11,0.361-0.219,0.582-0.129,0.88
		c0.073,0.038,0.087,0.164,0.214,0.236c-0.221,2.275,1.717,3.566,3.412,4.014c0.457,0.121,1.18,0.514,1.802,0.407
		c0.467-0.079,1.07,0.334,1.631,0.172c0.545-0.157,1.026-0.174,1.502-0.365c0.193-0.078,0.348-0.289,0.515-0.366
		c0.343-0.157,0.871-0.242,1.116-0.558c1.665-2.149-1.18-5.412-2.962-5.989C-249.127,438.4-249.702,438.369-250.424,438.233"/>
	<path fill="#FFFFFF" d="M-251.626,441.11c0.411,0.007,1.789,0.812,1.931,1.094c0.062,0.121-0.006,0.386-0.043,0.472
		c-0.967,0.304-1.854-0.312-2.489-0.837c0.028-0.172,0.057-0.343,0.086-0.515C-251.97,441.252-251.798,441.181-251.626,441.11"/>
	<path fill="#FFFFFF" d="M-258.086,467.959c0.966-0.007,1.637,0.207,2.598,0.214c0.06,0.095,0.18,0.125,0.258,0.236
		c0.093,0.329,0.186,0.658,0.278,0.987c0.2,0.568,0.579,1.22,0.666,1.846c0.025,0.177-0.416,1.371-0.516,1.502
		c-0.4,0.386-0.802,0.773-1.202,1.159c-0.847,0.404-2.962,0.866-2.318,2.34c0.107,0.242,0.498,0.261,0.665,0.451
		c0.026-0.012,1.09-0.045,1.138-0.021c0.234,0.116,0.492,0.356,0.773,0.451l0.687-0.043c0.145,0.027,0.43,0.121,0.58,0.107
		c0.018-0.002,0.248-0.076,0.322-0.043c0.301,0.137,0.745,0.334,1.094,0.451c0.159,0.053,0.77-0.064,0.987,0
		c0.778,0.23,1.289,0.675,2.168,0.88c0.366,0.014,0.73,0.029,1.094,0.043c0.418,0.079,0.779,0.192,1.116,0.365
		c0.241,0.124,0.741-0.001,0.708,0.258c0.457-0.052,0.821,0.166,1.18,0.236c0.165,0.033,0.289-0.053,0.472-0.021
		c0.993,0.171,1.811,0.225,2.683,0.493c0.329,0.021,0.658,0.043,0.987,0.065c0.26,0.116,1.72,0.695,1.975,0.643
		c0.721-0.143,0.689-0.314,1.009-0.794c0.133-0.199,0.473-0.348,0.687-0.472c0.017-0.239,0.203-0.378,0.301-0.601
		c0.031-0.073,0.272-0.98,0.214-1.052c0.064-0.106,0.156-0.149,0.193-0.321c0.457,0.05,0.916,0.101,1.373,0.15h0.516
		c0.365,0.165,0.73,0.329,1.094,0.493c0.695,0.182,1.356-0.065,2.039,0.172c0.651,0.225,1.383,0.353,2.125,0.558
		c0.207,0.057,0.403,0.213,0.58,0.279c0.601,0.223,1.735,0.226,2.125,0.708c-0.238,0.866-0.322,1.098-0.171,2.06
		c0.034,0.218-0.208,0.266-0.129,0.537c0.12,0.406,0.64,0.573,1.009,0.73c0.318-0.213,1.893,0.261,2.425,0.236
		c0.318-0.014,1.154-0.22,1.567-0.107c0.128,0.035,0.198,0.184,0.407,0.15c0.145-0.024,0.221-0.12,0.322-0.15
		c0.136,0.02,0.271,0.043,0.407,0.064c0.962-0.024,1.907-0.323,2.575,0.193c0.419-0.102,1.035,0.03,1.416,0.043
		c0.072,0.002,0.153-0.091,0.193-0.107c0.136-0.057,1.046-0.03,1.244-0.021c0.318,0.014,0.687-0.179,0.902-0.236
		c0.572-0.028,1.145-0.057,1.717-0.086c0.157,0.051,0.315,0.101,0.472,0.151c0.264,0.02,0.53,0.043,0.793,0.064
		c1.204,0.335,2.195,1,3.262-0.086c0.152-0.153,0.074-0.329,0.129-0.601c0.043-0.093,0.086-0.186,0.129-0.279
		c-0.007-0.101-0.014-0.2-0.021-0.301c-0.141-0.298-0.391-0.43-0.579-0.665c-0.204-0.256-0.416-0.601-0.58-0.88
		c-0.373-0.635-0.824-2.133-0.257-3.025c0.252-0.398,0.639-0.684,0.966-1.009c0.193-0.214,0.387-0.43,0.58-0.643
		c0.771-0.358,1.291,0.171,1.911,0.365l0.687,0.021c0.528,0.116,1.201,0.596,1.375,1.073c0.28,0.775,0.012,2.171,0,3.005
		c-0.004,0.281,0.202,0.693,0.301,0.944c0.173,0.441,0.236,0.822,0.601,1.051c0.743,0.466,1.69-0.165,2.212-0.386
		c0.645-0.275,1.248-1.036,1.975-1.331c1.488-0.604,3.176,0.311,3.821,1.352c0.23,0.371,0.684,0.777,0.794,1.246
		c0.082,0.351-0.184,0.855-0.322,1.094c-0.253,0.443-0.458,0.895-0.902,1.138c-0.589,0.322-2.03,0.221-2.662,0.45
		c-0.327,0.119-1.142,0.067-1.244,0.387l0.043,0.471c-0.007,0.143-0.014,0.286-0.021,0.43c0.102,0.383,1.469,1.302,1.866,1.481
		c0.262,0.117,0.502,0.123,0.73,0.257c0.655,0.385,1.006,0.948,1.31,1.696c0.251,0.616,0.356,2.108-0.107,2.49
		c-0.244,0.201-2.185,0.996-2.533,0.944c-0.295-0.044-0.645,0.088-0.837-0.064c-0.696-0.552-1.074-1.516-1.782-1.996
		c-0.22-0.15-0.493-0.143-0.751-0.258c-0.652-0.292-1.133-0.388-1.696,0.108c0.011,0.2-0.109,0.406,0,0.643
		c0.306,0.663,0.646,1.476,1.073,2.06c0.143,0.197,0.369,0.429,0.451,0.687c0.129,0.408-0.066,1.047-0.214,1.244
		c-0.083,0.111-0.2,0.07-0.322,0.15c-0.05,0.071-0.1,0.143-0.149,0.215c-0.251,0.18-0.601,0.333-0.858,0.43
		c-0.129,0.007-0.257,0.014-0.386,0.021c-0.502,0.158-0.907,0.539-1.395,0.644c-0.189,0.041-0.882-0.427-1.03-0.495
		c-0.304-0.138-0.852-0.284-1.052-0.536c-0.253-0.32-0.361-0.703-0.451-1.138c0.014-0.136,0.029-0.271,0.043-0.407
		c-0.102-0.368-0.259-0.921-0.386-1.266v-0.407c-0.071-0.265-0.264-0.524-0.301-0.772c-0.417-0.108-0.402-0.484-0.88-0.58
		c-0.325-0.066-1.14,0.46-1.395,0.58c-0.381,0.18-0.771,0.109-1.266,0.193c-0.665,0.112-1.207,0.165-1.761,0.278
		c-1.12,0.232-2.304,0.148-3.327-0.043c-0.826-0.153-2.34,0.047-2.962,0.214c-0.4,0.007-0.802,0.014-1.202,0.021
		c-0.738,0.115-1.475-0.084-1.996,0.236c-0.071,0.086-0.143,0.172-0.214,0.257c-0.064,0.036-0.129,0.072-0.193,0.107
		c-0.234,0.343,0.05,0.925-0.085,1.395c-0.148,0.517,0.439,1.841,0.665,2.275c0.014,0.279,0.028,0.558,0.043,0.837
		c0.162,0.627,0.467,1.366,0.623,2.018c0.043,0.521,0.085,1.044,0.129,1.567l0.515,1.739c0.145,0.591,0.002,1.127,0.086,1.674
		c0.086,0.564,0.143,1.334,0.129,1.739c0.057,0.25,0.114,0.501,0.171,0.751c-0.014,0.33-0.028,0.658-0.043,0.987
		c0.057,0.257,0.115,0.515,0.172,0.773c0.148,0.797-0.127,1.682-0.322,2.404c-0.342,1.267-1.239,2.311-1.953,3.241
		c-0.136,0.178-0.114,0.452-0.214,0.623c-0.175,0.297-0.593,0.436-0.73,0.793c-0.081,0.216-0.157,0.494-0.107,0.752
		c-0.007,0.021-0.014,0.043-0.021,0.064c0.251,0.297,0.343,0.819,0.708,1.052c0.688,0.44,1.697,0.307,2.618,0.558
		c0.384,0.105,0.85,0.318,1.202,0.407c0.602,0.154,1.602,0.088,2.211,0.085c0.078-0.198,0.175-0.077,0.322-0.193v-0.043
		c0.116-0.136,0.052-0.282,0.129-0.429c0.047-0.086,0.193-0.216,0.236-0.302c0.007-0.136,0.014-0.271,0.021-0.407
		c0.109-0.383,0.24-1.083,0.407-1.48c0.444-1.052,1.034-2.03,1.61-2.94c0.157-0.249,0.206-0.51,0.43-0.687
		c0.289-0.229,1.502-0.527,2.017-0.386c0.313,0.086,0.566,0.294,0.816,0.407c0.186,0.028,0.372,0.057,0.558,0.085
		c0.173,0.102,0.239,0.359,0.387,0.451h0.214c0.326,0.184,0.676,0.65,0.88,0.966c0.514,0.793,0.33,1.955,0.536,2.961
		c0.136,0.387,0.271,0.773,0.407,1.159c0.161,0.47-0.192,1.063-0.129,1.567c0.075,0.606,0.265,1.034,0.451,1.46
		c0.041,0.092,0.031,0.693,0.064,0.858c0.073,0.371-0.273,1.293-0.386,1.674c-0.167,0.559,0.025,1.388-0.15,2.018
		c-0.255,0.916-0.783,1.699-1.18,2.469c-0.205,0.397-0.063,1.125-0.214,1.503v0.086c-0.243,0.451-0.578,0.852-0.73,1.352
		c-0.141,0.469-0.428,0.946-0.558,1.374c-0.052,0.173-0.006,0.262-0.086,0.386c-0.293,0.322-0.586,0.643-0.88,0.966
		c-0.235,0.373-0.301,0.718-0.558,1.073c-0.269,0.371-0.642,0.67-0.88,1.073c-0.361,0.612-0.5,1.359-0.902,1.931
		c-0.267,0.382-0.605,0.64-0.922,0.966c-0.206,0.211-1.266,1.094-1.589,1.008c-0.036-0.014-0.071-0.028-0.107-0.043
		c-0.013-0.45-0.579-1.371-0.73-1.866c-0.257-0.846,0.247-2.294-0.493-2.984c-0.952,0.033-0.839,0.776-0.987,1.653
		c-0.057,0.338,0.102,1.808,0.236,2.297c0.014,0.35,0.028,0.701,0.043,1.051c0.053,0.259,0.273,0.922,0.279,1.073
		c0.016,0.448-1.074,1.233-1.524,1.439c-1.041,0.475-1.962,1.089-2.984,1.545c-0.413,0.184-1.164,0.128-1.567,0.043
		c-0.2-0.043-0.457,0.068-0.622,0.108l-0.472-0.065c-0.267-0.57-0.166-1.159-0.129-1.802c0.034-0.612-0.202-1.263-0.107-1.803
		c0.111-0.633,0.173-1.261,0.107-1.825c-0.112-0.972,0.092-1.52-0.451-2.082c-0.258,0.037-0.387,0.116-0.558,0.214
		c-0.044,0.893-0.446,1.61-0.708,2.361c-0.208,0.597-0.236,1.459-0.343,2.06c-0.162,0.903,0.533,2.069-0.021,2.725
		c-0.163,0.193-1.172,0.339-1.545,0.258c-1.114-0.246-2.151-0.58-3.005-1.116c-0.184-0.116-0.39-0.13-0.515-0.301
		c-0.791-1.085-0.673-3.152,0.086-4.335v-0.258c0.03-0.109,0.301-0.769,0.365-0.857c0.269-0.375,0.653-0.743,0.923-1.116
		c0.047-0.064,0.058-0.318,0.107-0.43c0.221-0.499,0.436-1.144,0.752-1.567c0.37-0.496,0.925-0.799,1.266-1.331
		c0.136-0.257,0.271-0.515,0.407-0.772c0.136-0.15,0.271-0.301,0.407-0.451c0.121-0.207,0.243-0.416,0.366-0.623
		c0.119-0.111,0.353-0.102,0.471-0.214c0.292-0.278,0.615-0.691,1.009-0.729c-0.007-0.166,0.493-0.763,0.622-0.944
		c0.198-0.274,0.348-0.549,0.472-0.837c0.079-0.064,0.157-0.129,0.237-0.193c0.169-0.204,0.355-0.583,0.451-0.773
		c0.135-0.265,0.128-0.45,0.279-0.687c0.093-0.072,0.187-0.143,0.28-0.214c0.277-0.401,0.731-1.046,0.43-1.567
		c-0.816-0.157-1.152,0.334-1.675,0.536c-0.107-0.014-0.214-0.028-0.321-0.043c-0.173,0.064-0.432,0.172-0.623,0.214
		c-1.91,0.431-5.256-0.811-6.31-1.717c-0.465-0.401-0.497-1.02-0.643-1.653c-0.091-0.392,0.26-0.596,0.343-0.837
		c0.157-0.454-0.066-1.211-0.451-1.352c-0.427-0.157-0.64,0.02-1.03,0.107c-0.311,0.07-1.358,0.028-1.717,0
		c-0.294-0.022-0.984-0.213-1.244-0.172c-0.177,0.029-0.366,0.169-0.58,0.129c-0.877-0.164-1.782-0.334-2.469-0.536
		c-0.121-0.036-0.395,0.043-0.58,0c-0.564-0.129-1.32-0.395-1.631-0.793c0.021-0.029,0.043-0.057,0.064-0.086
		c-0.161-0.085-0.134-0.259-0.321-0.343c-0.244,0.079-0.767,0.255-0.902,0.451c-0.13,0.189-0.128,0.337-0.172,0.515
		c-0.087,0.347-0.387,0.71-0.516,1.03c-0.249,0.625-0.282,1.319-0.623,1.846c-0.232,0.359-1.096,1.659-1.073,2.06
		c0.011,0.198-0.091,0.271-0.129,0.43c-0.157,0.671-0.425,1.399-0.237,1.932c-0.259-0.143-0.23-0.371-0.407-0.623
		c-0.295-0.418-0.658-0.83-0.945-1.266c-0.323-0.493-0.425-1.003-0.708-1.48c-0.322-0.279-0.643-0.558-0.966-0.837
		c-0.302-0.377-0.716-0.671-0.987-1.051c-0.361-0.506-0.703-1.028-1.138-1.46c-0.202-0.202-0.82-0.617-0.944-0.794
		c-0.218-0.311-0.308-0.674-0.516-1.009c-0.165-0.267-0.418-0.488-0.58-0.729c-0.262-0.393-0.443-0.778-0.708-1.159
		c0.065-0.136,0.129-0.271,0.193-0.407c0.619-0.168,2.798-0.282,3.112-0.601c0.023-1.425-0.875-2.66-1.48-3.756
		c-0.243-0.272-0.487-0.544-0.73-0.816c-0.028-0.114-0.057-0.229-0.086-0.343c-0.071-0.093-0.143-0.186-0.214-0.279
		c-0.076-0.161-0.025-0.362-0.108-0.537l-0.558-1.138c-0.115-0.308,0.061-0.756-0.064-1.073c-0.308-0.778-0.667-1.617-0.922-2.147
		c-0.236-0.489,0.251-1.242,0.15-1.911c-0.263-1.754,0.305-2.202,0.902-3.455c0.125-0.263,0.123-0.507,0.214-0.816
		c0.093-0.316,0.426-0.81,0.601-1.073c0.162-0.243,0.166-0.557,0.322-0.794c0.314-0.473,0.938-0.843,1.223-1.31
		c0.586-0.956,0.904-1.564,1.867-2.233c0.169-0.116,0.219-0.263,0.407-0.343c-0.051-0.321,0.857-1.046,1.116-1.287
		c0.035-0.101,0.071-0.201,0.107-0.301c0.711-0.602,1.771-1.224,2.318-2.082c0.058-0.09,0.217-0.061,0.301-0.129
		c0.102-0.082,0.13-0.282,0.236-0.365c0.075-0.059,0.154-0.012,0.214-0.065c0.014-0.014,0.028-0.028,0.043-0.043v-0.15
		c0.076-0.158,0.296-0.231,0.43-0.343c0.325-0.274,0.516-1.216,0.086-1.48c-0.716-0.398-1.885-0.03-2.683-0.279
		c-0.627-0.196-1.197-0.648-1.825-0.858c-0.462-0.155-0.85,0.055-1.331-0.043c-0.557-0.113-1.001-0.397-1.589-0.516h-1.481
		c-0.601-0.179-1.202-0.358-1.802-0.536c-0.179,0.007-0.358,0.014-0.536,0.021c-0.082-0.025-0.189-0.145-0.343-0.107
		c-0.812,0.199-0.942,1.712-1.395,2.275c-0.653,0.814-2.678,0.948-3.734,0.601c-0.34-0.112-0.675-0.357-0.966-0.536
		c-0.221-0.138-0.473-0.108-0.665-0.258c-0.552-0.431-0.762-1.529-0.407-2.275c0.22-0.466,0.721-0.905,0.987-1.352
		c0.174-0.293,0.205-0.532,0.257-0.837c0.029-0.171,0.229-0.273,0.322-0.387c0.323-0.39-0.03-0.925-0.322-1.116
		c-0.643-0.421-1.956,0.251-2.468,0.536c-0.902,0.503-2.521,0.618-3.541,0.064c-0.416-0.225-0.412-0.915-0.644-1.352
		c-0.212-0.402-0.42-0.927-0.343-1.545c0.129-1.056,1.712-2.132,2.598-2.554c0.249-0.119,0.442-0.502,0.687-0.644
		c0.243-0.05,0.488-0.1,0.73-0.15c0.24-0.101,0.358-0.279,0.536-0.429c0.725-0.605,0.783-0.493,0.516-1.653
		c-0.265-0.193-0.53-0.386-0.794-0.58l-0.601-0.021c-0.384-0.061-0.953-0.354-1.159-0.623c-0.31-0.387-0.21-1.056-0.458-1.516
		c-0.165-0.305-0.578-0.725-0.407-1.18c0.047-0.098,0.507-0.924,0.643-1.009c0.246-0.153,1.262-0.457,1.631-0.365
		c0.589,0.148,1.072,0.503,1.653,0.665c0.69,0.193,1.42-0.085,1.781,0.472c0.448,0.691,1.614,3.043,2.833,2.125
		c0.099,0.033,0.226,0.093,0.343,0.043c0.258-0.117,0.226-0.306,0.386-0.515c0.628-0.823,0.701-1.853,0.945-3.069
		C-258.633,468.04-258.442,468.106-258.086,467.959"/>
	<path d="M-266.05,469.012l0.043,0.021L-266.05,469.012z"/>
	<path d="M-224.346,480.022v0.043V480.022z"/>
	<path d="M-268.282,488.843c0.021,0.014,0.043,0.028,0.064,0.043C-268.256,488.842-268.217,488.872-268.282,488.843"/>
	<path fill="#FFFFFF" d="M-214.645,501.335c0.064,0.014,0.129,0.028,0.193,0.043c0.145,0.698-0.359,1.914-0.601,2.447
		c-0.76,1.675-1.743,3.348-2.855,4.701c-0.395,0.481-0.867,1.203-1.502,1.416c-0.045-0.722-0.334-1.016-0.601-1.502
		c-0.107-0.195-0.02-0.552-0.043-0.73c-0.101-0.793,0.593-1.873,0.902-2.34c0.115-0.23,0.23-0.457,0.343-0.687l0.6-0.558
		c0.594-0.692,1.274-1.397,1.996-1.954C-215.731,501.802-215.098,501.674-214.645,501.335"/>
	<path fill="#FFFFFF" d="M-249.995,541.363c-0.065-0.007-0.129-0.014-0.193-0.021c-0.105-0.314-0.228-0.586-0.58-0.451
		c-0.116,0.045-0.193-0.011-0.257,0.086c-0.125,0.235-0.029,0.446-0.064,0.73c-0.697-0.203-1.052-0.652-1.481-1.116
		c-0.804-0.87-1.684-1.734-2.383-2.704c-0.32-0.447-0.598-0.965-0.966-1.375c-0.792-0.884-1.394-1.877-2.104-2.854
		c-0.752-1.036-1.6-2.107-2.253-3.177c-0.406-0.665-0.733-1.316-1.244-1.867c-0.118-0.127-0.084-0.34-0.172-0.451
		c-0.988-1.24-2.086-2.666-3.005-4.034c-0.05-0.129-0.101-0.257-0.15-0.386c-0.673-0.899-1.506-1.703-2.103-2.683
		c-0.313-0.513-0.781-1.037-1.202-1.46c-0.377-0.379-0.575-0.852-0.88-1.31c-0.061-0.09-0.287-0.157-0.386-0.278
		c-0.401-0.487-0.802-0.973-1.202-1.46c-0.278-0.26-1.09-1.128-1.373-1.244c-0.171-0.07-0.461,0.067-0.536,0.172
		c-0.127,0.176-0.081,0.373-0.15,0.536c0.18,0.173,0.711,0.954,0.858,0.923c0.347,0.36,0.58,0.789,0.902,1.18
		c0.164,0.199,0.452,0.335,0.601,0.536c0.116,0.157,0.126,0.347,0.236,0.516c0.405,0.621,0.893,1.025,1.352,1.567
		c0.22,0.26,0.376,0.654,0.558,0.88c0.186,0.23,0.96,1.128,0.88,1.33c0.234,0.055,0.829,0.98,1.009,1.203
		c0.716,0.885,1.282,1.744,1.91,2.704c0.355,0.54,0.78,0.971,1.095,1.589c0.093,0.182,0.364,0.424,0.493,0.601
		c0.213,0.293,0.287,0.641,0.471,0.922c0.375,0.571,0.891,1.113,1.224,1.674c1.961,3.304,4.368,6.21,6.525,9.251
		c0.698,0.984,2.039,1.529,2.833,2.489c-0.007,0.014-0.014,0.028-0.021,0.043c-0.291-0.06-0.852,0.061-1.288,0.15
		c-0.387,0.007-0.773,0.014-1.159,0.021c-0.184,0.043-0.46,0.174-0.666,0.107c-0.284,0.057-0.908,0.208-1.288,0.086
		c-0.493-0.157-1.055-0.242-1.545-0.365h-0.839c-0.457-0.071-0.916-0.143-1.373-0.215c-0.234-0.07-0.71-0.109-1.03-0.214
		c-0.322-0.15-0.643-0.301-0.966-0.451c-0.62-0.241-1.232-0.374-1.846-0.516c-0.157-0.107-0.315-0.214-0.472-0.322
		c-0.677-0.396-1.187-0.745-1.802-1.159c-0.271-0.182-0.586-0.274-0.772-0.536c-0.186-0.259-0.388-0.807-0.601-1.009
		c-0.548-0.52-1.539-1.016-1.953-1.609c-0.346-0.498-0.435-1.056-0.794-1.525c-0.485-0.634-1.266-1.042-1.802-1.631
		c-0.398-0.437-0.713-1.213-0.966-1.761c-0.068-0.148-0.043-0.341-0.107-0.451c-0.33-0.563-0.906-0.952-1.224-1.502
		c-0.079-0.237-0.157-0.472-0.236-0.708c-0.135-0.257-0.393-0.452-0.536-0.729c-0.293-0.566-0.031-1.439-0.237-2.083
		c-0.048-0.148-0.146-0.527-0.064-0.622c-0.44-0.81-0.858-1.692-1.009-2.597c0.057-0.279,0.115-0.558,0.172-0.837
		c-0.017-0.597-0.033-1.15-0.15-1.825c-0.073-0.418,0.13-1.202,0.086-1.481c-0.068-0.431,0.033-0.947,0.257-1.138
		c-0.014-0.014-0.029-0.029-0.043-0.043c-0.005-0.025,0.149-0.623,0.149-0.623c0.019-0.029,0.106-0.08,0.129-0.043
		c0.12-0.146,0.255-0.412,0.343-0.558c0.259-0.421,0.277-0.581,0.558-0.966l0.064,0.021c0.097-0.234,0.125-0.674,0.237-1.052
		c0.098-0.331,0.47-0.595,0.665-0.837c0.037-0.045,0.076-0.173,0.043-0.215c0.031-0.052,0.51-0.576,0.58-0.643
		c0.796-0.768,1.994-1.093,3.262-1.395c0.229,0.036,0.458,0.071,0.687,0.107c0.509-0.067,1.205-0.234,1.632-0.15
		c0.596,0.116,0.963,0.445,1.524,0.536c0.943,0.155,1.887,0.074,2.768,0.407c0.487,0.184,0.717,0.564,1.138,0.794
		c0.742,0.405,1.661,0.6,2.361,1.073c0.292,0.197,0.586,0.629,0.729,0.966c0.057,0.165,0.114,0.329,0.172,0.493
		c0.194,0.268,0.548,0.286,0.772,0.516c0.093,0.193,0.187,0.386,0.28,0.58c0.286,0.307,0.572,0.616,0.857,0.922
		c0.322,0.622,0.643,1.244,0.966,1.866c0.353,0.466,0.916,0.754,1.309,1.18c0.367,0.398,0.722,0.818,1.073,1.223
		c0.085,0.098,0.039,0.207,0.085,0.301c0.044,0.088,0.209,0.233,0.279,0.322c0.443,0.386,0.888,0.772,1.331,1.159
		c0.186,0.265,0.372,0.529,0.558,0.794c0.119,0.15,0.318,0.242,0.407,0.43c0.157,0.329,0.284,0.783,0.494,1.138
		c0.218,0.371,0.589,0.751,0.857,1.095c0.422,0.539,0.903,1.143,1.224,1.76c0.162,0.313,0.207,0.622,0.386,0.945
		c0.334,0.6,0.666,1.151,0.858,1.889c0.084,0.322,0.193,0.705,0.257,1.094c-0.014,0.143-0.028,0.286-0.043,0.43
		c0.028,0.115,0.057,0.229,0.086,0.343c0.161,0.319,0.884,1.933,0.493,2.361c-0.212-0.173-0.338-0.4-0.536-0.579
		c-0.457-0.366-0.916-0.729-1.375-1.095c-0.172-0.086-0.343-0.172-0.515-0.257c-0.993-0.645-2.055-1.369-2.94-2.146
		c-1.241-1.09-2.244-2.471-3.284-3.692c-0.115-0.136-0.319-0.216-0.43-0.366c-0.855-1.158-1.796-2.244-2.662-3.391
		c-0.187-0.248-0.267-0.533-0.451-0.794c-0.329-0.471-0.761-0.92-1.073-1.416c-0.248-0.393-0.336-0.805-0.58-1.18
		c-0.05-0.021-0.101-0.043-0.149-0.064c-0.109-0.152-0.122-0.389-0.193-0.516c0,0-0.145-0.076-0.172-0.129
		c-0.499-0.993-1.125-1.924-1.696-2.898c-0.184-0.315-0.413-0.711-0.536-1.03c0.007-0.051,0.014-0.101,0.021-0.15
		c-0.241-0.378-0.562-0.726-0.773-1.159c-0.21-0.432-0.947-1.88-1.395-1.931c-0.093,0.071-0.186,0.143-0.28,0.214
		c-0.167,0.379,0.252,1.106,0.366,1.437c0.419,1.221,1.089,2.06,1.525,3.241c0.128,0.348,0.537,0.884,0.451,1.18
		c0.383,0.094,0.822,1.217,1.052,1.567c0.647,0.983,1.419,1.998,1.889,3.09c0.071,0.051,0.143,0.1,0.215,0.15
		c0.268,0.325,0.51,0.725,0.751,1.052c0.129,0.243,0.257,0.486,0.387,0.729c0.598,0.835,1.15,1.702,1.739,2.575
		c0.122,0.114,0.243,0.229,0.366,0.343c0.198,0.307,0.388,0.6,0.601,0.902c0.128,0.182,0.386,0.316,0.515,0.493
		c0.339,0.467,0.752,0.994,1.18,1.374c0.807,0.716,1.672,1.357,2.425,2.125c0.306,0.311,0.777,0.475,1.138,0.729
		c0.358,0.293,0.716,0.586,1.073,0.88c0.323,0.182,0.74,0.412,1.073,0.666c0.152,0.115,0.266,0.359,0.386,0.515
		c0.157,0.136,0.315,0.271,0.471,0.407c0.271,0.393,0.621,0.891,1.052,1.116c-0.013,0.71-0.304,0.975-0.58,1.439l-0.15,0.493
		c-0.337,0.653-1.187,1.632-1.846,1.953C-249.385,542.514-249.973,541.81-249.995,541.363"/>
	<path d="M-276.116,519.643l0.043,0.021L-276.116,519.643z"/>
	<path d="M-276.201,519.707l-0.021,0.043c0.065-0.026,0.025,0.001,0.064-0.043H-276.201z"/>
	<path d="M-274.27,520.072c-0.157,0.087-0.248,0.131-0.343,0.279v0.085c0.511,0.385,0.695,0.741,1.073,1.266
		c0.661,0.92,1.291,1.88,1.889,2.875c0.052,0.085-0.022,0.206,0.021,0.279c0.046,0.076,0.206,0.123,0.257,0.214
		c0.287,0.509,0.634,1.027,0.857,1.567l-0.021,0.085c0.8,1.006,1.352,2.295,2.017,3.37c0.113,0.182,0.125,0.447,0.215,0.601
		c0.145,0.248,0.42,0.548,0.622,0.816c0.064,0.136,0.129,0.271,0.193,0.407c0.506,0.779,1.006,1.578,1.545,2.339
		c0.286,0.403,0.711,0.758,1.009,1.159c0.107,0.144,0.094,0.274,0.193,0.451l0.451,0.516c0.401,0.602,0.828,1.211,1.309,1.739
		c0.88,0.965,1.527,2.121,2.618,2.876c0.289,0.199,0.792,0.628,1.202,0.579c0.155-0.018,0.166,0.077,0.258,0.107h0.343
		c0.437,0.081,0.845,0.202,1.138-0.107c-0.202-0.35-0.688-0.374-0.858-0.622c-0.411-0.598-0.872-1-1.439-1.439
		c-0.229-0.265-0.457-0.53-0.687-0.794c-0.478-0.557-1.061-1.04-1.503-1.631c-1.308-1.752-2.609-3.523-3.949-5.237
		c-0.431-0.551-0.805-1.202-1.138-1.825c-0.193-0.265-0.386-0.529-0.579-0.794c-0.279-0.411-0.418-0.857-0.687-1.288
		c-0.539-0.863-1.116-1.784-1.652-2.661c-0.911-1.492-1.818-2.875-2.94-4.143C-273.174,520.783-273.642,520.085-274.27,520.072"/>
	<path d="M-276.008,524.815c0.014,0.021,0.028,0.043,0.043,0.064C-275.979,524.859-275.994,524.837-276.008,524.815"/>
</g>
</svg>
