<?xml version="1.0" encoding="utf-8"?>
<!-- Generator: Adobe Illustrator 17.0.2, SVG Export Plug-In . SVG Version: 6.00 Build 0)  -->
<!DOCTYPE svg PUBLIC "-//W3C//DTD SVG 1.1//EN" "http://www.w3.org/Graphics/SVG/1.1/DTD/svg11.dtd">
<svg version="1.1" id="Layer_1" xmlns="http://www.w3.org/2000/svg" xmlns:xlink="http://www.w3.org/1999/xlink" x="0px" y="0px"
	 width="160px" height="150px" viewBox="-305 391.599 160 150" enable-background="new -305 391.599 160 150" xml:space="preserve">
<g>
	<path d="M-145.47,439.656c-0.562-1.653,0.408-3.313-0.366-4.897c0.153-1.598-0.388-2.98-0.13-4.64
		c-0.107-0.704-0.637-1.212-0.853-1.906c0.249-1.058-0.256-1.951-0.757-2.789c-0.18-0.205-0.517-0.346-0.487-0.675
		c0.294-0.46,0.947-0.509,1.424-0.709c0.026-0.384,0.11-0.719,0.023-1.15c1.23-1.844,1.038-4.402,0.285-6.423
		c-0.571-1.052-1.789-0.524-2.503-1.29c-1.152-0.022-2.271-0.377-3.473-0.342c-1.135,0.195-1.563-1.141-2.002-1.875
		c-1.691-1.405-2.018-3.569-4.124-4.67c-0.306-0.416-0.954-0.312-0.94-0.86c-0.751-1.257-1.72-2.498-2.939-3.445
		c-0.913-1.245-2.345-1.356-3.309-2.543c-0.431-0.626-1.396-1.101-1.726-1.842c-0.818-0.703-1.745-1.401-2.552-1.943
		c-1.573-2.015-3.997-2.218-5.81-3.778c-1.388-0.279-2.6-1.118-3.973-1.179c-0.698-0.55-1.596-0.866-2.443-0.474
		c-0.79-0.323-1.745,0.077-2.43-0.311c-1.263-0.781-2.558,0.192-3.905-0.255c-1.006,0.458-1.815,1.34-2.965,1.316
		c-1.78-1.836-3.271,0.902-5.016,0.978c-1.257,0.751-2.54-0.303-3.83,0.012c-0.742,1.042-1.876,1.236-2.753,1.958
		c-0.82,0.006-1.199,0.8-1.893,1.018c-0.945-0.204-1.967,0.038-2.865-0.279c-0.558-0.122-0.839,0.501-1.386,0.487
		c-1.587,0.72-1.344,2.508-2.636,3.536c-1.795,0.134-3.564-0.117-5.29,0.231c-0.573,0.372-1.096-0.027-1.598-0.153
		c-1.47,0.11-2.732,0.041-4.124,0.473c-1.494-0.217-2.983-0.378-4.418-0.546c-1.938,0.42-3.43-0.508-5.268-0.206
		c-0.65,0.102-1.095,0.739-1.698,0.728c-2.462,0.732-4.816-0.734-7.263,0.215c-1.198,0.8-2.963,0.605-4.286,1.197
		c-0.44-0.022-0.853-0.429-1.265-0.07c-0.009,0.602-0.701,0.873-0.651,1.526c0.066,0.16,0.036,0.49,0.359,0.412
		c2.047,1.762,4.579,1.955,7.168,2.199c1.606,0.974,3.685,0.983,5.434,0.962c1.569,0.484,3.054,1.304,4.803,1.282
		c0.452,0.185,1.034-0.077,1.39,0.28c0.443,0.076,0.754-0.167,1.076-0.246c1.1,0.081,2.135,0.004,3.2,0.363
		c1.853,0.628,3.608,1.426,5.727,1.212c0.28,0.089,0.669,0.169,0.743,0.437c-1.989,1.189-3.721,2.906-6.225,3.093
		c-0.751,0.932-1.926,0.582-2.956,0.713c-0.628,0.375-1.458,0.274-2.02,0.807c-0.858,0.229-1.454,1.039-2.454,0.841
		c-1.528,0.77-3.137,1.22-4.886,1.241c-0.91,0.998-1.949,1.733-3.381,1.622c-1.295,0.972-3.102,0.943-4.035,2.38
		c-1.653,0.562-2.441,2.481-3.916,3.248c-0.517,1.133-1.84,1.724-2.299,2.909c-0.024,1.15-1.289,1.792-1.881,2.657
		c-0.494,0.694-0.706,1.53-1.26,2.173c-0.189,1.11-1.178,1.785-1.094,2.927c-0.894,1.216-0.662,2.84-1.11,4.187
		c-0.638,0.978-0.116,2.088-0.089,3.18c-0.195,0.342-0.547,0.752-0.936,0.672c-0.584-0.503-1.395-0.389-2.077-0.72
		c-0.9-0.316-1.492,0.55-2.053,1.083c-1.135,0.195-1.473,1.533-2.186,2.243c-0.127,0.501-0.145,0.996-0.498,1.405
		c-0.701,0.874,0.461,1.772-0.127,2.692c0.17,0.808,0.487,1.386,0.493,2.207c0.606,0.775,1.417,1.371,1.976,2.259
		c1.011,0.361,2.044,0.997,3.191,0.964c0.749-0.22,1.679-0.235,2.456-0.074c0.779-0.552,1.438-1.257,1.979-2.063
		c0.889-0.559,1.002,0.964,1.869,0.844c0.845,1.798,2.901,1.48,4.011,3.147c0.501,0.127,1.008,0.308,1.421,0.715
		c0.647,1.32,2.237,1.365,3.385,2.099c0.876-0.011,1.7,0.038,2.494,0.416c0.74,0.382,1.661,0.257,2.404,0.695
		c0.7-0.161,1.188,0.514,1.929,0.184c0.745,0.437,1.649,0.096,2.535,0.249c0.691,0.44,1.46,0.493,2.327,0.372
		c1.218-0.529,2.566-0.083,3.882-0.017c1.068-0.354,2.005,0.452,2.958,0.762c1.42-0.051,2.687,0.074,4.016,0.301
		c0.339,0.138,0.524,0.399,0.858,0.484c0.633-0.321,1.13-0.249,1.783-0.299c1.2,0.677,2.456,0.638,3.831,0.754
		c1.176,0.35,2.779-0.153,3.836,0.808c1.586,0.701,3.89-0.675,4.818,1.499c0.325,2.165,0.234,4.578-1.222,6.329
		c-0.264,0.13-0.603-0.011-0.883-0.098c-0.552-0.068-1.076,0.244-1.429,0.654c-0.242,0.401,0.012,0.874,0.044,1.31
		c1.081,1.287-0.466,2.552-0.585,3.874c-0.844,1.157-1.462,2.407-2.785,2.999c-1.044,0.68-1.808-0.74-2.842-0.664
		c-1.036-0.688-2.286-0.595-3.361-1.061c-0.333-0.796-1.085-1.341-1.839-1.887c-0.815,0.06-1.156-0.844-1.825-1.014
		c-1.112-0.955-2.535-0.958-3.6-2.029c-0.377,0.083-0.864,0.175-1.201,0.034c-1.224,0.475-2.638,0.582-3.369,1.785
		c-1.059,0.463-1.921,1.401-2.85,2.129c-1.415,0.107-2.711-0.397-3.869-1.242c-0.856-0.484-1.72,0.403-2.565,0.083
		c-0.891-0.206-1.781-0.414-2.702-0.291c-0.815-0.65-1.679-1.242-2.571-1.448c-0.713-0.768-1.624-1.246-2.436-1.842
		c-1.042-0.032-1.768-0.962-2.713-1.165c-1.66-0.97-3.669-0.766-5.574-0.622c-0.745,0.274-1.365,0.758-2.114,0.978
		c-0.932,0.726-2.305,1.376-2.479,2.702c-0.859,0.94-1.039,2.212-0.844,3.346c-0.081,1.101,0.993,1.568,1.012,2.552
		c-0.029,0.33-0.405,0.413-0.433,0.798c-0.972,0.894-0.699,2.352-1.325,3.493c-0.19,0.397,0.267,0.635,0.505,0.892
		c0.14,0.428-0.102,0.829-0.241,1.166c-0.433,0.799,0.444,1.555,0.069,2.403c0.636,0.446,1.267,0.836,1.848,1.284
		c0.98-0.072,1.821,0.193,2.67,0.567c0.121,0.155,0.028,0.382-0.136,0.393c-0.435,1.511-1.316,2.89-1.303,4.529
		c-0.715,1.422-1.818,2.763-2.649,4.083c-0.225-0.093-0.35-0.301-0.58-0.449c-0.898-0.316-1.822-0.957-2.659-1.169
		c-0.849,1.103,1.215,1.605,0.312,2.713c-0.294,0.46-0.011,1.313-0.597,1.521c-0.764-0.709-1.904-0.568-2.466-1.512
		c-0.576-1.105,1.099-1.394,0.52-2.555c0.549-0.698-0.367-1.231-0.155-2.068c-0.069-3.114-1.566-5.574-3.377-7.845
		c-0.983-0.694-1.59-2.233-2.997-2.02c-1.524,0.115-2.891-0.605-4.499-0.155c-0.544,0.041-1.1-0.083-1.573,0.172
		c-1.777,1.118-4.081,0.306-6.116,0.895c-0.335-0.085-0.681-0.331-1.063-0.303c-2.838,0.814-5.345,2.426-7.737,4.082
		c-1.598,1.324-2.271,3.289-3.749,4.767c-1.044,2.868-2.032,5.732-2.294,8.816c0.223,1.516-0.43,3.042,0.225,4.47
		c0.019,0.984-0.078,1.866,0.159,2.834c-0.185,0.452-0.305,1.063-0.1,1.594c-0.509,1.242,0.091,2.674,0.029,4.047
		c-0.871,2.254-0.843,4.823-1.827,7.032c-0.563,1.957-2.582,2.053-3.818,3.076c-0.082,0.027-0.165,0.029-0.247,0.03v1.885
		c2.239-0.591,4.639-0.889,6.141-2.85c-0.136-1.084,1.225-1.186,1.649-2.094c0.767-0.713,0.422-1.673,0.524-2.5
		c0.814-0.828,1.079-1.668,1.667-2.588c0.494-0.694-0.051-1.418,0.051-2.246c0.227-0.62,0.613-1.305,0.229-2.043
		c0.785-1.209,0.185-2.641,0.142-3.95c0.697-0.928,0.06-2.139,0.149-3.131c1.044-1.392,0.133-3.347,0.123-4.933
		c0.228-0.619,0.567-1.192,0.46-1.894c0.442-0.691,0.208-1.602,0.54-2.285c1.517-0.932,1.165-2.713,1.887-4.026
		c1.587-0.72,1.488-2.792,3.141-3.354c1.399-0.324,2.202-2.025,3.721-2.193c0.335,0.085,0.665,0.113,0.907,0.423
		c-0.006,0.658-0.717,0.656-0.949,1.221c-1.655,1.272-0.392,3.532-1.483,5.035c0.115,1.522-0.596,2.999,0.062,4.481
		c0.823,0.76,0.33,2.218,1.468,2.791c0.571,1.051,1.305,2.091,1.667,3.268c-0.427,1.619-1.518,3.123-1.27,4.965
		c1.058,2.437,0.048,5.03,0.399,7.521c0.72,1.587-0.541,2.995-0.369,4.568c-0.293,0.46,0.345,0.959-0.178,1.272
		c0.033,1.913,0.125,3.875,0.854,5.572c0.354,0.355,0.55,0.779,0.478,1.276c0.762,0.656,0.902,1.794,1.908,2.101
		c1.002,0.964,2.3,0.758,3.532,0.392c1.432,0.111,2.926,0.329,4.386,0.11c1.453-0.327,2.862,0.223,4.246,0.448
		c0.805-0.225,1.601-0.558,2.463-0.731c0.496-0.694,0.849,0.374,1.528-0.058c1.019,0.47,2.359,0.096,3.447,0.015
		c1.467-0.876,2.812,0.282,4.32-0.05c1.155,0.077,1.938-0.419,3.09-0.397c1.413,0.605,3.188,0.201,4.515-0.338
		c0.804-0.225,1.477,0,2.062,0.503c1.355,0.554,1.974-1.406,3.196-1.17c0.954,0.31,2,0.397,2.968,0.161
		c1.267,0.123,0.942,1.624,2.062,1.979c-0.118,0.61,0.911,0.479,0.743,1.148c1.335,1.76,3.658,2.078,5.198,3.659
		c1.085-0.136,2.285-0.172,3.29-0.63c0.866-0.119,1.817,0.138,2.738,0.015c1.111-0.522,2.428-0.455,3.638-0.383
		c0.293,0.253,0.782,0.215,1.155,0.078c1.275,0.232,2.656,0.403,3.904,0.255c0.448,0.13,1.155,0.078,1.524-0.114
		c0.799,0.433,1.519-0.168,2.201,0.163c1.913-0.034,3.872-0.181,5.743-0.047c1.301-0.152,2.779-0.153,4.205-0.096
		c0.789-0.442,1.972,0.017,2.868-0.433c1.028,0.579,2.229,0.544,3.485,0.505c0.518,0.344,0.675-0.488,1.239-0.257
		c0.221,0.038,0.125,0.21,0.346,0.247c0.975-0.128,1.967-0.038,2.864-0.488c0.82-0.006,1.683-0.181,2.507-0.133
		c0.465-0.363,1.097,0.027,1.445-0.437c1.423,0.003,2.959,0.053,4.358-0.271c0.739,0.383,1.275,0.234,2.088,0.118
		c1.276,0.234,2.362-0.613,3.558-0.704c0.16-0.066,0.452,0.186,0.356,0.357c0.2-0.235,0.499-0.641,0.637-0.978
		c0.955-0.401,2.08,0.008,3.097-0.286c0.042-0.167,0.21-0.125,0.256-0.238c1.255-0.039,2.157-1.147,3.197-1.881
		c1.239-0.257,2.046-1.193,2.846-2.182c0.152-0.888,1.571-0.227,1.937-1.185c0.098-0.883,0.802-1.702,1.302-2.341
		c-0.39-0.082-0.902,0.395-1.282,0.423c-1.025,0.187-1.471-0.656-2.014-1.326c-0.804-0.487-1.676-1.187-2.668-1.278
		c-1.146-0.68-2.589-0.244-3.819-0.59c-1.651,0.617-3.436,0.148-5.145,0.713c-0.583,0.263-1.248,0.149-1.719,0.457
		c-1.251,0.095-2.384,0.289-3.515,0.538c-0.938-0.095-1.968,0.749-2.725,0.147c0.032-1.042,0.007-2.078,0.487-2.99
		c0.747-0.986,0.428-2.33,0.777-3.506c0.672-1.254,0.616-2.727,0.955-4.065c0.178-1.272,0.471-2.497,0.928-3.681
		c-0.294-1.729,0.359-3.256,0.282-5.002c-0.268-1.403-0.554-3.022-0.217-4.36c0.763-2.246-0.585-4.171-0.957-6.222
		c-0.61-0.828-0.628-1.813-0.375-2.817c-0.17-0.808-0.01-1.586-0.184-2.448c-1.144-1.393,0.083-3.29-0.847-4.752
		c-0.227-2.282-1.138-4.237-1.465-6.401c0.187-1.163,0.478-2.389,0.217-3.682c-0.128-0.977,1.098-1.396,1.42-2.241
		c0.337-0.627-0.509-0.947-0.709-1.424c-0.764-0.709-0.173-1.573-0.017-2.405c0.433-0.799,0.472-1.732,0.904-2.53
		c0.217-1.494,1.855-2.273,2.699-3.431c0.906-0.34,1.376-1.361,2.339-1.652c1.335-0.428,1.757-2.101,3.286-2.161
		c1.048-0.625,2.037-1.301,3.147-1.822c1.444-0.436,2.366,0.918,3.545,1.322c0.669,0.169,0.889,0.918,1.505,1.091
		c0.709-0.053,1.242,0.508,1.95,0.456c0.769,0.052,1.622,0.48,2.388,0.478c0.939-0.616,2.195-0.656,3.316-0.303
		c0.683-0.378,1.574-0.172,2.214-0.384c0.327-0.024,0.637-0.267,0.918-0.178c0.908-0.286,1.757-0.624,2.664-0.964
		c0.554-0.643,1.22-1.241,1.883-1.893c1.322,0.121,1.32-1.356,2.201-2.025c0.892,0.206,0.413-1.07,1.221-1.24
		c0.739-1.808,3.001-2.305,3.227-4.4c0.564-1.246,1.319-2.124,1.995-3.324c1.296-1.683,1.129-3.914,1.69-5.926
		c0.383-0.739,0.33-1.447,0.211-2.314C-145.667,441.424-145.74,440.444-145.47,439.656z M-227.759,498.236
		c-0.707,1.53-2.216,2.573-3.449,3.651c-0.583,0.973-1.501,1.863-1.579,3.018c-0.616,0.539-0.665,1.363-1.284,1.847
		c-0.509,1.242-1.29,2.503-1.746,3.741c-0.47,1.021-0.94,2.04-1.245,3.103c-0.799,0.279-0.399,1.233-0.912,1.709
		c-0.232,1.277-1.256,2.228-1.433,3.5c-0.214,0.07-0.214,0.07-0.386-0.026c-0.447-0.843-1.52-1.309-2.163-1.863
		c0.315-0.899,0.694-1.693,1.238-2.445c0.49-0.038,0.873,0.701,1.393,0.333c0.74-1.096-0.809-1.307-1.239-1.933
		c-0.828-0.102-1.518-0.543-2.295-0.703c-0.91,1,1.314,1.489,0.238,2.445c-0.349,0.464-0.463,1.129-0.928,1.492
		c-0.851-1.14-2.708-0.344-3.252-1.782c-0.253-1.185,0.323-2.267,0.514-3.376c0.226,0.093,0.603,0.011,0.739,0.383
		c0.019,0.273,0.257,0.528,0.543,0.671c0.227,0.093,0.431-0.088,0.523-0.312c0.15-0.942-0.545-1.438-1.084-2.053
		c-0.724-0.166-1.516-1.256-2.111-0.445c0.767,1.475-0.843,2.634-0.787,4.109c-1.014,0.348-1.435-0.879-2.368-0.918
		c-0.933-0.039-1.076-1.233-1.972-1.494c0.026-0.384,0.39-0.632,0.529-0.969c0.193-0.344,0.212-0.838,0.529-0.971
		c0.238,0.256,0.484,0.621,0.823,0.76c0.217-0.017,0.537-0.149,0.57-0.427c-0.002-0.766-0.269-1.401-0.9-1.792
		c-0.992-0.091-1.705-1.569-2.861-0.936c-0.197,0.29-0.004,0.658,0.128,0.977c0.13,0.264,0.507,0.181,0.639,0.499
		c0.053,0.707-0.568,1.191-0.849,1.815c-0.374,0.138-0.791-0.323-1.235-0.4c-0.397-0.189-0.844-0.32-1.246-0.564
		c-0.042-1.31,1.089-2.27,1.781-3.251c0.558-0.59,0.446-1.348,0.89-1.982c-0.036-2.679,1.719-4.835,2.916-7.113
		c0.069-0.552,0.128-1.213,0.658-1.471c0.953,0.31,1.851,1.339,2.898,0.713c1.012,0.361,1.6-0.558,2.341-0.887
		c0.666-0.598,0.494-2.172,1.845-1.672c0.401,0.244,0.799,0.433,1.297,0.505c1.14,0.627,2.39-0.234,3.544,0.556
		c0.643,0.553,1.522,0.597,2.337,0.537c1.235,0.399,2.611,0.516,3.875,0.584c1.147-0.03,2.262,0.269,3.376,0.514
		C-228.848,496.84-227.243,497.103-227.759,498.236z"/>
	<path fill="#FFFFFF" d="M-182.564,393.68c1.281,0.286,2.641,0.185,3.744,1.033c2.381-0.342,3.661,2.135,5.682,2.804
		c1.167,2.43,4.469,1.964,5.322,4.581c0.613,0.885,1.759,0.853,2.318,1.742c0.66,0.772,1.269,1.601,2.332,1.906
		c0.493,0.728,0.821,1.469,1.364,2.141c0.673,0.223,0.898,1.028,1.269,1.602c1.157,0.843,2.485,1.783,2.706,3.243
		c0.564,0.232,0.772,0.818,1.081,1.287c-0.314,0.189-0.808,0.17-1.193,0.145c-0.509-0.235-0.838-0.977-1.483-0.821
		c-0.686-0.386-1.46-0.491-2.187-0.711c-1.004-0.254-1.94-1.059-2.969-0.927c-1.452-0.383-2.891-0.605-4.296-1.101
		c-1.168-0.241-2.234-0.6-3.313-1.12c-0.459-0.294-1.255,0.039-1.471-0.657c-3.156-1.952-6.805-2.445-10.373-3.326
		c-1.921-1.552-4.213-2.203-6.594-2.571c-1.203-0.731-2.685-0.784-3.696-1.857c-1.207-0.785-2.604-1.172-4.018-1.067
		c-1.407-0.497-2.812-0.993-4.162-1.495c-0.066-0.159-0.297-0.306-0.262-0.582c0.558-0.59,1.365-0.758,2.044-1.193
		c0.574-0.371,1.314,0.011,1.764-0.57c1.527-0.06,2.781-0.866,4.224-1.301c1.171,0.295,2.129-0.817,3.358-0.47
		c0.928-0.015,1.972,0.017,2.805-0.539c0.749-0.221,1.365-0.76,2.195-0.657c1.076-0.244,2.305,0.101,3.355,0.241
		C-182.852,393.482-182.781,393.696-182.564,393.68z"/>
	<path fill="#6DC069" d="M-205.625,399.181c1.447,0.331,2.54,1.78,4.073,1.774c1.207,0.785,2.865,0.279,4.023,1.121
		c1.051,0.14,1.881,1.008,2.894,1.371c1.066,0.359,2.018,1.382,3.257,1.125c2.239-0.057,3.666,2.188,5.765,2.469
		c2.988,0.433,5.845,1.314,8.478,2.868c2.885,1.26,5.871,2.405,9.021,2.827c1.385,0.225,2.55,1.177,3.893,1.569
		c1.447,0.329,2.579,1.558,4.207,1.38c1.811,0.085,3.536,0.448,5.116,1.096c0.335,0.085,0.461-0.418,0.805-0.225
		c0.588,0.558,1.395,0.387,1.965,0.673c0.335,0.085,0.36-0.301,0.577-0.318c1.029-0.131,1.807,0.741,2.872,0.333
		c0.116,0.101,0.335,0.085,0.455,0.24c0.019,0.271-0.072,0.498-0.282,0.622c0.244,1.076-0.301,1.828-0.282,2.812
		c-0.433,0.798-0.955,1.876-1.936,1.896c-0.433,0.085-0.787-0.27-0.921-0.588c-0.125-0.21-0.152-0.591-0.484-0.621
		c-0.73,0.493-1.343-0.392-2.097-0.227c-0.844-0.319-1.861-0.026-2.665-0.512c-1.335,0.428-1.989-0.999-3.179-0.802
		c-0.932-0.039-1.874-0.187-2.722-0.562c-1.076,0.246-1.853-0.627-2.95-0.654c-0.802-0.487-1.858,0.03-2.611-0.516
		c-1.046-0.085-2.008-0.506-2.953-0.71c-1.802-1.398-4.141-1.222-5.93-2.456c-3.116-1.408-6.621-1.475-9.7-3.103
		c-1.375-0.828-3.2-0.363-4.584-1.299c-0.836-0.212-1.534-0.76-2.32-1.029c-0.919-0.588-2.008-0.507-2.92-0.985
		c-0.925,0.069-1.527-0.651-2.169-1.206c-0.424,0.196-0.577-0.393-0.907-0.424c-0.966-0.475-2.106-0.336-2.971-0.927
		c-0.945-0.204-1.458-1.204-2.318-1.742c-0.397-0.189-0.858-0.482-1.339-0.338c-1.214-0.128-2.702-0.29-3.241-1.617
		c-0.365-1.231,1.021-1.719,1.271-2.776c0.293-0.46,0.838-0.501,0.847-1.103c0.469-0.309,0.753,0.546,1.206,0.019
		C-206.047,398.665-205.959,399.096-205.625,399.181z"/>
	<path fill="#6DC069" d="M-232.747,402.359c1.284,0.342,2.787-0.045,4.163,0.071c2.203,0.93,4.888,0.236,7.408,0.267
		c0.355-0.354,0.749-0.22,1.197-0.089c2.193,0.055,4.612-0.509,6.977-0.359c1.183,0.458,1.008,1.785,1.932,2.426
		c0.526,0.454,1.116,1.012,1.723,1.076c0.339-0.573,0.815-0.062,1.209,0.072c1.923,0.841,3.518,2.419,5.657,2.478
		c0.231,0.146,0.632,0.39,0.38,0.683c-1.834,0.355-3.547,0.866-5.576,0.8c-1.548-0.212-3.264-0.467-4.945-0.286
		c-0.167-0.042,0.097-0.172-0.071-0.214c-0.773-0.108-1.741,0.13-2.477-0.197c-1.118,0.412-2.205-0.219-3.403-0.128
		c-2.124-0.607-4.2-1.274-6.363-1.658c0.119-0.612-0.781-0.215-0.487-0.675c-0.238-0.256-0.892-0.206-1.159-0.133
		c-0.105,0.063,0.062,0.106,0.121,0.155c0.163-0.012,0.382-0.029,0.397,0.19c-0.754,0.166-1.741,0.13-2.539,0.408
		c-1.227-0.291-2.494-0.414-3.627-0.932c-1.704-0.092-3.672,0.658-5.077-0.552c-1.079,0.191-1.798-0.632-2.874-0.386
		c-0.957-0.367-2.411-0.039-2.939-1.258c-0.191-0.369-0.665-0.115-0.752-0.546c0.147-0.231,0.435-0.034,0.607,0.063
		c2.581-1.341,5.682-0.097,8.467-0.908C-234.157,402.52-233.325,402.677-232.747,402.359z"/>
	<path fill="#FFFFFF" d="M-209.651,411.192c3.473,0.342,6.805-0.456,10.046-1.027c1.137,0.573,2.632,0.077,3.676,0.874
		c2.052,1.817,4.814,1.445,7.084,2.534c0.632,0.39,1.263,0.783,1.944,1.114c2.356,0.042,4.481,0.65,6.399,2.148
		c2.205,0.217,4.187,1.11,6.13,2.222c1.75-0.021,3.288,0.794,4.865,1.386c2.514-0.024,4.769,0.847,6.93,1.944
		c1.957,0.564,4.315-0.104,6.138,0.853c1.685,0.584,3.506,0.777,5.275,1.028c0.889,0.918,0.672,2.411,1.512,3.388
		c0.284,0.855,0.306,1.893,0.639,2.689c0.537,1.328,0.204,2.721,0.628,4.001c-0.006,1.369-0.117,2.8,0.138,4.039
		c-0.259,1.661-0.416,3.205-0.404,4.846c0.057,0.762-0.048,1.534-0.212,2.26c0.131,1.029-0.353,1.885-0.274,2.919
		c-0.374,0.849,0.097,2.018-0.896,2.639c-0.497,1.405-1.675,2.478-2.344,3.786c-0.155,0.122-0.313,0.189-0.355,0.355
		c-0.056,0.717-1.052,0.571-1.049,1.337c-0.779,0.55-1.371,1.415-2.144,2.076c-0.16,0.066-0.431,0.087-0.507-0.181
		c-0.189-1.081,1.15-1.454,1.521-2.357c0.253-1.004,1.524-0.826,1.668-1.821c0.526-1.025-0.707-2.136,0.383-2.929
		c0.089-0.28,0.348-0.464,0.612-0.594c0.543-0.806,0.469-1.786,0.726-2.736c0.476-0.199,0.001-0.711,0.369-0.903
		c-0.164-1.465,0.543-2.995-0.053-4.374c0.353-1.12-0.121-2.344,0.621-3.384c-0.049-2.129,0.173-4.281,0.616-6.393
		c-0.609-0.828,0.41-1.836-0.359-2.598c0.011-1.314-1.352-1.979-2.33-2.617c-0.115-0.813,0.231-2.042-0.583-2.692
		c-0.339-0.138-0.607-0.065-0.876,0.011c-1.307,0.809-0.056,2.904-1.609,3.349c-0.354-0.358-0.128-0.977-0.637-1.212
		c-0.568-0.285-0.98,0.074-1.399,0.324c-0.479,0.912-1.313,1.467-1.8,2.269c-0.21,0.125-0.486,0.092-0.556-0.122
		c-0.184-0.261,0.013-0.549,0.106-0.775c0.329-0.736,0.932-1.437,1.089-2.27c0.331-0.681,1.588-1.432,0.921-2.313
		c-0.678-0.278-1.49-0.161-2.074-0.665c-0.62-0.227-1.194,0.144-1.734,0.238c-0.574,0.371-1.32,0.647-1.594,1.378
		c-0.784,0.498-1.334,1.194-1.995,1.846c-0.599,0.755-1.089,1.558-1.571,2.415c-1.242,1.681-1.741,3.797-3.43,5.346
		c-0.102,0.829-0.991,1.387-1.038,2.211c-0.403,0.469-0.136,1.105-0.427,1.619c-0.051,0.77-0.208,1.602-0.815,2.25
		c-0.013,0.548-0.534,0.915-0.602,1.468c-0.885,0.613-0.422,1.673-0.637,2.456c0.111,0.756-0.338,1.339-0.117,2.087
		c-0.255,0.238-0.235,0.509-0.102,0.829c-0.382,0.74-0.91,1.709-0.248,2.535c-0.036,0.987-0.13,1.925-0.166,2.912
		c0.291,0.963,1.072,1.89,0.887,3.054c0.616,0.938,1.755,1.511,1.844,2.707c0.919,0.588,1.855,1.393,2.98,1.802
		c0.365-0.245,0.732,0.273,1.093-0.026c0.813-0.116,2.11-0.323,2.921,0.274c0.377-0.083,0.665,0.115,0.898,0.316
		c1.231-0.365,2.243-1.48,3.67-1.423c0.457-0.473,1.343-0.319,1.942-0.365c0.231,0.147,0.196,0.424,0.321,0.633
		c-0.475,0.964-1.53,1.482-2.568,1.504c-0.509-0.235-0.942,0.564-1.465,0.166c-0.687,0.323-1.594-0.101-2.39,0.232
		c-1.842,0.249-3.943,0.678-5.595-0.182c-0.868-0.647-1.872-0.9-2.692-1.604c-0.904-1.136-3.034-1.798-3.056-3.548
		c-0.484-0.62-0.068-1.636-0.707-2.136c-0.191-0.368-0.232-0.912-0.098-1.305c-0.185-1.736-0.253-3.373-0.044-4.975
		c-0.06-1.528-0.656-2.906,0.452-4.194c-0.104-0.648,0.864-0.885,0.592-1.577c0.588-0.919,0.11-2.196,0.698-3.116
		c-0.205-0.532,0.383-0.74,0.404-1.18c0.611-1.358,0.713-2.898,1.604-4.169c0.83-1.32,1.883-2.603,2.151-4.156
		c0.197-0.287,0.223-0.673,0.09-0.992c-0.518-0.344-0.788,0.443-1.282,0.425c-0.117,0.61-0.909,0.998-0.86,1.65
		c-0.734,1.15-1.219,2.717-2.481,3.414c-0.503,0.584-0.338,1.339-0.787,1.921c-0.121,2.033-1.982,3.486-1.827,5.553
		c-0.053,0.77-0.158,1.545-0.603,2.18c0.152,1.303-0.876,2.199-0.836,3.457c0.596,1.378,0.159,2.832-0.012,4.213
		c0.573,1.817-0.092,3.893,1.114,5.39c0.284,0.853-0.142,1.76,0.191,2.556c-0.081,1.101-1.263,1.408-1.863,2.165
		c-1.473,0.056-2.074,1.524-3.355,1.948c-1.768,0.516-2.621,2.276-4.196,3.159c-1.742,0.843-1.855,2.984-3.303,4.133
		c-0.297,0.404-0.089,0.992-0.22,1.438c-0.11,0.72-0.212,1.548-0.949,1.932c-0.531,0.204-0.955-0.312-1.503-0.326
		c-1.414,0.106-2.831,0.924-4.054-0.08c-1.339-0.338-2.916-0.219-4.457-0.323c-0.443-0.077-1.049-0.14-1.195-0.622
		c0.087-1.757,1.509-3.232,0.877-5.099c-0.537-1.328-0.991-2.991-2.471-3.755c-1.07-0.413-2.33-0.428-3.451-0.782
		c0.425-1.619,2.558-0.903,3.159-2.369c0.794-1.1,2.653-1.129,3.024-2.745c0.467-1.073,1.647-1.38,2.462-2.208
		c0.503-0.584-0.056-1.473,0.506-2.008c0.503-0.584,1.003-1.224,1.169-1.947c0.153-0.123,0.48-0.146,0.402-0.469
		c-0.267-0.636-0.953-1.022-1.006-1.73c-1.515-1.965-3.732-2.347-6.009-2.067c-0.264,0.128-0.662-0.06-0.904,0.341
		c0.149,0.537-0.371,0.903-0.497,1.405c-0.535,1.628,0.047,3.554,0.597,5.044c1.174,0.35,1.439,1.698,2.608,1.938
		c-0.24,0.457-0.42,0.962-0.832,1.322c-1.047,0.626-2.161,1.091-2.9,2.186c-0.567,0.481-1.236,0.312-1.872,0.579
		c-0.885,0.613-1.944,1.076-3.095,1.052c-1.248,0.148-2.457,1.552-3.74,0.499c-0.687,0.326-1.125-0.408-1.87-0.134
		c-0.887-0.152-1.652-0.15-2.543-0.356c-1.014,0.348-2.16-0.331-3.107,0.176c-0.913-1.244-2.505-0.577-3.793-0.974
		c-1.463-0.547-3.222,0.077-4.686-0.47c-0.97-0.529-2.294,0.062-3.268-0.522c-1.066-0.359-2.368-0.206-3.3-0.957
		c-1.519,0.169-2.639-0.896-4.023-1.121c-1.507-0.38-2.734-1.437-3.846-2.394c-1.066-0.357-1.906-1.334-3.018-1.579
		c-0.56-0.888-1.949-1.168-1.98-2.314c-1.24-1.221-1.325-3.075-2.57-4.35c-0.006-0.82-0.603-1.486-0.338-2.327
		c-0.348-1.726,0.121-3.512,0.265-5.218c0.401-1.235-0.098-2.784,0.803-3.89c0.475-0.966,0.336-2.104,1.205-2.936
		c-0.004-0.054-0.013-0.163-0.017-0.217c0.755-0.877,0.945-1.987,1.876-2.713c0.412-1.07,1.163-2.002,1.851-3.038
		c1.074-1.01,1.764-2.759,3.33-3.039c0.605-0.702,1.275-1.244,1.958-1.625c0.968-0.948,2.071-1.578,3.239-2.048
		c1.979,0.127,3.096-1.764,5.151-1.37c0.482-0.145,1.123-0.357,1.592-0.666c0.695-0.216,1.653,0.151,2.327-0.338
		c0.586-0.208,1.048-0.626,1.705-0.621c0.232-0.564,0.972-0.182,1.141-0.851c0.917-0.178,1.995,0.344,2.711-0.312
		c0.871-0.065,1.417-0.817,2.291-0.828c0.523-0.314,1.153-0.688,1.73-1.006c0.641-0.212,1.333-0.482,1.848-0.904
		c1.682-0.181,2.715-1.735,4.332-2.076c1.1,0.081,2.04-0.535,2.959,0.053C-210.564,411.424-210.145,411.174-209.651,411.192z"/>
	<path d="M-209.212,427.3c0.318,0.579,0.898,1.028,1.006,1.73c0.346,0.249,0.229,0.859,0.257,1.24
		c-0.089,0.28-0.458,0.472-0.605,0.701c-1.411,0.161-1.688-1.35-2.77-1.927c-0.189-0.315-0.535-0.562-0.777-0.873
		c-0.085-1.142-1.492-2.404-0.256-3.428C-210.822,424.796-210.721,426.866-209.212,427.3z"/>
	<path fill="#FFFFFF" d="M-160.065,425.976c-0.52,1.079-1.155,2.112-1.847,3.093c-1.126,0.303-1.179,1.785-2.255,2.029
		c-1.036,0.79-1.415,2.295-2.576,2.874c-0.108-0.704,0.43-1.564,0.478-2.389c0.056-0.714,0.847-1.103,0.787-1.919
		c1.275-1.245,1.911-2.989,3.54-3.876c0.235-0.509,0.779-0.55,1.199-0.8c0.375,0.628,1.106-0.576,0.999,0.199
		C-160.054,425.373-160.084,425.704-160.065,425.976z"/>
	<path fill="#FFFFFF" d="M-154.903,431.334c0.345,0.96-0.142,1.762-0.013,2.738c-0.015,0.548-0.609,0.648-0.915,0.945
		c-0.44-0.023-0.913,0.232-1.008-0.308c-0.065-0.871,0.217-1.494,0.316-2.377c0.465-0.363-0.074-0.98,0.567-1.193
		C-155.718,430.684-155.094,430.966-154.903,431.334z"/>
	<path fill="#FFFFFF" d="M-153.079,437.435c-0.038,0.223-0.297,0.405-0.448,0.582c-0.452-0.185-1.051-0.14-1.254-0.672
		c-0.087-0.431-0.07-0.925,0.237-1.222c0.264-0.128,0.499-0.639,0.85-0.336C-153.226,436.188-153.12,436.891-153.079,437.435z"/>
	<path fill="#FFFFFF" d="M-255.498,445.648c0.427,0.569,0.595,1.378,0.431,2.102c-0.906,1.052-2.447-0.529-2.986,1.043
		c0.324,1.399-2.641,2.004-1.002,3.414c0.074,0.267-0.018,0.493-0.056,0.714c-1.574-0.538-1.611-2.505-2.311-3.821
		c0.278-0.677,0.048-1.535,0.606-2.125c0.006-0.658,0.86-0.939,0.866-1.596c0.609-0.648,1.443-1.203,2.384-1.053
		C-256.835,444.599-255.94,444.861-255.498,445.648z"/>
	<path fill="#FFFFFF" d="M-168.788,441.019c-0.08,0.389,0.07,0.925-0.354,1.119c-0.373,0.139-0.824-0.047-1.155-0.077
		c-0.189-0.315,0.068-0.553,0.102-0.828c0.189-0.397,0.561-0.534,0.876-0.722C-169.042,440.546-168.917,440.756-168.788,441.019z"/>
	<path fill="#FFFFFF" d="M-158.573,443.702c0.072,0.98-0.516,1.899-0.83,2.797c-0.155,0.121-0.323,0.08-0.487,0.092
		c-0.6-0.722-0.125-1.688-0.024-2.515C-159.503,443.717-158.781,442.405-158.573,443.702z"/>
	<path fill="#FFFFFF" d="M-166.634,445.674c-0.193,0.342-0.039,0.932-0.522,1.078c-0.217,0.017-0.342-0.193-0.354-0.355
		c-0.087-0.431,0.051-0.77,0.189-1.11C-167.122,444.999-166.502,445.226-166.634,445.674z"/>
	<path fill="#F6A7BE" d="M-201.149,450.937c0.611,0.119,0.924,0.643,1.337,1.049c0.241,1.022-1.341,1.085-0.77,2.137
		c0.179,0.205,0.2,0.478,0.053,0.707c-0.577,0.318-1.053,1.282-1.751,0.734c-0.698-0.55-1.199-1.388-1.845-1.995
		c-0.369-1.286-0.145-2.671,0.773-3.56C-202.537,449.947-201.885,450.61-201.149,450.937z"/>
	<path fill="#FFFFFF" d="M-250.951,474.965c0.227-0.62,0.859-0.229,1.297-0.206c1.17,1.007,2.79,0.72,3.918,1.895
		c1.851,1.34,3.572,3.126,5.994,3.328c0.979-0.074,2.118-0.214,2.879,0.44c1.008,0.308,1.919,0.787,2.923,1.04
		c0.579-0.316,1.189-0.199,1.8-0.08c0.565,0.231,0.61,0.83,0.915,1.245c0.006,0.82-0.66,1.416-1.284,1.846
		c-0.475,0.255-0.646,0.87-0.949,1.221c-0.16,0.778,0.278,1.512,0.323,2.11c0.265,1.348,0.531,2.696,1.423,3.669
		c0.259,0.528,0.27,1.401,0.986,1.457c0.019,0.273,0.518,0.345,0.488,0.675c-0.528,0.259-0.966-0.475-1.381-0.17
		c-1.343-0.391-2.677-0.675-4.046-0.681c-1.277-0.234-2.426-0.968-3.819-0.591c-1.104-0.136-1.991-0.999-3.15-1.132
		c-0.418-0.461-0.466-1.114-0.935-1.516c-0.123-0.921,0.91-0.998,1.364-1.525c0.845-0.392,1.278-1.189,2.012-1.628
		c0.942-0.562-0.081-1.089,0.083-1.812c-0.234-0.202-0.366-0.52-0.646-0.609c-0.711,0-0.814,0.828-1.339,1.141
		c-1.747,0.786-3.176,3.629-5.361,2.206c-1.042-0.032-2.062-0.502-2.725-1.328c0.388-1.397-1.624-1.958-0.851-3.33
		c0.919-0.889,1.993-1.899,3.439-1.571c0.382-0.028,0.683-0.378,0.767-0.714c0.035-0.276,0.131-0.446-0.048-0.652
		c-1.395-1.099-2.647,0.472-3.927,0.896c-0.575,0.371-1.14,0.851-1.711,1.277c-0.836-0.212-1.813,0.628-2.577-0.081
		c-0.372,0.137-0.66-0.059-1.051-0.14c-0.237-0.966-1.853-0.627-1.67-1.845c-0.476-0.511-0.751-1.257-0.582-1.926
		c0.312-0.953,0.724-2.025,1.613-2.582c0.473-0.255,0.592-0.866,1.132-0.961C-254.109,474.435-252.14,473.686-250.951,474.965z"/>
	<path fill="#FFFFFF" d="M-222.915,478.174c1.925,0.841,2.916,2.408,4.181,3.955c1.061,1.014,1.866,2.269,3.373,2.649
		c1.688,0.639,3.214,2.002,4.908,2.697c0.835,0.211,1.159-0.579,1.988-0.478c0.469-0.309,1.18-0.308,1.889-0.36
		c0.888-0.56,1.742-0.841,2.877-1.036c0.452-0.526,1.074-1.011,1.709-1.276c0.358-0.356,0.308-1.008,0.112-1.432
		c-0.873-0.701-1.299,0.918-2.04,1.248c-0.597,0.809-1.494-0.217-2.032,0.643c-0.594,0.1-1.028,0.898-1.662,0.454
		c-0.641,0.211-1.382,0.541-2.002,0.313c-0.493-0.018-0.799,0.279-1.2,0.035c-0.737-2.517,2.543-3.309,2.982-5.476
		c0.282-0.622,0.448-1.346,0.782-1.974c0.329-0.736,0.594-1.575,1.448-1.859c1.437-0.546,2.829-0.212,3.996,0.74
		c1.133-0.195,2.654-1.074,3.725,0.049c0.964,0.475,2.265,1.034,3.364,0.35c0.535-0.15,0.97-0.181,1.426,0.059
		c1.221,0.948-0.023,2.627,1.038,3.642c0.27,1.403-0.666,2.787-0.125,4.169c0.351,0.301,0.442,0.787,0.792,1.089
		c0.051,1.418-0.433,2.988,0.739,4.048c0.244,1.787-0.257,3.85,0.793,5.467c0.102,1.361-0.457,2.66-0.083,4.001
		c0.399,0.955-0.297,1.883-0.06,2.85c-0.356,1.832-0.259,3.849-0.669,5.687c-0.689,1.036-0.369,2.38-0.894,3.403
		c-0.264,1.607-0.978,3.028-1.078,4.623c-0.24,0.455-0.253,1.004-0.271,1.498c0.193,0.368,0.276,0.745,0.626,1.048
		c0.732,0.272,1.607,0.262,2.104,1.046c0.741,1.148-0.212,2.314,0.202,3.432c-0.94,1.329-0.42,3.15-1.469,4.487
		c-0.019,0.495-0.534,0.916-0.606,1.414c-0.249,1.058-1.004,1.935-1.195,3.044c-0.689,1.036-1.194,2.332-0.552,3.598
		c-0.278,0.677-0.158,1.543-0.828,2.086c-0.594,0.1-1.388-0.279-1.962,0.092c-0.414,0.304-0.592,0.865-1.066,1.12
		c-1.38-0.17-2.766,0.316-4.067-0.242c-1.182,0.308-2.612,0.196-3.825,0.068c-0.722,0.6-1.83,0.41-2.772,0.261
		c-2.072,0.813-4.201,0.151-6.34,0.092c-1.431-0.111-2.857-0.169-4.231-0.231c-0.699,0.163-1.543-0.159-2.297,0.007
		c-1.557-0.321-3.303-0.244-4.909-0.508c-1.188,0.199-2.229-0.544-3.444,0.039c-1.682,0.181-3.301-0.246-4.811-0.68
		c-1.047-1.564-2.915-0.93-3.861-2.611c-0.585-0.503-0.977-1.349-0.766-2.187c-0.612-1.594,0.501-2.827,0.386-4.351
		c0.35-1.174,0.704-2.296,1.167-3.424c0.297-1.883,0.757-3.777,1.727-5.436c0.28-2.101,1.235-3.978,2.076-5.901
		c0.36-0.3,0.42-0.962,0.83-1.32c0.119-0.612,0.585-0.975,0.707-1.532c1.028-1.608,2.409-2.915,2.935-4.651
		c0.666-0.597,0.858-1.706,1.833-1.832c0.9,0.315,1.889,1.117,2.94,0.546c0.841,0.265,1.683,1.297,2.564,0.628
		c0.453-0.526,1.233-1.078,1.072-1.776c-0.418-0.461-0.987-0.036-1.477,0c-0.531,0.205-1.248,0.15-1.713-0.2
		c-0.777-0.16-1.56-0.375-2.246-0.762c-0.316-1.29,1.089-2.27,1.916-2.935c0.464-0.363,0.809-0.88,1.048-1.337
		c0.856-0.993,2.042,0.231,3.048-0.227c0.824,0.048,1.72,0.309,2.316,0.975c-0.127,0.502,0.279,0.8,0.466,1.115
		c0.469,0.403,1.197,0.621,1.772,0.25c0.264-0.13,0.405-0.414,0.548-0.698c-0.072-0.98-1.512-1.2-1.849-2.051
		c-0.694-0.494-1.609-0.316-2.25-0.815c-0.229-0.148-0.501-0.127-0.684-0.388c0.17-1.381,1.594-2.089,2.758-2.613
		c0.889-0.559,2.303-0.665,3.274-0.136c0.773,0.108,1.656,0.205,2.53,0.195c0.919,0.588,2.27,1.089,2.469,2.277
		c0.56,0.888,1.441,1.698,1.471,2.844c0.671,1.646-0.187,3.352,0.257,4.904c0.397,1.668-0.993,2.812-0.704,4.485
		c-0.361,1.012-1.008,1.881-0.814,3.016c-0.388,1.397-1.39,2.621-1.67,4.009c-0.857,1.706-1.89,3.26-2.746,4.967
		c-0.413,1.07-2.025,1.465-1.931,2.716c0.182,0.261,0.463,0.348,0.798,0.433c0.626-0.429,1.5-0.44,2.187-0.766
		c1.251-0.093,2.385,0.424,3.574,0.226c0.677,0.278,1.465-0.164,2.105,0.335c1.021-0.241,2.129,0.662,3.284,0.027
		c0.972-0.182,1.589,0.756,2.604,0.407c0.611,0.119,1.192-0.144,1.596-0.613c-0.38-0.683-1.078-1.231-1.853-1.339
		c-1.409,0.16-2.523-0.085-3.895-0.146c-1.507,0.331-2.82-0.39-4.386-0.11c-0.62-0.226-1.123,0.359-1.696,0.018
		c-0.739-1.095,0.339-2.05,0.535-3.103c0.253-1.006,0.726-1.97,1.437-2.734c0.027-1.097,0.553-2.121,1.316-2.89
		c0.291-1.225,0.205-2.368,0.945-3.464c0.168-0.669,0.215-1.493,0.217-2.205c0.635-1.033,0.921-2.312,0.505-3.485
		c0.077-0.443,0.43-0.853,0.794-1.099c0.372-0.138,0.799-0.279,1.189-0.199c0.293,0.251,0.635,0.444,0.977,0.639
		c0.98-0.074,2.265-0.443,2.999,0.596c0.335,0.085,0.532-0.204,0.621-0.484c0.098-0.883-0.65-1.375-1.178-1.827
		c-1.197,0.089-2.314-0.209-3.179-0.802c-0.684-0.388-1.577,0.117-2.069-0.613c-0.229-0.858-0.88-1.52-0.844-2.508
		c-0.656-0.717-0.779-1.638-1.435-2.354c-0.726-0.932-1.876-1.666-2.796-2.253c-0.974-0.583-2.135-0.004-3.154-0.475
		c-1.059-0.25-2.16,0.38-3.23-0.034c-0.854,0.284-1.509,1.044-2.508,0.845c-1.291,1.027-2.961,1.371-4.449,1.974
		c-0.992-0.091-2.038-0.176-2.755-0.998c-0.405-0.298-0.66-0.772-0.75-1.257c-0.07-0.925,0.643-1.636,0.917-2.368
		c0.336-0.627,1.534-0.716,1.187-1.675c0.077-0.444-0.484-0.62-0.713-0.767c-0.666-0.115-1.127,0.303-1.53,0.77
		c-0.804,0.225-1.766,0.516-2.504,0.189c-0.646-0.609-1.779-1.126-1.853-2.106c0.137-1.816,1.91-2.989,3.322-3.86
		c0.652-0.048,1.048-0.626,1.625-0.942c0.195-0.344,0.27-0.787,0.187-1.163c-0.085-0.431-0.573-0.339-0.811-0.596
		c-0.924,0.07-1.89-0.405-2.642-0.951c-0.208-0.586-0.128-0.975,0.104-1.541c0.913-0.944,2.066-1.632,3.33-1.563
		C-225.38,476.663-224.248,477.891-222.915,478.174z"/>
	<path fill="#FFFFFF" d="M-256.908,483.837c0.925-0.069,1.963-0.092,2.895-0.053c0.363,0.465,0.526,1.165,0.508,1.658
		c-0.632-0.39-0.947,0.509-1.579,0.119c-0.615-0.173-1.229-1.058-1.89-0.405c-0.277-0.034-0.506-0.181-0.737-0.329
		c-0.078-0.323-0.225-0.803,0.032-1.042C-257.355,483.708-257.214,484.134-256.908,483.837z"/>
	<path fill="#FFFFFF" d="M-214.478,482.688c0.125,0.208,0.112,0.756-0.289,0.514c-0.276-0.034-0.401-0.244-0.472-0.458
		C-215.342,482.095-214.712,482.485-214.478,482.688z"/>
	<path fill="#C2C4C6" d="M-256.725,486.999c1.824,0.246,3.471,1.053,5.164,1.747c1.097,0.027,1.981,0.891,3.117,0.698
		c0.531,0.506,1.233,0.399,1.942,0.346c0.284,0.144,0.479,0.565,0.227,0.858c-0.779,0.552,0.249,1.131-0.305,1.774
		c-0.407,0.414-0.63,1.087-1.216,1.295c-3.266-1.233-6.439-2.692-9.747-3.757c-0.121-0.153-0.339-0.139-0.405-0.297
		c-0.235,0.509-0.707,0.053-1.142,0.085c-0.526-0.452,0.374-0.849,0.225-1.384c0.151-0.176,0.365-0.248,0.511-0.476
		c-0.456-0.24-0.27-0.692,0.152-0.888C-257.63,486.628-257.299,487.369-256.725,486.999z"/>
	<path fill="#FFE5A1" d="M-275.217,489.969c0.892,0.206,1.786,0.467,2.704,0.289c1.142-0.085,1.827,1.013,2.594,1.776
		c0.151,0.537,0.618,0.939,1.036,1.4c1.324,1.598,1.222,3.903,1.642,5.842c-0.008,1.369-1.031,2.32-0.87,3.731
		c-1.112,1.233-2.17,3.173-4.099,2.989c-1.533,0.716-3.07,1.378-4.861,1.567c-1.209-0.785-2.812-0.284-4.067-0.955
		c-1.302-1.326-2.768-2.639-2.702-4.668c-0.244-1.076-0.735-2.517,0.182-3.406c-0.065-0.872-0.476-1.99,0.07-2.742
		c1.233-1.076,1.724-2.537,2.615-3.808c0.671-0.543,1.557-0.389,2.15-1.254c1.163,0.185,1.772-1.172,2.91-0.601
		C-275.581,490.215-275.442,489.875-275.217,489.969z"/>
	<path fill="#FFE5A1" d="M-291.844,494.441c-1.118,1.178-1.886,2.604-2.156,4.101c-0.346,1.23-1.868,2.11-1.484,3.558
		c0.306,1.18-0.888,2.036-0.97,3.137c0.395,0.902-0.289,1.991,0.529,2.696c-0.675,1.2-0.511,2.665-0.305,3.963
		c-0.898,1.163,0.254,2.662-0.143,3.95c0.282,1.566-0.989,2.864-0.384,4.351c-0.138,0.339-0.219,0.728-0.588,0.919
		c-0.33-0.741,0.036-1.698-0.506-2.369c0.397-1.289,0.399-2.711,0.516-4.088c-0.642-1.267-0.149-2.725-0.635-4.112
		c-0.144-1.904,0.049-3.725,0.291-5.603c0.658-1.473,0.476-3.154,1.14-4.517c0.019-1.206,1.335-1.906,1.86-2.93
		c0.274-0.732,1.214-1.349,1.319-2.124C-292.9,494.958-292.339,494.423-291.844,494.441z"/>
	<path d="M-274.307,495.537c1.386,0.991,1.89,2.594,1.736,4.194c-0.077,0.443-0.157,0.832-0.463,1.129
		c-0.883-0.1-1.061,1.173-1.902,0.908c-0.724-0.165-1.552-0.267-1.982-0.891c-0.089-1.197-1.39-1.756-1.106-3.092
		c0.116-1.376,1.231-2.553,2.513-2.978c0.217-0.017,0.372-0.137,0.648-0.104C-274.47,494.838-274.651,495.344-274.307,495.537z"/>
	<path fill="#C2C4C6" d="M-252.238,494.322c-0.3,1.117-1.11,1.999-1.525,3.014c-0.488,1.515-1.643,2.913-1.408,4.593
		c-0.813,2.305-2.745,4.255-3.39,6.601c-0.024,1.151-0.093,2.415-0.957,3.301c-1.406,1.691-1.573,3.839-2.804,5.68
		c-0.026,0.386-0.206,0.891,0.089,1.199c0.238,0.255,0.582,0.448,0.909,0.424c0.443,0.077,0.565-0.479,0.713-0.71
		c0.344-0.518,0.353-1.119,0.76-1.534c0.606,0.776,0.325,2.164,0.015,3.118c-1.656,1.272-3.192,3.413-5.546,2.659
		c-0.999-0.199-2.297,0.007-2.861-0.936c0.136-0.393-0.119-0.866-0.505-0.892c-0.33-0.03-0.564-0.231-0.747-0.492
		c-0.036-0.49-0.698-0.548-0.84-0.977c-0.261-1.293-0.257-2.716,0.821-3.674c0.475-0.964,1.48-1.423,2.072-2.288
		c0.671-0.542,1.534-1.429,2.449-0.896c-0.454,1.237-1.46,2.409-0.97,3.848c0.184,0.261,0.276,0.747,0.66,0.772
		c1.189-0.197,0.422-1.673,1.361-2.291c0.781-1.261,1.842-2.436,1.666-4.063c1.463-1.642,1.468-3.776,2.769-5.405
		c0.65-0.815,0.405-1.891,0.889-2.747c0.857-1.706,2.687-2.827,2.479-4.893c0.223-1.384,1.235-2.499,1.794-3.8
		C-253.684,493.282-252.966,494.103-252.238,494.322z"/>
	<path fill="#C2C4C6" d="M-274.066,498.036c0.179,0.205,0.033,0.435-0.181,0.505c-0.072,0.499-0.14,1.051-0.554,1.356
		c-0.376,0.083-0.699,0.163-1.093,0.027c-0.344-0.193-0.582-0.45-0.823-0.758c-0.011-0.876,0.301-1.828,1.201-2.225
		c0.097-0.172,0.197-0.288,0.353-0.41C-274.901,497.113-274.686,497.808-274.066,498.036z"/>
	<path fill="#FFFFFF" d="M-260.843,502.901c-0.27,0.785-0.594,1.575-0.977,2.315c-0.36,0.301-0.359-0.41-0.319-0.632
		c-0.116-0.812,0.96-1.056,0.681-1.857C-261.253,502.549-261.018,502.749-260.843,502.901z"/>
	<path fill="#FFFFFF" d="M-227.598,501.124c-0.331,0.681-1.248,0.859-1.188,1.676c-0.541,0.806-1.091,1.505-1.698,2.151
		c-0.16,0.066-0.384-0.026-0.452-0.185c0.116-1.376,1.337-2.617,2.25-3.56C-228.26,501.064-227.26,499.786-227.598,501.124z"/>
	<path fill="#ED1C2E" d="M-263.247,508.061c-0.032,1.042-0.904,1.818-0.769,2.901c-0.045,0.113-0.155,0.122-0.205,0.181
		c-1.147,0.03-2.083-0.775-3.256-0.359c-0.257,0.95-1.354,0.923-1.965,1.515c-1.857,1.507-3.117,3.681-3.046,6.083
		c0.55,0.779,0.151,2.014,1.066,2.545c0.453,0.951,1.017,1.894,2.092,2.362c0.689,0.44,1.117,1.776,2.178,1.314
		c1.349,1.212,3.195,0.308,4.787,0.353c0.537-0.86,1.409-1.638,2.5-1.665c1.482,0.055,1.573-1.649,2.275-2.523
		c0.437-1.454,0.948-3.408-0.032-4.812c-0.335-0.085-0.632-0.39-0.71-0.713c-0.399-1.666,0.666-2.785,1.685-3.793
		c1.536,0.049,2.722,1.274,3.98,2c0.63,0.392,0.72,1.589,1.672,1.133c0.983-0.018,1.26,1.494,2.341,1.303
		c0.407,1.064,1.732,0.473,2.084,1.541c0.476,0.512,1.201-0.034,1.824,0.248c0.74,0.382,1.299,1.271,2.212,1.038
		c0.538,0.615,1.467,0.601,1.855,1.393c0.17,0.096,0.45,0.185,0.522,0.397c0.007,0.821,1.067,0.359,1.577,0.594
		c0.448,0.13,0.166,0.754,0.246,1.076c-0.293,1.225-0.98,2.263-1.218,3.483c-0.488,1.515-0.922,3.024-1.352,4.588
		c-0.019,0.494-0.195,1.055-0.665,1.363c-0.431,0.087-0.403,0.469-0.717,0.656c-1.151-0.023-2.379,0.398-3.367,1.074
		c-1.636-0.643-3.449-0.015-5.061,0.378c-1.634-0.643-3.661,0.056-5.461,0.136c-2.196-0.82-4.776,0.522-6.913-0.249
		c-1.87-0.132-3.426,1.023-5.094,0.656c-2.152-0.989-4.504,0.501-6.603-0.491c-0.999-0.199-1.946,0.31-2.946,0.111
		c-0.122-0.155-0.393-0.136-0.301-0.36c-1.921-0.075-2.733-2.15-4.334-3.069c-0.297-0.306-0.159-0.645-0.185-1.027
		c0.368-0.191-0.049-0.652-0.125-0.921c0.242-1.878,0.49-3.702,0.732-5.58c-1.112-2.434,0.215-5.161-0.567-7.565
		c-0.963-1.898,0.431-3.753,1.07-5.442c0.461-0.418,0.945,0.202,1.385,0.225c1.498-0.442,3.251,0.303,4.558-0.507
		c1.161-0.579,2.745,0.123,3.647-0.984c1.9-0.196,3.268-1.667,4.48-3.016C-265.774,505.731-264.065,506.644-263.247,508.061z"/>
	<path fill="#FFFFFF" d="M-188.35,513.015c-0.138,0.339-0.279,0.677-0.588,0.919c-0.323,0.078-0.297-0.306-0.363-0.465
		c0.127-0.502-0.039-1.256,0.605-1.413C-188.306,512.136-188.539,512.701-188.35,513.015z"/>
	<path fill="#FFFFFF" d="M-174.786,529.017c1.398,0.388,3.281-0.027,4.06,1.611c0.344,0.193,0.486,0.62,0.568,0.997
		c-0.041,0.934-1.12,1.125-1.678,1.713c-0.977,0.838-2.063,1.685-2.976,2.63c-1.003,1.224-2.468,0.677-3.725,1.427
		c-1.891-0.405-3.167,1.549-5.094,0.654c-1.376-0.115-2.915-0.219-4.326-0.059c-0.583,0.263-1.354,0.212-1.906,0.144
		c-0.71-0.713,0.225-1.385,0.393-2.055c0.985-0.732,1.557-1.868,1.409-3.116c0.059-0.66-0.731-0.984-0.558-1.6
		c1.577-1.596,3.855-1.11,5.958-1.541c0.605,0.063,1.369,0.007,1.943-0.365c0.983-0.018,2.021-0.041,2.972-0.495
		C-176.8,529.168-175.795,528.71-174.786,529.017z"/>
	<path fill="none" d="M-228.918,495.915c-1.114-0.245-2.23-0.544-3.376-0.514c-1.265-0.069-2.641-0.185-3.875-0.584
		c-0.815,0.06-1.694,0.017-2.337-0.537c-1.154-0.79-2.403,0.071-3.544-0.556c-0.497-0.072-0.895-0.261-1.297-0.505
		c-1.35-0.501-1.178,1.074-1.845,1.672c-0.741,0.329-1.329,1.248-2.341,0.887c-1.047,0.626-1.945-0.402-2.898-0.713
		c-0.529,0.257-0.588,0.919-0.658,1.471c-1.197,2.277-2.951,4.434-2.916,7.113c-0.444,0.635-0.333,1.393-0.89,1.982
		c-0.692,0.981-1.824,1.942-1.781,3.251c0.403,0.244,0.851,0.375,1.246,0.564c0.443,0.077,0.86,0.538,1.235,0.4
		c0.281-0.624,0.902-1.108,0.849-1.815c-0.132-0.318-0.509-0.235-0.639-0.499c-0.133-0.32-0.326-0.687-0.128-0.977
		c1.156-0.633,1.869,0.845,2.861,0.936c0.631,0.39,0.898,1.027,0.9,1.792c-0.033,0.278-0.353,0.41-0.57,0.427
		c-0.339-0.138-0.585-0.503-0.823-0.76c-0.318,0.133-0.336,0.627-0.529,0.971c-0.138,0.338-0.503,0.584-0.529,0.969
		c0.895,0.261,1.038,1.454,1.972,1.494c0.932,0.039,1.354,1.267,2.368,0.918c-0.056-1.475,1.554-2.634,0.787-4.109
		c0.595-0.811,1.388,0.279,2.111,0.445c0.539,0.615,1.233,1.111,1.084,2.053c-0.093,0.225-0.297,0.405-0.523,0.312
		c-0.285-0.144-0.524-0.397-0.543-0.671c-0.137-0.372-0.514-0.289-0.739-0.383c-0.192,1.109-0.768,2.191-0.514,3.376
		c0.546,1.438,2.401,0.643,3.252,1.782c0.465-0.363,0.579-1.028,0.928-1.492c1.076-0.955-1.148-1.445-0.238-2.445
		c0.777,0.161,1.468,0.601,2.295,0.703c0.43,0.626,1.98,0.836,1.239,1.933c-0.52,0.368-0.903-0.371-1.393-0.333
		c-0.546,0.752-0.924,1.546-1.238,2.445c0.643,0.554,1.717,1.021,2.163,1.863c0.172,0.096,0.172,0.096,0.386,0.026
		c0.178-1.272,1.201-2.223,1.433-3.5c0.512-0.476,0.113-1.43,0.912-1.709c0.305-1.063,0.775-2.083,1.245-3.103
		c0.456-1.237,1.236-2.499,1.746-3.741c0.62-0.485,0.668-1.308,1.284-1.847c0.078-1.155,0.996-2.044,1.579-3.018
		c1.233-1.078,2.742-2.121,3.449-3.651C-227.243,497.103-228.848,496.84-228.918,495.915z"/>
</g>
</svg>
