<?xml version="1.0" encoding="utf-8"?>
<!-- Generator: Adobe Illustrator 17.0.2, SVG Export Plug-In . SVG Version: 6.00 Build 0)  -->
<!DOCTYPE svg PUBLIC "-//W3C//DTD SVG 1.1//EN" "http://www.w3.org/Graphics/SVG/1.1/DTD/svg11.dtd">
<svg version="1.1" id="レイヤー_1" xmlns="http://www.w3.org/2000/svg" xmlns:xlink="http://www.w3.org/1999/xlink" x="0px"
	 y="0px" width="160px" height="150px" viewBox="0 0 160 150" enable-background="new 0 0 160 150" xml:space="preserve">
<g>
	<path d="M102.331,0c-0.18,0.06-0.362,0.121-0.543,0.18c-0.868,1.536-2.728,0.39-4.212,0.821c-0.541,0.33-1.079,0.661-1.622,0.99
		c-0.374,0.178-0.743,0.355-1.115,0.533c-0.434,0.246-0.87,0.49-1.306,0.733c-0.323,0.096-0.642,0.195-0.963,0.292
		c-0.505,0.068-1.179-0.062-1.609,0.166c-0.423,0.22-0.619,0.7-0.992,0.953C89.698,4.85,89.323,4.785,89.021,4.9
		c-0.011,0.006-0.02,0.012-0.03,0.015c-0.387,0.204-0.511,0.646-0.878,0.886c-0.342,0.217-0.815,0.268-1.128,0.519
		c-0.301,0.238-0.359,0.517-0.561,0.8c-0.169,0.158-0.338,0.316-0.508,0.471c-0.119,0.189-0.238,0.378-0.356,0.564
		c-0.344,0.418-0.905,0.445-1.309,0.767c-0.496,0.39-0.721,0.948-1.191,1.304c-0.202,0.085-0.406,0.169-0.612,0.254
		c-0.631,0.494-1.263,0.987-1.898,1.479c-0.599,0.175-1.197,0.349-1.796,0.522c-0.309,0.184-0.549,0.568-0.757,0.841
		c-0.285,0.364-0.821,0.722-1.248,0.849c-0.564,0.163-0.979-0.364-1.599-0.282c-0.344,0.062-0.688,0.126-1.035,0.189
		c-0.57,0.214-1.033,0.525-1.674,0.601c-0.592,0.068-1.069-0.127-1.625-0.192c-0.63,0.012-1.259,0.023-1.891,0.034
		c-0.542-0.066-1.083-0.13-1.628-0.198c-0.776-0.014-1.353,0.539-2.167,0.553c-0.635,0.009-1.056-0.265-1.626-0.318
		c-0.835-0.082-1.746,0.068-2.519,0.068c-0.474,0.006-0.948,0.012-1.425,0.014c-0.671,0.063-1.385,0.226-1.967,0.511
		c-0.711,0.344-1.066,0.711-1.878,0.937c-0.316,0.085-0.643,0.011-0.965,0.011c-0.782,0-1.555-0.033-2.254,0.17
		c-0.254,0.07-0.376,0.228-0.587,0.369c-0.498,0.256-0.998,0.517-1.498,0.773c-0.482,0.252-1.137,0.214-1.614,0.474
		c-0.408,0.217-0.505,0.697-0.847,0.94c-0.781,0.544-1.698,0.953-2.465,1.532c-0.452,0.337-0.709,0.773-1.083,1.163
		c-0.364,0.299-0.725,0.598-1.089,0.897c-0.61,0.571-1.078,1.188-1.624,1.806c-0.724,0.818-0.724,1.803-1.207,2.717
		c-0.22,0.409-0.584,0.626-0.751,1.076c-0.15,0.62-0.297,1.241-0.445,1.859c-0.15,0.359-0.46,0.53-0.656,0.849
		c-0.243,0.39-0.364,0.966-0.456,1.428c-0.138,0.674,0.135,1.281,0,1.966c-0.206,1.022-0.731,1.777-0.903,2.819
		c-0.24,1.428,0.039,3.048,0.127,4.419c0.031,0.536,0.021,1.035,0.144,1.524c0.203,0.451,0.407,0.902,0.608,1.352
		c0.1,0.401,0.202,0.802,0.304,1.199c0.113,0.481,0.228,0.959,0.341,1.44c0.042,0.505-0.133,1.142,0.118,1.58
		c0.228,0.212,0.46,0.424,0.688,0.635c0.288,0.347,0.299,0.838,0.562,1.17c0.575,0.724,1.329,1.148,2.021,1.678
		c0.381,0.293,0.646,0.722,1.04,1.019c0.559,0.418,1.374,0.454,1.865,0.945c0.33,0.331,0.355,0.804,0.675,1.131
		c0.344,0.356,0.798,0.522,1.169,0.827c0.234,0.301,0.471,0.604,0.706,0.905c0.581,0.482,1.96,0.776,2.723,1.03
		c0.559,0.187,1.016-0.264,1.537-0.078c0.285,0.206,0.57,0.415,0.854,0.62c0.609,0.439,1.256,0.538,2.087,0.538
		c0.127-0.12,0.44-0.451,0.632-0.451c0.668,0.804,1.436,0.903,2.527,0.903c0.034-0.006,0.069-0.012,0.102-0.021
		c0.931-0.102,1.888,0.954,2.72,1.211c0.256,0.042,0.517,0.087,0.773,0.129c0.895,0.232,1.69,0.68,2.553,0.993
		c0.53,0.192,1.083,0.291,1.6,0.519c0.53,0.232,0.793,0.878,1.397,1.035c0.451,0.115,1.03-0.087,1.465,0.036
		c0.307,0.085,0.443,0.39,0.702,0.562c0.824,0.542,1.874,1.221,2.954,1.221c0.033-0.008,0.069-0.017,0.102-0.026
		c0.725-0.127,1.179,0.248,1.74,0.481c0.31,0.081,0.62,0.163,0.928,0.243c0.201,0.108,0.403,0.214,0.604,0.322
		c0.288,0.085,0.575,0.172,0.863,0.257c0.252,0.12,0.503,0.246,0.751,0.367c0.878,0.276,1.758,0.33,2.661,0.592
		c0.484,0.138,0.936,0.42,1.405,0.58c0.831,0.283,1.475,0.401,2.181,0.945c0.18,0.139,0.432,0.389,0.506,0.602
		c0.176,0.519,0.378,2.771-0.455,2.771c-0.243-0.081-0.484-0.161-0.731-0.244c-0.663-0.195-1.213,0.429-1.364,0.957
		c-0.086,0.283-0.258,0.612-0.131,0.957c0.217,0.59,1.143,1.385,1.143,2.032c-0.426,0.231-0.806,0.451-1.284,0.572
		c-0.437,0.069-0.875,0.136-1.312,0.202c-1.327,0.304-2.678,0.572-4.065,0.734c-0.494,0.053-0.882,0.264-1.377,0.282
		c-0.892,0.024-1.588-0.268-2.526-0.251c-0.603,0.008-1.044,0.251-1.628,0.251c-0.584,0-0.974-0.291-1.535-0.316
		c-0.626-0.03-1.224,0.186-1.806,0.214c-0.706,0.03-1.188-0.358-1.814-0.466c-0.641-0.112-1.197,0.038-1.764-0.198
		c-0.408-0.172-0.361-0.545-0.674-0.828c-0.279-0.146-0.555-0.293-0.835-0.439c-0.74-0.609-1.492-1.3-2.339-1.692
		c-1.526-0.709-2.595-0.523-4.023,0.241c-0.293,0.155-0.637,0.597-1.004,0.583c-0.048-0.012-0.096-0.023-0.147-0.036
		c-0.355-0.203-0.477-0.602-0.713-0.887c-0.257-0.253-0.511-0.505-0.767-0.758c-0.412-0.586-0.821-1.173-1.233-1.764
		c-0.346-0.487-1.035-0.521-1.453-1.055c-0.328-0.416-0.491-0.889-0.785-1.307c-0.279-0.288-0.559-0.575-0.841-0.863
		c-0.364-0.508-0.728-1.016-1.094-1.524c-0.243-0.285-0.53-0.664-0.855-0.841c-0.282-0.155-0.567-0.129-0.817-0.38
		c-0.304-0.449-0.61-0.899-0.917-1.348c-0.623-0.778-1.359-1.478-1.989-2.239c-0.244-0.364-0.482-0.728-0.725-1.095
		c-0.395-0.479-0.974-0.711-1.335-1.176c-0.543-0.7-0.838-1.523-1.439-2.184c-0.409-0.451-0.965-0.629-1.329-1.091
		c-0.438-0.745-0.872-1.49-1.309-2.237c-0.39-0.505-0.996-0.723-1.404-1.202c-0.401-0.472-0.48-1.098-0.884-1.555
		c-0.367-0.418-0.889-0.613-1.247-1.008c-0.711-0.784-1.191-1.74-1.882-2.55c-0.373-0.437-0.875-0.708-1.241-1.097
		c-0.127-0.24-0.253-0.48-0.381-0.722c-0.333-0.601-0.647-1.12-1.188-1.596c-0.643-0.568-0.854-1.284-1.343-1.916
		c-0.375-0.488-0.954-0.661-1.331-1.089c-0.37-0.539-0.736-1.078-1.106-1.617c-0.384-0.449-0.844-0.77-1.171-1.247
		c-0.301-0.488-0.604-0.973-0.908-1.461c-0.339-0.288-0.677-0.576-1.016-0.866c-0.429-0.514-0.603-1.128-0.973-1.662
		c-0.382-0.544-1.03-0.663-1.425-1.171c-0.432-0.556-0.598-1.169-1.001-1.726c-0.286-0.391-0.692-0.601-0.985-0.979
		c-0.429-0.55-0.664-1.233-1.01-1.82c-0.477-0.799-1.298-1.354-1.948-2.003c-0.606-0.607-1.139-1.362-1.831-1.861
		c-0.195-0.141-0.493-0.214-0.719-0.076c-0.72,0.437-2.125,1.028-2.088,2.097c0.025,0.82,0.677,1.205,1.121,1.806
		c0.53,0.722,0.977,1.56,1.497,2.311c0.356,0.513,0.9,0.905,1.293,1.401c0.543,0.688,0.884,1.47,1.341,2.204
		c0.346,0.559,0.956,0.973,1.323,1.53c0.22,0.544,0.44,1.091,0.658,1.636c0.555,1.004,1.285,1.813,2.04,2.726
		c0.265,0.337,0.53,0.672,0.796,1.007c0.197,0.316,0.397,0.632,0.595,0.948c0.385,0.392,0.768,0.785,1.152,1.173
		c0.336,0.477,0.463,0.976,0.824,1.458c0.304,0.406,0.714,0.635,1.058,1.005c0.223,0.321,0.449,0.646,0.671,0.968
		c0.812,0.987,1.515,1.978,2.26,2.982c0.192,0.195,0.384,0.389,0.573,0.584c0.297,0.522,0.593,1.044,0.89,1.563
		c0.346,0.443,0.863,0.74,1.216,1.196c0.728,0.966,1.458,1.93,2.187,2.892c0.252,0.33,0.569,0.55,0.823,0.878
		c0.358,0.519,0.717,1.041,1.076,1.56c0.668,0.838,1.527,1.54,2.229,2.364c0.276,0.387,0.552,0.773,0.83,1.159
		c0.214,0.204,0.429,0.41,0.644,0.613c0.916,1.108,1.703,2.335,2.561,3.491c1.233,1.661,2.462,3.273,3.738,4.924
		c0.192,0.354,0.386,0.713,0.578,1.068c0.176,0.153,0.35,0.305,0.525,0.455c0.316,0.375,0.632,0.75,0.948,1.125
		c0.401,0.488,0.573,1.089,0.954,1.583c0.341,0.442,0.952,0.815,1.157,1.337c0.282,0.731-1.221,2.139-1.518,2.804
		c-0.234,0.517-0.359,2.278-0.203,2.857c0.12,0.456,0.505,0.725,0.685,1.139c0.322,0.748,0.297,1.942,1.447,1.904
		c0.128-0.006,0.364-0.107,0.364,0.037c0.319,0.299,0.268,0.982,0.325,1.439c0.183,1.521,1.078,2.133,2.375,2.633
		c0.418,0.16,0.9,0.623,1.362,0.623c0.488,1.526-0.339,2.949,1.391,3.905c0.217,0.116,0.432,0.237,0.695,0.271
		c0.543,0.066,1.027-0.254,1.537-0.311c0.297,0.028,0.596,0.057,0.892,0.085c0.767,0.033,1.163-0.252,1.721-0.599
		c0.113-0.069,0.355-0.141,0.355-0.282c0.437,0.207,0.689,0.671,0.94,1.056c0.647,0.984,1.4,2.055,2.667,2.221
		c0.366,0.045,0.829,0.107,1.179-0.023c0.637-0.243,1.575-0.906,1.867-1.553c0.088-0.35,0.176-0.701,0.26-1.055
		c0.085-0.301,0.31-0.511,0.37-0.832c0.025-0.157,0.02-0.627,0.211-0.627c0-0.03,0-0.059,0-0.09c0.031,0,0.062,0,0.091,0
		c0.442,0.346,1.061,0.502,1.627,0.613c0.661,0.127,2.559,0.167,2.836,0.803c0.062,0.148,0.031,0.32,0.008,0.472
		c-0.189,1.14-0.649,2.121-1.001,3.184c-0.243,0.891-0.482,1.784-0.725,2.678c-0.153,0.525-0.427,1.01-0.544,1.556
		c-0.13,0.596,0.07,1.031,0.063,1.617c-0.012,0.542-0.464,0.973-0.491,1.54c0.017,1.052,0.036,2.105,0.053,3.154
		c0.054,0.243,0.108,0.485,0.16,0.725c0.201,0.539,0.195,1.117,0.322,1.702c0.121,0.31,0.243,0.62,0.36,0.931
		c0.084,0.291,0.172,0.579,0.257,0.871c0.155,0.296,0.31,0.596,0.466,0.892c0.329,0.323,0.66,0.644,0.987,0.963
		c0.327,0.522,0.655,1.043,0.979,1.563c0.37,0.261,0.74,0.524,1.107,0.784c0.53,0.482,1.075,0.895,1.572,1.405
		c0.219,0.292,0.44,0.581,0.658,0.869c0.817,0.641,2.575,1.366,3.673,1.507c0.226,0.028,0.457,0.251,0.635,0.251
		c-0.294,1.059-0.003,2.475,0.036,3.612c0.025,0.833-0.27,1.581-0.341,2.338c-0.063,0.647-0.006,1.282-0.161,1.871
		c-0.062,0.232-0.225,0.595-0.423,0.75c-0.039,0.022-0.079,0.045-0.118,0.068c-0.77,0.394-2.168-0.479-3.055-0.463
		c-0.435,0.005-1.031,0.358-1.546,0.415c-0.387-0.051-0.773-0.103-1.16-0.154c-0.273,0.025-0.547,0.051-0.824,0.076
		c-0.235-0.018-0.468-0.033-0.705-0.051c-0.387,0.054-0.66,0.265-1.095,0.265c-0.598,0-1.05-0.319-1.628-0.376
		c-0.508,0.031-1.013,0.063-1.521,0.09c-0.187,0.063-0.373,0.124-0.559,0.184c-0.714,0.068-1.425,0.135-2.139,0.201
		c-0.375,0.235-0.751,0.469-1.125,0.701c-0.381,0.208-1.016,0.423-1.425,0.573c-0.341,0.121-0.722-0.066-1.081,0.02
		c-0.375,0.084-0.598,0.248-0.934,0.364c-0.245,0.056-0.49,0.113-0.74,0.169c-0.649,0.276-1.207,0.866-1.692,1.405
		c-0.132,0.197-0.264,0.394-0.4,0.59c-0.457,0.357-1.08,0.369-1.555,0.718c-0.595,0.435-0.851,1.317-1.295,1.868
		c-0.226,0.165-0.451,0.333-0.68,0.497c-0.361,0.29-0.547,0.894-0.658,1.328c-0.042,0.159-0.313,1.178-0.353,1.178
		c-0.533,0.245-0.916-0.054-1.433-0.007c-0.872,0.079-1.578,0.65-2.546,0.494c-0.128-0.023-0.353,0.03-0.353-0.127
		c0.031,0,0.062,0,0.09,0c0.136-0.387,0.339-0.788-0.059-1.104c-0.827-0.657-3.011-0.102-3.924,0.042
		c-0.449,0.069-0.968,0.046-1.433,0.077c-0.664,0.087-1.324,0.174-1.987,0.261c-0.519,0.13-1.035,0.261-1.555,0.392
		c-0.505,0.073-1.01,0.149-1.518,0.223c-0.195,0.02-1.352,0.147-1.352-0.074c0.115-0.062,0.318-0.27,0.451-0.27
		c-0.147-0.376-0.378-0.73-0.762-0.917c-0.451-0.221-1.034-0.167-1.585-0.167c-0.721,0.007-1.445,0.013-2.167,0.019
		c-0.604,0.082-1.205,0.166-1.808,0.247c-0.514,0.079-1.025,0.161-1.538,0.24c-0.48,0.019-0.959,0.034-1.439,0.052
		c-1.48,0.09-3.019,0.293-4.52,0.392c-1.989,0.125-4.085,0.259-6.043,0.327c-0.844,0.006-1.684,0.012-2.528,0.018
		c-0.452,0.07-0.903,0.144-1.357,0.213c-1.219,0.116-2.691-0.601-3.741,0.016c-0.313,0.18-0.487,0.496-0.581,0.826
		c-0.431,1.496,2.401,1.079,3.329,1.095c0.833,0.012,1.729,0.078,2.621,0.078c0.181-0.029,0.361-0.059,0.541-0.089
		c0.353-0.196,0.824-0.181,1.264-0.181c0.226-0.105,0.62-0.09,0.903-0.09c0.53-0.313,1.485-0.18,2.167-0.18
		c0.24-0.009,0.48-0.018,0.717-0.028c0.505-0.024,0.998-0.062,1.54-0.062c0.03,0.502,0.198,0.713,0.4,1.107
		c0.139,0.271,0.195,0.547,0.43,0.765c0.403,0.376,1.552,0.203,2.149,0.203c0.308-0.155,0.875-0.089,1.264-0.089
		c0.646-0.355,2.887-0.271,3.791-0.271c0.291-0.181,0.701-0.271,1.083-0.271c0.317-0.187,0.855-0.271,1.264-0.271
		c0.212-0.03,0.424-0.06,0.632-0.09c0.376-0.169,1.101-0.09,1.535-0.09c1.083-0.482,1.408,0.598,2.179,0.756
		c0.869,0.048,1.738,0.099,2.607,0.147c0.318-0.144,0.788-0.087,1.173-0.093c0.692-0.028,1.386-0.056,2.077-0.087
		c0.18-0.03,0.361-0.061,0.541-0.091c0.767-0.448,2.324-0.721,3.34-0.721c0.553-0.326,1.368-0.451,2.076-0.451
		c0.382-0.193,1.067-0.091,1.536-0.091c0.573-0.356,1.352-0.181,2.076-0.181c0,0.963-0.189,1.961,0.256,2.739
		c0.09,0.161,0.781,1.014,0.918,1.129c0.259,0.107,0.518,0.214,0.778,0.322c0.263,0.146,0.528,0.296,0.79,0.441
		c0.212,0.077,0.424,0.154,0.635,0.229c0.253,0.121,0.403,0.286,0.682,0.361c0.415,0.057,0.83,0.113,1.241,0.17
		c0.322,0.099,0.523,0.429,0.852,0.507c0.773,0.181,1.513,0.141,2.33,0.263c0.465,0.067,0.734,0.4,1.266,0.417
		c0.294,0.01,0.686,0.025,0.929-0.081c0.144-0.072,0.291-0.147,0.435-0.22c0.48-0.018,0.959-0.03,1.437-0.048
		c0.321-0.078,0.643-0.158,0.964-0.241c0.331-0.12,0.633-0.406,1.022-0.411c0.361,0.057,0.722,0.113,1.081,0.166
		c0.183-0.034,0.369-0.066,0.552-0.099c0.418-0.018,0.838-0.031,1.256-0.048c0.665,0.903,1.737,1.085,2.688,1.486
		c0.364,0.154,0.736,0.441,1.112,0.56c0.545,0.172,1.197,0.105,1.786,0.186c0.155,0.04,0.311,0.078,0.463,0.115
		c0-0.031,0-0.06,0-0.09c0.488-0.115,1.281-0.161,1.777-0.012c0.282,0.093,0.565,0.189,0.847,0.282
		c0.382,0.021,0.643-0.27,0.988-0.27c0.445,0.126,1.04,0.203,1.529,0.141c0.386-0.053,0.711-0.248,1.17-0.192
		c0.392,0.045,0.587,0.307,0.934,0.434c0.906,0.33,1.896,0.52,2.957,0.52c0-0.032,0-0.06,0-0.091
		c1.191-0.319,2.073,0.16,3.127,0.522c0.273,0.092,0.516,0.237,0.846,0.237c0.342,0,0.602-0.195,0.911-0.237
		c0.387-0.017,0.774-0.033,1.159-0.05c0.305-0.088,0.61-0.173,0.915-0.259c0.299-0.046,0.599-0.088,0.895-0.134
		c0.153,0.034,0.304,0.068,0.454,0.102c0-0.03,0-0.059,0-0.089c0.618-0.148,1.608,0.27,2.348,0.27c0-0.03,0-0.06,0-0.09
		c0.497-0.118,1.01-0.259,1.511-0.426c0.162-0.08,0.327-0.159,0.487-0.241c0.463-0.099,0.959-0.009,1.433-0.009
		c0.274-0.058,0.547-0.114,0.818-0.169c0.299,0.011,0.598,0.023,0.897,0.03c0.255-0.141,1.55-0.36,1.897-0.36
		c0.939-0.159,1.875,0.112,2.79-0.037c0.375-0.135,0.75-0.271,1.123-0.409c0.468-0.135,0.945-0.201,1.401-0.315
		c0.164-0.083,0.329-0.161,0.492-0.244c0.433-0.154,0.937-0.169,1.415-0.169c0-0.031,0-0.059,0-0.089
		c1.102-0.224,2.207-0.362,3.432-0.362c1.082-0.7,2.398-1.261,3.397-2.11c0.445-0.384,0.673-1.315,1.154-1.495
		c1.052-0.401,3.355-0.187,4.658-0.187c0.237-0.111,0.612-0.09,0.902-0.09c0.251-0.158,0.573-0.18,0.903-0.18
		c0.179-0.032,0.361-0.06,0.542-0.09c0.306-0.169,0.691-0.181,1.083-0.181c0.21-0.031,0.424-0.06,0.632-0.091
		c0.179-0.03,0.361-0.06,0.54-0.09c0.226-0.104,0.621-0.09,0.903-0.09c0.28-0.141,0.643-0.181,0.992-0.181
		c0.122-0.057,0.723-0.18,0.723,0c0.031,0,0.063,0,0.09,0c-0.546,1.755,1.208,1.806,2.618,1.806c0.241-0.03,0.482-0.058,0.723-0.09
		c0.264-0.159,0.646-0.18,0.992-0.18c0.181-0.03,0.362-0.061,0.542-0.091c0.517-0.283,1.941-0.27,2.619-0.27
		c0.224-0.106,0.62-0.09,0.902-0.09c0.424-0.189,1.118-0.091,1.626-0.091c0.291-0.147,0.803-0.09,1.174-0.09
		c0.417-0.226,1.001-0.18,1.534-0.18c0.271-0.032,0.542-0.06,0.813-0.09c0.241-0.031,0.482-0.061,0.722-0.092
		c0.539-0.248,1.923-0.087,2.615-0.095c0.482-0.028,0.967-0.057,1.448-0.085c0.445-0.261,1.131-0.18,1.715-0.18
		c0.181-0.03,0.361-0.061,0.542-0.091c0.217-0.135,0.524-0.18,0.812-0.18c0.301-0.241,0.812-0.42,0.812-0.902
		c-0.734-0.446-1.918-0.214-2.799-0.187c-3.69,0.113-7.282,0.511-10.837,0.795c-1.022,0.079-1.902-0.247-2.887-0.247
		c0-0.031,0-0.06,0-0.091c0.031,0,0.063,0,0.09,0c0.377-0.291,1.112-0.451,1.626-0.451c0.18-0.031,0.362-0.06,0.542-0.09
		c0.042-0.039,0.722-0.631,0.722-0.631c0-0.121,0.027-0.091-0.09-0.091c-0.786-1.256-3.936-0.046-5.132-0.046
		c-1.021,0-2.017,0.19-2.998,0.286c-0.961-0.015-1.924-0.027-2.888-0.045c-0.948-0.031-1.877,0.161-2.785,0.192
		c-0.665,0.006-1.331,0.013-1.997,0.016c-0.657-0.034-1.363-0.154-2.065-0.061c-0.5,0.066-1.075,0.219-1.536,0.406
		c-0.285,0.114-0.493,0.427-0.823,0.427c0-0.03,0-0.059,0-0.091c-0.031,0-0.061,0-0.091,0c-0.023-0.351-0.045-0.702-0.07-1.054
		c-0.087-0.325-0.252-0.503-0.382-0.796c-0.078-0.32-0.157-0.635-0.236-0.954c-0.111-0.463,0.162-0.948,0.062-1.418
		c-0.076-0.35-0.454-0.531-0.578-0.856c-0.438-1.138-0.937-2.366-1.899-3.188c-0.387-0.33-0.863-0.456-1.279-0.733
		c-0.431-0.288-0.691-0.732-1.153-0.971c-0.37-0.129-0.739-0.258-1.112-0.39c-0.349-0.17-0.701-0.339-1.052-0.512
		c-0.268-0.121-0.569-0.165-0.757-0.432c-0.767-1.069-0.455-1.62-0.719-2.858c-0.114-0.367-0.225-0.735-0.339-1.102
		c0.028-0.389,0.06-0.779,0.086-1.168c-0.033-0.697-0.549-1.218-0.628-1.905c-0.059-0.489,0.251-0.794,0.251-1.252
		c0-0.764-0.251-1.04-0.333-1.642c-0.051-0.358,0.205-0.529,0.205-0.799c0.061,0,0.121,0,0.181,0c0,0.03,0,0.063,0,0.091
		c0.392,0.367,0.879,0.532,1.248,0.914c1.481,1.529,2.661,3.239,5.073,3.239c0.33-0.097,1.218,0.18,1.715,0.18
		c0.238-0.111,1.445-0.259,1.445-0.451c0.031,0,0.063,0,0.091,0c0.329,0.13,1.896,0.047,1.896-0.271c0.03,0,0.062,0,0.09,0
		c1.416,0.567,2.269-0.358,3.182-1.146c0.235-0.158,0.473-0.313,0.706-0.472c0.223-0.223,0.446-0.445,0.668-0.671
		c0.532-0.373,1.095-0.214,1.594-0.764c0.373-0.418,0.307-1.191,0.531-1.688c0.12-0.276,0.358-0.471,0.404-0.787
		c-0.023-0.122-0.05-0.241-0.074-0.362c-0.175-0.33-1.236-0.349-1.582-0.468c-0.308-0.121-0.617-0.243-0.925-0.368
		c-0.596-0.123-1.231-0.113-1.795-0.233c-1.36-0.297-2.94-0.791-4.12-1.411c-1.142-0.605-2.188-1.319-3.361-1.868
		c-0.511-0.244-0.979-0.567-1.554-0.653c-0.386-0.059-0.878-0.056-1.247,0.018c-0.183,0.043-0.367,0.085-0.553,0.127
		c-0.014-0.664-0.027-1.324-0.045-1.987c0-0.767,0.203-1.54,0.099-2.345c-0.096-0.363-0.193-0.728-0.288-1.095
		c-0.221-1.215-0.301-2.282-0.629-3.408c-0.192-0.502-0.382-1.004-0.573-1.507c-0.175-0.358-0.403-0.657-0.512-1.047
		c-0.149-0.479-0.298-0.959-0.448-1.441c-0.037-0.44-0.072-0.881-0.112-1.323c-0.116-0.362-0.232-0.721-0.347-1.081
		c-0.083-0.135-0.166-0.271-0.252-0.409c-0.243-0.74-0.484-1.478-0.73-2.221c-0.105-0.319-0.294-0.565-0.476-0.841
		c-0.175-0.391-0.35-0.782-0.525-1.173c-0.223-0.626-0.446-1.253-0.668-1.882c-0.108-0.322-0.118-0.668-0.244-0.971
		c-0.203-0.493-0.562-0.729-0.668-1.285c-0.021-0.327-0.037-0.655-0.057-0.981c-0.11-0.283-0.22-0.561-0.331-0.844
		c-0.041-0.223-0.084-0.445-0.126-0.668c-0.342-0.7-0.923-1.341-1.185-2.065c-0.048-0.253-0.094-0.506-0.141-0.758
		c-0.132-0.407-0.353-0.768-0.449-1.2c-0.048-0.296-0.094-0.592-0.141-0.892c-0.124-0.315-0.355-0.535-0.542-0.812
		c-0.115-0.169-0.296-0.538-0.54-0.538c0-0.979,0.022-1.969-0.073-2.884c-0.034-0.303-0.202-0.558-0.102-0.88
		c0.243-0.795,1.695-0.439,1.968-1.238c0.283-0.838-0.61-1.411-1.343-1.374c-0.346,0.014-0.568,0.236-0.902,0.236
		c-0.025-0.801-0.271-1.469-0.271-2.257c0.12-0.039,0.271-0.021,0.271-0.18c0.445-0.986,1.537-2.461,2.413-3.172
		c0.526-0.435,1.234-0.706,1.802-1.104c0.551-0.39,1.104-0.775,1.69-1.075c0.424-0.193,0.846-0.383,1.27-0.578
		c0.514-0.341,1.03-0.683,1.543-1.026c0.416-0.214,0.917-0.26,1.337-0.455c0.472-0.222,1.257-1.078,1.772-1.078
		c0.722,0.223,1.392,0.361,1.933,0.94c0.285,0.303,0.463,0.742,0.821,0.965c0.431,0.268,0.876,0.255,1.349,0.434
		c0.33,0.121,0.559,0.412,0.852,0.626c0.321,0.234,1.628,0.666,2.064,0.728c0.492,0.069,0.852-0.249,1.375-0.171
		c0.713,0.101,1.334,0.542,2.08,0.542c0-0.031,0-0.061,0-0.091c0.256-0.061,0.515-0.117,0.77-0.181
		c0.387-0.162,0.631-0.451,1.125-0.451c0.419-0.187,1.008,0,1.445,0c0.333-0.506,2.426-1.008,3.075-1.134
		c0.376-0.046,0.75-0.09,1.125-0.138c0.841-0.292,1.515-1.834,2.116-2.432c0.565-0.567,1.106-0.593,1.474-1.428
		c0.105-0.246,0.329-0.827,0.696-0.827c0.454,0.066,1.442-2.799,2.078-2.799c0-0.03,0-0.06,0-0.09c0.03,0,0.062,0,0.09,0
		c0.12,0.03,0.243,0.063,0.361,0.09c0.265-0.208,0.529-0.414,0.796-0.623c0.229-0.325,0.219-0.776,0.372-1.14
		c0.223-0.542,0.49-1.092,0.748-1.614c0.141-0.364,0.282-0.725,0.424-1.089c0.287-0.581,0.821-1.083,1.027-1.698
		c0.099-0.302,0.081-0.533,0.112-0.875c0.082-0.308,0.164-0.615,0.246-0.926c0.04-0.288,0.079-0.575,0.119-0.866
		c0.107-0.502,0.21-1.182,0.173-1.729c-0.032-0.48-0.18-0.928-0.072-1.428c0.003-0.009,0.006-0.018,0.006-0.028
		c0.01-0.028,0.018-0.054,0.023-0.082c-0.03,0-0.06,0-0.09,0c-0.166-0.307-0.334-0.613-0.502-0.92
		c-0.238-0.932-0.475-1.859-0.714-2.79c-0.027-0.9-0.057-1.798-0.084-2.697c-0.108-0.722-0.608-1.239-0.798-1.921
		c-0.193-0.674-0.108-1.399-0.299-2.04c-0.201-0.482-0.401-0.965-0.604-1.447c-0.13-0.22-0.259-0.437-0.391-0.658
		c-0.247-0.618-0.169-1.484-0.546-2.02c-0.171-0.156-0.34-0.307-0.513-0.463c-0.262-0.307-0.525-0.615-0.792-0.925
		c-0.17-0.153-0.386-0.274-0.498-0.48c-0.175-0.407-0.347-0.812-0.522-1.218c-0.34-0.522-0.815-0.948-1.064-1.507
		c-0.072-0.316-0.144-0.629-0.217-0.945c-0.126-0.322-0.253-0.643-0.381-0.968c-0.226-0.522-0.616-0.824-0.92-1.301
		c-0.208-0.327-0.26-0.706-0.428-1.05c-0.246-0.502-0.688-0.857-0.99-1.317c-0.092-0.252-0.183-0.5-0.276-0.751
		c-0.153-0.198-0.304-0.394-0.457-0.592c-0.068-0.178-0.132-0.356-0.202-0.533c-0.171-0.333-0.434-0.66-0.685-0.944
		c-0.464-0.525-1.205-0.584-1.713-1.001c-0.417-0.344-0.559-1.084-0.83-1.53c-0.259-0.423-0.925-0.764-0.925-1.309
		c-0.808-0.437-0.475-0.748-0.893-1.383c-0.474-0.635-0.944-1.269-1.419-1.907c-0.461-0.525-1.053-0.97-1.574-1.399
		c-0.65-0.549-1.3-1.1-1.948-1.653c-0.274-0.183-0.548-0.367-0.822-0.55c-0.117-0.147-0.236-0.294-0.358-0.44
		c-0.16-0.138-0.322-0.276-0.484-0.414c-0.167-0.256-0.333-0.514-0.502-0.77c-0.425-0.412-1.061-0.37-1.533-0.655
		c-0.493-0.298-0.841-0.787-1.324-1.086c-0.228-0.141-0.601-0.115-0.883-0.147c-0.243-0.062-0.484-0.124-0.728-0.186
		c-0.318-0.02-0.637-0.037-0.956-0.057c-0.626-0.14-1.106-0.536-1.673-0.77c-0.248-0.05-0.497-0.102-0.748-0.155
		c-0.406-0.15-0.575-0.517-1.047-0.593c-0.418-0.048-0.836-0.096-1.255-0.144c-0.275-0.066-0.548-0.13-0.821-0.195
		c-0.924-0.003-1.846-0.003-2.769-0.005c-0.253-0.088-0.505-0.175-0.758-0.262c-0.294-0.034-0.587-0.068-0.881-0.105
		C103.149,0.307,102.701,0.133,102.331,0z"/>
	<path fill="#FFFFFF" d="M103.504,2.347c0.31,0.021,1.805,0.096,1.805,0.362c0.478-0.105,1.294,0.09,1.897,0.09
		c0.448-0.076,0.937,0.087,1.357,0.144c0.511,0.011,1.021,0.025,1.533,0.036c0.114,0.017,0.361,0.15,0.361,0.271
		c0.124-0.031,0.36-0.167,0.36,0c0.756,0.243,1.349,0.883,2.1,1.1c0.618,0.178,1.443,0.048,2.025,0.31
		c0.283,0.127,0.5,0.379,0.751,0.57c0.46,0.349,1.362,0.827,1.978,0.827c0.105,0,0.099-0.045,0.099,0.082
		c0.178,0.124,0.723,0.674,0.723,0.902c0.553-0.039,1.757,0.866,2.1,1.312c0.145,0.22,0.29,0.442,0.433,0.663
		c0.517,0.517,1.419,0.544,1.874,1.016c0.206,0.307,0.414,0.615,0.619,0.92c0.319,0.31,0.637,0.623,0.954,0.934
		c0.441,0.488,0.779,1.103,1.15,1.654c0.232,0.307,0.464,0.615,0.695,0.92c0.19,0.344,0.15,0.757,0.243,1.151
		c0.119,0.268,0.238,0.536,0.353,0.804c0.246,0.536,0.409,1.329,0.849,1.756c0.66,0.638,1.566,0.849,2.068,1.623
		c0.293,0.454,0.503,1.03,0.683,1.54c0.096,0.276,0.088,0.578,0.235,0.835c0.219,0.39,0.605,0.623,0.798,1.049
		c0.246,0.544,0.269,1.224,0.539,1.764c0.286,0.325,0.569,0.65,0.854,0.974c0.307,0.631,0.494,1.314,0.802,1.947
		c0.315,0.652,0.712,1.266,1.016,1.924c0.085,0.334,0.171,0.669,0.256,1.002c0.364,0.708,1.295,0.722,1.64,1.439
		c0.386,0.812,0.369,1.783,0.688,2.643c0.404,1.095,1.072,1.743,1.315,3.019c0.087,0.472-0.18,0.812-0.132,1.247
		c0.112,0.395,0.225,0.793,0.337,1.188c0.091,0.46,0.202,0.908,0.268,1.352c0.03,0.324,0.063,0.652,0.094,0.976
		c0.081,0.192,0.163,0.384,0.244,0.573c0.227,0.793,0.115,1.623,0.233,2.5c0.124,0.394,0.252,0.79,0.376,1.184
		c-0.072,0.364-0.147,0.727-0.219,1.092c-0.006,0.237-0.009,0.474-0.015,0.708c-0.102,0.392-0.201,0.788-0.302,1.179
		c-0.141,0.711-0.162,1.485-0.462,2.12c-0.274,0.573-0.698,1.041-1.12,1.537c-0.184,0.324-0.367,0.649-0.552,0.97
		c-0.096,0.316-0.189,0.632-0.284,0.947c-0.139,0.379-0.771,1.016-1.206,1.016c-0.072,0.454-0.27,0.571-0.529,0.911
		c-0.986,1.282-1.916,1.679-3.223,2.492c-0.352,0.259-0.705,0.522-1.058,0.782c-0.352,0.147-0.657,0.15-1.059,0.15
		c-0.307,0.304-0.77,0.291-1.159,0.403c-0.339,0.124-0.678,0.251-1.016,0.376c-0.562,0.141-1.058,0.201-1.605,0.347
		c-0.277,0.092-0.554,0.185-0.833,0.279c-0.389,0.018-0.776,0.033-1.165,0.048c-0.844-0.011-1.684-0.021-2.528-0.03
		c-0.362-0.076-0.722-0.153-1.087-0.232c-0.841-0.108-1.658-0.141-2.389-0.466c-0.57-0.44-1.141-0.878-1.711-1.318
		c-0.296-0.207-0.592-0.418-0.891-0.625c-0.133-0.334-0.262-0.666-0.395-1.002c-0.248-0.448-0.637-0.722-0.761-1.236
		c-0.11-0.446-0.117-1.14-0.031-1.591c0.061-0.246,0.118-0.491,0.176-0.736c-0.004-0.324-0.007-0.65-0.011-0.977
		c-0.091-0.459-0.311-0.827-0.275-1.365c0.056-0.914,0.505-1.617,0.668-2.443c0.048-0.387,0.099-0.773,0.146-1.16
		c0.258-0.895,0.701-1.775,1.059-2.622c0.075-0.296,0.156-0.589,0.232-0.886c0.075-0.138,0.155-0.276,0.231-0.418
		c0.105-0.412,0.208-0.824,0.31-1.239c0.039-0.172,0.037-0.804,0.124-0.804c0.33-0.559,0.662-1.118,0.992-1.675
		c0.311-0.607,0.575-1.292,0.869-1.904c0.298-0.629,0.643-1.241,0.771-1.95c0.06-0.352-0.034-0.709-0.401-0.776
		c-0.821-0.156-1.466,2.616-1.794,3.226c-0.325,0.591-0.849,1.078-1.394,1.469c-0.289,0.204-0.613,0.322-0.803,0.643
		c-0.25,0.409-0.214,0.841-0.368,1.301c-0.327,0.979-0.944,1.744-1.089,2.83c-0.006,0.53-0.011,1.061-0.02,1.591
		c-0.212,0.779-0.878,1.323-1.086,2.107c-0.15,0.554,0.121,1.101,0.042,1.711c-0.063,0.451-0.178,0.962-0.31,1.413
		c-0.126,0.427-0.397,0.893-0.367,1.369c0.031,0.522,0.382,0.962,0.483,1.479c0.161,0.841,0.033,1.854,0.05,2.784
		c0.006,0.39,0.15,0.75,0.159,1.092c-0.039,0.108-0.076,0.214-0.115,0.319c-0.038,0.045-0.078,0.09-0.121,0.132
		c-0.538,0.52-1.464,0.297-2.08,0.641c-0.346,0.192-0.525,0.471-0.767,0.758c-0.361,0.422-0.869,0.757-1.362,0.931
		c-0.437,0.153-0.836-0.237-1.242-0.051c-0.784,0.352-1.404,1.186-2.076,1.744c-0.525,0.431-1.392,0.683-2.062,0.806
		c-0.121,0.021-0.262-0.011-0.262,0.13c-0.031,0-0.06,0-0.091,0c-0.096,0.589-0.414,1.263-0.903,1.625
		c-0.344,0.252-0.732,0.418-1.015,0.776c-0.407,0.509-0.478,1.286-0.638,1.924c-0.169,0.424-0.339,0.847-0.511,1.269
		c-0.145,0.377-0.184,1.442-0.184,1.9c-0.653-0.023-1.391-0.048-1.972,0.075c-0.338,0.103-0.677,0.204-1.018,0.305
		c-0.598,0.077-1.317-0.118-1.975-0.108c-0.521,0.006-0.892,0.208-1.357,0.231c-0.51-0.02-1.021-0.036-1.535-0.057
		c-0.392-0.102-0.781-0.201-1.173-0.301c-0.472-0.009-0.942,0.144-1.437,0.078c-0.547-0.15-1.095-0.296-1.645-0.445
		c-0.338-0.075-0.707-0.009-0.996-0.175c-0.123-0.072-0.172-0.203-0.186-0.338c0.03-0.268,0.063-0.535,0.093-0.804
		c0.039-0.643,0.012-1.553-0.258-2.071c-0.343-0.646-0.587-1.449-1.071-2.006c-0.284-0.328-0.592-0.601-0.944-0.83
		c-0.646-0.421-1.653-0.589-1.768-1.514c-0.022-0.142-0.043-0.167,0.09-0.167c0.383,0.274,1.106,0.272,1.625,0.272
		c0.559-0.115,1.117-0.232,1.676-0.347c0.743-0.261,1.405-0.912,2.221-1.018c0.753-0.105,1.623,0.189,2.317-0.031
		c0.451-0.147,0.775-0.529,1.167-0.792c0.593-0.404,1.228-0.68,1.866-0.987c0.721-0.353,1.559-0.031,2.386-0.37
		c0.308-0.195,0.616-0.39,0.924-0.586c0.75-0.401,1.646-0.72,2.277-1.347c0.592-0.595,1.041-1.314,1.585-1.929
		c0.251-0.289,0.629-0.421,0.857-0.757c0.299-0.445,0.361-0.965,0.59-1.445c0.232-0.494,0.756-0.98,0.735-1.585
		c-0.019-0.432-0.777-1.334-1.039-1.675c-0.221-0.288-0.397-0.322-0.761-0.347c-0.993-0.073-0.711,1.256-0.731,1.916
		c-0.093,0.62-0.184,1.241-0.277,1.859c-0.006,0.011-0.012,0.025-0.02,0.036c-0.394,0.35-0.789,0.703-1.183,1.053
		c-0.473,0.519-0.979,1.51-1.459,1.874c-0.021,0.014-0.035,0.027-0.057,0.039c-0.02,0.012-0.038,0.025-0.062,0.036
		c-0.014,0.009-0.028,0.018-0.043,0.025c-0.673,0.378-1.339,0.376-2.119,0.567c-0.354,0.085-0.623,0.324-1.016,0.358
		c-0.474,0.036-0.886-0.172-1.32-0.003c-0.65,0.248-1.078,0.982-1.69,1.329c-0.601,0.337-1.284,0.407-1.921,0.656
		c-1.551,0.594-2.961,1.56-4.728,1.709c-0.658,0.055-1.055-0.391-1.711-0.369c-0.462,0.015-0.871,0.243-1.285,0.346
		c-0.292,0.018-0.581,0.034-0.872,0.048c-0.452,0.049-0.864,0.24-1.375,0.142c-0.115-0.023-0.168-0.082-0.168,0.062
		c-0.701,0.132-1.206-0.346-1.831-0.57c-0.652-0.235-1.384-0.355-2.049-0.532c-0.609-0.166-1.357,0.12-1.958-0.073
		c-0.342-0.111-0.485-0.397-0.778-0.595c-0.525-0.356-1.278-0.706-1.897-0.847c-0.502-0.012-1.002-0.021-1.504-0.031
		c-0.474-0.189-0.948-0.378-1.425-0.567c-0.406-0.195-0.581-0.578-0.908-0.854c-0.406-0.344-0.953-0.502-1.447-0.674
		c-0.159-0.057-0.294-0.22-0.468-0.22c-0.04-0.352-0.412-0.902-0.812-0.902c-0.232-1.231-1.811-1.431-2.57-2.215
		c-0.587-0.607-0.477-0.757-0.731-1.47c-0.091-0.248-0.31-0.437-0.31-0.739c0.118-0.15,0.183-0.249,0.201-0.458
		c0.027-0.42-0.497-2.257-0.785-2.465c-0.603-0.44-1.36,0.62-1.545,1.04c-0.376,0.824,0.381,2.161,0.643,2.889
		c0.117,0.341,0.24,0.685,0.358,1.028c0.39,0.333,0.779,0.665,1.166,0.998c0.192,0.228,0.384,0.457,0.573,0.682
		c0.237,0.214,0.925,0.376,0.925,0.799c-0.03,0-0.059,0-0.09,0c0,0.03,0,0.063,0,0.09c-0.031,0-0.059,0-0.091,0
		c-0.905-0.519-1.93-0.485-2.973-0.674c-0.509-0.099-1.014-0.198-1.521-0.299c-0.248-0.123-0.496-0.248-0.745-0.375
		c-0.294-0.054-0.587-0.107-0.883-0.16c-0.164-0.073-0.325-0.146-0.488-0.223c-0.565-0.034-1.128-0.068-1.693-0.102
		c-0.881-0.102-1.659-0.398-2.42-0.74c-0.189-0.135-0.376-0.27-0.564-0.406c-0.286-0.141-0.57-0.282-0.855-0.423
		c-0.863-0.623-1.462-1.56-2.254-2.237c-0.547-0.465-1.262-0.827-1.894-1.151c-0.276-0.105-0.55-0.208-0.827-0.317
		c-0.487-0.273-1.19-1.362-1.602-1.803c-0.263-0.28-0.565-0.454-0.776-0.757c-0.262-0.369-0.765-1.766-0.765-2.252
		c0-0.4,0.24-0.779,0.121-1.173c-0.065-0.208-0.127-0.415-0.192-0.623c-0.226-0.417-0.578-0.745-0.708-1.211
		c-0.13-0.469-0.018-1.037-0.099-1.506c-0.102-0.564-0.412-1.043-0.488-1.633c-0.072-0.538,0.121-0.987,0.133-1.529
		c-0.002-0.452-0.005-0.9-0.012-1.352c-0.028-0.24-0.056-0.477-0.087-0.717c0.081-0.246,0.162-0.491,0.246-0.739
		c0.099-0.409,0.201-0.815,0.299-1.224c0.132-0.256,0.265-0.513,0.395-0.773c0.285-0.953,0.24-2.02,0.601-2.922
		c0.251-0.325,0.502-0.647,0.75-0.971c0.384-0.812,0.448-1.716,0.895-2.489c0.387-0.676,0.931-1.201,1.42-1.809
		c0.384-0.482,0.598-1.082,1.143-1.475c0.412-0.299,0.934-0.387,1.362-0.661c0.649-0.423,1.12-1.038,1.746-1.485
		c0.283-0.175,0.565-0.349,0.847-0.524c0.125-0.13,0.249-0.26,0.373-0.392c0.311-0.18,0.678-0.279,0.971-0.497
		c0.361-0.265,0.724-0.528,1.085-0.793c0.659-0.223,1.315-0.442,1.97-0.666c0.113-0.045,0.268-0.048,0.268-0.192
		c0.259,0.054,1.624,0.006,1.624-0.271c0.388,0.025,1.897-0.271,1.897-0.271c0.06,0,0.121,0,0.181,0c0-0.031,0-0.059,0-0.091
		c0.381-0.056,0.761-0.114,1.142-0.172c0.283-0.111,0.568-0.217,0.849-0.327c0.387-0.03,0.773-0.063,1.157-0.093
		c0.246-0.105,0.491-0.206,0.734-0.311c0.629,0.012,1.261,0.023,1.89,0.034c0.211,0.048,0.427,0.099,0.638,0.147
		c0-0.031,0-0.06,0-0.09c0.454-0.06,0.951,0,1.445,0c0.63-0.39,1.465-0.451,2.257-0.451c0.638-0.268,1.6,0.057,2.257,0.006
		c0.114-0.012,0.091-0.025,0.091,0.085c0.214,0.132,0.432,0.268,0.646,0.4c0.587,0.286,1.422,0.274,1.987-0.042
		c0.454-0.256,0.934-0.539,1.521-0.539c0.18,0,0.361,0,0.541,0c0.159-0.117,0.992-0.078,0.992,0
		c0.198,0.229,0.111,0.759,0.376,0.929c0.26,0.163,0.621-0.045,0.893-0.066c0.617-0.054,1.287,0.387,1.297,1.033
		c0,0.124-0.111,0.361,0.054,0.361c0.117,0.189,0.288,0.361,0.542,0.361c0.435-0.841,1.007-2.179-0.211-2.74
		c-0.235-0.111-0.598-0.22-0.656-0.536c-0.109-0.618,0.805-0.857,1.165-1.137c0.513-0.406,0.871-0.914,1.598-0.914
		c0.559-0.291,1.117-0.581,1.674-0.875c0.632-0.379,1.165-0.934,1.768-1.359c0.422-0.302,0.887-0.466,1.293-0.799
		c0.14-0.158,0.282-0.316,0.42-0.474c0.421-0.369,0.902-0.62,1.304-1.044c0.182-0.208,0.361-0.417,0.539-0.629
		c0.386-0.342,0.852-0.565,1.243-0.857c0.238-0.181,0.474-0.358,0.709-0.539c0.107-0.133,0.214-0.263,0.319-0.395
		c0.328-0.22,0.654-0.439,0.98-0.663c0.636-0.48,0.636-0.881,1.511-1.148c0.643-0.201,1.179-0.352,1.769-0.634
		c0.313-0.178,0.628-0.356,0.941-0.536c0.677-0.246,1.488-0.305,2.162-0.553c0.132-0.05,0.522-0.073,0.522-0.237
		c0.121,0.031,0.244,0.063,0.36,0.091c0.432-0.31,1.307-0.181,1.897-0.181c0.181-0.031,0.361-0.059,0.541-0.09
		c0.392-0.181,0.993-0.09,1.445-0.09C102.709,2.438,103.129,2.457,103.504,2.347z"/>
	<path d="M89.148,15.078c-0.373,0.208-0.809,0.147-1.236,0.262c-0.31,0.124-0.62,0.249-0.931,0.37
		c0.036,0.234,0.081,0.505,0.316,0.626c0.539,0.273,1.227,0.034,1.822,0.189c0.748,0.192,2.192,1.645,2.929,0.573
		C92.986,15.729,89.825,15.236,89.148,15.078z"/>
	<path d="M88.788,26.092c-0.362,0.505-0.847,0.849-1.009,1.467c-0.129,0.485,0.042,1.032,0.068,1.512
		c0.04,0.83-0.288,1.888,0.364,2.46c0.211,0.186,0.499,0.245,0.714,0.394c0.29,0.201,0.487,0.471,0.86,0.533
		c1.397,0.231,1.764-2.396,2.07-2.396c-0.101-0.274-0.203-0.547-0.306-0.824c-0.141-0.807-0.076-1.679-0.554-2.297
		c-0.22-0.138-0.439-0.273-0.662-0.412C89.86,26.259,89.383,26.129,88.788,26.092z"/>
	<path d="M78.224,26.182c0,0.031,0,0.063,0,0.091c-1.498,0.586-1.019,1.65-1.546,2.886c-0.049,0.105-0.243,0.364-0.079,0.364
		c0.234,0.634,0.063,1.329,0.256,1.961c0.257,0.838,1.623,1.966,2.601,1.656c1.321-0.423,1.405-1.348,1.405-2.623
		c-0.009-0.302-0.014-0.604-0.023-0.906c-0.084-0.339-0.268-0.623-0.268-0.99c0.557-0.928-0.649-1.978-1.382-2.285
		C78.896,26.211,78.577,26.194,78.224,26.182z"/>
	<path fill="#F5A627" d="M15.746,31.69c0.491,0.581,0.985,1.166,1.475,1.747c0.244,0.418,0.35,0.881,0.655,1.275
		c0.298,0.291,0.598,0.584,0.898,0.875c0.243,0.156,0.484,0.31,0.727,0.466c0.322,0.553,0.647,1.106,0.968,1.659
		c0.186,0.199,0.373,0.395,0.557,0.593c0.21,0.153,0.426,0.304,0.636,0.457c0.292,0.466,0.585,0.931,0.875,1.397
		c0.316,0.475,0.847,0.782,1.185,1.233c0.252,0.421,0.502,0.841,0.754,1.259c0.435,0.57,1.142,0.796,1.569,1.311
		c0.243,0.452,0.484,0.902,0.725,1.354c0.33,0.53,0.889,0.854,1.269,1.346c0.391,0.508,0.502,1.151,0.852,1.69
		c0.397,0.615,1.078,0.724,1.517,1.255c0.987,1.191,1.56,2.604,2.501,3.83c0.548,0.595,1.095,1.19,1.639,1.783
		c0.811,0.892,1.579,1.963,2.376,2.871c0.304,0.268,0.609,0.536,0.911,0.802c0.296,0.304,0.593,0.609,0.889,0.911
		c0.379,0.379,0.584,0.858,0.899,1.279c0.477,0.482,0.954,0.965,1.431,1.444c0.49,0.711,0.986,1.425,1.476,2.137
		c0.344,0.442,0.895,0.574,1.244,1.01c0.494,0.617,0.627,1.478,1.213,2.046c0.474,0.46,1.16,0.622,1.575,1.125
		c0.4,0.663,0.802,1.329,1.199,1.992c0.228,0.383,0.632,0.602,0.902,0.963c0.262,0.465,0.525,0.93,0.787,1.396
		c0.528,0.711,1.581,1.008,1.711,2.007c0.039,0.307-0.115,0.544-0.115,0.82c-0.426-0.081-0.77-0.327-1.185-0.383
		c-0.394-0.056-0.673,0.106-1.024-0.069c-1.008-0.505-1.329-2.42-1.904-3.308c-0.353-0.542-0.906-0.716-1.304-1.19
		c-0.703-0.835-1.016-1.924-1.834-2.694c-0.24-0.208-0.48-0.416-0.722-0.624c-0.57-0.69-1.047-1.478-1.611-2.194
		c-0.367-0.346-0.734-0.694-1.103-1.044c-0.53-0.861-1.058-1.718-1.588-2.579c-0.463-0.562-1.091-0.9-1.56-1.416
		c-0.424-0.635-0.843-1.267-1.265-1.903c-0.576-0.673-1.425-1.146-1.908-1.861c-0.451-0.668-0.682-1.445-1.193-2.086
		c-0.378-0.471-0.905-0.705-1.302-1.127c-0.436-0.587-0.874-1.173-1.314-1.764c-0.361-0.387-0.722-0.77-1.083-1.157
		c-0.643-0.776-0.892-1.783-1.337-2.661c-0.249-0.485-0.818-0.832-1.182-1.233c-0.361-0.575-0.722-1.151-1.085-1.729
		c-0.235-0.325-0.55-0.683-0.9-0.852c-0.294-0.144-0.568-0.166-0.821-0.398c-0.491-0.445-0.607-1.058-0.98-1.554
		c-0.45-0.475-0.902-0.948-1.357-1.422c-0.519-0.672-0.891-1.443-1.454-2.083c-0.377-0.424-0.858-0.785-1.16-1.253
		c-0.621-0.956-0.918-2.071-1.547-3.002C16.674,33.476,15.622,33.01,15.746,31.69z"/>
	<path d="M128.965,32.412c-0.415,0.575-0.657,1.23-1.104,1.789c-0.702,0.866-1.608,1.298-2.457,1.891
		c-0.37,0.254-0.517,0.655-1.045,0.655c0-0.06,0-0.118,0-0.181c0.152-0.375,0.299-0.747,0.447-1.123
		c0.146-0.144,0.294-0.288,0.439-0.432c0.367-0.302,0.378-0.748,0.378-1.245c-0.45-0.008-0.9-0.017-1.352-0.027
		c-0.369-0.042-0.677-0.231-1.049-0.073c-0.618,0.256-0.945,1.572-1.281,2.127c-0.193,0.24-0.384,0.482-0.578,0.722
		c-0.324,0.581-0.776,1.16-1.047,1.768c-0.241,0.53-0.333,1.107-0.553,1.659c-0.147,0.44-0.292,0.881-0.437,1.32
		c-0.16,0.883,0.26,1.749-0.005,2.669c-0.236,0.804-1.078,1.488-1.592,2.149c-0.254,0.322-0.367,0.661-0.556,1.008
		c-0.187,0.285-0.373,0.57-0.559,0.852c-0.058,0.203-0.111,0.406-0.166,0.607c-0.251,0.812-0.53,1.608-0.355,2.546
		c0.12,0.663,0.815,0.926,0.971,1.469c0.132,0.469-0.082,0.932-0.164,1.344c-0.131,0.64-0.2,1.275-0.219,1.96
		c-0.02,0.652,0.616,1.121,0.887,1.645c0.053,0.265,0.107,0.532,0.16,0.798c0.206,0.858,0.663,1.639,1.668,1.639
		c0-0.03,0-0.059,0-0.09c0.304,0.124,0.612,0.249,0.918,0.373c0.752,0.15,1.577,0.078,2.324,0.203
		c0.269,0.042,0.417,0.274,0.66,0.347c0.626,0.054,1.252,0.107,1.876,0.16c0.628-0.361,1.716-0.09,2.437-0.09
		c0.229-0.161,0.517-0.09,0.812-0.09c0.156-0.111,0.336-0.09,0.542-0.09c0-0.031,0-0.06,0-0.091c0.64-0.288,1.476-0.764,2.032-1.224
		c0.451-0.376,0.761-0.844,1.263-1.14c0.32-0.192,0.576-0.099,0.945-0.121c0.474-0.033,1.061-0.391,1.353-0.767
		c0.643-0.847,0.227-2.26,0.405-3.332c0.069-0.426,0.451-0.736,0.669-1.094c0.16-0.418,0.32-0.836,0.479-1.253
		c0.249-0.728,0.262-1.602,0.223-2.444c-0.034-0.271-0.066-0.539-0.1-0.809c0.058-0.892,0.395-1.699,0.35-2.619
		c-0.068-1.286-0.657-1.763-0.957-2.796c-0.141-0.488-0.05-1.115-0.039-1.633c-0.054-0.511-0.105-1.022-0.158-1.535
		c-0.008-0.48,0.28-0.89,0.426-1.284c0.149-0.418,0.163-0.889,0.298-1.309c0.262-0.841,0.753-1.417,0.753-2.37
		c-1.384-0.375-1.123,1.083-2.076,1.083c0.036-1.216-0.467-1.916-1.259-2.708c-0.274-0.274-0.445-0.494-0.813-0.607
		c-0.545-0.039-1.085-0.076-1.63-0.115c-0.153,0.339-0.265,0.649-0.251,1.08c0.018,0.604,0.671,1.84-0.094,2.212
		c-0.285,0.136-0.739-0.063-0.739-0.403c-0.292,0.028-0.578,0.06-0.869,0.087c-0.15,0.051-0.22,0.183-0.395,0.183
		c0.068-0.753,1.05-2.317,0.862-2.832C129.546,32.561,129.194,32.495,128.965,32.412z"/>
	<path d="M63.417,35.753c-0.382,0.48-1.007,1.331-1.487,1.653c-0.542,0.358-1.769,0.063-2.097,0.62
		c-0.195,0.327-0.217,0.65-0.271,1.055c-0.084,0.336-0.169,0.672-0.253,1.007c-0.028,0.268,0.054,0.565,0.087,0.815
		c0.048,0.378-0.133,0.686-0.028,1.044c0.062,0.22,0.324,0.341,0.463,0.53c0.268,0.372,0.42,0.801,0.895,0.989
		c0.728,0.288,1.87,0.163,2.688,0.192c0.675,0.021,1.477,0.217,2.17,0.217c0-0.03,0-0.06,0-0.09c0.358-0.15,0.765-0.276,1.176-0.302
		c0.656-0.045,1.334,0.043,1.849-0.301c0.234-0.24,0.471-0.48,0.706-0.722c0.497-0.469,0.971-0.737,1.236-1.382
		c0.05-0.297,0.102-0.59,0.153-0.887c0.251-0.956,0.068-1.337-0.409-2.104c-0.261-0.424-0.51-0.83-0.911-1.171
		c-0.197-0.169-0.409-0.153-0.644-0.251c-0.626-0.266-1.199-0.609-1.89-0.742c-0.844-0.003-1.685-0.006-2.529-0.012
		C64.019,35.86,63.72,35.806,63.417,35.753z"/>
	<path fill="#FFFFFF" d="M132.305,36.475c0.952,0.635,1.212,2.745,0.28,3.53c-0.115,0.093-0.203,0.262-0.37,0.262
		c0-0.031,0-0.06,0-0.091c-0.217-0.296-0.231-0.62-0.312-0.985C131.65,38.097,131.774,37.398,132.305,36.475z"/>
	<path fill="#FFFFFF" d="M125.354,37.288c0.181,0,0.36,0,0.541,0c0,0.031,0,0.063,0,0.091c-0.716,0.908-1.408,2.327-2.612,2.726
		c-0.141,0.045-0.457,0.288-0.457,0.163c-0.03,0-0.061,0-0.09,0c0-0.031,0-0.06,0-0.091
		C123.314,39.017,124.74,38.459,125.354,37.288z"/>
	<path fill="#FFFFFF" d="M129.146,37.648c0.284,0.356-0.118,4.188-0.339,4.658c-0.138,0.288-1.153,0.94-1.467,0.94
		c0-0.03,0-0.059,0-0.09c0.369-0.62,0.685-1.32,0.899-2.017c0.057-0.294,0.115-0.584,0.172-0.878
		c0.171-0.437,0.644-0.849,0.644-1.349C129.087,38.493,129.117,38.072,129.146,37.648z"/>
	<path fill="#FFFFFF" d="M65.584,39.726c0.542-0.344,1.107,0.221,0.722,0.812C65.812,40.445,65.548,40.267,65.584,39.726z"/>
	<path fill="#FFFFFF" d="M122.645,40.357c0.03,0,0.063,0,0.091,0c0,0.031,0,0.063,0,0.09c-0.085,0.015-0.182,0.181-0.182,0
		C122.586,40.416,122.617,40.389,122.645,40.357z"/>
	<path fill="#FFFFFF" d="M122.284,44.872c0.334,0.424,0.222,2.438-0.451,2.438C121.688,46.399,121.877,45.63,122.284,44.872z"/>
	<path fill="#FFFFFF" d="M131.041,46.045c0.199,0.37,0.097,1.264-0.45,1.264C130.66,46.838,130.807,46.435,131.041,46.045z"/>
	<path fill="#FFFFFF" d="M126.076,49.928c0,0.181,0,0.361,0,0.542c-0.121,0-0.09-0.031-0.09,0.091c-0.06,0-0.118,0-0.181,0
		c0-0.091,0-0.181,0-0.271C125.895,50.167,125.986,50.049,126.076,49.928z"/>
	<path fill="#FFFFFF" d="M121.652,50.74c0.592,0.189,0.342,1.173-0.271,1.173C121.394,51.432,121.484,51.135,121.652,50.74z"/>
	<path fill="#FFFFFF" d="M131.223,50.74c0.03,0,0.062,0,0.09,0c0.261,0.607-0.483,2.709-1.174,2.709c0,0.03,0,0.062,0,0.09
		c0,0.595-0.813,0.691-0.813,0.451c0.031,0,0.064,0,0.092,0C129.611,52.983,130.362,51.339,131.223,50.74z"/>
	<path fill="#FFFFFF" d="M125.444,53.629c0.566,0.231,0.319,1.354-0.27,1.354C125.156,54.476,125.252,54.044,125.444,53.629z"/>
	<path fill="#FFFFFF" d="M121.652,54.893c0.031,0,0.063,0,0.091,0c0.057,0.06,0.075,0.091,0.18,0.091c0,0.06,0,0.121,0,0.181
		c-0.042,0.015-0.218,0.091-0.09,0.091c0.158,0.575-0.09,1.125-0.09,1.805c-0.091,0-0.181,0-0.271,0c0-0.03,0-0.059,0-0.09
		c-0.124-0.189-0.246-0.378-0.37-0.57c-0.073-0.226-0.078-1.326,0.189-1.326c0.121-0.031,0.243-0.06,0.361-0.091
		C121.652,54.953,121.652,54.925,121.652,54.893z"/>
	<path fill="#FFFFFF" d="M132.125,54.983c0.11,0.11,0.18,0.276,0.18,0.451c-0.09,0-0.18,0-0.27,0
		C132.066,55.286,132.097,55.136,132.125,54.983z"/>
	<path fill="#FFFFFF" d="M85.628,75.208c0.815,0,1.374,0.36,2.167,0.36c0.818-0.504,3.313,0.067,4.244,0.157
		c1.021,0.096,2.208,0.062,3.075-0.226c0.113-0.039,0.355-0.06,0.355-0.201c0.731,0.145,1.658,0.181,2.438,0.181
		c0.256-0.188,0.694-0.308,1.024-0.156c0.254,0.115,1.324,1.8,1.324,2.05c0.054,0.935,0.111,1.868,0.162,2.8
		c0.034,0.286,0.07,0.57,0.105,0.851c0.184,0.432,0.573,0.689,0.833,1.087c0.076,0.116,0.187,0.499,0.344,0.499
		c-0.021,0.273,0.352,2.669,0.476,2.863c0.302,0.483,0.96,0.783,1.177,1.31c0.264,0.655,0.527,1.275,0.556,2.055
		c-0.006,0.435-0.012,0.87-0.018,1.302c0.277,0.505,0.553,1.01,0.828,1.511c0.223,0.611,0.237,1.563,0.558,2.102
		c0.311,0.523,0.861,0.928,1.058,1.515c0.218,0.651,0.131,1.348,0.29,2.04c0.095,0.427,0.457,0.796,0.435,1.276
		c-0.03,0.57-0.427,1.047-0.568,1.572c-0.033,0.211-0.065,0.424-0.099,0.632c-0.313,0.752-1.032,1.475-0.944,2.395
		c0.114,1.233,1.877,0.729,2.225,1.488c0.073,0.25,0.152,0.501,0.224,0.752c0.37,1.092,0.521,1.662,0.045,2.776
		c-0.15,0.344-0.554,0.631-0.554,1.043c-0.409-0.109-0.668-0.306-1.023-0.484c-0.703-0.352-1.408-0.674-2.113-1.011
		c-0.141-0.092-0.28-0.183-0.421-0.276c-0.256-0.065-0.515,0.066-0.68,0.241c-0.692,0.711,0.431,1.179,0.837,1.51
		c0.175,0.144,0.169,0.369,0.365,0.507c0.189,0.043,0.382,0.088,0.569,0.13c0.199,0.108,0.398,0.213,0.596,0.319
		c0.524,0.248,0.976,0.342,0.838,1.06c-0.051,0.246-0.035,0.485-0.168,0.695c-0.302,0.457-0.906,0.653-1.273,1.062
		c-0.73,0.801-1.459,1.601-2.188,2.404c-0.203,0.153-0.449,0.234-0.725,0.156c-0.485-0.138-0.419-0.935-0.554-1.317
		c-0.18-0.355-0.357-0.711-0.539-1.067c-0.2-0.337-0.677-0.613-1.004-0.785c-0.165-0.087-0.403-0.251-0.606-0.197
		c-0.204,0.048-0.325,0.327-0.382,0.492c-0.522,1.453,0.434,0.735,0.728,1.464c0.215,0.539,0.07,1.112,0.07,1.69
		c-0.121,0-0.091-0.03-0.091,0.09c-2.759-0.736-4.316-1.621-5.411-4.336c-0.241-0.592-0.341-1.3-0.535-1.896
		c-0.096-0.573-0.192-1.146-0.292-1.718c0.012-0.439,0.409-2.613,0.822-2.613c-0.105-0.463,0.011-0.954-0.013-1.445
		c-0.044-0.937-0.559-2.119-0.152-3.064C94.41,99.996,95,99.26,95.397,98.42c0.093-0.161,0.189-0.318,0.282-0.479
		c0.109-0.596,0.216-1.191,0.324-1.789c0.023-0.324,0.049-0.65,0.071-0.976c0.152-0.28,0.306-0.557,0.459-0.836
		c0.193-0.665,0.384-1.329,0.575-1.995c0.084-0.442,0.02-0.846,0.204-1.231c0.035-0.077,0.024-0.106,0.143-0.106
		c-0.12-0.435-0.072-2.62-0.541-2.62c-1.366-0.138-0.948,2.012-1.117,2.879c-0.166,0.843-0.48,1.601-0.912,2.319
		c-0.445,0.734-0.93,1.375-1.17,2.224c-0.211,0.731-0.226,1.577-0.432,2.322c-0.516,1.483-1.03,2.968-1.546,4.448
		c-0.208,0.866,0.162,1.687,0.108,2.599c-0.056,0.857-0.476,1.599-0.599,2.44c-0.248,1.707,0.221,3.453,0.644,4.955
		c0.145,0.518,0.575,0.911,0.815,1.388c0.382,0.764,0.488,1.72,1.104,2.356c0.523,0.538,1.176,0.457,1.662,1.233
		c0,0.031,0,0.063,0,0.09c0.745,0.274,1.376,0.666,2.179,0.847c0.567,0.024,1.134,0.052,1.7,0.073
		c0.299,0.023,0.602,0.211,0.907,0.16c0.324-0.048,0.651-0.097,0.976-0.145c0.366-0.098,0.671-0.303,1.101-0.303
		c0.567-0.305,1.181-0.418,1.695-0.83c0.674-0.551,1.108-1.456,1.605-2.098c0.31-0.378,0.619-0.752,0.927-1.129
		c0.16-0.114,0.323-0.224,0.483-0.337c0.202-0.283,0.406-0.562,0.606-0.844c0.386-0.57,0.84-1.038,1.153-1.637
		c0.427-0.818,0.657-1.825,0.782-2.784c0.031-0.253,0.331-0.417,0.331-0.635c0.542,1.176,0.114,2.698-0.193,3.817
		c-0.152,0.545-0.069,1.118-0.24,1.657c-0.211,0.663-0.674,1.284-1.027,1.881c-0.087,0.203-0.175,0.409-0.262,0.613
		c-0.208,0.331-0.615,0.324-0.875,0.619c-0.12,0.19-0.24,0.382-0.361,0.57c-0.161,0.24-0.482,0.44-0.574,0.711
		c-0.091,0.35-0.178,0.701-0.269,1.051c-0.139,0.333-0.363,0.575-0.466,0.931c-0.18,0.606-0.129,1.613,0.068,2.205
		c0.12,0.314,0.244,0.627,0.364,0.937c0.121,0.748-0.113,1.513-0.014,2.246c0.067,0.246,0.135,0.49,0.2,0.734
		c0.106,0.514,0.106,1.047,0.174,1.611c0.085,0.364,0.169,0.728,0.255,1.091c-0.073,0.396-0.148,0.794-0.221,1.189
		c0.034,0.265,0.067,0.533,0.1,0.798c0.321,0.138,0.474,0.356,0.772,0.547c0.413,0.263,0.864,0.404,1.328,0.56
		c0.954,0.316,2.01,0.262,2.908,0.673c0.711,0.325,0.931,0.845,1.54,1.209c0.448,0.169,0.896,0.338,1.344,0.505
		c0.208,0.126,0.42,0.48,0.684,0.48c0.015,0.474,0.091,0.86,0.332,1.219c0.155,0.234,0.414,0.42,0.513,0.697
		c0.279,0.784,0.103,1.713,0.235,2.582c0.076,0.519,0.421,0.904,0.472,1.467c0.042,0.496-0.237,0.724-0.394,1.106
		c-0.147,0.347-0.184,0.696-0.413,0.999c-1.17,1.529-4.11,1.582-5.973,1.896c-0.858,0.141-1.609,0.418-2.535,0.418
		c0,0.031,0,0.063,0,0.09c-0.081,0.07-0.18,0.141-0.18,0.271c-0.472-0.126-0.866-0.002-1.359,0.034
		c-0.268,0.001-0.534,0.005-0.801,0.008c-0.244,0.068-0.485,0.135-0.732,0.201c-0.477,0.035-0.953,0.074-1.433,0.113
		c-0.208-0.03-0.418-0.062-0.629-0.096c-0.217,0.082-0.435,0.163-0.656,0.244c-0.45,0.089-0.9,0.18-1.351,0.267
		c-0.451,0.065-0.903,0.13-1.354,0.195c-0.262-0.027-0.525-0.054-0.788-0.081c-0.791,0.045-1.625,0.251-2.372,0.401
		c-0.42,0.099-0.838,0.2-1.259,0.298c-0.641,0.051-1.428-0.033-1.98,0.223c-0.082,0.036-0.184,0.169-0.184,0
		c-0.757-0.336-3.99-0.051-4.384-0.573c-0.304-0.4-0.057-1.041,0.186-1.379c0.576-0.532,1.153-1.063,1.73-1.597
		c0.968-1.032,1.74-2.243,2.635-3.324c0.084-0.105,0.151-0.258,0.286-0.258c0-0.121,0.027-0.091-0.09-0.091c0-0.06,0-0.117,0-0.181
		c-0.189-0.062-0.384-0.129-0.596-0.084c-0.479,0.097-1.594,0.88-1.977,1.21c-0.401,0.339-0.828,0.951-1.4,0.951
		c-0.516,0.844-1.412,1.453-1.944,2.282c-0.174,0.33-0.347,0.663-0.522,0.993c-0.156,0.401-0.165,0.852-0.488,1.176
		c-0.047,0.037-0.092,0.075-0.141,0.113c-0.615,0.395-2.3-0.113-2.959-0.178c-0.542-0.056-1.092-0.042-1.62-0.048
		c-0.867-0.015-1.681,0.108-2.528,0.054c-0.339-0.023-0.551-0.156-0.793-0.355c-0.535-0.446-0.472-1.798-0.472-2.503
		c0.46-0.493,0.794-1.004,1.202-1.509c0.502-0.626,1.072-1.211,1.372-1.939c0.074-0.195-0.029-0.539-0.243-0.564
		c-0.347-0.041-0.714,0.312-0.964,0.508c-0.351,0.277-0.705,0.553-1.06,0.83c-0.254,0.347-0.509,0.697-0.764,1.044
		c-0.178,0.211-0.356,0.424-0.536,0.634c-0.395,0.512-0.765,1.386-0.785,2.081c-0.008,0.186,0.114,0.902-0.027,0.902
		c-0.503,0.731-1.276,0.139-1.905,0.035c-0.366-0.062-0.73-0.037-1.052-0.179c-0.49-0.217-0.742-0.73-1.368-0.692
		c-0.116,0.006-0.189,0.085-0.189-0.067c-0.193-0.169-0.381-0.337-0.574-0.505c-0.571-0.503-0.787-0.862-0.878-1.663
		c-0.09-0.782,0.129-1.043,0.42-1.642c0.301-0.634,0.748-1.598,1.281-2.08c0.446-0.406,0.94-0.622,1.419-0.94
		c0.289-0.214,0.579-0.426,0.867-0.641c0.375-0.123,0.751-0.248,1.124-0.372c0.552-0.257,1.037-0.612,1.565-0.925
		c0.412-0.144,0.824-0.289,1.233-0.431c0.511-0.209,1.388-0.825,1.939-0.825c0-0.03,0-0.059,0-0.091
		c0.079,0.037,0.181,0.167,0.181,0c0.83-0.135,1.758-0.276,2.619-0.341c0.798-0.065,1.552,0.025,2.344-0.036
		c0.436-0.036,1.069-0.234,1.436-0.19c0.364,0.044,0.601,0.307,0.934,0.411c0.564,0.168,1.098-0.01,1.685,0.041
		c0.564,0.048,1.027,0.344,1.625,0.241c0.201-0.038,1.275-0.169,1.275-0.215c0.186-0.067,0.324-0.183,0.536-0.186
		c0.24,0.016,0.479,0.031,0.72,0.045c0.486-0.068,0.928-0.334,1.317-0.628c0.457-0.356,0.482-0.81,0.561-1.374
		c0.082-0.598,0.272-1.194,0.283-1.83c0.01-0.698-0.171-1.4-0.171-2.059c0.084-0.488,0.168-0.976,0.251-1.465
		c0.075-0.594-0.003-1.205,0.072-1.795c0.159-0.695,0.316-1.389,0.475-2.085c0.044-0.716-0.154-1.211-0.289-1.818
		c-0.09-0.391-0.129-0.795-0.605-0.84c-0.394-0.039-0.662,0.105-0.809,0.439c-0.253,0.562-0.171,1.284-0.213,1.944
		c-0.06,0.331-0.115,0.661-0.176,0.99c-0.112,0.63-0.436,1.067-0.614,1.662c-0.153,0.5-0.028,1.07-0.084,1.595
		c-0.131,0.722-0.259,1.445-0.393,2.167c-0.055,0.748,0.398,2.597-0.29,3.067c-0.32,0.214-1.2,0.695-1.575,0.736
		c-0.522,0.057-0.866-0.296-1.329-0.307c-0.686-0.023-1.276-0.059-1.984-0.059c-0.551-0.057-1.098-0.114-1.647-0.172
		c-0.57,0.02-1.141,0.042-1.711,0.063c-0.482-0.076-0.965-0.153-1.446-0.229c-0.428-0.015-0.653,0.181-1.003,0.235
		c-0.535,0.019-1.072,0.039-1.611,0.056c-0.772,0.076-1.481,0.328-2.185,0.535c-0.528,0.155-1.008,0.401-1.532,0.543
		c-0.836,0.222-1.287-0.071-1.99,0.567c-0.085,0.072-0.163,0.068-0.163,0.205c-0.358-0.048-1.966,0.669-2.314,0.871
		c-0.119,0.104-0.237,0.207-0.358,0.312c-0.589,0.4-1.341,0.592-1.882,1.041c-0.167,0.225-0.334,0.451-0.5,0.675
		c-0.217,0.193-0.435,0.388-0.655,0.579c-0.297,0.424-0.39,0.987-0.559,1.473c-0.369,1.044-0.881,1.906-0.857,3.175
		c0.011,0.798,0.533,1.157,0.533,1.716c-0.336-0.042-1.896-0.108-1.896,0c-0.401,0.165-0.793,0.141-1.253,0.231
		c-0.253,0.045-0.443,0.171-0.734,0.168c-0.243-0.053-0.482-0.107-0.725-0.16c-0.391,0.056-0.784,0.113-1.175,0.165
		c-0.77,0.063-1.874-0.296-1.953-1.134c-0.063-0.626,0.034-1.371,0.294-1.861c0.276-0.531,0.631-1.003,1.055-1.45
		c0.186-0.166,0.376-0.334,0.562-0.503c0.13-0.183,0.421-1.25,0.238-1.424c-0.395-0.376-0.918,0.171-1.222,0.409
		c-1.458,1.123-2.85,2.986-2.85,4.927c-0.944,0.226-2.053-0.206-2.745-0.7c-0.432-0.309-0.587-0.795-0.722-1.27
		c-0.201-0.685-0.025-1.943,0.358-2.504c0.218-0.251,0.435-0.499,0.652-0.751c0.105-0.205,0.212-0.411,0.316-0.619
		c0.274-0.387,0.65-0.681,0.978-1.005c0.102-0.141,0.203-0.282,0.301-0.427c0.339-0.351,0.678-0.705,1.017-1.059
		c0.296-0.216,0.595-0.434,0.892-0.655c0.341-0.287,0.682-0.572,1.021-0.86c0.214-0.19,1.275-0.641,1.275-0.803
		c0.95,0.12,1.588-0.274,2.364-0.59c0.719-0.237,1.442-0.472,2.161-0.708c0.322-0.036,0.646-0.073,0.968-0.113
		c0.599-0.138,1.05-0.485,1.729-0.485c0.517-0.231,3.16,0.406,3.16-0.18c0.273,0.087,0.511,0.042,0.812,0.089
		c0.587,0.091,1.202,0.294,1.859,0.105c0.204-0.101,0.409-0.201,0.612-0.3c0.379-0.102,0.757-0.203,1.135-0.307
		c0.443-0.097,1.053,0.415,1.631,0.415c0.772-0.294,1.453,0.469,2.135,0.045c0.477-0.298,0.449-0.748,0.753-1.152
		c0.35-0.471,0.771-0.795,0.991-1.331c0.256-0.638,0.312-1.43,0.372-2.168c0.085-1.104,0.23-2.194,0.305-3.346
		c0.033-0.532-0.096-1.083,0.002-1.613c0.108-0.594,0.947-0.826,0.947-1.45c0.064-0.066,0.091-0.09,0-0.09
		c-0.098-0.249-0.182-0.584-0.402-0.759c-0.454-0.361-1.191-0.418-1.758-0.538c-0.592-0.13-1.179-0.387-1.741-0.538
		c-0.663-0.182-1.264-0.226-1.825-0.585c-0.387-0.248-0.803-1.487-1.261-1.971c-0.198-0.208-0.956-0.446-0.956-0.482
		c-0.304-0.39-0.607-0.779-0.911-1.169c-0.232-0.189-0.46-0.379-0.692-0.57c-0.426-0.481-0.709-0.979-1.067-1.476
		c-0.259-0.327-0.519-0.653-0.778-0.984c-0.178-0.305-0.601-2.007-0.562-2.388c0.039-0.414,0.282-0.727,0.282-1.181
		c0-0.449-0.241-0.7-0.266-1.087c0.063-0.361,0.125-0.718,0.184-1.079c0.121-1.319,0.093-2.73,0.514-3.899
		c0.19-0.529,0.98-3.772,1.399-3.772c-0.076-0.585,0.408-1.546,0.568-2.099c0.149-0.592,0.298-1.181,0.445-1.775
		c0.26-0.716,0.812-1.761,1.224-2.402c0.113-0.143,0.226-0.285,0.34-0.428c0.287-0.532,0.309-1.202,0.625-1.721
		c0.096-0.16,0.256-0.513,0.5-0.513c-0.027-0.218-0.043-0.421,0.044-0.613c0.496-0.637,0.993-1.275,1.49-1.913
		c0.532-0.728,1.069-1.455,1.602-2.184c0.203-0.309,0.231-0.61,0.362-0.951c0.071-0.203,0.264-0.524,0.075-0.72
		c-0.251-0.263-0.584,0.004-0.791,0.128c-1.05,0.613-1.759,1.49-2.568,2.41c-0.583,0.656-1.269,1.208-1.783,1.921
		c-0.171,0.436-0.342,0.875-0.513,1.308c-0.352,0.503-0.782,0.897-1.089,1.416c-0.147,0.395-0.293,0.791-0.44,1.183
		c-0.243,0.451-0.481,0.902-0.725,1.354c-1.349-0.35-2.909-0.519-4.229-0.951c-0.7-0.229-1.314-0.734-2.026-0.971
		c-0.445-0.149-1.092-0.214-1.45-0.499c-0.57-0.455-1.303-1.087-1.72-1.682c-0.226-0.382-0.449-0.761-0.674-1.143
		c-0.398-0.57-0.928-1.108-1.196-1.743c-0.056-0.136-0.19-0.497-0.108-0.664c0.127-0.27,0.48-0.324,0.692-0.532
		c0.417-0.421,0.714-1.622,0.24-2.113c-0.379-0.392-0.824-0.297-1.29-0.169c-0.394,0.106-0.787-0.093-1.139,0.099
		c-0.764,0.412-1.04,1.642-2.082,1.56c-0.272-0.078-0.542-0.158-0.813-0.24c-1.746-0.445-1.746-1.865-1.718-3.501
		c0.012-0.738,0.028-1.62,0.355-2.207c0.211-0.384,0.74-0.567,1.119-0.688c1.272-0.416,2.64,0.327,3.307,1.268
		c0.231,0.331,0.304,0.69,0.677,0.932c0.242,0.079,0.488,0.158,0.731,0.238c0.206,0.123,0.414,0.251,0.62,0.375
		c0.562,0.271,1.148,0.351,1.859,0.351c0.533-0.203,1.211,0.157,1.721,0.233c0.539,0.015,1.08,0.027,1.62,0.039
		c0.644-0.38,1.159-0.062,1.811,0.048c0.539,0.045,1.081,0.09,1.62,0.132c0.86-0.529,2.48,0,3.521,0
		c0.181-0.03,0.361-0.059,0.541-0.09c0.559-0.307,1.211-0.271,1.897-0.271c0.18-0.03,0.361-0.059,0.54-0.091
		c0.479-0.333,1.006-0.269,1.626-0.269c0.889-0.523,1.885-0.542,3.07-0.542c0.35-0.113,0.7-0.226,1.05-0.339
		c0.354-0.16,0.644-0.463,0.968-0.703C84.417,76.72,85.011,76.207,85.628,75.208z"/>
	<path fill="#FFFFFF" d="M48.701,78.187c1.289,0,4.328,1.021,3.634,2.718c-0.105,0.248-0.222,0.538-0.445,0.731
		c-0.567,0.477-1.801,1.097-2.63,0.902c-0.253-0.144-0.508-0.285-0.764-0.429c-0.398-0.24-0.664-0.442-0.722-0.95
		c-0.046-0.362,0.129-0.666,0.183-0.99C48.108,79.22,48.105,78.918,48.701,78.187z"/>
	<path fill="#FFFFFF" d="M52.673,83.423c0.353,0.223,0.519,0.601,0.86,0.83c0.886,0.59,2.334,0.773,1.882,2.248
		c-0.093,0.299-0.166,0.623-0.451,0.812c-1.061,0.695-3.927,0.41-4.565-0.685c-0.237-0.407-0.143-1.05-0.03-1.482
		C50.619,84.174,52.011,83.973,52.673,83.423z"/>
	<path fill="#F5A627" d="M57.82,85.138c0.298,0.009,0.606,0.019,0.838,0.176c0.49,0.333,0.724,1.058,1.094,1.504
		c0.344,0.417,0.825,0.556,1.16,0.91c0.325,0.458,0.653,0.919,0.977,1.375c0.563,0.796,2.375,2.441,1.907,3.491
		c-0.231,0.511-1.205,1.122-1.777,0.914c-0.127-0.112-0.254-0.223-0.385-0.336c-0.623-0.472-1.329-0.893-1.677-1.651
		c-0.048-0.101-0.156-0.333,0.03-0.333c-0.153-0.928,0.722-1.608,0.324-2.514c-0.4-0.906-2.942-2.593-2.942-3.174
		C57.518,85.379,57.671,85.261,57.82,85.138z"/>
	<path fill="#FFFFFF" d="M56.917,88.299c0.472,0.11,0.609,0.439,0.931,0.782c1.016,1.08,0.065,2.257-1.126,2.5
		c-0.428,0.085-0.826-0.078-1.249-0.062c-0.299,0.009-0.867,0.237-1.125,0.054c-0.387-0.274-0.361-1.264-0.07-1.587
		c0.277-0.113,0.554-0.225,0.83-0.34c0.3-0.271,0.603-0.539,0.902-0.809C56.309,88.657,56.615,88.479,56.917,88.299z"/>
	<path fill="#FFFFFF" d="M113.617,113.489c0.631,0.244,1.199,0.386,1.749,0.791c1.419,1.041,2.769,2.666,4.576,2.964
		c0.446,0.033,0.892,0.069,1.338,0.102c0.25,0.088,0.505,0.175,0.756,0.259c0.577,0.04,2.381-0.872,2.744-0.005
		c0.313,0.745-0.468,1.156-0.899,1.552c-0.175,0.183-0.349,0.367-0.525,0.547c-0.117,0.081-0.439,0.075-0.439,0.201
		c-0.443,0.237-0.703,0.695-1.202,0.818c-0.863,0.209-1.744,0.22-2.682,0.297c-0.451,0.065-0.902,0.128-1.356,0.192
		c-0.973,0.014-2.471-0.158-3.301-0.488c-0.39-0.249-0.779-0.496-1.171-0.744c-0.502-0.323-1.004-0.653-1.148-1.264
		c-0.252-1.055,0.439-1.478,0.671-2.26c0.12-0.302,0.246-0.601,0.367-0.903C113.309,114.7,112.967,114.18,113.617,113.489z"/>
	<path fill="#FFFFFF" d="M33.082,139.13c0.208,0,1.264-0.063,1.264,0.089c0.031,0,0.062,0,0.09,0c0,0.06,0,0.121,0,0.181
		c-0.24,0.027-0.477,0.061-0.716,0.088c-0.271-0.015-0.542-0.027-0.812-0.043c-0.247,0.066-0.488,0.13-0.734,0.195
		c-0.449,0.023-0.895,0.046-1.344,0.069c-1.035,0.153-2.029,0.653-3.058,0.274c-0.079-0.031-0.108-0.018-0.108-0.13
		c0.147-0.02,0.632-0.023,0.632-0.181c0.031,0,0.063,0,0.09,0c0.421,0,0.844,0,1.263,0c0.241-0.03,0.482-0.059,0.722-0.088
		c0.18-0.031,0.361-0.061,0.542-0.091c0.226-0.106,0.619-0.091,0.901-0.091C32.184,139.215,32.706,139.3,33.082,139.13z"/>
	<path fill="#FFFFFF" d="M46.083,139.13c0.072,0.448-1.685,0.631-2.078,0.631c0-0.03,0-0.06,0-0.091c0.031,0,0.063,0,0.091,0
		c0.211-0.168,0.516-0.27,0.812-0.27c0.27-0.03,0.541-0.06,0.812-0.09c0.121-0.031,0.243-0.06,0.362-0.091
		C46.083,139.189,46.083,139.162,46.083,139.13z"/>
	<path d="M159.121,141.838c-0.455,0.136-1.016,0.082-1.536,0.09c-0.572,0.031-1.142,0.064-1.716,0.094
		c-1.507,0.162-3.012,0.33-4.519,0.492c-0.99,0-1.981,0-2.974-0.002c-0.273,0.07-0.545,0.144-0.818,0.214
		c-0.321,0.006-0.644,0.013-0.966,0.017c-0.625,0.148-1.142,0.431-1.831,0.523c-1.681,0.21-3.363-0.012-5.142,0.017
		c-0.297,0.021-0.59,0.042-0.887,0.063c-0.246,0.07-0.49,0.141-0.739,0.208c-0.075,0.072-0.09,0.06-0.09,0.18
		c0.721,1.176,0.739,1.264,2.347,1.264c0.18-0.03,0.361-0.059,0.541-0.09c0.211-0.031,0.424-0.06,0.632-0.09
		c0.18-0.031,0.362-0.06,0.542-0.091c0.674-0.394,2.688-0.18,3.611-0.18c0.18-0.03,0.361-0.06,0.541-0.09
		c0.212-0.031,0.425-0.06,0.633-0.091c0.226-0.105,0.619-0.09,0.902-0.09c0.18-0.03,0.361-0.061,0.541-0.091
		c0.262-0.12,0.668-0.089,0.993-0.089c0.31-0.159,0.866-0.09,1.263-0.09c0.212-0.031,0.425-0.061,0.633-0.091
		c0.27-0.03,0.542-0.06,0.812-0.09c0.31-0.158,0.872-0.091,1.263-0.091c0.182-0.03,0.361-0.058,0.542-0.09
		c0.24-0.03,0.482-0.059,0.722-0.09c0.296-0.151,0.801-0.09,1.174-0.09c0.296-0.151,0.801-0.091,1.173-0.091
		c0.181-0.03,0.361-0.06,0.541-0.09c0.241-0.03,0.482-0.059,0.722-0.09c0.241-0.03,0.482-0.06,0.722-0.09
		c0.347-0.206,0.963-0.132,1.192-0.551C160.206,142.076,159.397,141.904,159.121,141.838z"/>
</g>
</svg>
